<?xml version="1.0" encoding="utf-8" standalone="no"?>
<!DOCTYPE svg PUBLIC "-//W3C//DTD SVG 1.1//EN"
  "http://www.w3.org/Graphics/SVG/1.1/DTD/svg11.dtd">
<svg xmlns:xlink="http://www.w3.org/1999/xlink" width="584.39952pt" height="325.19952pt" viewBox="0 0 584.39952 325.19952" xmlns="http://www.w3.org/2000/svg" version="1.1">
 <metadata>
  <rdf:RDF xmlns:dc="http://purl.org/dc/elements/1.1/" xmlns:cc="http://creativecommons.org/ns#" xmlns:rdf="http://www.w3.org/1999/02/22-rdf-syntax-ns#">
   <cc:Work>
    <dc:type rdf:resource="http://purl.org/dc/dcmitype/StillImage"/>
    <dc:date>2025-05-02T15:12:53.387600</dc:date>
    <dc:format>image/svg+xml</dc:format>
    <dc:creator>
     <cc:Agent>
      <dc:title>Matplotlib v3.10.1, https://matplotlib.org/</dc:title>
     </cc:Agent>
    </dc:creator>
   </cc:Work>
  </rdf:RDF>
 </metadata>
 <defs>
  <style type="text/css">*{stroke-linejoin: round; stroke-linecap: butt}</style>
 </defs>
 <g id="figure_1">
  <g id="patch_1">
   <path d="M 0 325.19952 
L 584.39952 325.19952 
L 584.39952 0 
L 0 0 
z
" style="fill: #ffffff"/>
  </g>
  <g id="subfigure_1">
   <g id="patch_2">
    <path d="M 4.19976 320.99976 
L 580.19976 320.99976 
L 580.19976 4.19976 
L 4.19976 4.19976 
L 4.19976 320.99976 
z
" style="fill: none"/>
   </g>
   <g id="axes_1">
    <g id="patch_3">
     <path d="M 53.31 282.239832 
L 297.670466 282.239832 
L 297.670466 41.73825 
L 53.31 41.73825 
z
" style="fill: #f5f6fc"/>
    </g>
    <g id="matplotlib.axis_1">
     <g id="xtick_1">
      <g id="line2d_1">
       <path d="M 64.465666 282.239832 
L 64.465666 41.73825 
" clip-path="url(#pe4d26c5f1f)" style="fill: none; stroke: #ffffff; stroke-linecap: round"/>
      </g>
      <g id="text_1">
       <!-- 0.0 -->
       <g style="fill: #262626" transform="translate(55.718948 300.098114) scale(0.11 -0.11)">
        <defs>
         <path id="DejaVuSans-30" d="M 2034 4250 
Q 1547 4250 1301 3770 
Q 1056 3291 1056 2328 
Q 1056 1369 1301 889 
Q 1547 409 2034 409 
Q 2525 409 2770 889 
Q 3016 1369 3016 2328 
Q 3016 3291 2770 3770 
Q 2525 4250 2034 4250 
z
M 2034 4750 
Q 2819 4750 3233 4129 
Q 3647 3509 3647 2328 
Q 3647 1150 3233 529 
Q 2819 -91 2034 -91 
Q 1250 -91 836 529 
Q 422 1150 422 2328 
Q 422 3509 836 4129 
Q 1250 4750 2034 4750 
z
" transform="scale(0.015625)"/>
         <path id="DejaVuSans-2e" d="M 684 794 
L 1344 794 
L 1344 0 
L 684 0 
L 684 794 
z
" transform="scale(0.015625)"/>
        </defs>
        <use xlink:href="#DejaVuSans-30"/>
        <use xlink:href="#DejaVuSans-2e" transform="translate(63.623047 0)"/>
        <use xlink:href="#DejaVuSans-30" transform="translate(95.410156 0)"/>
       </g>
      </g>
     </g>
     <g id="xtick_2">
      <g id="line2d_2">
       <path d="M 125.909796 282.239832 
L 125.909796 41.73825 
" clip-path="url(#pe4d26c5f1f)" style="fill: none; stroke: #ffffff; stroke-linecap: round"/>
      </g>
      <g id="text_2">
       <!-- 0.2 -->
       <g style="fill: #262626" transform="translate(117.163077 300.098114) scale(0.11 -0.11)">
        <defs>
         <path id="DejaVuSans-32" d="M 1228 531 
L 3431 531 
L 3431 0 
L 469 0 
L 469 531 
Q 828 903 1448 1529 
Q 2069 2156 2228 2338 
Q 2531 2678 2651 2914 
Q 2772 3150 2772 3378 
Q 2772 3750 2511 3984 
Q 2250 4219 1831 4219 
Q 1534 4219 1204 4116 
Q 875 4013 500 3803 
L 500 4441 
Q 881 4594 1212 4672 
Q 1544 4750 1819 4750 
Q 2544 4750 2975 4387 
Q 3406 4025 3406 3419 
Q 3406 3131 3298 2873 
Q 3191 2616 2906 2266 
Q 2828 2175 2409 1742 
Q 1991 1309 1228 531 
z
" transform="scale(0.015625)"/>
        </defs>
        <use xlink:href="#DejaVuSans-30"/>
        <use xlink:href="#DejaVuSans-2e" transform="translate(63.623047 0)"/>
        <use xlink:href="#DejaVuSans-32" transform="translate(95.410156 0)"/>
       </g>
      </g>
     </g>
     <g id="xtick_3">
      <g id="line2d_3">
       <path d="M 187.353925 282.239832 
L 187.353925 41.73825 
" clip-path="url(#pe4d26c5f1f)" style="fill: none; stroke: #ffffff; stroke-linecap: round"/>
      </g>
      <g id="text_3">
       <!-- 0.4 -->
       <g style="fill: #262626" transform="translate(178.607207 300.098114) scale(0.11 -0.11)">
        <defs>
         <path id="DejaVuSans-34" d="M 2419 4116 
L 825 1625 
L 2419 1625 
L 2419 4116 
z
M 2253 4666 
L 3047 4666 
L 3047 1625 
L 3713 1625 
L 3713 1100 
L 3047 1100 
L 3047 0 
L 2419 0 
L 2419 1100 
L 313 1100 
L 313 1709 
L 2253 4666 
z
" transform="scale(0.015625)"/>
        </defs>
        <use xlink:href="#DejaVuSans-30"/>
        <use xlink:href="#DejaVuSans-2e" transform="translate(63.623047 0)"/>
        <use xlink:href="#DejaVuSans-34" transform="translate(95.410156 0)"/>
       </g>
      </g>
     </g>
     <g id="xtick_4">
      <g id="line2d_4">
       <path d="M 248.798055 282.239832 
L 248.798055 41.73825 
" clip-path="url(#pe4d26c5f1f)" style="fill: none; stroke: #ffffff; stroke-linecap: round"/>
      </g>
      <g id="text_4">
       <!-- 0.6 -->
       <g style="fill: #262626" transform="translate(240.051336 300.098114) scale(0.11 -0.11)">
        <defs>
         <path id="DejaVuSans-36" d="M 2113 2584 
Q 1688 2584 1439 2293 
Q 1191 2003 1191 1497 
Q 1191 994 1439 701 
Q 1688 409 2113 409 
Q 2538 409 2786 701 
Q 3034 994 3034 1497 
Q 3034 2003 2786 2293 
Q 2538 2584 2113 2584 
z
M 3366 4563 
L 3366 3988 
Q 3128 4100 2886 4159 
Q 2644 4219 2406 4219 
Q 1781 4219 1451 3797 
Q 1122 3375 1075 2522 
Q 1259 2794 1537 2939 
Q 1816 3084 2150 3084 
Q 2853 3084 3261 2657 
Q 3669 2231 3669 1497 
Q 3669 778 3244 343 
Q 2819 -91 2113 -91 
Q 1303 -91 875 529 
Q 447 1150 447 2328 
Q 447 3434 972 4092 
Q 1497 4750 2381 4750 
Q 2619 4750 2861 4703 
Q 3103 4656 3366 4563 
z
" transform="scale(0.015625)"/>
        </defs>
        <use xlink:href="#DejaVuSans-30"/>
        <use xlink:href="#DejaVuSans-2e" transform="translate(63.623047 0)"/>
        <use xlink:href="#DejaVuSans-36" transform="translate(95.410156 0)"/>
       </g>
      </g>
     </g>
     <g id="text_5">
      <!-- CE Loss Increase -->
      <g style="fill: #262626" transform="translate(125.145546 315.503895) scale(0.12 -0.12)">
       <defs>
        <path id="DejaVuSans-43" d="M 4122 4306 
L 4122 3641 
Q 3803 3938 3442 4084 
Q 3081 4231 2675 4231 
Q 1875 4231 1450 3742 
Q 1025 3253 1025 2328 
Q 1025 1406 1450 917 
Q 1875 428 2675 428 
Q 3081 428 3442 575 
Q 3803 722 4122 1019 
L 4122 359 
Q 3791 134 3420 21 
Q 3050 -91 2638 -91 
Q 1578 -91 968 557 
Q 359 1206 359 2328 
Q 359 3453 968 4101 
Q 1578 4750 2638 4750 
Q 3056 4750 3426 4639 
Q 3797 4528 4122 4306 
z
" transform="scale(0.015625)"/>
        <path id="DejaVuSans-45" d="M 628 4666 
L 3578 4666 
L 3578 4134 
L 1259 4134 
L 1259 2753 
L 3481 2753 
L 3481 2222 
L 1259 2222 
L 1259 531 
L 3634 531 
L 3634 0 
L 628 0 
L 628 4666 
z
" transform="scale(0.015625)"/>
        <path id="DejaVuSans-20" transform="scale(0.015625)"/>
        <path id="DejaVuSans-4c" d="M 628 4666 
L 1259 4666 
L 1259 531 
L 3531 531 
L 3531 0 
L 628 0 
L 628 4666 
z
" transform="scale(0.015625)"/>
        <path id="DejaVuSans-6f" d="M 1959 3097 
Q 1497 3097 1228 2736 
Q 959 2375 959 1747 
Q 959 1119 1226 758 
Q 1494 397 1959 397 
Q 2419 397 2687 759 
Q 2956 1122 2956 1747 
Q 2956 2369 2687 2733 
Q 2419 3097 1959 3097 
z
M 1959 3584 
Q 2709 3584 3137 3096 
Q 3566 2609 3566 1747 
Q 3566 888 3137 398 
Q 2709 -91 1959 -91 
Q 1206 -91 779 398 
Q 353 888 353 1747 
Q 353 2609 779 3096 
Q 1206 3584 1959 3584 
z
" transform="scale(0.015625)"/>
        <path id="DejaVuSans-73" d="M 2834 3397 
L 2834 2853 
Q 2591 2978 2328 3040 
Q 2066 3103 1784 3103 
Q 1356 3103 1142 2972 
Q 928 2841 928 2578 
Q 928 2378 1081 2264 
Q 1234 2150 1697 2047 
L 1894 2003 
Q 2506 1872 2764 1633 
Q 3022 1394 3022 966 
Q 3022 478 2636 193 
Q 2250 -91 1575 -91 
Q 1294 -91 989 -36 
Q 684 19 347 128 
L 347 722 
Q 666 556 975 473 
Q 1284 391 1588 391 
Q 1994 391 2212 530 
Q 2431 669 2431 922 
Q 2431 1156 2273 1281 
Q 2116 1406 1581 1522 
L 1381 1569 
Q 847 1681 609 1914 
Q 372 2147 372 2553 
Q 372 3047 722 3315 
Q 1072 3584 1716 3584 
Q 2034 3584 2315 3537 
Q 2597 3491 2834 3397 
z
" transform="scale(0.015625)"/>
        <path id="DejaVuSans-49" d="M 628 4666 
L 1259 4666 
L 1259 0 
L 628 0 
L 628 4666 
z
" transform="scale(0.015625)"/>
        <path id="DejaVuSans-6e" d="M 3513 2113 
L 3513 0 
L 2938 0 
L 2938 2094 
Q 2938 2591 2744 2837 
Q 2550 3084 2163 3084 
Q 1697 3084 1428 2787 
Q 1159 2491 1159 1978 
L 1159 0 
L 581 0 
L 581 3500 
L 1159 3500 
L 1159 2956 
Q 1366 3272 1645 3428 
Q 1925 3584 2291 3584 
Q 2894 3584 3203 3211 
Q 3513 2838 3513 2113 
z
" transform="scale(0.015625)"/>
        <path id="DejaVuSans-63" d="M 3122 3366 
L 3122 2828 
Q 2878 2963 2633 3030 
Q 2388 3097 2138 3097 
Q 1578 3097 1268 2742 
Q 959 2388 959 1747 
Q 959 1106 1268 751 
Q 1578 397 2138 397 
Q 2388 397 2633 464 
Q 2878 531 3122 666 
L 3122 134 
Q 2881 22 2623 -34 
Q 2366 -91 2075 -91 
Q 1284 -91 818 406 
Q 353 903 353 1747 
Q 353 2603 823 3093 
Q 1294 3584 2113 3584 
Q 2378 3584 2631 3529 
Q 2884 3475 3122 3366 
z
" transform="scale(0.015625)"/>
        <path id="DejaVuSans-72" d="M 2631 2963 
Q 2534 3019 2420 3045 
Q 2306 3072 2169 3072 
Q 1681 3072 1420 2755 
Q 1159 2438 1159 1844 
L 1159 0 
L 581 0 
L 581 3500 
L 1159 3500 
L 1159 2956 
Q 1341 3275 1631 3429 
Q 1922 3584 2338 3584 
Q 2397 3584 2469 3576 
Q 2541 3569 2628 3553 
L 2631 2963 
z
" transform="scale(0.015625)"/>
        <path id="DejaVuSans-65" d="M 3597 1894 
L 3597 1613 
L 953 1613 
Q 991 1019 1311 708 
Q 1631 397 2203 397 
Q 2534 397 2845 478 
Q 3156 559 3463 722 
L 3463 178 
Q 3153 47 2828 -22 
Q 2503 -91 2169 -91 
Q 1331 -91 842 396 
Q 353 884 353 1716 
Q 353 2575 817 3079 
Q 1281 3584 2069 3584 
Q 2775 3584 3186 3129 
Q 3597 2675 3597 1894 
z
M 3022 2063 
Q 3016 2534 2758 2815 
Q 2500 3097 2075 3097 
Q 1594 3097 1305 2825 
Q 1016 2553 972 2059 
L 3022 2063 
z
" transform="scale(0.015625)"/>
        <path id="DejaVuSans-61" d="M 2194 1759 
Q 1497 1759 1228 1600 
Q 959 1441 959 1056 
Q 959 750 1161 570 
Q 1363 391 1709 391 
Q 2188 391 2477 730 
Q 2766 1069 2766 1631 
L 2766 1759 
L 2194 1759 
z
M 3341 1997 
L 3341 0 
L 2766 0 
L 2766 531 
Q 2569 213 2275 61 
Q 1981 -91 1556 -91 
Q 1019 -91 701 211 
Q 384 513 384 1019 
Q 384 1609 779 1909 
Q 1175 2209 1959 2209 
L 2766 2209 
L 2766 2266 
Q 2766 2663 2505 2880 
Q 2244 3097 1772 3097 
Q 1472 3097 1187 3025 
Q 903 2953 641 2809 
L 641 3341 
Q 956 3463 1253 3523 
Q 1550 3584 1831 3584 
Q 2591 3584 2966 3190 
Q 3341 2797 3341 1997 
z
" transform="scale(0.015625)"/>
       </defs>
       <use xlink:href="#DejaVuSans-43"/>
       <use xlink:href="#DejaVuSans-45" transform="translate(69.824219 0)"/>
       <use xlink:href="#DejaVuSans-20" transform="translate(133.007812 0)"/>
       <use xlink:href="#DejaVuSans-4c" transform="translate(164.794922 0)"/>
       <use xlink:href="#DejaVuSans-6f" transform="translate(218.757812 0)"/>
       <use xlink:href="#DejaVuSans-73" transform="translate(279.939453 0)"/>
       <use xlink:href="#DejaVuSans-73" transform="translate(332.039062 0)"/>
       <use xlink:href="#DejaVuSans-20" transform="translate(384.138672 0)"/>
       <use xlink:href="#DejaVuSans-49" transform="translate(415.925781 0)"/>
       <use xlink:href="#DejaVuSans-6e" transform="translate(445.417969 0)"/>
       <use xlink:href="#DejaVuSans-63" transform="translate(508.796875 0)"/>
       <use xlink:href="#DejaVuSans-72" transform="translate(563.777344 0)"/>
       <use xlink:href="#DejaVuSans-65" transform="translate(602.640625 0)"/>
       <use xlink:href="#DejaVuSans-61" transform="translate(664.164062 0)"/>
       <use xlink:href="#DejaVuSans-73" transform="translate(725.443359 0)"/>
       <use xlink:href="#DejaVuSans-65" transform="translate(777.542969 0)"/>
      </g>
     </g>
    </g>
    <g id="matplotlib.axis_2">
     <g id="ytick_1">
      <g id="line2d_5">
       <path d="M 53.31 264.828114 
L 297.670466 264.828114 
" clip-path="url(#pe4d26c5f1f)" style="fill: none; stroke: #ffffff; stroke-linecap: round"/>
      </g>
      <g id="text_6">
       <!-- 40 -->
       <g style="fill: #262626" transform="translate(29.8125 269.007254) scale(0.11 -0.11)">
        <use xlink:href="#DejaVuSans-34"/>
        <use xlink:href="#DejaVuSans-30" transform="translate(63.623047 0)"/>
       </g>
      </g>
     </g>
     <g id="ytick_2">
      <g id="line2d_6">
       <path d="M 53.31 231.238059 
L 297.670466 231.238059 
" clip-path="url(#pe4d26c5f1f)" style="fill: none; stroke: #ffffff; stroke-linecap: round"/>
      </g>
      <g id="text_7">
       <!-- 60 -->
       <g style="fill: #262626" transform="translate(29.8125 235.4172) scale(0.11 -0.11)">
        <use xlink:href="#DejaVuSans-36"/>
        <use xlink:href="#DejaVuSans-30" transform="translate(63.623047 0)"/>
       </g>
      </g>
     </g>
     <g id="ytick_3">
      <g id="line2d_7">
       <path d="M 53.31 197.648004 
L 297.670466 197.648004 
" clip-path="url(#pe4d26c5f1f)" style="fill: none; stroke: #ffffff; stroke-linecap: round"/>
      </g>
      <g id="text_8">
       <!-- 80 -->
       <g style="fill: #262626" transform="translate(29.8125 201.827145) scale(0.11 -0.11)">
        <defs>
         <path id="DejaVuSans-38" d="M 2034 2216 
Q 1584 2216 1326 1975 
Q 1069 1734 1069 1313 
Q 1069 891 1326 650 
Q 1584 409 2034 409 
Q 2484 409 2743 651 
Q 3003 894 3003 1313 
Q 3003 1734 2745 1975 
Q 2488 2216 2034 2216 
z
M 1403 2484 
Q 997 2584 770 2862 
Q 544 3141 544 3541 
Q 544 4100 942 4425 
Q 1341 4750 2034 4750 
Q 2731 4750 3128 4425 
Q 3525 4100 3525 3541 
Q 3525 3141 3298 2862 
Q 3072 2584 2669 2484 
Q 3125 2378 3379 2068 
Q 3634 1759 3634 1313 
Q 3634 634 3220 271 
Q 2806 -91 2034 -91 
Q 1263 -91 848 271 
Q 434 634 434 1313 
Q 434 1759 690 2068 
Q 947 2378 1403 2484 
z
M 1172 3481 
Q 1172 3119 1398 2916 
Q 1625 2713 2034 2713 
Q 2441 2713 2670 2916 
Q 2900 3119 2900 3481 
Q 2900 3844 2670 4047 
Q 2441 4250 2034 4250 
Q 1625 4250 1398 4047 
Q 1172 3844 1172 3481 
z
" transform="scale(0.015625)"/>
        </defs>
        <use xlink:href="#DejaVuSans-38"/>
        <use xlink:href="#DejaVuSans-30" transform="translate(63.623047 0)"/>
       </g>
      </g>
     </g>
     <g id="ytick_4">
      <g id="line2d_8">
       <path d="M 53.31 164.057949 
L 297.670466 164.057949 
" clip-path="url(#pe4d26c5f1f)" style="fill: none; stroke: #ffffff; stroke-linecap: round"/>
      </g>
      <g id="text_9">
       <!-- 100 -->
       <g style="fill: #262626" transform="translate(22.81375 168.23709) scale(0.11 -0.11)">
        <defs>
         <path id="DejaVuSans-31" d="M 794 531 
L 1825 531 
L 1825 4091 
L 703 3866 
L 703 4441 
L 1819 4666 
L 2450 4666 
L 2450 531 
L 3481 531 
L 3481 0 
L 794 0 
L 794 531 
z
" transform="scale(0.015625)"/>
        </defs>
        <use xlink:href="#DejaVuSans-31"/>
        <use xlink:href="#DejaVuSans-30" transform="translate(63.623047 0)"/>
        <use xlink:href="#DejaVuSans-30" transform="translate(127.246094 0)"/>
       </g>
      </g>
     </g>
     <g id="ytick_5">
      <g id="line2d_9">
       <path d="M 53.31 130.467895 
L 297.670466 130.467895 
" clip-path="url(#pe4d26c5f1f)" style="fill: none; stroke: #ffffff; stroke-linecap: round"/>
      </g>
      <g id="text_10">
       <!-- 120 -->
       <g style="fill: #262626" transform="translate(22.81375 134.647035) scale(0.11 -0.11)">
        <use xlink:href="#DejaVuSans-31"/>
        <use xlink:href="#DejaVuSans-32" transform="translate(63.623047 0)"/>
        <use xlink:href="#DejaVuSans-30" transform="translate(127.246094 0)"/>
       </g>
      </g>
     </g>
     <g id="ytick_6">
      <g id="line2d_10">
       <path d="M 53.31 96.87784 
L 297.670466 96.87784 
" clip-path="url(#pe4d26c5f1f)" style="fill: none; stroke: #ffffff; stroke-linecap: round"/>
      </g>
      <g id="text_11">
       <!-- 140 -->
       <g style="fill: #262626" transform="translate(22.81375 101.056981) scale(0.11 -0.11)">
        <use xlink:href="#DejaVuSans-31"/>
        <use xlink:href="#DejaVuSans-34" transform="translate(63.623047 0)"/>
        <use xlink:href="#DejaVuSans-30" transform="translate(127.246094 0)"/>
       </g>
      </g>
     </g>
     <g id="ytick_7">
      <g id="line2d_11">
       <path d="M 53.31 63.287785 
L 297.670466 63.287785 
" clip-path="url(#pe4d26c5f1f)" style="fill: none; stroke: #ffffff; stroke-linecap: round"/>
      </g>
      <g id="text_12">
       <!-- 160 -->
       <g style="fill: #262626" transform="translate(22.81375 67.466926) scale(0.11 -0.11)">
        <use xlink:href="#DejaVuSans-31"/>
        <use xlink:href="#DejaVuSans-36" transform="translate(63.623047 0)"/>
        <use xlink:href="#DejaVuSans-30" transform="translate(127.246094 0)"/>
       </g>
      </g>
     </g>
     <g id="text_13">
      <!-- L0 -->
      <g style="fill: #262626" transform="translate(16.318125 169.149666) rotate(-90) scale(0.12 -0.12)">
       <use xlink:href="#DejaVuSans-4c"/>
       <use xlink:href="#DejaVuSans-30" transform="translate(55.712891 0)"/>
      </g>
     </g>
    </g>
    <g id="line2d_12">
     <path d="M 264.309947 262.24429 
L 181.484298 256.860447 
L 132.765766 248.010943 
L 64.607153 218.238502 
L 64.628322 192.069691 
L 64.602205 142.666482 
" clip-path="url(#pe4d26c5f1f)" style="fill: none; stroke: #1f77b4; stroke-width: 1.1; stroke-linecap: round"/>
     <defs>
      <path id="mfec7b5d979" d="M 0 3 
C 0.795609 3 1.55874 2.683901 2.12132 2.12132 
C 2.683901 1.55874 3 0.795609 3 0 
C 3 -0.795609 2.683901 -1.55874 2.12132 -2.12132 
C 1.55874 -2.683901 0.795609 -3 0 -3 
C -0.795609 -3 -1.55874 -2.683901 -2.12132 -2.12132 
C -2.683901 -1.55874 -3 -0.795609 -3 0 
C -3 0.795609 -2.683901 1.55874 -2.12132 2.12132 
C -1.55874 2.683901 -0.795609 3 0 3 
z
" style="stroke: #1f77b4"/>
     </defs>
     <g clip-path="url(#pe4d26c5f1f)">
      <use xlink:href="#mfec7b5d979" x="264.309947" y="262.24429" style="fill: #1f77b4; stroke: #1f77b4"/>
      <use xlink:href="#mfec7b5d979" x="181.484298" y="256.860447" style="fill: #1f77b4; stroke: #1f77b4"/>
      <use xlink:href="#mfec7b5d979" x="132.765766" y="248.010943" style="fill: #1f77b4; stroke: #1f77b4"/>
      <use xlink:href="#mfec7b5d979" x="64.607153" y="218.238502" style="fill: #1f77b4; stroke: #1f77b4"/>
      <use xlink:href="#mfec7b5d979" x="64.628322" y="192.069691" style="fill: #1f77b4; stroke: #1f77b4"/>
      <use xlink:href="#mfec7b5d979" x="64.602205" y="142.666482" style="fill: #1f77b4; stroke: #1f77b4"/>
     </g>
    </g>
    <g id="line2d_13">
     <path d="M 280.651905 271.307942 
L 270.185256 269.496756 
L 286.563172 268.197128 
L 219.675561 264.272014 
L 180.057605 257.214225 
L 170.394858 254.382872 
L 108.432827 241.412865 
L 64.647609 208.683076 
L 64.58534 182.52425 
L 64.57455 135.101103 
" clip-path="url(#pe4d26c5f1f)" style="fill: none; stroke: #ff7f0e; stroke-width: 1.1; stroke-linecap: round"/>
     <defs>
      <path id="m66b8451fd0" d="M 0 3 
C 0.795609 3 1.55874 2.683901 2.12132 2.12132 
C 2.683901 1.55874 3 0.795609 3 0 
C 3 -0.795609 2.683901 -1.55874 2.12132 -2.12132 
C 1.55874 -2.683901 0.795609 -3 0 -3 
C -0.795609 -3 -1.55874 -2.683901 -2.12132 -2.12132 
C -2.683901 -1.55874 -3 -0.795609 -3 0 
C -3 0.795609 -2.683901 1.55874 -2.12132 2.12132 
C -1.55874 2.683901 -0.795609 3 0 3 
z
" style="stroke: #ff7f0e"/>
     </defs>
     <g clip-path="url(#pe4d26c5f1f)">
      <use xlink:href="#m66b8451fd0" x="280.651905" y="271.307942" style="fill: #ff7f0e; stroke: #ff7f0e"/>
      <use xlink:href="#m66b8451fd0" x="270.185256" y="269.496756" style="fill: #ff7f0e; stroke: #ff7f0e"/>
      <use xlink:href="#m66b8451fd0" x="286.563172" y="268.197128" style="fill: #ff7f0e; stroke: #ff7f0e"/>
      <use xlink:href="#m66b8451fd0" x="219.675561" y="264.272014" style="fill: #ff7f0e; stroke: #ff7f0e"/>
      <use xlink:href="#m66b8451fd0" x="180.057605" y="257.214225" style="fill: #ff7f0e; stroke: #ff7f0e"/>
      <use xlink:href="#m66b8451fd0" x="170.394858" y="254.382872" style="fill: #ff7f0e; stroke: #ff7f0e"/>
      <use xlink:href="#m66b8451fd0" x="108.432827" y="241.412865" style="fill: #ff7f0e; stroke: #ff7f0e"/>
      <use xlink:href="#m66b8451fd0" x="64.647609" y="208.683076" style="fill: #ff7f0e; stroke: #ff7f0e"/>
      <use xlink:href="#m66b8451fd0" x="64.58534" y="182.52425" style="fill: #ff7f0e; stroke: #ff7f0e"/>
      <use xlink:href="#m66b8451fd0" x="64.57455" y="135.101103" style="fill: #ff7f0e; stroke: #ff7f0e"/>
     </g>
    </g>
    <g id="line2d_14">
     <path d="M 252.860838 267.769112 
L 208.852061 262.878308 
L 234.677111 262.412856 
L 199.779348 261.975189 
L 178.310111 258.847338 
L 163.856003 256.304151 
L 73.376081 229.915974 
L 64.554492 195.562779 
L 64.523493 171.817937 
L 64.530935 117.951345 
" clip-path="url(#pe4d26c5f1f)" style="fill: none; stroke: #2ca02c; stroke-width: 1.1; stroke-linecap: round"/>
     <defs>
      <path id="mdb9af28cfd" d="M 0 3 
C 0.795609 3 1.55874 2.683901 2.12132 2.12132 
C 2.683901 1.55874 3 0.795609 3 0 
C 3 -0.795609 2.683901 -1.55874 2.12132 -2.12132 
C 1.55874 -2.683901 0.795609 -3 0 -3 
C -0.795609 -3 -1.55874 -2.683901 -2.12132 -2.12132 
C -2.683901 -1.55874 -3 -0.795609 -3 0 
C -3 0.795609 -2.683901 1.55874 -2.12132 2.12132 
C -1.55874 2.683901 -0.795609 3 0 3 
z
" style="stroke: #2ca02c"/>
     </defs>
     <g clip-path="url(#pe4d26c5f1f)">
      <use xlink:href="#mdb9af28cfd" x="252.860838" y="267.769112" style="fill: #2ca02c; stroke: #2ca02c"/>
      <use xlink:href="#mdb9af28cfd" x="208.852061" y="262.878308" style="fill: #2ca02c; stroke: #2ca02c"/>
      <use xlink:href="#mdb9af28cfd" x="234.677111" y="262.412856" style="fill: #2ca02c; stroke: #2ca02c"/>
      <use xlink:href="#mdb9af28cfd" x="199.779348" y="261.975189" style="fill: #2ca02c; stroke: #2ca02c"/>
      <use xlink:href="#mdb9af28cfd" x="178.310111" y="258.847338" style="fill: #2ca02c; stroke: #2ca02c"/>
      <use xlink:href="#mdb9af28cfd" x="163.856003" y="256.304151" style="fill: #2ca02c; stroke: #2ca02c"/>
      <use xlink:href="#mdb9af28cfd" x="73.376081" y="229.915974" style="fill: #2ca02c; stroke: #2ca02c"/>
      <use xlink:href="#mdb9af28cfd" x="64.554492" y="195.562779" style="fill: #2ca02c; stroke: #2ca02c"/>
      <use xlink:href="#mdb9af28cfd" x="64.523493" y="171.817937" style="fill: #2ca02c; stroke: #2ca02c"/>
      <use xlink:href="#mdb9af28cfd" x="64.530935" y="117.951345" style="fill: #2ca02c; stroke: #2ca02c"/>
     </g>
    </g>
    <g id="line2d_15">
     <path d="M 219.109721 260.606604 
L 183.580018 259.735217 
L 186.117177 259.310762 
L 157.243342 255.064888 
L 148.602111 253.842878 
L 142.047122 250.709563 
L 64.595475 218.65513 
L 64.574087 191.606701 
L 64.566235 155.46958 
L 64.648998 109.425702 
" clip-path="url(#pe4d26c5f1f)" style="fill: none; stroke: #d62728; stroke-width: 1.1; stroke-linecap: round"/>
     <defs>
      <path id="m8e4c5bfa1f" d="M 0 3 
C 0.795609 3 1.55874 2.683901 2.12132 2.12132 
C 2.683901 1.55874 3 0.795609 3 0 
C 3 -0.795609 2.683901 -1.55874 2.12132 -2.12132 
C 1.55874 -2.683901 0.795609 -3 0 -3 
C -0.795609 -3 -1.55874 -2.683901 -2.12132 -2.12132 
C -2.683901 -1.55874 -3 -0.795609 -3 0 
C -3 0.795609 -2.683901 1.55874 -2.12132 2.12132 
C -1.55874 2.683901 -0.795609 3 0 3 
z
" style="stroke: #d62728"/>
     </defs>
     <g clip-path="url(#pe4d26c5f1f)">
      <use xlink:href="#m8e4c5bfa1f" x="219.109721" y="260.606604" style="fill: #d62728; stroke: #d62728"/>
      <use xlink:href="#m8e4c5bfa1f" x="183.580018" y="259.735217" style="fill: #d62728; stroke: #d62728"/>
      <use xlink:href="#m8e4c5bfa1f" x="186.117177" y="259.310762" style="fill: #d62728; stroke: #d62728"/>
      <use xlink:href="#m8e4c5bfa1f" x="157.243342" y="255.064888" style="fill: #d62728; stroke: #d62728"/>
      <use xlink:href="#m8e4c5bfa1f" x="148.602111" y="253.842878" style="fill: #d62728; stroke: #d62728"/>
      <use xlink:href="#m8e4c5bfa1f" x="142.047122" y="250.709563" style="fill: #d62728; stroke: #d62728"/>
      <use xlink:href="#m8e4c5bfa1f" x="64.595475" y="218.65513" style="fill: #d62728; stroke: #d62728"/>
      <use xlink:href="#m8e4c5bfa1f" x="64.574087" y="191.606701" style="fill: #d62728; stroke: #d62728"/>
      <use xlink:href="#m8e4c5bfa1f" x="64.566235" y="155.46958" style="fill: #d62728; stroke: #d62728"/>
      <use xlink:href="#m8e4c5bfa1f" x="64.648998" y="109.425702" style="fill: #d62728; stroke: #d62728"/>
     </g>
    </g>
    <g id="line2d_16">
     <path d="M 172.477074 256.076145 
L 76.619492 231.559414 
L 64.61952 199.640023 
L 64.602996 177.649599 
L 64.613045 139.596041 
L 64.525392 94.976445 
" clip-path="url(#pe4d26c5f1f)" style="fill: none; stroke: #9467bd; stroke-width: 1.1; stroke-linecap: round"/>
     <defs>
      <path id="m130662b555" d="M 0 3 
C 0.795609 3 1.55874 2.683901 2.12132 2.12132 
C 2.683901 1.55874 3 0.795609 3 0 
C 3 -0.795609 2.683901 -1.55874 2.12132 -2.12132 
C 1.55874 -2.683901 0.795609 -3 0 -3 
C -0.795609 -3 -1.55874 -2.683901 -2.12132 -2.12132 
C -2.683901 -1.55874 -3 -0.795609 -3 0 
C -3 0.795609 -2.683901 1.55874 -2.12132 2.12132 
C -1.55874 2.683901 -0.795609 3 0 3 
z
" style="stroke: #9467bd"/>
     </defs>
     <g clip-path="url(#pe4d26c5f1f)">
      <use xlink:href="#m130662b555" x="172.477074" y="256.076145" style="fill: #9467bd; stroke: #9467bd"/>
      <use xlink:href="#m130662b555" x="76.619492" y="231.559414" style="fill: #9467bd; stroke: #9467bd"/>
      <use xlink:href="#m130662b555" x="64.61952" y="199.640023" style="fill: #9467bd; stroke: #9467bd"/>
      <use xlink:href="#m130662b555" x="64.602996" y="177.649599" style="fill: #9467bd; stroke: #9467bd"/>
      <use xlink:href="#m130662b555" x="64.613045" y="139.596041" style="fill: #9467bd; stroke: #9467bd"/>
      <use xlink:href="#m130662b555" x="64.525392" y="94.976445" style="fill: #9467bd; stroke: #9467bd"/>
     </g>
    </g>
    <g id="line2d_17">
     <path d="M 177.694899 256.093268 
L 127.587667 249.405009 
L 111.785435 245.187121 
L 84.649441 237.778803 
L 80.698064 236.277156 
L 64.565057 215.242356 
L 64.606758 195.821504 
L 64.620083 164.768148 
L 64.694282 119.815114 
L 64.45644 91.384281 
" clip-path="url(#pe4d26c5f1f)" style="fill: none; stroke: #8c564b; stroke-width: 1.1; stroke-linecap: round"/>
     <defs>
      <path id="m09b877135f" d="M 0 3 
C 0.795609 3 1.55874 2.683901 2.12132 2.12132 
C 2.683901 1.55874 3 0.795609 3 0 
C 3 -0.795609 2.683901 -1.55874 2.12132 -2.12132 
C 1.55874 -2.683901 0.795609 -3 0 -3 
C -0.795609 -3 -1.55874 -2.683901 -2.12132 -2.12132 
C -2.683901 -1.55874 -3 -0.795609 -3 0 
C -3 0.795609 -2.683901 1.55874 -2.12132 2.12132 
C -1.55874 2.683901 -0.795609 3 0 3 
z
" style="stroke: #8c564b"/>
     </defs>
     <g clip-path="url(#pe4d26c5f1f)">
      <use xlink:href="#m09b877135f" x="177.694899" y="256.093268" style="fill: #8c564b; stroke: #8c564b"/>
      <use xlink:href="#m09b877135f" x="127.587667" y="249.405009" style="fill: #8c564b; stroke: #8c564b"/>
      <use xlink:href="#m09b877135f" x="111.785435" y="245.187121" style="fill: #8c564b; stroke: #8c564b"/>
      <use xlink:href="#m09b877135f" x="84.649441" y="237.778803" style="fill: #8c564b; stroke: #8c564b"/>
      <use xlink:href="#m09b877135f" x="80.698064" y="236.277156" style="fill: #8c564b; stroke: #8c564b"/>
      <use xlink:href="#m09b877135f" x="64.565057" y="215.242356" style="fill: #8c564b; stroke: #8c564b"/>
      <use xlink:href="#m09b877135f" x="64.606758" y="195.821504" style="fill: #8c564b; stroke: #8c564b"/>
      <use xlink:href="#m09b877135f" x="64.620083" y="164.768148" style="fill: #8c564b; stroke: #8c564b"/>
      <use xlink:href="#m09b877135f" x="64.694282" y="119.815114" style="fill: #8c564b; stroke: #8c564b"/>
      <use xlink:href="#m09b877135f" x="64.45644" y="91.384281" style="fill: #8c564b; stroke: #8c564b"/>
     </g>
    </g>
    <g id="line2d_18">
     <path d="M 145.121974 251.579027 
L 112.427851 244.377648 
L 85.750667 238.439831 
L 78.644824 233.218467 
L 68.225944 231.26384 
L 64.616016 205.332961 
L 64.583436 179.3332 
L 64.573917 142.724883 
L 64.647331 104.928321 
L 64.591229 69.624283 
" clip-path="url(#pe4d26c5f1f)" style="fill: none; stroke: #e377c2; stroke-width: 1.1; stroke-linecap: round"/>
     <defs>
      <path id="m9c0ec1f30f" d="M 0 3 
C 0.795609 3 1.55874 2.683901 2.12132 2.12132 
C 2.683901 1.55874 3 0.795609 3 0 
C 3 -0.795609 2.683901 -1.55874 2.12132 -2.12132 
C 1.55874 -2.683901 0.795609 -3 0 -3 
C -0.795609 -3 -1.55874 -2.683901 -2.12132 -2.12132 
C -2.683901 -1.55874 -3 -0.795609 -3 0 
C -3 0.795609 -2.683901 1.55874 -2.12132 2.12132 
C -1.55874 2.683901 -0.795609 3 0 3 
z
" style="stroke: #e377c2"/>
     </defs>
     <g clip-path="url(#pe4d26c5f1f)">
      <use xlink:href="#m9c0ec1f30f" x="145.121974" y="251.579027" style="fill: #e377c2; stroke: #e377c2"/>
      <use xlink:href="#m9c0ec1f30f" x="112.427851" y="244.377648" style="fill: #e377c2; stroke: #e377c2"/>
      <use xlink:href="#m9c0ec1f30f" x="85.750667" y="238.439831" style="fill: #e377c2; stroke: #e377c2"/>
      <use xlink:href="#m9c0ec1f30f" x="78.644824" y="233.218467" style="fill: #e377c2; stroke: #e377c2"/>
      <use xlink:href="#m9c0ec1f30f" x="68.225944" y="231.26384" style="fill: #e377c2; stroke: #e377c2"/>
      <use xlink:href="#m9c0ec1f30f" x="64.616016" y="205.332961" style="fill: #e377c2; stroke: #e377c2"/>
      <use xlink:href="#m9c0ec1f30f" x="64.583436" y="179.3332" style="fill: #e377c2; stroke: #e377c2"/>
      <use xlink:href="#m9c0ec1f30f" x="64.573917" y="142.724883" style="fill: #e377c2; stroke: #e377c2"/>
      <use xlink:href="#m9c0ec1f30f" x="64.647331" y="104.928321" style="fill: #e377c2; stroke: #e377c2"/>
      <use xlink:href="#m9c0ec1f30f" x="64.591229" y="69.624283" style="fill: #e377c2; stroke: #e377c2"/>
     </g>
    </g>
    <g id="line2d_19">
     <path d="M 142.630084 250.313154 
L 131.961226 248.795749 
L 96.956253 241.689571 
L 69.566651 227.871784 
L 64.602398 213.472183 
L 64.638992 192.125973 
L 64.591616 166.757761 
L 64.549452 136.815108 
L 64.599914 98.540206 
L 64.417294 52.67014 
" clip-path="url(#pe4d26c5f1f)" style="fill: none; stroke: #7f7f7f; stroke-width: 1.1; stroke-linecap: round"/>
     <defs>
      <path id="m9b1d5f6d55" d="M 0 3 
C 0.795609 3 1.55874 2.683901 2.12132 2.12132 
C 2.683901 1.55874 3 0.795609 3 0 
C 3 -0.795609 2.683901 -1.55874 2.12132 -2.12132 
C 1.55874 -2.683901 0.795609 -3 0 -3 
C -0.795609 -3 -1.55874 -2.683901 -2.12132 -2.12132 
C -2.683901 -1.55874 -3 -0.795609 -3 0 
C -3 0.795609 -2.683901 1.55874 -2.12132 2.12132 
C -1.55874 2.683901 -0.795609 3 0 3 
z
" style="stroke: #7f7f7f"/>
     </defs>
     <g clip-path="url(#pe4d26c5f1f)">
      <use xlink:href="#m9b1d5f6d55" x="142.630084" y="250.313154" style="fill: #7f7f7f; stroke: #7f7f7f"/>
      <use xlink:href="#m9b1d5f6d55" x="131.961226" y="248.795749" style="fill: #7f7f7f; stroke: #7f7f7f"/>
      <use xlink:href="#m9b1d5f6d55" x="96.956253" y="241.689571" style="fill: #7f7f7f; stroke: #7f7f7f"/>
      <use xlink:href="#m9b1d5f6d55" x="69.566651" y="227.871784" style="fill: #7f7f7f; stroke: #7f7f7f"/>
      <use xlink:href="#m9b1d5f6d55" x="64.602398" y="213.472183" style="fill: #7f7f7f; stroke: #7f7f7f"/>
      <use xlink:href="#m9b1d5f6d55" x="64.638992" y="192.125973" style="fill: #7f7f7f; stroke: #7f7f7f"/>
      <use xlink:href="#m9b1d5f6d55" x="64.591616" y="166.757761" style="fill: #7f7f7f; stroke: #7f7f7f"/>
      <use xlink:href="#m9b1d5f6d55" x="64.549452" y="136.815108" style="fill: #7f7f7f; stroke: #7f7f7f"/>
      <use xlink:href="#m9b1d5f6d55" x="64.599914" y="98.540206" style="fill: #7f7f7f; stroke: #7f7f7f"/>
      <use xlink:href="#m9b1d5f6d55" x="64.417294" y="52.67014" style="fill: #7f7f7f; stroke: #7f7f7f"/>
     </g>
    </g>
    <g id="patch_4">
     <path d="M 53.31 282.239832 
L 53.31 41.73825 
" style="fill: none; stroke: #ffffff; stroke-width: 1.25; stroke-linejoin: miter; stroke-linecap: square"/>
    </g>
    <g id="patch_5">
     <path d="M 297.670466 282.239832 
L 297.670466 41.73825 
" style="fill: none; stroke: #ffffff; stroke-width: 1.25; stroke-linejoin: miter; stroke-linecap: square"/>
    </g>
    <g id="patch_6">
     <path d="M 53.31 282.239832 
L 297.670466 282.239832 
" style="fill: none; stroke: #ffffff; stroke-width: 1.25; stroke-linejoin: miter; stroke-linecap: square"/>
    </g>
    <g id="patch_7">
     <path d="M 53.31 41.73825 
L 297.670466 41.73825 
" style="fill: none; stroke: #ffffff; stroke-width: 1.25; stroke-linejoin: miter; stroke-linecap: square"/>
    </g>
    <g id="text_14">
     <!-- ← Better -->
     <g style="fill: #262626" transform="translate(154.151952 34.848531) scale(0.1 -0.1)">
      <defs>
       <path id="DejaVuSans-2190" d="M 313 1866 
L 313 2147 
L 1541 3375 
L 1916 3000 
L 1188 2272 
L 4997 2272 
L 4997 1741 
L 1188 1741 
L 1916 1013 
L 1541 638 
L 313 1866 
z
" transform="scale(0.015625)"/>
       <path id="DejaVuSans-42" d="M 1259 2228 
L 1259 519 
L 2272 519 
Q 2781 519 3026 730 
Q 3272 941 3272 1375 
Q 3272 1813 3026 2020 
Q 2781 2228 2272 2228 
L 1259 2228 
z
M 1259 4147 
L 1259 2741 
L 2194 2741 
Q 2656 2741 2882 2914 
Q 3109 3088 3109 3444 
Q 3109 3797 2882 3972 
Q 2656 4147 2194 4147 
L 1259 4147 
z
M 628 4666 
L 2241 4666 
Q 2963 4666 3353 4366 
Q 3744 4066 3744 3513 
Q 3744 3084 3544 2831 
Q 3344 2578 2956 2516 
Q 3422 2416 3680 2098 
Q 3938 1781 3938 1306 
Q 3938 681 3513 340 
Q 3088 0 2303 0 
L 628 0 
L 628 4666 
z
" transform="scale(0.015625)"/>
       <path id="DejaVuSans-74" d="M 1172 4494 
L 1172 3500 
L 2356 3500 
L 2356 3053 
L 1172 3053 
L 1172 1153 
Q 1172 725 1289 603 
Q 1406 481 1766 481 
L 2356 481 
L 2356 0 
L 1766 0 
Q 1100 0 847 248 
Q 594 497 594 1153 
L 594 3053 
L 172 3053 
L 172 3500 
L 594 3500 
L 594 4494 
L 1172 4494 
z
" transform="scale(0.015625)"/>
      </defs>
      <use xlink:href="#DejaVuSans-2190"/>
      <use xlink:href="#DejaVuSans-20" transform="translate(83.789062 0)"/>
      <use xlink:href="#DejaVuSans-42" transform="translate(115.576172 0)"/>
      <use xlink:href="#DejaVuSans-65" transform="translate(184.179688 0)"/>
      <use xlink:href="#DejaVuSans-74" transform="translate(245.703125 0)"/>
      <use xlink:href="#DejaVuSans-74" transform="translate(284.912109 0)"/>
      <use xlink:href="#DejaVuSans-65" transform="translate(324.121094 0)"/>
      <use xlink:href="#DejaVuSans-72" transform="translate(385.644531 0)"/>
     </g>
    </g>
    <g id="text_15">
     <!-- Better → -->
     <g style="fill: #262626" transform="translate(318.756876 174.602906) rotate(-90) scale(0.1 -0.1)">
      <defs>
       <path id="DejaVuSans-2192" d="M 5050 2147 
L 5050 1866 
L 3822 638 
L 3447 1013 
L 4175 1741 
L 366 1741 
L 366 2272 
L 4175 2272 
L 3447 3000 
L 3822 3375 
L 5050 2147 
z
" transform="scale(0.015625)"/>
      </defs>
      <use xlink:href="#DejaVuSans-42"/>
      <use xlink:href="#DejaVuSans-65" transform="translate(68.603516 0)"/>
      <use xlink:href="#DejaVuSans-74" transform="translate(130.126953 0)"/>
      <use xlink:href="#DejaVuSans-74" transform="translate(169.335938 0)"/>
      <use xlink:href="#DejaVuSans-65" transform="translate(208.544922 0)"/>
      <use xlink:href="#DejaVuSans-72" transform="translate(270.068359 0)"/>
      <use xlink:href="#DejaVuSans-20" transform="translate(311.181641 0)"/>
      <use xlink:href="#DejaVuSans-2192" transform="translate(342.96875 0)"/>
     </g>
    </g>
   </g>
   <g id="axes_2">
    <g id="patch_8">
     <path d="M 326.839054 282.239832 
L 571.19952 282.239832 
L 571.19952 41.73825 
L 326.839054 41.73825 
z
" style="fill: #f5f6fc"/>
    </g>
    <g id="matplotlib.axis_3">
     <g id="xtick_5">
      <g id="line2d_20">
       <path d="M 337.797417 282.239832 
L 337.797417 41.73825 
" clip-path="url(#p54c0ddb23a)" style="fill: none; stroke: #ffffff; stroke-linecap: round"/>
      </g>
      <g id="text_16">
       <!-- 0 -->
       <g style="fill: #262626" transform="translate(334.298042 300.098114) scale(0.11 -0.11)">
        <use xlink:href="#DejaVuSans-30"/>
       </g>
      </g>
     </g>
     <g id="xtick_6">
      <g id="line2d_21">
       <path d="M 405.582159 282.239832 
L 405.582159 41.73825 
" clip-path="url(#p54c0ddb23a)" style="fill: none; stroke: #ffffff; stroke-linecap: round"/>
      </g>
      <g id="text_17">
       <!-- 2 -->
       <g style="fill: #262626" transform="translate(402.082784 300.098114) scale(0.11 -0.11)">
        <use xlink:href="#DejaVuSans-32"/>
       </g>
      </g>
     </g>
     <g id="xtick_7">
      <g id="line2d_22">
       <path d="M 473.366901 282.239832 
L 473.366901 41.73825 
" clip-path="url(#p54c0ddb23a)" style="fill: none; stroke: #ffffff; stroke-linecap: round"/>
      </g>
      <g id="text_18">
       <!-- 4 -->
       <g style="fill: #262626" transform="translate(469.867526 300.098114) scale(0.11 -0.11)">
        <use xlink:href="#DejaVuSans-34"/>
       </g>
      </g>
     </g>
     <g id="xtick_8">
      <g id="line2d_23">
       <path d="M 541.151643 282.239832 
L 541.151643 41.73825 
" clip-path="url(#p54c0ddb23a)" style="fill: none; stroke: #ffffff; stroke-linecap: round"/>
      </g>
      <g id="text_19">
       <!-- 6 -->
       <g style="fill: #262626" transform="translate(537.652268 300.098114) scale(0.11 -0.11)">
        <use xlink:href="#DejaVuSans-36"/>
       </g>
      </g>
     </g>
     <g id="text_20">
      <!-- Reconstruction MSE -->
      <g style="fill: #262626" transform="translate(389.432724 315.503895) scale(0.12 -0.12)">
       <defs>
        <path id="DejaVuSans-52" d="M 2841 2188 
Q 3044 2119 3236 1894 
Q 3428 1669 3622 1275 
L 4263 0 
L 3584 0 
L 2988 1197 
Q 2756 1666 2539 1819 
Q 2322 1972 1947 1972 
L 1259 1972 
L 1259 0 
L 628 0 
L 628 4666 
L 2053 4666 
Q 2853 4666 3247 4331 
Q 3641 3997 3641 3322 
Q 3641 2881 3436 2590 
Q 3231 2300 2841 2188 
z
M 1259 4147 
L 1259 2491 
L 2053 2491 
Q 2509 2491 2742 2702 
Q 2975 2913 2975 3322 
Q 2975 3731 2742 3939 
Q 2509 4147 2053 4147 
L 1259 4147 
z
" transform="scale(0.015625)"/>
        <path id="DejaVuSans-75" d="M 544 1381 
L 544 3500 
L 1119 3500 
L 1119 1403 
Q 1119 906 1312 657 
Q 1506 409 1894 409 
Q 2359 409 2629 706 
Q 2900 1003 2900 1516 
L 2900 3500 
L 3475 3500 
L 3475 0 
L 2900 0 
L 2900 538 
Q 2691 219 2414 64 
Q 2138 -91 1772 -91 
Q 1169 -91 856 284 
Q 544 659 544 1381 
z
M 1991 3584 
L 1991 3584 
z
" transform="scale(0.015625)"/>
        <path id="DejaVuSans-69" d="M 603 3500 
L 1178 3500 
L 1178 0 
L 603 0 
L 603 3500 
z
M 603 4863 
L 1178 4863 
L 1178 4134 
L 603 4134 
L 603 4863 
z
" transform="scale(0.015625)"/>
        <path id="DejaVuSans-4d" d="M 628 4666 
L 1569 4666 
L 2759 1491 
L 3956 4666 
L 4897 4666 
L 4897 0 
L 4281 0 
L 4281 4097 
L 3078 897 
L 2444 897 
L 1241 4097 
L 1241 0 
L 628 0 
L 628 4666 
z
" transform="scale(0.015625)"/>
        <path id="DejaVuSans-53" d="M 3425 4513 
L 3425 3897 
Q 3066 4069 2747 4153 
Q 2428 4238 2131 4238 
Q 1616 4238 1336 4038 
Q 1056 3838 1056 3469 
Q 1056 3159 1242 3001 
Q 1428 2844 1947 2747 
L 2328 2669 
Q 3034 2534 3370 2195 
Q 3706 1856 3706 1288 
Q 3706 609 3251 259 
Q 2797 -91 1919 -91 
Q 1588 -91 1214 -16 
Q 841 59 441 206 
L 441 856 
Q 825 641 1194 531 
Q 1563 422 1919 422 
Q 2459 422 2753 634 
Q 3047 847 3047 1241 
Q 3047 1584 2836 1778 
Q 2625 1972 2144 2069 
L 1759 2144 
Q 1053 2284 737 2584 
Q 422 2884 422 3419 
Q 422 4038 858 4394 
Q 1294 4750 2059 4750 
Q 2388 4750 2728 4690 
Q 3069 4631 3425 4513 
z
" transform="scale(0.015625)"/>
       </defs>
       <use xlink:href="#DejaVuSans-52"/>
       <use xlink:href="#DejaVuSans-65" transform="translate(64.982422 0)"/>
       <use xlink:href="#DejaVuSans-63" transform="translate(126.505859 0)"/>
       <use xlink:href="#DejaVuSans-6f" transform="translate(181.486328 0)"/>
       <use xlink:href="#DejaVuSans-6e" transform="translate(242.667969 0)"/>
       <use xlink:href="#DejaVuSans-73" transform="translate(306.046875 0)"/>
       <use xlink:href="#DejaVuSans-74" transform="translate(358.146484 0)"/>
       <use xlink:href="#DejaVuSans-72" transform="translate(397.355469 0)"/>
       <use xlink:href="#DejaVuSans-75" transform="translate(438.46875 0)"/>
       <use xlink:href="#DejaVuSans-63" transform="translate(501.847656 0)"/>
       <use xlink:href="#DejaVuSans-74" transform="translate(556.828125 0)"/>
       <use xlink:href="#DejaVuSans-69" transform="translate(596.037109 0)"/>
       <use xlink:href="#DejaVuSans-6f" transform="translate(623.820312 0)"/>
       <use xlink:href="#DejaVuSans-6e" transform="translate(685.001953 0)"/>
       <use xlink:href="#DejaVuSans-20" transform="translate(748.380859 0)"/>
       <use xlink:href="#DejaVuSans-4d" transform="translate(780.167969 0)"/>
       <use xlink:href="#DejaVuSans-53" transform="translate(866.447266 0)"/>
       <use xlink:href="#DejaVuSans-45" transform="translate(929.923828 0)"/>
      </g>
     </g>
     <g id="text_21">
      <!-- 1e−5 -->
      <g style="fill: #262626" transform="translate(541.215926 313.744051) scale(0.11 -0.11)">
       <defs>
        <path id="DejaVuSans-2212" d="M 678 2272 
L 4684 2272 
L 4684 1741 
L 678 1741 
L 678 2272 
z
" transform="scale(0.015625)"/>
        <path id="DejaVuSans-35" d="M 691 4666 
L 3169 4666 
L 3169 4134 
L 1269 4134 
L 1269 2991 
Q 1406 3038 1543 3061 
Q 1681 3084 1819 3084 
Q 2600 3084 3056 2656 
Q 3513 2228 3513 1497 
Q 3513 744 3044 326 
Q 2575 -91 1722 -91 
Q 1428 -91 1123 -41 
Q 819 9 494 109 
L 494 744 
Q 775 591 1075 516 
Q 1375 441 1709 441 
Q 2250 441 2565 725 
Q 2881 1009 2881 1497 
Q 2881 1984 2565 2268 
Q 2250 2553 1709 2553 
Q 1456 2553 1204 2497 
Q 953 2441 691 2322 
L 691 4666 
z
" transform="scale(0.015625)"/>
       </defs>
       <use xlink:href="#DejaVuSans-31"/>
       <use xlink:href="#DejaVuSans-65" transform="translate(63.623047 0)"/>
       <use xlink:href="#DejaVuSans-2212" transform="translate(125.146484 0)"/>
       <use xlink:href="#DejaVuSans-35" transform="translate(208.935547 0)"/>
      </g>
     </g>
    </g>
    <g id="matplotlib.axis_4">
     <g id="ytick_8">
      <g id="line2d_24">
       <path d="M 326.839054 264.828114 
L 571.19952 264.828114 
" clip-path="url(#p54c0ddb23a)" style="fill: none; stroke: #ffffff; stroke-linecap: round"/>
      </g>
      <g id="line2d_25">
       <defs>
        <path id="m1262155fde" d="M 0 0 
L 6 0 
" style="stroke: #ffffff; stroke-width: 1.25"/>
       </defs>
       <g>
        <use xlink:href="#m1262155fde" x="571.19952" y="264.828114" style="fill: #ffffff; stroke: #ffffff; stroke-width: 1.25"/>
       </g>
      </g>
     </g>
     <g id="ytick_9">
      <g id="line2d_26">
       <path d="M 326.839054 231.238059 
L 571.19952 231.238059 
" clip-path="url(#p54c0ddb23a)" style="fill: none; stroke: #ffffff; stroke-linecap: round"/>
      </g>
      <g id="line2d_27">
       <g>
        <use xlink:href="#m1262155fde" x="571.19952" y="231.238059" style="fill: #ffffff; stroke: #ffffff; stroke-width: 1.25"/>
       </g>
      </g>
     </g>
     <g id="ytick_10">
      <g id="line2d_28">
       <path d="M 326.839054 197.648004 
L 571.19952 197.648004 
" clip-path="url(#p54c0ddb23a)" style="fill: none; stroke: #ffffff; stroke-linecap: round"/>
      </g>
      <g id="line2d_29">
       <g>
        <use xlink:href="#m1262155fde" x="571.19952" y="197.648004" style="fill: #ffffff; stroke: #ffffff; stroke-width: 1.25"/>
       </g>
      </g>
     </g>
     <g id="ytick_11">
      <g id="line2d_30">
       <path d="M 326.839054 164.057949 
L 571.19952 164.057949 
" clip-path="url(#p54c0ddb23a)" style="fill: none; stroke: #ffffff; stroke-linecap: round"/>
      </g>
      <g id="line2d_31">
       <g>
        <use xlink:href="#m1262155fde" x="571.19952" y="164.057949" style="fill: #ffffff; stroke: #ffffff; stroke-width: 1.25"/>
       </g>
      </g>
     </g>
     <g id="ytick_12">
      <g id="line2d_32">
       <path d="M 326.839054 130.467895 
L 571.19952 130.467895 
" clip-path="url(#p54c0ddb23a)" style="fill: none; stroke: #ffffff; stroke-linecap: round"/>
      </g>
      <g id="line2d_33">
       <g>
        <use xlink:href="#m1262155fde" x="571.19952" y="130.467895" style="fill: #ffffff; stroke: #ffffff; stroke-width: 1.25"/>
       </g>
      </g>
     </g>
     <g id="ytick_13">
      <g id="line2d_34">
       <path d="M 326.839054 96.87784 
L 571.19952 96.87784 
" clip-path="url(#p54c0ddb23a)" style="fill: none; stroke: #ffffff; stroke-linecap: round"/>
      </g>
      <g id="line2d_35">
       <g>
        <use xlink:href="#m1262155fde" x="571.19952" y="96.87784" style="fill: #ffffff; stroke: #ffffff; stroke-width: 1.25"/>
       </g>
      </g>
     </g>
     <g id="ytick_14">
      <g id="line2d_36">
       <path d="M 326.839054 63.287785 
L 571.19952 63.287785 
" clip-path="url(#p54c0ddb23a)" style="fill: none; stroke: #ffffff; stroke-linecap: round"/>
      </g>
      <g id="line2d_37">
       <g>
        <use xlink:href="#m1262155fde" x="571.19952" y="63.287785" style="fill: #ffffff; stroke: #ffffff; stroke-width: 1.25"/>
       </g>
      </g>
     </g>
    </g>
    <g id="line2d_38">
     <path d="M 534.732729 262.24429 
L 457.731704 256.860447 
L 404.910241 248.010943 
L 338.010683 218.238502 
L 338.012376 192.069691 
L 338.020058 142.666482 
" clip-path="url(#p54c0ddb23a)" style="fill: none; stroke: #1f77b4; stroke-width: 1.1; stroke-linecap: round"/>
     <g clip-path="url(#p54c0ddb23a)">
      <use xlink:href="#mfec7b5d979" x="534.732729" y="262.24429" style="fill: #1f77b4; stroke: #1f77b4"/>
      <use xlink:href="#mfec7b5d979" x="457.731704" y="256.860447" style="fill: #1f77b4; stroke: #1f77b4"/>
      <use xlink:href="#mfec7b5d979" x="404.910241" y="248.010943" style="fill: #1f77b4; stroke: #1f77b4"/>
      <use xlink:href="#mfec7b5d979" x="338.010683" y="218.238502" style="fill: #1f77b4; stroke: #1f77b4"/>
      <use xlink:href="#mfec7b5d979" x="338.012376" y="192.069691" style="fill: #1f77b4; stroke: #1f77b4"/>
      <use xlink:href="#mfec7b5d979" x="338.020058" y="142.666482" style="fill: #1f77b4; stroke: #1f77b4"/>
     </g>
    </g>
    <g id="line2d_39">
     <path d="M 557.254299 271.307942 
L 542.190688 269.496756 
L 560.092226 268.197128 
L 496.970908 264.272014 
L 452.403758 257.214225 
L 446.591398 254.382872 
L 376.843811 241.412865 
L 337.992148 208.683076 
L 338.00386 182.52425 
L 337.994408 135.101103 
" clip-path="url(#p54c0ddb23a)" style="fill: none; stroke: #ff7f0e; stroke-width: 1.1; stroke-linecap: round"/>
     <g clip-path="url(#p54c0ddb23a)">
      <use xlink:href="#m66b8451fd0" x="557.254299" y="271.307942" style="fill: #ff7f0e; stroke: #ff7f0e"/>
      <use xlink:href="#m66b8451fd0" x="542.190688" y="269.496756" style="fill: #ff7f0e; stroke: #ff7f0e"/>
      <use xlink:href="#m66b8451fd0" x="560.092226" y="268.197128" style="fill: #ff7f0e; stroke: #ff7f0e"/>
      <use xlink:href="#m66b8451fd0" x="496.970908" y="264.272014" style="fill: #ff7f0e; stroke: #ff7f0e"/>
      <use xlink:href="#m66b8451fd0" x="452.403758" y="257.214225" style="fill: #ff7f0e; stroke: #ff7f0e"/>
      <use xlink:href="#m66b8451fd0" x="446.591398" y="254.382872" style="fill: #ff7f0e; stroke: #ff7f0e"/>
      <use xlink:href="#m66b8451fd0" x="376.843811" y="241.412865" style="fill: #ff7f0e; stroke: #ff7f0e"/>
      <use xlink:href="#m66b8451fd0" x="337.992148" y="208.683076" style="fill: #ff7f0e; stroke: #ff7f0e"/>
      <use xlink:href="#m66b8451fd0" x="338.00386" y="182.52425" style="fill: #ff7f0e; stroke: #ff7f0e"/>
      <use xlink:href="#m66b8451fd0" x="337.994408" y="135.101103" style="fill: #ff7f0e; stroke: #ff7f0e"/>
     </g>
    </g>
    <g id="line2d_40">
     <path d="M 524.915493 267.769112 
L 483.86947 262.878308 
L 509.319645 262.412856 
L 479.58307 261.975189 
L 457.660007 258.847338 
L 442.22333 256.304151 
L 343.651853 229.915974 
L 338.001586 195.562779 
L 338.004287 171.817937 
L 338.0009 117.951345 
" clip-path="url(#p54c0ddb23a)" style="fill: none; stroke: #2ca02c; stroke-width: 1.1; stroke-linecap: round"/>
     <g clip-path="url(#p54c0ddb23a)">
      <use xlink:href="#mdb9af28cfd" x="524.915493" y="267.769112" style="fill: #2ca02c; stroke: #2ca02c"/>
      <use xlink:href="#mdb9af28cfd" x="483.86947" y="262.878308" style="fill: #2ca02c; stroke: #2ca02c"/>
      <use xlink:href="#mdb9af28cfd" x="509.319645" y="262.412856" style="fill: #2ca02c; stroke: #2ca02c"/>
      <use xlink:href="#mdb9af28cfd" x="479.58307" y="261.975189" style="fill: #2ca02c; stroke: #2ca02c"/>
      <use xlink:href="#mdb9af28cfd" x="457.660007" y="258.847338" style="fill: #2ca02c; stroke: #2ca02c"/>
      <use xlink:href="#mdb9af28cfd" x="442.22333" y="256.304151" style="fill: #2ca02c; stroke: #2ca02c"/>
      <use xlink:href="#mdb9af28cfd" x="343.651853" y="229.915974" style="fill: #2ca02c; stroke: #2ca02c"/>
      <use xlink:href="#mdb9af28cfd" x="338.001586" y="195.562779" style="fill: #2ca02c; stroke: #2ca02c"/>
      <use xlink:href="#mdb9af28cfd" x="338.004287" y="171.817937" style="fill: #2ca02c; stroke: #2ca02c"/>
      <use xlink:href="#mdb9af28cfd" x="338.0009" y="117.951345" style="fill: #2ca02c; stroke: #2ca02c"/>
     </g>
    </g>
    <g id="line2d_41">
     <path d="M 496.004504 260.606604 
L 458.752788 259.735217 
L 465.035818 259.310762 
L 430.494705 255.064888 
L 422.174103 253.842878 
L 416.048567 250.709563 
L 337.989237 218.65513 
L 337.998864 191.606701 
L 338.000702 155.46958 
L 337.986316 109.425702 
" clip-path="url(#p54c0ddb23a)" style="fill: none; stroke: #d62728; stroke-width: 1.1; stroke-linecap: round"/>
     <g clip-path="url(#p54c0ddb23a)">
      <use xlink:href="#m8e4c5bfa1f" x="496.004504" y="260.606604" style="fill: #d62728; stroke: #d62728"/>
      <use xlink:href="#m8e4c5bfa1f" x="458.752788" y="259.735217" style="fill: #d62728; stroke: #d62728"/>
      <use xlink:href="#m8e4c5bfa1f" x="465.035818" y="259.310762" style="fill: #d62728; stroke: #d62728"/>
      <use xlink:href="#m8e4c5bfa1f" x="430.494705" y="255.064888" style="fill: #d62728; stroke: #d62728"/>
      <use xlink:href="#m8e4c5bfa1f" x="422.174103" y="253.842878" style="fill: #d62728; stroke: #d62728"/>
      <use xlink:href="#m8e4c5bfa1f" x="416.048567" y="250.709563" style="fill: #d62728; stroke: #d62728"/>
      <use xlink:href="#m8e4c5bfa1f" x="337.989237" y="218.65513" style="fill: #d62728; stroke: #d62728"/>
      <use xlink:href="#m8e4c5bfa1f" x="337.998864" y="191.606701" style="fill: #d62728; stroke: #d62728"/>
      <use xlink:href="#m8e4c5bfa1f" x="338.000702" y="155.46958" style="fill: #d62728; stroke: #d62728"/>
      <use xlink:href="#m8e4c5bfa1f" x="337.986316" y="109.425702" style="fill: #d62728; stroke: #d62728"/>
     </g>
    </g>
    <g id="line2d_42">
     <path d="M 446.50234 256.076145 
L 347.200935 231.559414 
L 337.988109 199.640023 
L 337.987441 177.649599 
L 337.977194 139.596041 
L 337.977158 94.976445 
" clip-path="url(#p54c0ddb23a)" style="fill: none; stroke: #9467bd; stroke-width: 1.1; stroke-linecap: round"/>
     <g clip-path="url(#p54c0ddb23a)">
      <use xlink:href="#m130662b555" x="446.50234" y="256.076145" style="fill: #9467bd; stroke: #9467bd"/>
      <use xlink:href="#m130662b555" x="347.200935" y="231.559414" style="fill: #9467bd; stroke: #9467bd"/>
      <use xlink:href="#m130662b555" x="337.988109" y="199.640023" style="fill: #9467bd; stroke: #9467bd"/>
      <use xlink:href="#m130662b555" x="337.987441" y="177.649599" style="fill: #9467bd; stroke: #9467bd"/>
      <use xlink:href="#m130662b555" x="337.977194" y="139.596041" style="fill: #9467bd; stroke: #9467bd"/>
      <use xlink:href="#m130662b555" x="337.977158" y="94.976445" style="fill: #9467bd; stroke: #9467bd"/>
     </g>
    </g>
    <g id="line2d_43">
     <path d="M 453.499514 256.093268 
L 401.349624 249.405009 
L 387.038859 245.187121 
L 357.445226 237.778803 
L 354.231567 236.277156 
L 337.991624 215.242356 
L 337.988764 195.821504 
L 337.992166 164.768148 
L 337.978612 119.815114 
L 337.946348 91.384281 
" clip-path="url(#p54c0ddb23a)" style="fill: none; stroke: #8c564b; stroke-width: 1.1; stroke-linecap: round"/>
     <g clip-path="url(#p54c0ddb23a)">
      <use xlink:href="#m09b877135f" x="453.499514" y="256.093268" style="fill: #8c564b; stroke: #8c564b"/>
      <use xlink:href="#m09b877135f" x="401.349624" y="249.405009" style="fill: #8c564b; stroke: #8c564b"/>
      <use xlink:href="#m09b877135f" x="387.038859" y="245.187121" style="fill: #8c564b; stroke: #8c564b"/>
      <use xlink:href="#m09b877135f" x="357.445226" y="237.778803" style="fill: #8c564b; stroke: #8c564b"/>
      <use xlink:href="#m09b877135f" x="354.231567" y="236.277156" style="fill: #8c564b; stroke: #8c564b"/>
      <use xlink:href="#m09b877135f" x="337.991624" y="215.242356" style="fill: #8c564b; stroke: #8c564b"/>
      <use xlink:href="#m09b877135f" x="337.988764" y="195.821504" style="fill: #8c564b; stroke: #8c564b"/>
      <use xlink:href="#m09b877135f" x="337.992166" y="164.768148" style="fill: #8c564b; stroke: #8c564b"/>
      <use xlink:href="#m09b877135f" x="337.978612" y="119.815114" style="fill: #8c564b; stroke: #8c564b"/>
      <use xlink:href="#m09b877135f" x="337.946348" y="91.384281" style="fill: #8c564b; stroke: #8c564b"/>
     </g>
    </g>
    <g id="line2d_44">
     <path d="M 417.9877 251.579027 
L 382.896171 244.377648 
L 359.570811 238.439831 
L 350.635553 233.218467 
L 343.697934 231.26384 
L 337.994842 205.332961 
L 337.996225 179.3332 
L 337.993971 142.724883 
L 337.982287 104.928321 
L 337.975215 69.624283 
" clip-path="url(#p54c0ddb23a)" style="fill: none; stroke: #e377c2; stroke-width: 1.1; stroke-linecap: round"/>
     <g clip-path="url(#p54c0ddb23a)">
      <use xlink:href="#m9c0ec1f30f" x="417.9877" y="251.579027" style="fill: #e377c2; stroke: #e377c2"/>
      <use xlink:href="#m9c0ec1f30f" x="382.896171" y="244.377648" style="fill: #e377c2; stroke: #e377c2"/>
      <use xlink:href="#m9c0ec1f30f" x="359.570811" y="238.439831" style="fill: #e377c2; stroke: #e377c2"/>
      <use xlink:href="#m9c0ec1f30f" x="350.635553" y="233.218467" style="fill: #e377c2; stroke: #e377c2"/>
      <use xlink:href="#m9c0ec1f30f" x="343.697934" y="231.26384" style="fill: #e377c2; stroke: #e377c2"/>
      <use xlink:href="#m9c0ec1f30f" x="337.994842" y="205.332961" style="fill: #e377c2; stroke: #e377c2"/>
      <use xlink:href="#m9c0ec1f30f" x="337.996225" y="179.3332" style="fill: #e377c2; stroke: #e377c2"/>
      <use xlink:href="#m9c0ec1f30f" x="337.993971" y="142.724883" style="fill: #e377c2; stroke: #e377c2"/>
      <use xlink:href="#m9c0ec1f30f" x="337.982287" y="104.928321" style="fill: #e377c2; stroke: #e377c2"/>
      <use xlink:href="#m9c0ec1f30f" x="337.975215" y="69.624283" style="fill: #e377c2; stroke: #e377c2"/>
     </g>
    </g>
    <g id="line2d_45">
     <path d="M 416.35646 250.313154 
L 401.704262 248.795749 
L 371.707882 241.689571 
L 345.892117 227.871784 
L 337.993755 213.472183 
L 338.001232 192.125973 
L 337.998393 166.757761 
L 337.981353 136.815108 
L 337.994455 98.540206 
L 337.994874 52.67014 
" clip-path="url(#p54c0ddb23a)" style="fill: none; stroke: #7f7f7f; stroke-width: 1.1; stroke-linecap: round"/>
     <g clip-path="url(#p54c0ddb23a)">
      <use xlink:href="#m9b1d5f6d55" x="416.35646" y="250.313154" style="fill: #7f7f7f; stroke: #7f7f7f"/>
      <use xlink:href="#m9b1d5f6d55" x="401.704262" y="248.795749" style="fill: #7f7f7f; stroke: #7f7f7f"/>
      <use xlink:href="#m9b1d5f6d55" x="371.707882" y="241.689571" style="fill: #7f7f7f; stroke: #7f7f7f"/>
      <use xlink:href="#m9b1d5f6d55" x="345.892117" y="227.871784" style="fill: #7f7f7f; stroke: #7f7f7f"/>
      <use xlink:href="#m9b1d5f6d55" x="337.993755" y="213.472183" style="fill: #7f7f7f; stroke: #7f7f7f"/>
      <use xlink:href="#m9b1d5f6d55" x="338.001232" y="192.125973" style="fill: #7f7f7f; stroke: #7f7f7f"/>
      <use xlink:href="#m9b1d5f6d55" x="337.998393" y="166.757761" style="fill: #7f7f7f; stroke: #7f7f7f"/>
      <use xlink:href="#m9b1d5f6d55" x="337.981353" y="136.815108" style="fill: #7f7f7f; stroke: #7f7f7f"/>
      <use xlink:href="#m9b1d5f6d55" x="337.994455" y="98.540206" style="fill: #7f7f7f; stroke: #7f7f7f"/>
      <use xlink:href="#m9b1d5f6d55" x="337.994874" y="52.67014" style="fill: #7f7f7f; stroke: #7f7f7f"/>
     </g>
    </g>
    <g id="patch_9">
     <path d="M 326.839054 282.239832 
L 326.839054 41.73825 
" style="fill: none; stroke: #ffffff; stroke-width: 1.25; stroke-linejoin: miter; stroke-linecap: square"/>
    </g>
    <g id="patch_10">
     <path d="M 571.19952 282.239832 
L 571.19952 41.73825 
" style="fill: none; stroke: #ffffff; stroke-width: 1.25; stroke-linejoin: miter; stroke-linecap: square"/>
    </g>
    <g id="patch_11">
     <path d="M 326.839054 282.239832 
L 571.19952 282.239832 
" style="fill: none; stroke: #ffffff; stroke-width: 1.25; stroke-linejoin: miter; stroke-linecap: square"/>
    </g>
    <g id="patch_12">
     <path d="M 326.839054 41.73825 
L 571.19952 41.73825 
" style="fill: none; stroke: #ffffff; stroke-width: 1.25; stroke-linejoin: miter; stroke-linecap: square"/>
    </g>
    <g id="text_22">
     <!-- ← Better -->
     <g style="fill: #262626" transform="translate(427.681006 34.848531) scale(0.1 -0.1)">
      <use xlink:href="#DejaVuSans-2190"/>
      <use xlink:href="#DejaVuSans-20" transform="translate(83.789062 0)"/>
      <use xlink:href="#DejaVuSans-42" transform="translate(115.576172 0)"/>
      <use xlink:href="#DejaVuSans-65" transform="translate(184.179688 0)"/>
      <use xlink:href="#DejaVuSans-74" transform="translate(245.703125 0)"/>
      <use xlink:href="#DejaVuSans-74" transform="translate(284.912109 0)"/>
      <use xlink:href="#DejaVuSans-65" transform="translate(324.121094 0)"/>
      <use xlink:href="#DejaVuSans-72" transform="translate(385.644531 0)"/>
     </g>
    </g>
   </g>
   <g id="text_23">
    <!-- layer=4 -->
    <g style="fill: #262626" transform="translate(268.41501 18.14175) scale(0.144 -0.144)">
     <defs>
      <path id="DejaVuSans-Bold-6c" d="M 538 4863 
L 1656 4863 
L 1656 0 
L 538 0 
L 538 4863 
z
" transform="scale(0.015625)"/>
      <path id="DejaVuSans-Bold-61" d="M 2106 1575 
Q 1756 1575 1579 1456 
Q 1403 1338 1403 1106 
Q 1403 894 1545 773 
Q 1688 653 1941 653 
Q 2256 653 2472 879 
Q 2688 1106 2688 1447 
L 2688 1575 
L 2106 1575 
z
M 3816 1997 
L 3816 0 
L 2688 0 
L 2688 519 
Q 2463 200 2181 54 
Q 1900 -91 1497 -91 
Q 953 -91 614 226 
Q 275 544 275 1050 
Q 275 1666 698 1953 
Q 1122 2241 2028 2241 
L 2688 2241 
L 2688 2328 
Q 2688 2594 2478 2717 
Q 2269 2841 1825 2841 
Q 1466 2841 1156 2769 
Q 847 2697 581 2553 
L 581 3406 
Q 941 3494 1303 3539 
Q 1666 3584 2028 3584 
Q 2975 3584 3395 3211 
Q 3816 2838 3816 1997 
z
" transform="scale(0.015625)"/>
      <path id="DejaVuSans-Bold-79" d="M 78 3500 
L 1197 3500 
L 2138 1125 
L 2938 3500 
L 4056 3500 
L 2584 -331 
Q 2363 -916 2067 -1148 
Q 1772 -1381 1288 -1381 
L 641 -1381 
L 641 -647 
L 991 -647 
Q 1275 -647 1404 -556 
Q 1534 -466 1606 -231 
L 1638 -134 
L 78 3500 
z
" transform="scale(0.015625)"/>
      <path id="DejaVuSans-Bold-65" d="M 4031 1759 
L 4031 1441 
L 1416 1441 
Q 1456 1047 1700 850 
Q 1944 653 2381 653 
Q 2734 653 3104 758 
Q 3475 863 3866 1075 
L 3866 213 
Q 3469 63 3072 -14 
Q 2675 -91 2278 -91 
Q 1328 -91 801 392 
Q 275 875 275 1747 
Q 275 2603 792 3093 
Q 1309 3584 2216 3584 
Q 3041 3584 3536 3087 
Q 4031 2591 4031 1759 
z
M 2881 2131 
Q 2881 2450 2695 2645 
Q 2509 2841 2209 2841 
Q 1884 2841 1681 2658 
Q 1478 2475 1428 2131 
L 2881 2131 
z
" transform="scale(0.015625)"/>
      <path id="DejaVuSans-Bold-72" d="M 3138 2547 
Q 2991 2616 2845 2648 
Q 2700 2681 2553 2681 
Q 2122 2681 1889 2404 
Q 1656 2128 1656 1613 
L 1656 0 
L 538 0 
L 538 3500 
L 1656 3500 
L 1656 2925 
Q 1872 3269 2151 3426 
Q 2431 3584 2822 3584 
Q 2878 3584 2943 3579 
Q 3009 3575 3134 3559 
L 3138 2547 
z
" transform="scale(0.015625)"/>
      <path id="DejaVuSans-Bold-3d" d="M 678 3084 
L 4684 3084 
L 4684 2350 
L 678 2350 
L 678 3084 
z
M 678 1663 
L 4684 1663 
L 4684 922 
L 678 922 
L 678 1663 
z
" transform="scale(0.015625)"/>
      <path id="DejaVuSans-Bold-34" d="M 2356 3675 
L 1038 1722 
L 2356 1722 
L 2356 3675 
z
M 2156 4666 
L 3494 4666 
L 3494 1722 
L 4159 1722 
L 4159 850 
L 3494 850 
L 3494 0 
L 2356 0 
L 2356 850 
L 288 850 
L 288 1881 
L 2156 4666 
z
" transform="scale(0.015625)"/>
     </defs>
     <use xlink:href="#DejaVuSans-Bold-6c"/>
     <use xlink:href="#DejaVuSans-Bold-61" transform="translate(34.277344 0)"/>
     <use xlink:href="#DejaVuSans-Bold-79" transform="translate(98.632812 0)"/>
     <use xlink:href="#DejaVuSans-Bold-65" transform="translate(163.818359 0)"/>
     <use xlink:href="#DejaVuSans-Bold-72" transform="translate(231.640625 0)"/>
     <use xlink:href="#DejaVuSans-Bold-3d" transform="translate(280.957031 0)"/>
     <use xlink:href="#DejaVuSans-Bold-34" transform="translate(364.746094 0)"/>
    </g>
   </g>
  </g>
  <g id="legend_1">
   <g id="patch_13">
    <path d="M 503.65601 159.28101 
L 572.49976 159.28101 
Q 574.69976 159.28101 574.69976 157.08101 
L 574.69976 11.89976 
Q 574.69976 9.69976 572.49976 9.69976 
L 503.65601 9.69976 
Q 501.45601 9.69976 501.45601 11.89976 
L 501.45601 157.08101 
Q 501.45601 159.28101 503.65601 159.28101 
z
" style="fill: #f5f6fc; opacity: 0.8; stroke: #cccccc; stroke-linejoin: miter"/>
   </g>
   <g id="text_24">
    <!-- Beta Value -->
    <g style="fill: #262626" transform="translate(505.85601 23.217885) scale(0.12 -0.12)">
     <defs>
      <path id="DejaVuSans-56" d="M 1831 0 
L 50 4666 
L 709 4666 
L 2188 738 
L 3669 4666 
L 4325 4666 
L 2547 0 
L 1831 0 
z
" transform="scale(0.015625)"/>
      <path id="DejaVuSans-6c" d="M 603 4863 
L 1178 4863 
L 1178 0 
L 603 0 
L 603 4863 
z
" transform="scale(0.015625)"/>
     </defs>
     <use xlink:href="#DejaVuSans-42"/>
     <use xlink:href="#DejaVuSans-65" transform="translate(68.603516 0)"/>
     <use xlink:href="#DejaVuSans-74" transform="translate(130.126953 0)"/>
     <use xlink:href="#DejaVuSans-61" transform="translate(169.335938 0)"/>
     <use xlink:href="#DejaVuSans-20" transform="translate(230.615234 0)"/>
     <use xlink:href="#DejaVuSans-56" transform="translate(262.402344 0)"/>
     <use xlink:href="#DejaVuSans-61" transform="translate(323.060547 0)"/>
     <use xlink:href="#DejaVuSans-6c" transform="translate(384.339844 0)"/>
     <use xlink:href="#DejaVuSans-75" transform="translate(412.123047 0)"/>
     <use xlink:href="#DejaVuSans-65" transform="translate(475.501953 0)"/>
    </g>
   </g>
   <g id="line2d_46">
    <path d="M 513.931166 35.721791 
L 524.931166 35.721791 
L 535.931166 35.721791 
" style="fill: none; stroke: #1f77b4; stroke-width: 1.1; stroke-linecap: round"/>
    <g>
     <use xlink:href="#mfec7b5d979" x="524.931166" y="35.721791" style="fill: #1f77b4; stroke: #1f77b4"/>
    </g>
   </g>
   <g id="text_25">
    <!-- 0.2 -->
    <g style="fill: #262626" transform="translate(544.731166 39.571791) scale(0.11 -0.11)">
     <use xlink:href="#DejaVuSans-30"/>
     <use xlink:href="#DejaVuSans-2e" transform="translate(63.623047 0)"/>
     <use xlink:href="#DejaVuSans-32" transform="translate(95.410156 0)"/>
    </g>
   </g>
   <g id="line2d_47">
    <path d="M 513.931166 51.867729 
L 524.931166 51.867729 
L 535.931166 51.867729 
" style="fill: none; stroke: #ff7f0e; stroke-width: 1.1; stroke-linecap: round"/>
    <g>
     <use xlink:href="#m66b8451fd0" x="524.931166" y="51.867729" style="fill: #ff7f0e; stroke: #ff7f0e"/>
    </g>
   </g>
   <g id="text_26">
    <!-- 0.3 -->
    <g style="fill: #262626" transform="translate(544.731166 55.717729) scale(0.11 -0.11)">
     <defs>
      <path id="DejaVuSans-33" d="M 2597 2516 
Q 3050 2419 3304 2112 
Q 3559 1806 3559 1356 
Q 3559 666 3084 287 
Q 2609 -91 1734 -91 
Q 1441 -91 1130 -33 
Q 819 25 488 141 
L 488 750 
Q 750 597 1062 519 
Q 1375 441 1716 441 
Q 2309 441 2620 675 
Q 2931 909 2931 1356 
Q 2931 1769 2642 2001 
Q 2353 2234 1838 2234 
L 1294 2234 
L 1294 2753 
L 1863 2753 
Q 2328 2753 2575 2939 
Q 2822 3125 2822 3475 
Q 2822 3834 2567 4026 
Q 2313 4219 1838 4219 
Q 1578 4219 1281 4162 
Q 984 4106 628 3988 
L 628 4550 
Q 988 4650 1302 4700 
Q 1616 4750 1894 4750 
Q 2613 4750 3031 4423 
Q 3450 4097 3450 3541 
Q 3450 3153 3228 2886 
Q 3006 2619 2597 2516 
z
" transform="scale(0.015625)"/>
     </defs>
     <use xlink:href="#DejaVuSans-30"/>
     <use xlink:href="#DejaVuSans-2e" transform="translate(63.623047 0)"/>
     <use xlink:href="#DejaVuSans-33" transform="translate(95.410156 0)"/>
    </g>
   </g>
   <g id="line2d_48">
    <path d="M 513.931166 68.013666 
L 524.931166 68.013666 
L 535.931166 68.013666 
" style="fill: none; stroke: #2ca02c; stroke-width: 1.1; stroke-linecap: round"/>
    <g>
     <use xlink:href="#mdb9af28cfd" x="524.931166" y="68.013666" style="fill: #2ca02c; stroke: #2ca02c"/>
    </g>
   </g>
   <g id="text_27">
    <!-- 0.4 -->
    <g style="fill: #262626" transform="translate(544.731166 71.863666) scale(0.11 -0.11)">
     <use xlink:href="#DejaVuSans-30"/>
     <use xlink:href="#DejaVuSans-2e" transform="translate(63.623047 0)"/>
     <use xlink:href="#DejaVuSans-34" transform="translate(95.410156 0)"/>
    </g>
   </g>
   <g id="line2d_49">
    <path d="M 513.931166 84.159604 
L 524.931166 84.159604 
L 535.931166 84.159604 
" style="fill: none; stroke: #d62728; stroke-width: 1.1; stroke-linecap: round"/>
    <g>
     <use xlink:href="#m8e4c5bfa1f" x="524.931166" y="84.159604" style="fill: #d62728; stroke: #d62728"/>
    </g>
   </g>
   <g id="text_28">
    <!-- 0.5 -->
    <g style="fill: #262626" transform="translate(544.731166 88.009604) scale(0.11 -0.11)">
     <use xlink:href="#DejaVuSans-30"/>
     <use xlink:href="#DejaVuSans-2e" transform="translate(63.623047 0)"/>
     <use xlink:href="#DejaVuSans-35" transform="translate(95.410156 0)"/>
    </g>
   </g>
   <g id="line2d_50">
    <path d="M 513.931166 100.305541 
L 524.931166 100.305541 
L 535.931166 100.305541 
" style="fill: none; stroke: #9467bd; stroke-width: 1.1; stroke-linecap: round"/>
    <g>
     <use xlink:href="#m130662b555" x="524.931166" y="100.305541" style="fill: #9467bd; stroke: #9467bd"/>
    </g>
   </g>
   <g id="text_29">
    <!-- 0.7 -->
    <g style="fill: #262626" transform="translate(544.731166 104.155541) scale(0.11 -0.11)">
     <defs>
      <path id="DejaVuSans-37" d="M 525 4666 
L 3525 4666 
L 3525 4397 
L 1831 0 
L 1172 0 
L 2766 4134 
L 525 4134 
L 525 4666 
z
" transform="scale(0.015625)"/>
     </defs>
     <use xlink:href="#DejaVuSans-30"/>
     <use xlink:href="#DejaVuSans-2e" transform="translate(63.623047 0)"/>
     <use xlink:href="#DejaVuSans-37" transform="translate(95.410156 0)"/>
    </g>
   </g>
   <g id="line2d_51">
    <path d="M 513.931166 116.451479 
L 524.931166 116.451479 
L 535.931166 116.451479 
" style="fill: none; stroke: #8c564b; stroke-width: 1.1; stroke-linecap: round"/>
    <g>
     <use xlink:href="#m09b877135f" x="524.931166" y="116.451479" style="fill: #8c564b; stroke: #8c564b"/>
    </g>
   </g>
   <g id="text_30">
    <!-- 0.8 -->
    <g style="fill: #262626" transform="translate(544.731166 120.301479) scale(0.11 -0.11)">
     <use xlink:href="#DejaVuSans-30"/>
     <use xlink:href="#DejaVuSans-2e" transform="translate(63.623047 0)"/>
     <use xlink:href="#DejaVuSans-38" transform="translate(95.410156 0)"/>
    </g>
   </g>
   <g id="line2d_52">
    <path d="M 513.931166 132.597416 
L 524.931166 132.597416 
L 535.931166 132.597416 
" style="fill: none; stroke: #e377c2; stroke-width: 1.1; stroke-linecap: round"/>
    <g>
     <use xlink:href="#m9c0ec1f30f" x="524.931166" y="132.597416" style="fill: #e377c2; stroke: #e377c2"/>
    </g>
   </g>
   <g id="text_31">
    <!-- 0.9 -->
    <g style="fill: #262626" transform="translate(544.731166 136.447416) scale(0.11 -0.11)">
     <defs>
      <path id="DejaVuSans-39" d="M 703 97 
L 703 672 
Q 941 559 1184 500 
Q 1428 441 1663 441 
Q 2288 441 2617 861 
Q 2947 1281 2994 2138 
Q 2813 1869 2534 1725 
Q 2256 1581 1919 1581 
Q 1219 1581 811 2004 
Q 403 2428 403 3163 
Q 403 3881 828 4315 
Q 1253 4750 1959 4750 
Q 2769 4750 3195 4129 
Q 3622 3509 3622 2328 
Q 3622 1225 3098 567 
Q 2575 -91 1691 -91 
Q 1453 -91 1209 -44 
Q 966 3 703 97 
z
M 1959 2075 
Q 2384 2075 2632 2365 
Q 2881 2656 2881 3163 
Q 2881 3666 2632 3958 
Q 2384 4250 1959 4250 
Q 1534 4250 1286 3958 
Q 1038 3666 1038 3163 
Q 1038 2656 1286 2365 
Q 1534 2075 1959 2075 
z
" transform="scale(0.015625)"/>
     </defs>
     <use xlink:href="#DejaVuSans-30"/>
     <use xlink:href="#DejaVuSans-2e" transform="translate(63.623047 0)"/>
     <use xlink:href="#DejaVuSans-39" transform="translate(95.410156 0)"/>
    </g>
   </g>
   <g id="line2d_53">
    <path d="M 513.931166 148.743354 
L 524.931166 148.743354 
L 535.931166 148.743354 
" style="fill: none; stroke: #7f7f7f; stroke-width: 1.1; stroke-linecap: round"/>
    <g>
     <use xlink:href="#m9b1d5f6d55" x="524.931166" y="148.743354" style="fill: #7f7f7f; stroke: #7f7f7f"/>
    </g>
   </g>
   <g id="text_32">
    <!-- 1 -->
    <g style="fill: #262626" transform="translate(544.731166 152.593354) scale(0.11 -0.11)">
     <use xlink:href="#DejaVuSans-31"/>
    </g>
   </g>
  </g>
 </g>
 <defs>
  <clipPath id="pe4d26c5f1f">
   <rect x="53.31" y="41.73825" width="244.360466" height="240.501583"/>
  </clipPath>
  <clipPath id="p54c0ddb23a">
   <rect x="326.839054" y="41.73825" width="244.360466" height="240.501583"/>
  </clipPath>
 </defs>
</svg>
