<?xml version="1.0" encoding="utf-8" standalone="no"?>
<!DOCTYPE svg PUBLIC "-//W3C//DTD SVG 1.1//EN"
  "http://www.w3.org/Graphics/SVG/1.1/DTD/svg11.dtd">
<svg xmlns:xlink="http://www.w3.org/1999/xlink" width="584.399403pt" height="325.19952pt" viewBox="0 0 584.399403 325.19952" xmlns="http://www.w3.org/2000/svg" version="1.1">
 <metadata>
  <rdf:RDF xmlns:dc="http://purl.org/dc/elements/1.1/" xmlns:cc="http://creativecommons.org/ns#" xmlns:rdf="http://www.w3.org/1999/02/22-rdf-syntax-ns#">
   <cc:Work>
    <dc:type rdf:resource="http://purl.org/dc/dcmitype/StillImage"/>
    <dc:date>2025-05-03T20:28:06.909661</dc:date>
    <dc:format>image/svg+xml</dc:format>
    <dc:creator>
     <cc:Agent>
      <dc:title>Matplotlib v3.10.1, https://matplotlib.org/</dc:title>
     </cc:Agent>
    </dc:creator>
   </cc:Work>
  </rdf:RDF>
 </metadata>
 <defs>
  <style type="text/css">*{stroke-linejoin: round; stroke-linecap: butt}</style>
 </defs>
 <g id="figure_1">
  <g id="patch_1">
   <path d="M 0 325.19952 
L 584.399403 325.19952 
L 584.399403 0 
L 0 0 
z
" style="fill: #ffffff"/>
  </g>
  <g id="subfigure_1">
   <g id="patch_2">
    <path d="M 4.19976 320.99976 
L 580.19976 320.99976 
L 580.19976 4.19976 
L 4.19976 4.19976 
L 4.19976 320.99976 
z
" style="fill: none"/>
   </g>
   <g id="axes_1">
    <g id="patch_3">
     <path d="M 53.31 282.239832 
L 287.936701 282.239832 
L 287.936701 41.73825 
L 53.31 41.73825 
z
" style="fill: #f5f6fc"/>
    </g>
    <g id="matplotlib.axis_1">
     <g id="xtick_1">
      <g id="line2d_1">
       <path d="M 64.214403 282.239832 
L 64.214403 41.73825 
" clip-path="url(#p51b4866c14)" style="fill: none; stroke: #ffffff; stroke-linecap: round"/>
      </g>
      <g id="text_1">
       <!-- 0.000 -->
       <g style="fill: #262626" transform="translate(48.468935 300.098114) scale(0.11 -0.11)">
        <defs>
         <path id="DejaVuSans-30" d="M 2034 4250 
Q 1547 4250 1301 3770 
Q 1056 3291 1056 2328 
Q 1056 1369 1301 889 
Q 1547 409 2034 409 
Q 2525 409 2770 889 
Q 3016 1369 3016 2328 
Q 3016 3291 2770 3770 
Q 2525 4250 2034 4250 
z
M 2034 4750 
Q 2819 4750 3233 4129 
Q 3647 3509 3647 2328 
Q 3647 1150 3233 529 
Q 2819 -91 2034 -91 
Q 1250 -91 836 529 
Q 422 1150 422 2328 
Q 422 3509 836 4129 
Q 1250 4750 2034 4750 
z
" transform="scale(0.015625)"/>
         <path id="DejaVuSans-2e" d="M 684 794 
L 1344 794 
L 1344 0 
L 684 0 
L 684 794 
z
" transform="scale(0.015625)"/>
        </defs>
        <use xlink:href="#DejaVuSans-30"/>
        <use xlink:href="#DejaVuSans-2e" transform="translate(63.623047 0)"/>
        <use xlink:href="#DejaVuSans-30" transform="translate(95.410156 0)"/>
        <use xlink:href="#DejaVuSans-30" transform="translate(159.033203 0)"/>
        <use xlink:href="#DejaVuSans-30" transform="translate(222.65625 0)"/>
       </g>
      </g>
     </g>
     <g id="xtick_2">
      <g id="line2d_2">
       <path d="M 104.402219 282.239832 
L 104.402219 41.73825 
" clip-path="url(#p51b4866c14)" style="fill: none; stroke: #ffffff; stroke-linecap: round"/>
      </g>
      <g id="text_2">
       <!-- 0.025 -->
       <g style="fill: #262626" transform="translate(88.65675 300.098114) scale(0.11 -0.11)">
        <defs>
         <path id="DejaVuSans-32" d="M 1228 531 
L 3431 531 
L 3431 0 
L 469 0 
L 469 531 
Q 828 903 1448 1529 
Q 2069 2156 2228 2338 
Q 2531 2678 2651 2914 
Q 2772 3150 2772 3378 
Q 2772 3750 2511 3984 
Q 2250 4219 1831 4219 
Q 1534 4219 1204 4116 
Q 875 4013 500 3803 
L 500 4441 
Q 881 4594 1212 4672 
Q 1544 4750 1819 4750 
Q 2544 4750 2975 4387 
Q 3406 4025 3406 3419 
Q 3406 3131 3298 2873 
Q 3191 2616 2906 2266 
Q 2828 2175 2409 1742 
Q 1991 1309 1228 531 
z
" transform="scale(0.015625)"/>
         <path id="DejaVuSans-35" d="M 691 4666 
L 3169 4666 
L 3169 4134 
L 1269 4134 
L 1269 2991 
Q 1406 3038 1543 3061 
Q 1681 3084 1819 3084 
Q 2600 3084 3056 2656 
Q 3513 2228 3513 1497 
Q 3513 744 3044 326 
Q 2575 -91 1722 -91 
Q 1428 -91 1123 -41 
Q 819 9 494 109 
L 494 744 
Q 775 591 1075 516 
Q 1375 441 1709 441 
Q 2250 441 2565 725 
Q 2881 1009 2881 1497 
Q 2881 1984 2565 2268 
Q 2250 2553 1709 2553 
Q 1456 2553 1204 2497 
Q 953 2441 691 2322 
L 691 4666 
z
" transform="scale(0.015625)"/>
        </defs>
        <use xlink:href="#DejaVuSans-30"/>
        <use xlink:href="#DejaVuSans-2e" transform="translate(63.623047 0)"/>
        <use xlink:href="#DejaVuSans-30" transform="translate(95.410156 0)"/>
        <use xlink:href="#DejaVuSans-32" transform="translate(159.033203 0)"/>
        <use xlink:href="#DejaVuSans-35" transform="translate(222.65625 0)"/>
       </g>
      </g>
     </g>
     <g id="xtick_3">
      <g id="line2d_3">
       <path d="M 144.590034 282.239832 
L 144.590034 41.73825 
" clip-path="url(#p51b4866c14)" style="fill: none; stroke: #ffffff; stroke-linecap: round"/>
      </g>
      <g id="text_3">
       <!-- 0.050 -->
       <g style="fill: #262626" transform="translate(128.844565 300.098114) scale(0.11 -0.11)">
        <use xlink:href="#DejaVuSans-30"/>
        <use xlink:href="#DejaVuSans-2e" transform="translate(63.623047 0)"/>
        <use xlink:href="#DejaVuSans-30" transform="translate(95.410156 0)"/>
        <use xlink:href="#DejaVuSans-35" transform="translate(159.033203 0)"/>
        <use xlink:href="#DejaVuSans-30" transform="translate(222.65625 0)"/>
       </g>
      </g>
     </g>
     <g id="xtick_4">
      <g id="line2d_4">
       <path d="M 184.777849 282.239832 
L 184.777849 41.73825 
" clip-path="url(#p51b4866c14)" style="fill: none; stroke: #ffffff; stroke-linecap: round"/>
      </g>
      <g id="text_4">
       <!-- 0.075 -->
       <g style="fill: #262626" transform="translate(169.03238 300.098114) scale(0.11 -0.11)">
        <defs>
         <path id="DejaVuSans-37" d="M 525 4666 
L 3525 4666 
L 3525 4397 
L 1831 0 
L 1172 0 
L 2766 4134 
L 525 4134 
L 525 4666 
z
" transform="scale(0.015625)"/>
        </defs>
        <use xlink:href="#DejaVuSans-30"/>
        <use xlink:href="#DejaVuSans-2e" transform="translate(63.623047 0)"/>
        <use xlink:href="#DejaVuSans-30" transform="translate(95.410156 0)"/>
        <use xlink:href="#DejaVuSans-37" transform="translate(159.033203 0)"/>
        <use xlink:href="#DejaVuSans-35" transform="translate(222.65625 0)"/>
       </g>
      </g>
     </g>
     <g id="xtick_5">
      <g id="line2d_5">
       <path d="M 224.965664 282.239832 
L 224.965664 41.73825 
" clip-path="url(#p51b4866c14)" style="fill: none; stroke: #ffffff; stroke-linecap: round"/>
      </g>
      <g id="text_5">
       <!-- 0.100 -->
       <g style="fill: #262626" transform="translate(209.220195 300.098114) scale(0.11 -0.11)">
        <defs>
         <path id="DejaVuSans-31" d="M 794 531 
L 1825 531 
L 1825 4091 
L 703 3866 
L 703 4441 
L 1819 4666 
L 2450 4666 
L 2450 531 
L 3481 531 
L 3481 0 
L 794 0 
L 794 531 
z
" transform="scale(0.015625)"/>
        </defs>
        <use xlink:href="#DejaVuSans-30"/>
        <use xlink:href="#DejaVuSans-2e" transform="translate(63.623047 0)"/>
        <use xlink:href="#DejaVuSans-31" transform="translate(95.410156 0)"/>
        <use xlink:href="#DejaVuSans-30" transform="translate(159.033203 0)"/>
        <use xlink:href="#DejaVuSans-30" transform="translate(222.65625 0)"/>
       </g>
      </g>
     </g>
     <g id="xtick_6">
      <g id="line2d_6">
       <path d="M 265.153479 282.239832 
L 265.153479 41.73825 
" clip-path="url(#p51b4866c14)" style="fill: none; stroke: #ffffff; stroke-linecap: round"/>
      </g>
      <g id="text_6">
       <!-- 0.125 -->
       <g style="fill: #262626" transform="translate(249.40801 300.098114) scale(0.11 -0.11)">
        <use xlink:href="#DejaVuSans-30"/>
        <use xlink:href="#DejaVuSans-2e" transform="translate(63.623047 0)"/>
        <use xlink:href="#DejaVuSans-31" transform="translate(95.410156 0)"/>
        <use xlink:href="#DejaVuSans-32" transform="translate(159.033203 0)"/>
        <use xlink:href="#DejaVuSans-35" transform="translate(222.65625 0)"/>
       </g>
      </g>
     </g>
     <g id="text_7">
      <!-- CE Loss Increase -->
      <g style="fill: #262626" transform="translate(120.278663 315.503895) scale(0.12 -0.12)">
       <defs>
        <path id="DejaVuSans-43" d="M 4122 4306 
L 4122 3641 
Q 3803 3938 3442 4084 
Q 3081 4231 2675 4231 
Q 1875 4231 1450 3742 
Q 1025 3253 1025 2328 
Q 1025 1406 1450 917 
Q 1875 428 2675 428 
Q 3081 428 3442 575 
Q 3803 722 4122 1019 
L 4122 359 
Q 3791 134 3420 21 
Q 3050 -91 2638 -91 
Q 1578 -91 968 557 
Q 359 1206 359 2328 
Q 359 3453 968 4101 
Q 1578 4750 2638 4750 
Q 3056 4750 3426 4639 
Q 3797 4528 4122 4306 
z
" transform="scale(0.015625)"/>
        <path id="DejaVuSans-45" d="M 628 4666 
L 3578 4666 
L 3578 4134 
L 1259 4134 
L 1259 2753 
L 3481 2753 
L 3481 2222 
L 1259 2222 
L 1259 531 
L 3634 531 
L 3634 0 
L 628 0 
L 628 4666 
z
" transform="scale(0.015625)"/>
        <path id="DejaVuSans-20" transform="scale(0.015625)"/>
        <path id="DejaVuSans-4c" d="M 628 4666 
L 1259 4666 
L 1259 531 
L 3531 531 
L 3531 0 
L 628 0 
L 628 4666 
z
" transform="scale(0.015625)"/>
        <path id="DejaVuSans-6f" d="M 1959 3097 
Q 1497 3097 1228 2736 
Q 959 2375 959 1747 
Q 959 1119 1226 758 
Q 1494 397 1959 397 
Q 2419 397 2687 759 
Q 2956 1122 2956 1747 
Q 2956 2369 2687 2733 
Q 2419 3097 1959 3097 
z
M 1959 3584 
Q 2709 3584 3137 3096 
Q 3566 2609 3566 1747 
Q 3566 888 3137 398 
Q 2709 -91 1959 -91 
Q 1206 -91 779 398 
Q 353 888 353 1747 
Q 353 2609 779 3096 
Q 1206 3584 1959 3584 
z
" transform="scale(0.015625)"/>
        <path id="DejaVuSans-73" d="M 2834 3397 
L 2834 2853 
Q 2591 2978 2328 3040 
Q 2066 3103 1784 3103 
Q 1356 3103 1142 2972 
Q 928 2841 928 2578 
Q 928 2378 1081 2264 
Q 1234 2150 1697 2047 
L 1894 2003 
Q 2506 1872 2764 1633 
Q 3022 1394 3022 966 
Q 3022 478 2636 193 
Q 2250 -91 1575 -91 
Q 1294 -91 989 -36 
Q 684 19 347 128 
L 347 722 
Q 666 556 975 473 
Q 1284 391 1588 391 
Q 1994 391 2212 530 
Q 2431 669 2431 922 
Q 2431 1156 2273 1281 
Q 2116 1406 1581 1522 
L 1381 1569 
Q 847 1681 609 1914 
Q 372 2147 372 2553 
Q 372 3047 722 3315 
Q 1072 3584 1716 3584 
Q 2034 3584 2315 3537 
Q 2597 3491 2834 3397 
z
" transform="scale(0.015625)"/>
        <path id="DejaVuSans-49" d="M 628 4666 
L 1259 4666 
L 1259 0 
L 628 0 
L 628 4666 
z
" transform="scale(0.015625)"/>
        <path id="DejaVuSans-6e" d="M 3513 2113 
L 3513 0 
L 2938 0 
L 2938 2094 
Q 2938 2591 2744 2837 
Q 2550 3084 2163 3084 
Q 1697 3084 1428 2787 
Q 1159 2491 1159 1978 
L 1159 0 
L 581 0 
L 581 3500 
L 1159 3500 
L 1159 2956 
Q 1366 3272 1645 3428 
Q 1925 3584 2291 3584 
Q 2894 3584 3203 3211 
Q 3513 2838 3513 2113 
z
" transform="scale(0.015625)"/>
        <path id="DejaVuSans-63" d="M 3122 3366 
L 3122 2828 
Q 2878 2963 2633 3030 
Q 2388 3097 2138 3097 
Q 1578 3097 1268 2742 
Q 959 2388 959 1747 
Q 959 1106 1268 751 
Q 1578 397 2138 397 
Q 2388 397 2633 464 
Q 2878 531 3122 666 
L 3122 134 
Q 2881 22 2623 -34 
Q 2366 -91 2075 -91 
Q 1284 -91 818 406 
Q 353 903 353 1747 
Q 353 2603 823 3093 
Q 1294 3584 2113 3584 
Q 2378 3584 2631 3529 
Q 2884 3475 3122 3366 
z
" transform="scale(0.015625)"/>
        <path id="DejaVuSans-72" d="M 2631 2963 
Q 2534 3019 2420 3045 
Q 2306 3072 2169 3072 
Q 1681 3072 1420 2755 
Q 1159 2438 1159 1844 
L 1159 0 
L 581 0 
L 581 3500 
L 1159 3500 
L 1159 2956 
Q 1341 3275 1631 3429 
Q 1922 3584 2338 3584 
Q 2397 3584 2469 3576 
Q 2541 3569 2628 3553 
L 2631 2963 
z
" transform="scale(0.015625)"/>
        <path id="DejaVuSans-65" d="M 3597 1894 
L 3597 1613 
L 953 1613 
Q 991 1019 1311 708 
Q 1631 397 2203 397 
Q 2534 397 2845 478 
Q 3156 559 3463 722 
L 3463 178 
Q 3153 47 2828 -22 
Q 2503 -91 2169 -91 
Q 1331 -91 842 396 
Q 353 884 353 1716 
Q 353 2575 817 3079 
Q 1281 3584 2069 3584 
Q 2775 3584 3186 3129 
Q 3597 2675 3597 1894 
z
M 3022 2063 
Q 3016 2534 2758 2815 
Q 2500 3097 2075 3097 
Q 1594 3097 1305 2825 
Q 1016 2553 972 2059 
L 3022 2063 
z
" transform="scale(0.015625)"/>
        <path id="DejaVuSans-61" d="M 2194 1759 
Q 1497 1759 1228 1600 
Q 959 1441 959 1056 
Q 959 750 1161 570 
Q 1363 391 1709 391 
Q 2188 391 2477 730 
Q 2766 1069 2766 1631 
L 2766 1759 
L 2194 1759 
z
M 3341 1997 
L 3341 0 
L 2766 0 
L 2766 531 
Q 2569 213 2275 61 
Q 1981 -91 1556 -91 
Q 1019 -91 701 211 
Q 384 513 384 1019 
Q 384 1609 779 1909 
Q 1175 2209 1959 2209 
L 2766 2209 
L 2766 2266 
Q 2766 2663 2505 2880 
Q 2244 3097 1772 3097 
Q 1472 3097 1187 3025 
Q 903 2953 641 2809 
L 641 3341 
Q 956 3463 1253 3523 
Q 1550 3584 1831 3584 
Q 2591 3584 2966 3190 
Q 3341 2797 3341 1997 
z
" transform="scale(0.015625)"/>
       </defs>
       <use xlink:href="#DejaVuSans-43"/>
       <use xlink:href="#DejaVuSans-45" transform="translate(69.824219 0)"/>
       <use xlink:href="#DejaVuSans-20" transform="translate(133.007812 0)"/>
       <use xlink:href="#DejaVuSans-4c" transform="translate(164.794922 0)"/>
       <use xlink:href="#DejaVuSans-6f" transform="translate(218.757812 0)"/>
       <use xlink:href="#DejaVuSans-73" transform="translate(279.939453 0)"/>
       <use xlink:href="#DejaVuSans-73" transform="translate(332.039062 0)"/>
       <use xlink:href="#DejaVuSans-20" transform="translate(384.138672 0)"/>
       <use xlink:href="#DejaVuSans-49" transform="translate(415.925781 0)"/>
       <use xlink:href="#DejaVuSans-6e" transform="translate(445.417969 0)"/>
       <use xlink:href="#DejaVuSans-63" transform="translate(508.796875 0)"/>
       <use xlink:href="#DejaVuSans-72" transform="translate(563.777344 0)"/>
       <use xlink:href="#DejaVuSans-65" transform="translate(602.640625 0)"/>
       <use xlink:href="#DejaVuSans-61" transform="translate(664.164062 0)"/>
       <use xlink:href="#DejaVuSans-73" transform="translate(725.443359 0)"/>
       <use xlink:href="#DejaVuSans-65" transform="translate(777.542969 0)"/>
      </g>
     </g>
    </g>
    <g id="matplotlib.axis_2">
     <g id="ytick_1">
      <g id="line2d_7">
       <path d="M 53.31 280.288634 
L 287.936701 280.288634 
" clip-path="url(#p51b4866c14)" style="fill: none; stroke: #ffffff; stroke-linecap: round"/>
      </g>
      <g id="text_8">
       <!-- 40 -->
       <g style="fill: #262626" transform="translate(29.8125 284.467775) scale(0.11 -0.11)">
        <defs>
         <path id="DejaVuSans-34" d="M 2419 4116 
L 825 1625 
L 2419 1625 
L 2419 4116 
z
M 2253 4666 
L 3047 4666 
L 3047 1625 
L 3713 1625 
L 3713 1100 
L 3047 1100 
L 3047 0 
L 2419 0 
L 2419 1100 
L 313 1100 
L 313 1709 
L 2253 4666 
z
" transform="scale(0.015625)"/>
        </defs>
        <use xlink:href="#DejaVuSans-34"/>
        <use xlink:href="#DejaVuSans-30" transform="translate(63.623047 0)"/>
       </g>
      </g>
     </g>
     <g id="ytick_2">
      <g id="line2d_8">
       <path d="M 53.31 251.668107 
L 287.936701 251.668107 
" clip-path="url(#p51b4866c14)" style="fill: none; stroke: #ffffff; stroke-linecap: round"/>
      </g>
      <g id="text_9">
       <!-- 60 -->
       <g style="fill: #262626" transform="translate(29.8125 255.847248) scale(0.11 -0.11)">
        <defs>
         <path id="DejaVuSans-36" d="M 2113 2584 
Q 1688 2584 1439 2293 
Q 1191 2003 1191 1497 
Q 1191 994 1439 701 
Q 1688 409 2113 409 
Q 2538 409 2786 701 
Q 3034 994 3034 1497 
Q 3034 2003 2786 2293 
Q 2538 2584 2113 2584 
z
M 3366 4563 
L 3366 3988 
Q 3128 4100 2886 4159 
Q 2644 4219 2406 4219 
Q 1781 4219 1451 3797 
Q 1122 3375 1075 2522 
Q 1259 2794 1537 2939 
Q 1816 3084 2150 3084 
Q 2853 3084 3261 2657 
Q 3669 2231 3669 1497 
Q 3669 778 3244 343 
Q 2819 -91 2113 -91 
Q 1303 -91 875 529 
Q 447 1150 447 2328 
Q 447 3434 972 4092 
Q 1497 4750 2381 4750 
Q 2619 4750 2861 4703 
Q 3103 4656 3366 4563 
z
" transform="scale(0.015625)"/>
        </defs>
        <use xlink:href="#DejaVuSans-36"/>
        <use xlink:href="#DejaVuSans-30" transform="translate(63.623047 0)"/>
       </g>
      </g>
     </g>
     <g id="ytick_3">
      <g id="line2d_9">
       <path d="M 53.31 223.047581 
L 287.936701 223.047581 
" clip-path="url(#p51b4866c14)" style="fill: none; stroke: #ffffff; stroke-linecap: round"/>
      </g>
      <g id="text_10">
       <!-- 80 -->
       <g style="fill: #262626" transform="translate(29.8125 227.226721) scale(0.11 -0.11)">
        <defs>
         <path id="DejaVuSans-38" d="M 2034 2216 
Q 1584 2216 1326 1975 
Q 1069 1734 1069 1313 
Q 1069 891 1326 650 
Q 1584 409 2034 409 
Q 2484 409 2743 651 
Q 3003 894 3003 1313 
Q 3003 1734 2745 1975 
Q 2488 2216 2034 2216 
z
M 1403 2484 
Q 997 2584 770 2862 
Q 544 3141 544 3541 
Q 544 4100 942 4425 
Q 1341 4750 2034 4750 
Q 2731 4750 3128 4425 
Q 3525 4100 3525 3541 
Q 3525 3141 3298 2862 
Q 3072 2584 2669 2484 
Q 3125 2378 3379 2068 
Q 3634 1759 3634 1313 
Q 3634 634 3220 271 
Q 2806 -91 2034 -91 
Q 1263 -91 848 271 
Q 434 634 434 1313 
Q 434 1759 690 2068 
Q 947 2378 1403 2484 
z
M 1172 3481 
Q 1172 3119 1398 2916 
Q 1625 2713 2034 2713 
Q 2441 2713 2670 2916 
Q 2900 3119 2900 3481 
Q 2900 3844 2670 4047 
Q 2441 4250 2034 4250 
Q 1625 4250 1398 4047 
Q 1172 3844 1172 3481 
z
" transform="scale(0.015625)"/>
        </defs>
        <use xlink:href="#DejaVuSans-38"/>
        <use xlink:href="#DejaVuSans-30" transform="translate(63.623047 0)"/>
       </g>
      </g>
     </g>
     <g id="ytick_4">
      <g id="line2d_10">
       <path d="M 53.31 194.427054 
L 287.936701 194.427054 
" clip-path="url(#p51b4866c14)" style="fill: none; stroke: #ffffff; stroke-linecap: round"/>
      </g>
      <g id="text_11">
       <!-- 100 -->
       <g style="fill: #262626" transform="translate(22.81375 198.606195) scale(0.11 -0.11)">
        <use xlink:href="#DejaVuSans-31"/>
        <use xlink:href="#DejaVuSans-30" transform="translate(63.623047 0)"/>
        <use xlink:href="#DejaVuSans-30" transform="translate(127.246094 0)"/>
       </g>
      </g>
     </g>
     <g id="ytick_5">
      <g id="line2d_11">
       <path d="M 53.31 165.806527 
L 287.936701 165.806527 
" clip-path="url(#p51b4866c14)" style="fill: none; stroke: #ffffff; stroke-linecap: round"/>
      </g>
      <g id="text_12">
       <!-- 120 -->
       <g style="fill: #262626" transform="translate(22.81375 169.985668) scale(0.11 -0.11)">
        <use xlink:href="#DejaVuSans-31"/>
        <use xlink:href="#DejaVuSans-32" transform="translate(63.623047 0)"/>
        <use xlink:href="#DejaVuSans-30" transform="translate(127.246094 0)"/>
       </g>
      </g>
     </g>
     <g id="ytick_6">
      <g id="line2d_12">
       <path d="M 53.31 137.186001 
L 287.936701 137.186001 
" clip-path="url(#p51b4866c14)" style="fill: none; stroke: #ffffff; stroke-linecap: round"/>
      </g>
      <g id="text_13">
       <!-- 140 -->
       <g style="fill: #262626" transform="translate(22.81375 141.365141) scale(0.11 -0.11)">
        <use xlink:href="#DejaVuSans-31"/>
        <use xlink:href="#DejaVuSans-34" transform="translate(63.623047 0)"/>
        <use xlink:href="#DejaVuSans-30" transform="translate(127.246094 0)"/>
       </g>
      </g>
     </g>
     <g id="ytick_7">
      <g id="line2d_13">
       <path d="M 53.31 108.565474 
L 287.936701 108.565474 
" clip-path="url(#p51b4866c14)" style="fill: none; stroke: #ffffff; stroke-linecap: round"/>
      </g>
      <g id="text_14">
       <!-- 160 -->
       <g style="fill: #262626" transform="translate(22.81375 112.744614) scale(0.11 -0.11)">
        <use xlink:href="#DejaVuSans-31"/>
        <use xlink:href="#DejaVuSans-36" transform="translate(63.623047 0)"/>
        <use xlink:href="#DejaVuSans-30" transform="translate(127.246094 0)"/>
       </g>
      </g>
     </g>
     <g id="ytick_8">
      <g id="line2d_14">
       <path d="M 53.31 79.944947 
L 287.936701 79.944947 
" clip-path="url(#p51b4866c14)" style="fill: none; stroke: #ffffff; stroke-linecap: round"/>
      </g>
      <g id="text_15">
       <!-- 180 -->
       <g style="fill: #262626" transform="translate(22.81375 84.124088) scale(0.11 -0.11)">
        <use xlink:href="#DejaVuSans-31"/>
        <use xlink:href="#DejaVuSans-38" transform="translate(63.623047 0)"/>
        <use xlink:href="#DejaVuSans-30" transform="translate(127.246094 0)"/>
       </g>
      </g>
     </g>
     <g id="ytick_9">
      <g id="line2d_15">
       <path d="M 53.31 51.32442 
L 287.936701 51.32442 
" clip-path="url(#p51b4866c14)" style="fill: none; stroke: #ffffff; stroke-linecap: round"/>
      </g>
      <g id="text_16">
       <!-- 200 -->
       <g style="fill: #262626" transform="translate(22.81375 55.503561) scale(0.11 -0.11)">
        <use xlink:href="#DejaVuSans-32"/>
        <use xlink:href="#DejaVuSans-30" transform="translate(63.623047 0)"/>
        <use xlink:href="#DejaVuSans-30" transform="translate(127.246094 0)"/>
       </g>
      </g>
     </g>
     <g id="text_17">
      <!-- L0 -->
      <g style="fill: #262626" transform="translate(16.318125 169.149666) rotate(-90) scale(0.12 -0.12)">
       <use xlink:href="#DejaVuSans-4c"/>
       <use xlink:href="#DejaVuSans-30" transform="translate(55.712891 0)"/>
      </g>
     </g>
    </g>
    <g id="line2d_16">
     <path d="M 277.271851 266.577925 
L 260.97986 262.961649 
L 179.749497 260.848045 
L 203.515672 260.790239 
L 180.978354 260.343413 
L 155.120463 259.418824 
L 93.081796 254.055975 
L 106.391067 252.961922 
L 64.532096 241.530973 
L 64.623021 191.424115 
" clip-path="url(#p51b4866c14)" style="fill: none; stroke: #1f77b4; stroke-width: 1.1; stroke-linecap: round"/>
     <defs>
      <path id="m2d182bef00" d="M 0 3 
C 0.795609 3 1.55874 2.683901 2.12132 2.12132 
C 2.683901 1.55874 3 0.795609 3 0 
C 3 -0.795609 2.683901 -1.55874 2.12132 -2.12132 
C 1.55874 -2.683901 0.795609 -3 0 -3 
C -0.795609 -3 -1.55874 -2.683901 -2.12132 -2.12132 
C -2.683901 -1.55874 -3 -0.795609 -3 0 
C -3 0.795609 -2.683901 1.55874 -2.12132 2.12132 
C -1.55874 2.683901 -0.795609 3 0 3 
z
" style="stroke: #1f77b4"/>
     </defs>
     <g clip-path="url(#p51b4866c14)">
      <use xlink:href="#m2d182bef00" x="277.271851" y="266.577925" style="fill: #1f77b4; stroke: #1f77b4"/>
      <use xlink:href="#m2d182bef00" x="260.97986" y="262.961649" style="fill: #1f77b4; stroke: #1f77b4"/>
      <use xlink:href="#m2d182bef00" x="179.749497" y="260.848045" style="fill: #1f77b4; stroke: #1f77b4"/>
      <use xlink:href="#m2d182bef00" x="203.515672" y="260.790239" style="fill: #1f77b4; stroke: #1f77b4"/>
      <use xlink:href="#m2d182bef00" x="180.978354" y="260.343413" style="fill: #1f77b4; stroke: #1f77b4"/>
      <use xlink:href="#m2d182bef00" x="155.120463" y="259.418824" style="fill: #1f77b4; stroke: #1f77b4"/>
      <use xlink:href="#m2d182bef00" x="93.081796" y="254.055975" style="fill: #1f77b4; stroke: #1f77b4"/>
      <use xlink:href="#m2d182bef00" x="106.391067" y="252.961922" style="fill: #1f77b4; stroke: #1f77b4"/>
      <use xlink:href="#m2d182bef00" x="64.532096" y="241.530973" style="fill: #1f77b4; stroke: #1f77b4"/>
      <use xlink:href="#m2d182bef00" x="64.623021" y="191.424115" style="fill: #1f77b4; stroke: #1f77b4"/>
     </g>
    </g>
    <g id="line2d_17">
     <path d="M 211.284784 265.605068 
L 158.150141 262.076196 
L 157.734318 261.669287 
L 157.706018 261.483901 
L 161.900563 257.34155 
L 105.024895 255.95403 
L 100.391593 255.166413 
L 89.996086 253.099015 
L 64.276154 229.549179 
L 64.721473 182.986203 
" clip-path="url(#p51b4866c14)" style="fill: none; stroke: #ff7f0e; stroke-width: 1.1; stroke-linecap: round"/>
     <defs>
      <path id="m361a9906ab" d="M 0 3 
C 0.795609 3 1.55874 2.683901 2.12132 2.12132 
C 2.683901 1.55874 3 0.795609 3 0 
C 3 -0.795609 2.683901 -1.55874 2.12132 -2.12132 
C 1.55874 -2.683901 0.795609 -3 0 -3 
C -0.795609 -3 -1.55874 -2.683901 -2.12132 -2.12132 
C -2.683901 -1.55874 -3 -0.795609 -3 0 
C -3 0.795609 -2.683901 1.55874 -2.12132 2.12132 
C -1.55874 2.683901 -0.795609 3 0 3 
z
" style="stroke: #ff7f0e"/>
     </defs>
     <g clip-path="url(#p51b4866c14)">
      <use xlink:href="#m361a9906ab" x="211.284784" y="265.605068" style="fill: #ff7f0e; stroke: #ff7f0e"/>
      <use xlink:href="#m361a9906ab" x="158.150141" y="262.076196" style="fill: #ff7f0e; stroke: #ff7f0e"/>
      <use xlink:href="#m361a9906ab" x="157.734318" y="261.669287" style="fill: #ff7f0e; stroke: #ff7f0e"/>
      <use xlink:href="#m361a9906ab" x="157.706018" y="261.483901" style="fill: #ff7f0e; stroke: #ff7f0e"/>
      <use xlink:href="#m361a9906ab" x="161.900563" y="257.34155" style="fill: #ff7f0e; stroke: #ff7f0e"/>
      <use xlink:href="#m361a9906ab" x="105.024895" y="255.95403" style="fill: #ff7f0e; stroke: #ff7f0e"/>
      <use xlink:href="#m361a9906ab" x="100.391593" y="255.166413" style="fill: #ff7f0e; stroke: #ff7f0e"/>
      <use xlink:href="#m361a9906ab" x="89.996086" y="253.099015" style="fill: #ff7f0e; stroke: #ff7f0e"/>
      <use xlink:href="#m361a9906ab" x="64.276154" y="229.549179" style="fill: #ff7f0e; stroke: #ff7f0e"/>
      <use xlink:href="#m361a9906ab" x="64.721473" y="182.986203" style="fill: #ff7f0e; stroke: #ff7f0e"/>
     </g>
    </g>
    <g id="line2d_18">
     <path d="M 192.747406 263.289241 
L 160.813374 261.37824 
L 143.619954 260.011951 
L 132.468213 259.778079 
L 148.324052 259.456624 
L 94.078121 254.530707 
L 95.157384 254.53016 
L 79.058986 251.367669 
L 64.574515 230.202718 
L 64.116749 179.523914 
" clip-path="url(#p51b4866c14)" style="fill: none; stroke: #2ca02c; stroke-width: 1.1; stroke-linecap: round"/>
     <defs>
      <path id="m9a3dd8d2cd" d="M 0 3 
C 0.795609 3 1.55874 2.683901 2.12132 2.12132 
C 2.683901 1.55874 3 0.795609 3 0 
C 3 -0.795609 2.683901 -1.55874 2.12132 -2.12132 
C 1.55874 -2.683901 0.795609 -3 0 -3 
C -0.795609 -3 -1.55874 -2.683901 -2.12132 -2.12132 
C -2.683901 -1.55874 -3 -0.795609 -3 0 
C -3 0.795609 -2.683901 1.55874 -2.12132 2.12132 
C -1.55874 2.683901 -0.795609 3 0 3 
z
" style="stroke: #2ca02c"/>
     </defs>
     <g clip-path="url(#p51b4866c14)">
      <use xlink:href="#m9a3dd8d2cd" x="192.747406" y="263.289241" style="fill: #2ca02c; stroke: #2ca02c"/>
      <use xlink:href="#m9a3dd8d2cd" x="160.813374" y="261.37824" style="fill: #2ca02c; stroke: #2ca02c"/>
      <use xlink:href="#m9a3dd8d2cd" x="143.619954" y="260.011951" style="fill: #2ca02c; stroke: #2ca02c"/>
      <use xlink:href="#m9a3dd8d2cd" x="132.468213" y="259.778079" style="fill: #2ca02c; stroke: #2ca02c"/>
      <use xlink:href="#m9a3dd8d2cd" x="148.324052" y="259.456624" style="fill: #2ca02c; stroke: #2ca02c"/>
      <use xlink:href="#m9a3dd8d2cd" x="94.078121" y="254.530707" style="fill: #2ca02c; stroke: #2ca02c"/>
      <use xlink:href="#m9a3dd8d2cd" x="95.157384" y="254.53016" style="fill: #2ca02c; stroke: #2ca02c"/>
      <use xlink:href="#m9a3dd8d2cd" x="79.058986" y="251.367669" style="fill: #2ca02c; stroke: #2ca02c"/>
      <use xlink:href="#m9a3dd8d2cd" x="64.574515" y="230.202718" style="fill: #2ca02c; stroke: #2ca02c"/>
      <use xlink:href="#m9a3dd8d2cd" x="64.116749" y="179.523914" style="fill: #2ca02c; stroke: #2ca02c"/>
     </g>
    </g>
    <g id="line2d_19">
     <path d="M 154.383054 260.298084 
L 134.764221 260.27635 
L 128.990749 260.2402 
L 144.945501 259.91742 
L 137.911161 259.706662 
L 122.436559 257.489292 
L 100.129442 254.340961 
L 68.831716 248.806055 
L 64.070328 233.007154 
L 64.163016 167.322496 
" clip-path="url(#p51b4866c14)" style="fill: none; stroke: #d62728; stroke-width: 1.1; stroke-linecap: round"/>
     <defs>
      <path id="m98858ec697" d="M 0 3 
C 0.795609 3 1.55874 2.683901 2.12132 2.12132 
C 2.683901 1.55874 3 0.795609 3 0 
C 3 -0.795609 2.683901 -1.55874 2.12132 -2.12132 
C 1.55874 -2.683901 0.795609 -3 0 -3 
C -0.795609 -3 -1.55874 -2.683901 -2.12132 -2.12132 
C -2.683901 -1.55874 -3 -0.795609 -3 0 
C -3 0.795609 -2.683901 1.55874 -2.12132 2.12132 
C -1.55874 2.683901 -0.795609 3 0 3 
z
" style="stroke: #d62728"/>
     </defs>
     <g clip-path="url(#p51b4866c14)">
      <use xlink:href="#m98858ec697" x="154.383054" y="260.298084" style="fill: #d62728; stroke: #d62728"/>
      <use xlink:href="#m98858ec697" x="134.764221" y="260.27635" style="fill: #d62728; stroke: #d62728"/>
      <use xlink:href="#m98858ec697" x="128.990749" y="260.2402" style="fill: #d62728; stroke: #d62728"/>
      <use xlink:href="#m98858ec697" x="144.945501" y="259.91742" style="fill: #d62728; stroke: #d62728"/>
      <use xlink:href="#m98858ec697" x="137.911161" y="259.706662" style="fill: #d62728; stroke: #d62728"/>
      <use xlink:href="#m98858ec697" x="122.436559" y="257.489292" style="fill: #d62728; stroke: #d62728"/>
      <use xlink:href="#m98858ec697" x="100.129442" y="254.340961" style="fill: #d62728; stroke: #d62728"/>
      <use xlink:href="#m98858ec697" x="68.831716" y="248.806055" style="fill: #d62728; stroke: #d62728"/>
      <use xlink:href="#m98858ec697" x="64.070328" y="233.007154" style="fill: #d62728; stroke: #d62728"/>
      <use xlink:href="#m98858ec697" x="64.163016" y="167.322496" style="fill: #d62728; stroke: #d62728"/>
     </g>
    </g>
    <g id="line2d_20">
     <path d="M 167.584199 262.138081 
L 150.462694 261.416308 
L 139.462172 261.384574 
L 163.00089 260.937865 
L 130.681451 260.484642 
L 144.398051 260.293517 
L 131.74546 260.277664 
L 128.785674 260.25426 
L 119.297683 258.823239 
L 124.174172 258.676049 
L 119.271499 258.31647 
L 111.821612 257.392235 
L 110.570296 257.39215 
L 109.903085 257.38964 
L 108.747124 257.385951 
L 108.890004 256.782857 
L 99.291205 255.961186 
L 99.790563 255.961186 
L 99.545292 255.961186 
L 100.134685 255.961186 
L 98.51829 255.88438 
L 89.919373 254.530171 
L 94.803251 254.53016 
L 89.542443 254.514216 
L 85.221959 253.099117 
L 83.34116 252.454556 
L 80.573986 251.668107 
L 79.514469 251.374456 
L 73.426492 250.237081 
L 73.412097 250.237064 
L 71.779544 249.207546 
L 64.643334 247.375034 
L 63.97485 247.375034 
L 64.330961 247.375034 
L 64.242887 243.081955 
L 63.990364 240.219897 
L 64.227174 234.495791 
L 64.177656 223.047547 
L 64.193385 214.461423 
L 64.379711 154.485425 
" clip-path="url(#p51b4866c14)" style="fill: none; stroke: #9467bd; stroke-width: 1.1; stroke-linecap: round"/>
     <defs>
      <path id="md96da1da45" d="M 0 3 
C 0.795609 3 1.55874 2.683901 2.12132 2.12132 
C 2.683901 1.55874 3 0.795609 3 0 
C 3 -0.795609 2.683901 -1.55874 2.12132 -2.12132 
C 1.55874 -2.683901 0.795609 -3 0 -3 
C -0.795609 -3 -1.55874 -2.683901 -2.12132 -2.12132 
C -2.683901 -1.55874 -3 -0.795609 -3 0 
C -3 0.795609 -2.683901 1.55874 -2.12132 2.12132 
C -1.55874 2.683901 -0.795609 3 0 3 
z
" style="stroke: #9467bd"/>
     </defs>
     <g clip-path="url(#p51b4866c14)">
      <use xlink:href="#md96da1da45" x="167.584199" y="262.138081" style="fill: #9467bd; stroke: #9467bd"/>
      <use xlink:href="#md96da1da45" x="150.462694" y="261.416308" style="fill: #9467bd; stroke: #9467bd"/>
      <use xlink:href="#md96da1da45" x="139.462172" y="261.384574" style="fill: #9467bd; stroke: #9467bd"/>
      <use xlink:href="#md96da1da45" x="163.00089" y="260.937865" style="fill: #9467bd; stroke: #9467bd"/>
      <use xlink:href="#md96da1da45" x="130.681451" y="260.484642" style="fill: #9467bd; stroke: #9467bd"/>
      <use xlink:href="#md96da1da45" x="144.398051" y="260.293517" style="fill: #9467bd; stroke: #9467bd"/>
      <use xlink:href="#md96da1da45" x="131.74546" y="260.277664" style="fill: #9467bd; stroke: #9467bd"/>
      <use xlink:href="#md96da1da45" x="128.785674" y="260.25426" style="fill: #9467bd; stroke: #9467bd"/>
      <use xlink:href="#md96da1da45" x="119.297683" y="258.823239" style="fill: #9467bd; stroke: #9467bd"/>
      <use xlink:href="#md96da1da45" x="124.174172" y="258.676049" style="fill: #9467bd; stroke: #9467bd"/>
      <use xlink:href="#md96da1da45" x="119.271499" y="258.31647" style="fill: #9467bd; stroke: #9467bd"/>
      <use xlink:href="#md96da1da45" x="111.821612" y="257.392235" style="fill: #9467bd; stroke: #9467bd"/>
      <use xlink:href="#md96da1da45" x="110.570296" y="257.39215" style="fill: #9467bd; stroke: #9467bd"/>
      <use xlink:href="#md96da1da45" x="109.903085" y="257.38964" style="fill: #9467bd; stroke: #9467bd"/>
      <use xlink:href="#md96da1da45" x="108.747124" y="257.385951" style="fill: #9467bd; stroke: #9467bd"/>
      <use xlink:href="#md96da1da45" x="108.890004" y="256.782857" style="fill: #9467bd; stroke: #9467bd"/>
      <use xlink:href="#md96da1da45" x="99.291205" y="255.961186" style="fill: #9467bd; stroke: #9467bd"/>
      <use xlink:href="#md96da1da45" x="99.790563" y="255.961186" style="fill: #9467bd; stroke: #9467bd"/>
      <use xlink:href="#md96da1da45" x="99.545292" y="255.961186" style="fill: #9467bd; stroke: #9467bd"/>
      <use xlink:href="#md96da1da45" x="100.134685" y="255.961186" style="fill: #9467bd; stroke: #9467bd"/>
      <use xlink:href="#md96da1da45" x="98.51829" y="255.88438" style="fill: #9467bd; stroke: #9467bd"/>
      <use xlink:href="#md96da1da45" x="89.919373" y="254.530171" style="fill: #9467bd; stroke: #9467bd"/>
      <use xlink:href="#md96da1da45" x="94.803251" y="254.53016" style="fill: #9467bd; stroke: #9467bd"/>
      <use xlink:href="#md96da1da45" x="89.542443" y="254.514216" style="fill: #9467bd; stroke: #9467bd"/>
      <use xlink:href="#md96da1da45" x="85.221959" y="253.099117" style="fill: #9467bd; stroke: #9467bd"/>
      <use xlink:href="#md96da1da45" x="83.34116" y="252.454556" style="fill: #9467bd; stroke: #9467bd"/>
      <use xlink:href="#md96da1da45" x="80.573986" y="251.668107" style="fill: #9467bd; stroke: #9467bd"/>
      <use xlink:href="#md96da1da45" x="79.514469" y="251.374456" style="fill: #9467bd; stroke: #9467bd"/>
      <use xlink:href="#md96da1da45" x="73.426492" y="250.237081" style="fill: #9467bd; stroke: #9467bd"/>
      <use xlink:href="#md96da1da45" x="73.412097" y="250.237064" style="fill: #9467bd; stroke: #9467bd"/>
      <use xlink:href="#md96da1da45" x="71.779544" y="249.207546" style="fill: #9467bd; stroke: #9467bd"/>
      <use xlink:href="#md96da1da45" x="64.643334" y="247.375034" style="fill: #9467bd; stroke: #9467bd"/>
      <use xlink:href="#md96da1da45" x="63.97485" y="247.375034" style="fill: #9467bd; stroke: #9467bd"/>
      <use xlink:href="#md96da1da45" x="64.330961" y="247.375034" style="fill: #9467bd; stroke: #9467bd"/>
      <use xlink:href="#md96da1da45" x="64.242887" y="243.081955" style="fill: #9467bd; stroke: #9467bd"/>
      <use xlink:href="#md96da1da45" x="63.990364" y="240.219897" style="fill: #9467bd; stroke: #9467bd"/>
      <use xlink:href="#md96da1da45" x="64.227174" y="234.495791" style="fill: #9467bd; stroke: #9467bd"/>
      <use xlink:href="#md96da1da45" x="64.177656" y="223.047547" style="fill: #9467bd; stroke: #9467bd"/>
      <use xlink:href="#md96da1da45" x="64.193385" y="214.461423" style="fill: #9467bd; stroke: #9467bd"/>
      <use xlink:href="#md96da1da45" x="64.379711" y="154.485425" style="fill: #9467bd; stroke: #9467bd"/>
     </g>
    </g>
    <g id="line2d_21">
     <path d="M 154.18566 262.993053 
L 144.191534 261.633902 
L 143.083757 260.581896 
L 141.527074 260.19983 
L 127.253121 259.775922 
L 122.848089 258.838242 
L 120.196077 258.324067 
L 86.303736 253.099128 
L 64.178821 219.895732 
L 64.071616 143.101831 
" clip-path="url(#p51b4866c14)" style="fill: none; stroke: #8c564b; stroke-width: 1.1; stroke-linecap: round"/>
     <defs>
      <path id="m371b6b02ca" d="M 0 3 
C 0.795609 3 1.55874 2.683901 2.12132 2.12132 
C 2.683901 1.55874 3 0.795609 3 0 
C 3 -0.795609 2.683901 -1.55874 2.12132 -2.12132 
C 1.55874 -2.683901 0.795609 -3 0 -3 
C -0.795609 -3 -1.55874 -2.683901 -2.12132 -2.12132 
C -2.683901 -1.55874 -3 -0.795609 -3 0 
C -3 0.795609 -2.683901 1.55874 -2.12132 2.12132 
C -1.55874 2.683901 -0.795609 3 0 3 
z
" style="stroke: #8c564b"/>
     </defs>
     <g clip-path="url(#p51b4866c14)">
      <use xlink:href="#m371b6b02ca" x="154.18566" y="262.993053" style="fill: #8c564b; stroke: #8c564b"/>
      <use xlink:href="#m371b6b02ca" x="144.191534" y="261.633902" style="fill: #8c564b; stroke: #8c564b"/>
      <use xlink:href="#m371b6b02ca" x="143.083757" y="260.581896" style="fill: #8c564b; stroke: #8c564b"/>
      <use xlink:href="#m371b6b02ca" x="141.527074" y="260.19983" style="fill: #8c564b; stroke: #8c564b"/>
      <use xlink:href="#m371b6b02ca" x="127.253121" y="259.775922" style="fill: #8c564b; stroke: #8c564b"/>
      <use xlink:href="#m371b6b02ca" x="122.848089" y="258.838242" style="fill: #8c564b; stroke: #8c564b"/>
      <use xlink:href="#m371b6b02ca" x="120.196077" y="258.324067" style="fill: #8c564b; stroke: #8c564b"/>
      <use xlink:href="#m371b6b02ca" x="86.303736" y="253.099128" style="fill: #8c564b; stroke: #8c564b"/>
      <use xlink:href="#m371b6b02ca" x="64.178821" y="219.895732" style="fill: #8c564b; stroke: #8c564b"/>
      <use xlink:href="#m371b6b02ca" x="64.071616" y="143.101831" style="fill: #8c564b; stroke: #8c564b"/>
     </g>
    </g>
    <g id="line2d_22">
     <path d="M 173.932026 264.000389 
L 160.114705 263.558728 
L 148.176267 262.379853 
L 140.553592 261.63677 
L 145.744998 261.316527 
L 132.614266 260.163908 
L 109.827322 257.307295 
L 64.404823 244.512976 
L 64.4156 206.216053 
L 64.199226 124.306745 
" clip-path="url(#p51b4866c14)" style="fill: none; stroke: #e377c2; stroke-width: 1.1; stroke-linecap: round"/>
     <defs>
      <path id="m574b038408" d="M 0 3 
C 0.795609 3 1.55874 2.683901 2.12132 2.12132 
C 2.683901 1.55874 3 0.795609 3 0 
C 3 -0.795609 2.683901 -1.55874 2.12132 -2.12132 
C 1.55874 -2.683901 0.795609 -3 0 -3 
C -0.795609 -3 -1.55874 -2.683901 -2.12132 -2.12132 
C -2.683901 -1.55874 -3 -0.795609 -3 0 
C -3 0.795609 -2.683901 1.55874 -2.12132 2.12132 
C -1.55874 2.683901 -0.795609 3 0 3 
z
" style="stroke: #e377c2"/>
     </defs>
     <g clip-path="url(#p51b4866c14)">
      <use xlink:href="#m574b038408" x="173.932026" y="264.000389" style="fill: #e377c2; stroke: #e377c2"/>
      <use xlink:href="#m574b038408" x="160.114705" y="263.558728" style="fill: #e377c2; stroke: #e377c2"/>
      <use xlink:href="#m574b038408" x="148.176267" y="262.379853" style="fill: #e377c2; stroke: #e377c2"/>
      <use xlink:href="#m574b038408" x="140.553592" y="261.63677" style="fill: #e377c2; stroke: #e377c2"/>
      <use xlink:href="#m574b038408" x="145.744998" y="261.316527" style="fill: #e377c2; stroke: #e377c2"/>
      <use xlink:href="#m574b038408" x="132.614266" y="260.163908" style="fill: #e377c2; stroke: #e377c2"/>
      <use xlink:href="#m574b038408" x="109.827322" y="257.307295" style="fill: #e377c2; stroke: #e377c2"/>
      <use xlink:href="#m574b038408" x="64.404823" y="244.512976" style="fill: #e377c2; stroke: #e377c2"/>
      <use xlink:href="#m574b038408" x="64.4156" y="206.216053" style="fill: #e377c2; stroke: #e377c2"/>
      <use xlink:href="#m574b038408" x="64.199226" y="124.306745" style="fill: #e377c2; stroke: #e377c2"/>
     </g>
    </g>
    <g id="line2d_23">
     <path d="M 184.796797 265.888875 
L 164.887269 264.400903 
L 162.741299 264.21772 
L 163.290803 262.299973 
L 139.252084 261.652701 
L 148.626691 261.3474 
L 109.337178 257.392213 
L 64.427987 234.495791 
L 64.264749 184.408252 
L 64.280002 99.946894 
" clip-path="url(#p51b4866c14)" style="fill: none; stroke: #7f7f7f; stroke-width: 1.1; stroke-linecap: round"/>
     <defs>
      <path id="m6e0c3b96c9" d="M 0 3 
C 0.795609 3 1.55874 2.683901 2.12132 2.12132 
C 2.683901 1.55874 3 0.795609 3 0 
C 3 -0.795609 2.683901 -1.55874 2.12132 -2.12132 
C 1.55874 -2.683901 0.795609 -3 0 -3 
C -0.795609 -3 -1.55874 -2.683901 -2.12132 -2.12132 
C -2.683901 -1.55874 -3 -0.795609 -3 0 
C -3 0.795609 -2.683901 1.55874 -2.12132 2.12132 
C -1.55874 2.683901 -0.795609 3 0 3 
z
" style="stroke: #7f7f7f"/>
     </defs>
     <g clip-path="url(#p51b4866c14)">
      <use xlink:href="#m6e0c3b96c9" x="184.796797" y="265.888875" style="fill: #7f7f7f; stroke: #7f7f7f"/>
      <use xlink:href="#m6e0c3b96c9" x="164.887269" y="264.400903" style="fill: #7f7f7f; stroke: #7f7f7f"/>
      <use xlink:href="#m6e0c3b96c9" x="162.741299" y="264.21772" style="fill: #7f7f7f; stroke: #7f7f7f"/>
      <use xlink:href="#m6e0c3b96c9" x="163.290803" y="262.299973" style="fill: #7f7f7f; stroke: #7f7f7f"/>
      <use xlink:href="#m6e0c3b96c9" x="139.252084" y="261.652701" style="fill: #7f7f7f; stroke: #7f7f7f"/>
      <use xlink:href="#m6e0c3b96c9" x="148.626691" y="261.3474" style="fill: #7f7f7f; stroke: #7f7f7f"/>
      <use xlink:href="#m6e0c3b96c9" x="109.337178" y="257.392213" style="fill: #7f7f7f; stroke: #7f7f7f"/>
      <use xlink:href="#m6e0c3b96c9" x="64.427987" y="234.495791" style="fill: #7f7f7f; stroke: #7f7f7f"/>
      <use xlink:href="#m6e0c3b96c9" x="64.264749" y="184.408252" style="fill: #7f7f7f; stroke: #7f7f7f"/>
      <use xlink:href="#m6e0c3b96c9" x="64.280002" y="99.946894" style="fill: #7f7f7f; stroke: #7f7f7f"/>
     </g>
    </g>
    <g id="line2d_24">
     <path d="M 226.617089 268.84391 
L 219.538537 268.749284 
L 193.258094 267.370344 
L 198.345483 266.784116 
L 187.68614 266.052196 
L 185.649675 265.587794 
L 72.676068 250.237081 
L 64.435315 227.015391 
L 64.297249 167.387267 
L 64.269685 78.193115 
" clip-path="url(#p51b4866c14)" style="fill: none; stroke: #bcbd22; stroke-width: 1.1; stroke-linecap: round"/>
     <defs>
      <path id="m4e72cb5fe9" d="M 0 3 
C 0.795609 3 1.55874 2.683901 2.12132 2.12132 
C 2.683901 1.55874 3 0.795609 3 0 
C 3 -0.795609 2.683901 -1.55874 2.12132 -2.12132 
C 1.55874 -2.683901 0.795609 -3 0 -3 
C -0.795609 -3 -1.55874 -2.683901 -2.12132 -2.12132 
C -2.683901 -1.55874 -3 -0.795609 -3 0 
C -3 0.795609 -2.683901 1.55874 -2.12132 2.12132 
C -1.55874 2.683901 -0.795609 3 0 3 
z
" style="stroke: #bcbd22"/>
     </defs>
     <g clip-path="url(#p51b4866c14)">
      <use xlink:href="#m4e72cb5fe9" x="226.617089" y="268.84391" style="fill: #bcbd22; stroke: #bcbd22"/>
      <use xlink:href="#m4e72cb5fe9" x="219.538537" y="268.749284" style="fill: #bcbd22; stroke: #bcbd22"/>
      <use xlink:href="#m4e72cb5fe9" x="193.258094" y="267.370344" style="fill: #bcbd22; stroke: #bcbd22"/>
      <use xlink:href="#m4e72cb5fe9" x="198.345483" y="266.784116" style="fill: #bcbd22; stroke: #bcbd22"/>
      <use xlink:href="#m4e72cb5fe9" x="187.68614" y="266.052196" style="fill: #bcbd22; stroke: #bcbd22"/>
      <use xlink:href="#m4e72cb5fe9" x="185.649675" y="265.587794" style="fill: #bcbd22; stroke: #bcbd22"/>
      <use xlink:href="#m4e72cb5fe9" x="72.676068" y="250.237081" style="fill: #bcbd22; stroke: #bcbd22"/>
      <use xlink:href="#m4e72cb5fe9" x="64.435315" y="227.015391" style="fill: #bcbd22; stroke: #bcbd22"/>
      <use xlink:href="#m4e72cb5fe9" x="64.297249" y="167.387267" style="fill: #bcbd22; stroke: #bcbd22"/>
      <use xlink:href="#m4e72cb5fe9" x="64.269685" y="78.193115" style="fill: #bcbd22; stroke: #bcbd22"/>
     </g>
    </g>
    <g id="line2d_25">
     <path d="M 256.704662 271.307942 
L 257.323383 271.055707 
L 254.268012 270.169175 
L 230.014436 268.804121 
L 207.032244 267.746621 
L 147.800533 262.940317 
L 64.444191 235.926818 
L 64.399426 205.875265 
L 64.54876 148.606766 
L 64.273088 52.67014 
" clip-path="url(#p51b4866c14)" style="fill: none; stroke: #17becf; stroke-width: 1.1; stroke-linecap: round"/>
     <defs>
      <path id="ma88efbc2ff" d="M 0 3 
C 0.795609 3 1.55874 2.683901 2.12132 2.12132 
C 2.683901 1.55874 3 0.795609 3 0 
C 3 -0.795609 2.683901 -1.55874 2.12132 -2.12132 
C 1.55874 -2.683901 0.795609 -3 0 -3 
C -0.795609 -3 -1.55874 -2.683901 -2.12132 -2.12132 
C -2.683901 -1.55874 -3 -0.795609 -3 0 
C -3 0.795609 -2.683901 1.55874 -2.12132 2.12132 
C -1.55874 2.683901 -0.795609 3 0 3 
z
" style="stroke: #17becf"/>
     </defs>
     <g clip-path="url(#p51b4866c14)">
      <use xlink:href="#ma88efbc2ff" x="256.704662" y="271.307942" style="fill: #17becf; stroke: #17becf"/>
      <use xlink:href="#ma88efbc2ff" x="257.323383" y="271.055707" style="fill: #17becf; stroke: #17becf"/>
      <use xlink:href="#ma88efbc2ff" x="254.268012" y="270.169175" style="fill: #17becf; stroke: #17becf"/>
      <use xlink:href="#ma88efbc2ff" x="230.014436" y="268.804121" style="fill: #17becf; stroke: #17becf"/>
      <use xlink:href="#ma88efbc2ff" x="207.032244" y="267.746621" style="fill: #17becf; stroke: #17becf"/>
      <use xlink:href="#ma88efbc2ff" x="147.800533" y="262.940317" style="fill: #17becf; stroke: #17becf"/>
      <use xlink:href="#ma88efbc2ff" x="64.444191" y="235.926818" style="fill: #17becf; stroke: #17becf"/>
      <use xlink:href="#ma88efbc2ff" x="64.399426" y="205.875265" style="fill: #17becf; stroke: #17becf"/>
      <use xlink:href="#ma88efbc2ff" x="64.54876" y="148.606766" style="fill: #17becf; stroke: #17becf"/>
      <use xlink:href="#ma88efbc2ff" x="64.273088" y="52.67014" style="fill: #17becf; stroke: #17becf"/>
     </g>
    </g>
    <g id="patch_4">
     <path d="M 53.31 282.239832 
L 53.31 41.73825 
" style="fill: none; stroke: #ffffff; stroke-width: 1.25; stroke-linejoin: miter; stroke-linecap: square"/>
    </g>
    <g id="patch_5">
     <path d="M 287.936701 282.239832 
L 287.936701 41.73825 
" style="fill: none; stroke: #ffffff; stroke-width: 1.25; stroke-linejoin: miter; stroke-linecap: square"/>
    </g>
    <g id="patch_6">
     <path d="M 53.31 282.239832 
L 287.936701 282.239832 
" style="fill: none; stroke: #ffffff; stroke-width: 1.25; stroke-linejoin: miter; stroke-linecap: square"/>
    </g>
    <g id="patch_7">
     <path d="M 53.31 41.73825 
L 287.936701 41.73825 
" style="fill: none; stroke: #ffffff; stroke-width: 1.25; stroke-linejoin: miter; stroke-linecap: square"/>
    </g>
    <g id="text_18">
     <!-- ← Better -->
     <g style="fill: #262626" transform="translate(149.285069 34.848531) scale(0.1 -0.1)">
      <defs>
       <path id="DejaVuSans-2190" d="M 313 1866 
L 313 2147 
L 1541 3375 
L 1916 3000 
L 1188 2272 
L 4997 2272 
L 4997 1741 
L 1188 1741 
L 1916 1013 
L 1541 638 
L 313 1866 
z
" transform="scale(0.015625)"/>
       <path id="DejaVuSans-42" d="M 1259 2228 
L 1259 519 
L 2272 519 
Q 2781 519 3026 730 
Q 3272 941 3272 1375 
Q 3272 1813 3026 2020 
Q 2781 2228 2272 2228 
L 1259 2228 
z
M 1259 4147 
L 1259 2741 
L 2194 2741 
Q 2656 2741 2882 2914 
Q 3109 3088 3109 3444 
Q 3109 3797 2882 3972 
Q 2656 4147 2194 4147 
L 1259 4147 
z
M 628 4666 
L 2241 4666 
Q 2963 4666 3353 4366 
Q 3744 4066 3744 3513 
Q 3744 3084 3544 2831 
Q 3344 2578 2956 2516 
Q 3422 2416 3680 2098 
Q 3938 1781 3938 1306 
Q 3938 681 3513 340 
Q 3088 0 2303 0 
L 628 0 
L 628 4666 
z
" transform="scale(0.015625)"/>
       <path id="DejaVuSans-74" d="M 1172 4494 
L 1172 3500 
L 2356 3500 
L 2356 3053 
L 1172 3053 
L 1172 1153 
Q 1172 725 1289 603 
Q 1406 481 1766 481 
L 2356 481 
L 2356 0 
L 1766 0 
Q 1100 0 847 248 
Q 594 497 594 1153 
L 594 3053 
L 172 3053 
L 172 3500 
L 594 3500 
L 594 4494 
L 1172 4494 
z
" transform="scale(0.015625)"/>
      </defs>
      <use xlink:href="#DejaVuSans-2190"/>
      <use xlink:href="#DejaVuSans-20" transform="translate(83.789062 0)"/>
      <use xlink:href="#DejaVuSans-42" transform="translate(115.576172 0)"/>
      <use xlink:href="#DejaVuSans-65" transform="translate(184.179688 0)"/>
      <use xlink:href="#DejaVuSans-74" transform="translate(245.703125 0)"/>
      <use xlink:href="#DejaVuSans-74" transform="translate(284.912109 0)"/>
      <use xlink:href="#DejaVuSans-65" transform="translate(324.121094 0)"/>
      <use xlink:href="#DejaVuSans-72" transform="translate(385.644531 0)"/>
     </g>
    </g>
    <g id="text_19">
     <!-- Better → -->
     <g style="fill: #262626" transform="translate(308.293078 174.602906) rotate(-90) scale(0.1 -0.1)">
      <defs>
       <path id="DejaVuSans-2192" d="M 5050 2147 
L 5050 1866 
L 3822 638 
L 3447 1013 
L 4175 1741 
L 366 1741 
L 366 2272 
L 4175 2272 
L 3447 3000 
L 3822 3375 
L 5050 2147 
z
" transform="scale(0.015625)"/>
      </defs>
      <use xlink:href="#DejaVuSans-42"/>
      <use xlink:href="#DejaVuSans-65" transform="translate(68.603516 0)"/>
      <use xlink:href="#DejaVuSans-74" transform="translate(130.126953 0)"/>
      <use xlink:href="#DejaVuSans-74" transform="translate(169.335938 0)"/>
      <use xlink:href="#DejaVuSans-65" transform="translate(208.544922 0)"/>
      <use xlink:href="#DejaVuSans-72" transform="translate(270.068359 0)"/>
      <use xlink:href="#DejaVuSans-20" transform="translate(311.181641 0)"/>
      <use xlink:href="#DejaVuSans-2192" transform="translate(342.96875 0)"/>
     </g>
    </g>
   </g>
   <g id="axes_2">
    <g id="patch_8">
     <path d="M 334.602175 282.239832 
L 569.228876 282.239832 
L 569.228876 41.73825 
L 334.602175 41.73825 
z
" style="fill: #f5f6fc"/>
    </g>
    <g id="matplotlib.axis_3">
     <g id="xtick_7">
      <g id="line2d_26">
       <path d="M 339.117361 282.239832 
L 339.117361 41.73825 
" clip-path="url(#pfac4a53e0d)" style="fill: none; stroke: #ffffff; stroke-linecap: round"/>
      </g>
      <g id="text_20">
       <!-- 0.00000 -->
       <g style="fill: #262626" transform="translate(316.373142 300.098114) scale(0.11 -0.11)">
        <use xlink:href="#DejaVuSans-30"/>
        <use xlink:href="#DejaVuSans-2e" transform="translate(63.623047 0)"/>
        <use xlink:href="#DejaVuSans-30" transform="translate(95.410156 0)"/>
        <use xlink:href="#DejaVuSans-30" transform="translate(159.033203 0)"/>
        <use xlink:href="#DejaVuSans-30" transform="translate(222.65625 0)"/>
        <use xlink:href="#DejaVuSans-30" transform="translate(286.279297 0)"/>
        <use xlink:href="#DejaVuSans-30" transform="translate(349.902344 0)"/>
       </g>
      </g>
     </g>
     <g id="xtick_8">
      <g id="line2d_27">
       <path d="M 382.184925 282.239832 
L 382.184925 41.73825 
" clip-path="url(#pfac4a53e0d)" style="fill: none; stroke: #ffffff; stroke-linecap: round"/>
      </g>
      <g id="text_21">
       <!-- 0.00005 -->
       <g style="fill: #262626" transform="translate(359.440707 300.098114) scale(0.11 -0.11)">
        <use xlink:href="#DejaVuSans-30"/>
        <use xlink:href="#DejaVuSans-2e" transform="translate(63.623047 0)"/>
        <use xlink:href="#DejaVuSans-30" transform="translate(95.410156 0)"/>
        <use xlink:href="#DejaVuSans-30" transform="translate(159.033203 0)"/>
        <use xlink:href="#DejaVuSans-30" transform="translate(222.65625 0)"/>
        <use xlink:href="#DejaVuSans-30" transform="translate(286.279297 0)"/>
        <use xlink:href="#DejaVuSans-35" transform="translate(349.902344 0)"/>
       </g>
      </g>
     </g>
     <g id="xtick_9">
      <g id="line2d_28">
       <path d="M 425.25249 282.239832 
L 425.25249 41.73825 
" clip-path="url(#pfac4a53e0d)" style="fill: none; stroke: #ffffff; stroke-linecap: round"/>
      </g>
      <g id="text_22">
       <!-- 0.00010 -->
       <g style="fill: #262626" transform="translate(402.508271 300.098114) scale(0.11 -0.11)">
        <use xlink:href="#DejaVuSans-30"/>
        <use xlink:href="#DejaVuSans-2e" transform="translate(63.623047 0)"/>
        <use xlink:href="#DejaVuSans-30" transform="translate(95.410156 0)"/>
        <use xlink:href="#DejaVuSans-30" transform="translate(159.033203 0)"/>
        <use xlink:href="#DejaVuSans-30" transform="translate(222.65625 0)"/>
        <use xlink:href="#DejaVuSans-31" transform="translate(286.279297 0)"/>
        <use xlink:href="#DejaVuSans-30" transform="translate(349.902344 0)"/>
       </g>
      </g>
     </g>
     <g id="xtick_10">
      <g id="line2d_29">
       <path d="M 468.320055 282.239832 
L 468.320055 41.73825 
" clip-path="url(#pfac4a53e0d)" style="fill: none; stroke: #ffffff; stroke-linecap: round"/>
      </g>
      <g id="text_23">
       <!-- 0.00015 -->
       <g style="fill: #262626" transform="translate(445.575836 300.098114) scale(0.11 -0.11)">
        <use xlink:href="#DejaVuSans-30"/>
        <use xlink:href="#DejaVuSans-2e" transform="translate(63.623047 0)"/>
        <use xlink:href="#DejaVuSans-30" transform="translate(95.410156 0)"/>
        <use xlink:href="#DejaVuSans-30" transform="translate(159.033203 0)"/>
        <use xlink:href="#DejaVuSans-30" transform="translate(222.65625 0)"/>
        <use xlink:href="#DejaVuSans-31" transform="translate(286.279297 0)"/>
        <use xlink:href="#DejaVuSans-35" transform="translate(349.902344 0)"/>
       </g>
      </g>
     </g>
     <g id="xtick_11">
      <g id="line2d_30">
       <path d="M 511.387619 282.239832 
L 511.387619 41.73825 
" clip-path="url(#pfac4a53e0d)" style="fill: none; stroke: #ffffff; stroke-linecap: round"/>
      </g>
      <g id="text_24">
       <!-- 0.00020 -->
       <g style="fill: #262626" transform="translate(488.643401 300.098114) scale(0.11 -0.11)">
        <use xlink:href="#DejaVuSans-30"/>
        <use xlink:href="#DejaVuSans-2e" transform="translate(63.623047 0)"/>
        <use xlink:href="#DejaVuSans-30" transform="translate(95.410156 0)"/>
        <use xlink:href="#DejaVuSans-30" transform="translate(159.033203 0)"/>
        <use xlink:href="#DejaVuSans-30" transform="translate(222.65625 0)"/>
        <use xlink:href="#DejaVuSans-32" transform="translate(286.279297 0)"/>
        <use xlink:href="#DejaVuSans-30" transform="translate(349.902344 0)"/>
       </g>
      </g>
     </g>
     <g id="xtick_12">
      <g id="line2d_31">
       <path d="M 554.455184 282.239832 
L 554.455184 41.73825 
" clip-path="url(#pfac4a53e0d)" style="fill: none; stroke: #ffffff; stroke-linecap: round"/>
      </g>
      <g id="text_25">
       <!-- 0.00025 -->
       <g style="fill: #262626" transform="translate(531.710965 300.098114) scale(0.11 -0.11)">
        <use xlink:href="#DejaVuSans-30"/>
        <use xlink:href="#DejaVuSans-2e" transform="translate(63.623047 0)"/>
        <use xlink:href="#DejaVuSans-30" transform="translate(95.410156 0)"/>
        <use xlink:href="#DejaVuSans-30" transform="translate(159.033203 0)"/>
        <use xlink:href="#DejaVuSans-30" transform="translate(222.65625 0)"/>
        <use xlink:href="#DejaVuSans-32" transform="translate(286.279297 0)"/>
        <use xlink:href="#DejaVuSans-35" transform="translate(349.902344 0)"/>
       </g>
      </g>
     </g>
     <g id="text_26">
      <!-- Reconstruction MSE -->
      <g style="fill: #262626" transform="translate(392.328963 315.503895) scale(0.12 -0.12)">
       <defs>
        <path id="DejaVuSans-52" d="M 2841 2188 
Q 3044 2119 3236 1894 
Q 3428 1669 3622 1275 
L 4263 0 
L 3584 0 
L 2988 1197 
Q 2756 1666 2539 1819 
Q 2322 1972 1947 1972 
L 1259 1972 
L 1259 0 
L 628 0 
L 628 4666 
L 2053 4666 
Q 2853 4666 3247 4331 
Q 3641 3997 3641 3322 
Q 3641 2881 3436 2590 
Q 3231 2300 2841 2188 
z
M 1259 4147 
L 1259 2491 
L 2053 2491 
Q 2509 2491 2742 2702 
Q 2975 2913 2975 3322 
Q 2975 3731 2742 3939 
Q 2509 4147 2053 4147 
L 1259 4147 
z
" transform="scale(0.015625)"/>
        <path id="DejaVuSans-75" d="M 544 1381 
L 544 3500 
L 1119 3500 
L 1119 1403 
Q 1119 906 1312 657 
Q 1506 409 1894 409 
Q 2359 409 2629 706 
Q 2900 1003 2900 1516 
L 2900 3500 
L 3475 3500 
L 3475 0 
L 2900 0 
L 2900 538 
Q 2691 219 2414 64 
Q 2138 -91 1772 -91 
Q 1169 -91 856 284 
Q 544 659 544 1381 
z
M 1991 3584 
L 1991 3584 
z
" transform="scale(0.015625)"/>
        <path id="DejaVuSans-69" d="M 603 3500 
L 1178 3500 
L 1178 0 
L 603 0 
L 603 3500 
z
M 603 4863 
L 1178 4863 
L 1178 4134 
L 603 4134 
L 603 4863 
z
" transform="scale(0.015625)"/>
        <path id="DejaVuSans-4d" d="M 628 4666 
L 1569 4666 
L 2759 1491 
L 3956 4666 
L 4897 4666 
L 4897 0 
L 4281 0 
L 4281 4097 
L 3078 897 
L 2444 897 
L 1241 4097 
L 1241 0 
L 628 0 
L 628 4666 
z
" transform="scale(0.015625)"/>
        <path id="DejaVuSans-53" d="M 3425 4513 
L 3425 3897 
Q 3066 4069 2747 4153 
Q 2428 4238 2131 4238 
Q 1616 4238 1336 4038 
Q 1056 3838 1056 3469 
Q 1056 3159 1242 3001 
Q 1428 2844 1947 2747 
L 2328 2669 
Q 3034 2534 3370 2195 
Q 3706 1856 3706 1288 
Q 3706 609 3251 259 
Q 2797 -91 1919 -91 
Q 1588 -91 1214 -16 
Q 841 59 441 206 
L 441 856 
Q 825 641 1194 531 
Q 1563 422 1919 422 
Q 2459 422 2753 634 
Q 3047 847 3047 1241 
Q 3047 1584 2836 1778 
Q 2625 1972 2144 2069 
L 1759 2144 
Q 1053 2284 737 2584 
Q 422 2884 422 3419 
Q 422 4038 858 4394 
Q 1294 4750 2059 4750 
Q 2388 4750 2728 4690 
Q 3069 4631 3425 4513 
z
" transform="scale(0.015625)"/>
       </defs>
       <use xlink:href="#DejaVuSans-52"/>
       <use xlink:href="#DejaVuSans-65" transform="translate(64.982422 0)"/>
       <use xlink:href="#DejaVuSans-63" transform="translate(126.505859 0)"/>
       <use xlink:href="#DejaVuSans-6f" transform="translate(181.486328 0)"/>
       <use xlink:href="#DejaVuSans-6e" transform="translate(242.667969 0)"/>
       <use xlink:href="#DejaVuSans-73" transform="translate(306.046875 0)"/>
       <use xlink:href="#DejaVuSans-74" transform="translate(358.146484 0)"/>
       <use xlink:href="#DejaVuSans-72" transform="translate(397.355469 0)"/>
       <use xlink:href="#DejaVuSans-75" transform="translate(438.46875 0)"/>
       <use xlink:href="#DejaVuSans-63" transform="translate(501.847656 0)"/>
       <use xlink:href="#DejaVuSans-74" transform="translate(556.828125 0)"/>
       <use xlink:href="#DejaVuSans-69" transform="translate(596.037109 0)"/>
       <use xlink:href="#DejaVuSans-6f" transform="translate(623.820312 0)"/>
       <use xlink:href="#DejaVuSans-6e" transform="translate(685.001953 0)"/>
       <use xlink:href="#DejaVuSans-20" transform="translate(748.380859 0)"/>
       <use xlink:href="#DejaVuSans-4d" transform="translate(780.167969 0)"/>
       <use xlink:href="#DejaVuSans-53" transform="translate(866.447266 0)"/>
       <use xlink:href="#DejaVuSans-45" transform="translate(929.923828 0)"/>
      </g>
     </g>
    </g>
    <g id="matplotlib.axis_4">
     <g id="ytick_10">
      <g id="line2d_32">
       <path d="M 334.602175 280.288634 
L 569.228876 280.288634 
" clip-path="url(#pfac4a53e0d)" style="fill: none; stroke: #ffffff; stroke-linecap: round"/>
      </g>
      <g id="line2d_33">
       <defs>
        <path id="m43c56e5a74" d="M 0 0 
L 6 0 
" style="stroke: #ffffff; stroke-width: 1.25"/>
       </defs>
       <g>
        <use xlink:href="#m43c56e5a74" x="569.228876" y="280.288634" style="fill: #ffffff; stroke: #ffffff; stroke-width: 1.25"/>
       </g>
      </g>
     </g>
     <g id="ytick_11">
      <g id="line2d_34">
       <path d="M 334.602175 251.668107 
L 569.228876 251.668107 
" clip-path="url(#pfac4a53e0d)" style="fill: none; stroke: #ffffff; stroke-linecap: round"/>
      </g>
      <g id="line2d_35">
       <g>
        <use xlink:href="#m43c56e5a74" x="569.228876" y="251.668107" style="fill: #ffffff; stroke: #ffffff; stroke-width: 1.25"/>
       </g>
      </g>
     </g>
     <g id="ytick_12">
      <g id="line2d_36">
       <path d="M 334.602175 223.047581 
L 569.228876 223.047581 
" clip-path="url(#pfac4a53e0d)" style="fill: none; stroke: #ffffff; stroke-linecap: round"/>
      </g>
      <g id="line2d_37">
       <g>
        <use xlink:href="#m43c56e5a74" x="569.228876" y="223.047581" style="fill: #ffffff; stroke: #ffffff; stroke-width: 1.25"/>
       </g>
      </g>
     </g>
     <g id="ytick_13">
      <g id="line2d_38">
       <path d="M 334.602175 194.427054 
L 569.228876 194.427054 
" clip-path="url(#pfac4a53e0d)" style="fill: none; stroke: #ffffff; stroke-linecap: round"/>
      </g>
      <g id="line2d_39">
       <g>
        <use xlink:href="#m43c56e5a74" x="569.228876" y="194.427054" style="fill: #ffffff; stroke: #ffffff; stroke-width: 1.25"/>
       </g>
      </g>
     </g>
     <g id="ytick_14">
      <g id="line2d_40">
       <path d="M 334.602175 165.806527 
L 569.228876 165.806527 
" clip-path="url(#pfac4a53e0d)" style="fill: none; stroke: #ffffff; stroke-linecap: round"/>
      </g>
      <g id="line2d_41">
       <g>
        <use xlink:href="#m43c56e5a74" x="569.228876" y="165.806527" style="fill: #ffffff; stroke: #ffffff; stroke-width: 1.25"/>
       </g>
      </g>
     </g>
     <g id="ytick_15">
      <g id="line2d_42">
       <path d="M 334.602175 137.186001 
L 569.228876 137.186001 
" clip-path="url(#pfac4a53e0d)" style="fill: none; stroke: #ffffff; stroke-linecap: round"/>
      </g>
      <g id="line2d_43">
       <g>
        <use xlink:href="#m43c56e5a74" x="569.228876" y="137.186001" style="fill: #ffffff; stroke: #ffffff; stroke-width: 1.25"/>
       </g>
      </g>
     </g>
     <g id="ytick_16">
      <g id="line2d_44">
       <path d="M 334.602175 108.565474 
L 569.228876 108.565474 
" clip-path="url(#pfac4a53e0d)" style="fill: none; stroke: #ffffff; stroke-linecap: round"/>
      </g>
      <g id="line2d_45">
       <g>
        <use xlink:href="#m43c56e5a74" x="569.228876" y="108.565474" style="fill: #ffffff; stroke: #ffffff; stroke-width: 1.25"/>
       </g>
      </g>
     </g>
     <g id="ytick_17">
      <g id="line2d_46">
       <path d="M 334.602175 79.944947 
L 569.228876 79.944947 
" clip-path="url(#pfac4a53e0d)" style="fill: none; stroke: #ffffff; stroke-linecap: round"/>
      </g>
      <g id="line2d_47">
       <g>
        <use xlink:href="#m43c56e5a74" x="569.228876" y="79.944947" style="fill: #ffffff; stroke: #ffffff; stroke-width: 1.25"/>
       </g>
      </g>
     </g>
     <g id="ytick_18">
      <g id="line2d_48">
       <path d="M 334.602175 51.32442 
L 569.228876 51.32442 
" clip-path="url(#pfac4a53e0d)" style="fill: none; stroke: #ffffff; stroke-linecap: round"/>
      </g>
      <g id="line2d_49">
       <g>
        <use xlink:href="#m43c56e5a74" x="569.228876" y="51.32442" style="fill: #ffffff; stroke: #ffffff; stroke-width: 1.25"/>
       </g>
      </g>
     </g>
    </g>
    <g id="line2d_50">
     <path d="M 394.694365 266.577925 
L 386.285945 262.961649 
L 399.024727 260.848045 
L 380.873859 260.790239 
L 405.947344 260.343413 
L 384.25703 259.418824 
L 359.610337 254.055975 
L 387.724178 252.961922 
L 360.094579 241.530973 
L 361.210718 191.424115 
" clip-path="url(#pfac4a53e0d)" style="fill: none; stroke: #1f77b4; stroke-width: 1.1; stroke-linecap: round"/>
     <g clip-path="url(#pfac4a53e0d)">
      <use xlink:href="#m2d182bef00" x="394.694365" y="266.577925" style="fill: #1f77b4; stroke: #1f77b4"/>
      <use xlink:href="#m2d182bef00" x="386.285945" y="262.961649" style="fill: #1f77b4; stroke: #1f77b4"/>
      <use xlink:href="#m2d182bef00" x="399.024727" y="260.848045" style="fill: #1f77b4; stroke: #1f77b4"/>
      <use xlink:href="#m2d182bef00" x="380.873859" y="260.790239" style="fill: #1f77b4; stroke: #1f77b4"/>
      <use xlink:href="#m2d182bef00" x="405.947344" y="260.343413" style="fill: #1f77b4; stroke: #1f77b4"/>
      <use xlink:href="#m2d182bef00" x="384.25703" y="259.418824" style="fill: #1f77b4; stroke: #1f77b4"/>
      <use xlink:href="#m2d182bef00" x="359.610337" y="254.055975" style="fill: #1f77b4; stroke: #1f77b4"/>
      <use xlink:href="#m2d182bef00" x="387.724178" y="252.961922" style="fill: #1f77b4; stroke: #1f77b4"/>
      <use xlink:href="#m2d182bef00" x="360.094579" y="241.530973" style="fill: #1f77b4; stroke: #1f77b4"/>
      <use xlink:href="#m2d182bef00" x="361.210718" y="191.424115" style="fill: #1f77b4; stroke: #1f77b4"/>
     </g>
    </g>
    <g id="line2d_51">
     <path d="M 395.13601 265.605068 
L 369.382645 262.076196 
L 387.903431 261.669287 
L 407.911232 261.483901 
L 372.117807 257.34155 
L 360.078008 255.95403 
L 362.075095 255.166413 
L 355.088561 253.099015 
L 360.553354 229.549179 
L 365.192101 182.986203 
" clip-path="url(#pfac4a53e0d)" style="fill: none; stroke: #ff7f0e; stroke-width: 1.1; stroke-linecap: round"/>
     <g clip-path="url(#pfac4a53e0d)">
      <use xlink:href="#m361a9906ab" x="395.13601" y="265.605068" style="fill: #ff7f0e; stroke: #ff7f0e"/>
      <use xlink:href="#m361a9906ab" x="369.382645" y="262.076196" style="fill: #ff7f0e; stroke: #ff7f0e"/>
      <use xlink:href="#m361a9906ab" x="387.903431" y="261.669287" style="fill: #ff7f0e; stroke: #ff7f0e"/>
      <use xlink:href="#m361a9906ab" x="407.911232" y="261.483901" style="fill: #ff7f0e; stroke: #ff7f0e"/>
      <use xlink:href="#m361a9906ab" x="372.117807" y="257.34155" style="fill: #ff7f0e; stroke: #ff7f0e"/>
      <use xlink:href="#m361a9906ab" x="360.078008" y="255.95403" style="fill: #ff7f0e; stroke: #ff7f0e"/>
      <use xlink:href="#m361a9906ab" x="362.075095" y="255.166413" style="fill: #ff7f0e; stroke: #ff7f0e"/>
      <use xlink:href="#m361a9906ab" x="355.088561" y="253.099015" style="fill: #ff7f0e; stroke: #ff7f0e"/>
      <use xlink:href="#m361a9906ab" x="360.553354" y="229.549179" style="fill: #ff7f0e; stroke: #ff7f0e"/>
      <use xlink:href="#m361a9906ab" x="365.192101" y="182.986203" style="fill: #ff7f0e; stroke: #ff7f0e"/>
     </g>
    </g>
    <g id="line2d_52">
     <path d="M 375.962601 263.289241 
L 383.180591 261.37824 
L 381.111978 260.011951 
L 370.742773 259.778079 
L 382.919721 259.456624 
L 360.291797 254.530707 
L 357.552722 254.53016 
L 351.986115 251.367669 
L 349.297917 230.202718 
L 364.667628 179.523914 
" clip-path="url(#pfac4a53e0d)" style="fill: none; stroke: #2ca02c; stroke-width: 1.1; stroke-linecap: round"/>
     <g clip-path="url(#pfac4a53e0d)">
      <use xlink:href="#m9a3dd8d2cd" x="375.962601" y="263.289241" style="fill: #2ca02c; stroke: #2ca02c"/>
      <use xlink:href="#m9a3dd8d2cd" x="383.180591" y="261.37824" style="fill: #2ca02c; stroke: #2ca02c"/>
      <use xlink:href="#m9a3dd8d2cd" x="381.111978" y="260.011951" style="fill: #2ca02c; stroke: #2ca02c"/>
      <use xlink:href="#m9a3dd8d2cd" x="370.742773" y="259.778079" style="fill: #2ca02c; stroke: #2ca02c"/>
      <use xlink:href="#m9a3dd8d2cd" x="382.919721" y="259.456624" style="fill: #2ca02c; stroke: #2ca02c"/>
      <use xlink:href="#m9a3dd8d2cd" x="360.291797" y="254.530707" style="fill: #2ca02c; stroke: #2ca02c"/>
      <use xlink:href="#m9a3dd8d2cd" x="357.552722" y="254.53016" style="fill: #2ca02c; stroke: #2ca02c"/>
      <use xlink:href="#m9a3dd8d2cd" x="351.986115" y="251.367669" style="fill: #2ca02c; stroke: #2ca02c"/>
      <use xlink:href="#m9a3dd8d2cd" x="349.297917" y="230.202718" style="fill: #2ca02c; stroke: #2ca02c"/>
      <use xlink:href="#m9a3dd8d2cd" x="364.667628" y="179.523914" style="fill: #2ca02c; stroke: #2ca02c"/>
     </g>
    </g>
    <g id="line2d_53">
     <path d="M 373.836305 260.298084 
L 379.998197 260.27635 
L 363.992713 260.2402 
L 379.69415 259.91742 
L 366.828729 259.706662 
L 362.185838 257.489292 
L 357.90326 254.340961 
L 347.984083 248.806055 
L 349.214346 233.007154 
L 362.29619 167.322496 
" clip-path="url(#pfac4a53e0d)" style="fill: none; stroke: #d62728; stroke-width: 1.1; stroke-linecap: round"/>
     <g clip-path="url(#pfac4a53e0d)">
      <use xlink:href="#m98858ec697" x="373.836305" y="260.298084" style="fill: #d62728; stroke: #d62728"/>
      <use xlink:href="#m98858ec697" x="379.998197" y="260.27635" style="fill: #d62728; stroke: #d62728"/>
      <use xlink:href="#m98858ec697" x="363.992713" y="260.2402" style="fill: #d62728; stroke: #d62728"/>
      <use xlink:href="#m98858ec697" x="379.69415" y="259.91742" style="fill: #d62728; stroke: #d62728"/>
      <use xlink:href="#m98858ec697" x="366.828729" y="259.706662" style="fill: #d62728; stroke: #d62728"/>
      <use xlink:href="#m98858ec697" x="362.185838" y="257.489292" style="fill: #d62728; stroke: #d62728"/>
      <use xlink:href="#m98858ec697" x="357.90326" y="254.340961" style="fill: #d62728; stroke: #d62728"/>
      <use xlink:href="#m98858ec697" x="347.984083" y="248.806055" style="fill: #d62728; stroke: #d62728"/>
      <use xlink:href="#m98858ec697" x="349.214346" y="233.007154" style="fill: #d62728; stroke: #d62728"/>
      <use xlink:href="#m98858ec697" x="362.29619" y="167.322496" style="fill: #d62728; stroke: #d62728"/>
     </g>
    </g>
    <g id="line2d_54">
     <path d="M 374.850432 262.138081 
L 376.99603 261.416308 
L 366.450807 261.384574 
L 368.585125 260.937865 
L 375.037592 260.484642 
L 366.989349 260.293517 
L 558.564026 260.277664 
L 408.666833 260.25426 
L 533.95129 258.823239 
L 362.283638 258.676049 
L 407.827845 258.31647 
L 417.944673 257.392235 
L 442.929579 257.39215 
L 374.114726 257.38964 
L 537.12148 257.385951 
L 358.544769 256.782857 
L 492.423182 255.961186 
L 418.082673 255.961186 
L 405.203201 255.961186 
L 417.419963 255.961186 
L 504.184947 255.88438 
L 396.96898 254.530171 
L 406.521021 254.53016 
L 393.022008 254.514216 
L 480.734028 253.099117 
L 352.5188 252.454556 
L 379.189398 251.668107 
L 368.203549 251.374456 
L 457.337499 250.237081 
L 387.758298 250.237064 
L 381.495533 249.207546 
L 366.595548 247.375034 
L 421.920297 247.375034 
L 417.183387 247.375034 
L 389.540959 243.081955 
L 361.901366 240.219897 
L 360.202624 234.495791 
L 349.132032 223.047547 
L 375.688575 214.461423 
L 371.566828 154.485425 
" clip-path="url(#pfac4a53e0d)" style="fill: none; stroke: #9467bd; stroke-width: 1.1; stroke-linecap: round"/>
     <g clip-path="url(#pfac4a53e0d)">
      <use xlink:href="#md96da1da45" x="374.850432" y="262.138081" style="fill: #9467bd; stroke: #9467bd"/>
      <use xlink:href="#md96da1da45" x="376.99603" y="261.416308" style="fill: #9467bd; stroke: #9467bd"/>
      <use xlink:href="#md96da1da45" x="366.450807" y="261.384574" style="fill: #9467bd; stroke: #9467bd"/>
      <use xlink:href="#md96da1da45" x="368.585125" y="260.937865" style="fill: #9467bd; stroke: #9467bd"/>
      <use xlink:href="#md96da1da45" x="375.037592" y="260.484642" style="fill: #9467bd; stroke: #9467bd"/>
      <use xlink:href="#md96da1da45" x="366.989349" y="260.293517" style="fill: #9467bd; stroke: #9467bd"/>
      <use xlink:href="#md96da1da45" x="558.564026" y="260.277664" style="fill: #9467bd; stroke: #9467bd"/>
      <use xlink:href="#md96da1da45" x="408.666833" y="260.25426" style="fill: #9467bd; stroke: #9467bd"/>
      <use xlink:href="#md96da1da45" x="533.95129" y="258.823239" style="fill: #9467bd; stroke: #9467bd"/>
      <use xlink:href="#md96da1da45" x="362.283638" y="258.676049" style="fill: #9467bd; stroke: #9467bd"/>
      <use xlink:href="#md96da1da45" x="407.827845" y="258.31647" style="fill: #9467bd; stroke: #9467bd"/>
      <use xlink:href="#md96da1da45" x="417.944673" y="257.392235" style="fill: #9467bd; stroke: #9467bd"/>
      <use xlink:href="#md96da1da45" x="442.929579" y="257.39215" style="fill: #9467bd; stroke: #9467bd"/>
      <use xlink:href="#md96da1da45" x="374.114726" y="257.38964" style="fill: #9467bd; stroke: #9467bd"/>
      <use xlink:href="#md96da1da45" x="537.12148" y="257.385951" style="fill: #9467bd; stroke: #9467bd"/>
      <use xlink:href="#md96da1da45" x="358.544769" y="256.782857" style="fill: #9467bd; stroke: #9467bd"/>
      <use xlink:href="#md96da1da45" x="492.423182" y="255.961186" style="fill: #9467bd; stroke: #9467bd"/>
      <use xlink:href="#md96da1da45" x="418.082673" y="255.961186" style="fill: #9467bd; stroke: #9467bd"/>
      <use xlink:href="#md96da1da45" x="405.203201" y="255.961186" style="fill: #9467bd; stroke: #9467bd"/>
      <use xlink:href="#md96da1da45" x="417.419963" y="255.961186" style="fill: #9467bd; stroke: #9467bd"/>
      <use xlink:href="#md96da1da45" x="504.184947" y="255.88438" style="fill: #9467bd; stroke: #9467bd"/>
      <use xlink:href="#md96da1da45" x="396.96898" y="254.530171" style="fill: #9467bd; stroke: #9467bd"/>
      <use xlink:href="#md96da1da45" x="406.521021" y="254.53016" style="fill: #9467bd; stroke: #9467bd"/>
      <use xlink:href="#md96da1da45" x="393.022008" y="254.514216" style="fill: #9467bd; stroke: #9467bd"/>
      <use xlink:href="#md96da1da45" x="480.734028" y="253.099117" style="fill: #9467bd; stroke: #9467bd"/>
      <use xlink:href="#md96da1da45" x="352.5188" y="252.454556" style="fill: #9467bd; stroke: #9467bd"/>
      <use xlink:href="#md96da1da45" x="379.189398" y="251.668107" style="fill: #9467bd; stroke: #9467bd"/>
      <use xlink:href="#md96da1da45" x="368.203549" y="251.374456" style="fill: #9467bd; stroke: #9467bd"/>
      <use xlink:href="#md96da1da45" x="457.337499" y="250.237081" style="fill: #9467bd; stroke: #9467bd"/>
      <use xlink:href="#md96da1da45" x="387.758298" y="250.237064" style="fill: #9467bd; stroke: #9467bd"/>
      <use xlink:href="#md96da1da45" x="381.495533" y="249.207546" style="fill: #9467bd; stroke: #9467bd"/>
      <use xlink:href="#md96da1da45" x="366.595548" y="247.375034" style="fill: #9467bd; stroke: #9467bd"/>
      <use xlink:href="#md96da1da45" x="421.920297" y="247.375034" style="fill: #9467bd; stroke: #9467bd"/>
      <use xlink:href="#md96da1da45" x="417.183387" y="247.375034" style="fill: #9467bd; stroke: #9467bd"/>
      <use xlink:href="#md96da1da45" x="389.540959" y="243.081955" style="fill: #9467bd; stroke: #9467bd"/>
      <use xlink:href="#md96da1da45" x="361.901366" y="240.219897" style="fill: #9467bd; stroke: #9467bd"/>
      <use xlink:href="#md96da1da45" x="360.202624" y="234.495791" style="fill: #9467bd; stroke: #9467bd"/>
      <use xlink:href="#md96da1da45" x="349.132032" y="223.047547" style="fill: #9467bd; stroke: #9467bd"/>
      <use xlink:href="#md96da1da45" x="375.688575" y="214.461423" style="fill: #9467bd; stroke: #9467bd"/>
      <use xlink:href="#md96da1da45" x="371.566828" y="154.485425" style="fill: #9467bd; stroke: #9467bd"/>
     </g>
    </g>
    <g id="line2d_55">
     <path d="M 370.262045 262.993053 
L 366.418546 261.633902 
L 366.579967 260.581896 
L 368.238105 260.19983 
L 363.348479 259.775922 
L 372.749393 258.838242 
L 360.038796 258.324067 
L 352.433536 253.099128 
L 350.574827 219.895732 
L 372.443787 143.101831 
" clip-path="url(#pfac4a53e0d)" style="fill: none; stroke: #8c564b; stroke-width: 1.1; stroke-linecap: round"/>
     <g clip-path="url(#pfac4a53e0d)">
      <use xlink:href="#m371b6b02ca" x="370.262045" y="262.993053" style="fill: #8c564b; stroke: #8c564b"/>
      <use xlink:href="#m371b6b02ca" x="366.418546" y="261.633902" style="fill: #8c564b; stroke: #8c564b"/>
      <use xlink:href="#m371b6b02ca" x="366.579967" y="260.581896" style="fill: #8c564b; stroke: #8c564b"/>
      <use xlink:href="#m371b6b02ca" x="368.238105" y="260.19983" style="fill: #8c564b; stroke: #8c564b"/>
      <use xlink:href="#m371b6b02ca" x="363.348479" y="259.775922" style="fill: #8c564b; stroke: #8c564b"/>
      <use xlink:href="#m371b6b02ca" x="372.749393" y="258.838242" style="fill: #8c564b; stroke: #8c564b"/>
      <use xlink:href="#m371b6b02ca" x="360.038796" y="258.324067" style="fill: #8c564b; stroke: #8c564b"/>
      <use xlink:href="#m371b6b02ca" x="352.433536" y="253.099128" style="fill: #8c564b; stroke: #8c564b"/>
      <use xlink:href="#m371b6b02ca" x="350.574827" y="219.895732" style="fill: #8c564b; stroke: #8c564b"/>
      <use xlink:href="#m371b6b02ca" x="372.443787" y="143.101831" style="fill: #8c564b; stroke: #8c564b"/>
     </g>
    </g>
    <g id="line2d_56">
     <path d="M 374.007978 264.000389 
L 371.847013 263.558728 
L 376.815111 262.379853 
L 377.96218 261.63677 
L 368.097825 261.316527 
L 364.680165 260.163908 
L 357.977243 257.307295 
L 345.267025 244.512976 
L 351.342827 206.216053 
L 373.659337 124.306745 
" clip-path="url(#pfac4a53e0d)" style="fill: none; stroke: #e377c2; stroke-width: 1.1; stroke-linecap: round"/>
     <g clip-path="url(#pfac4a53e0d)">
      <use xlink:href="#m574b038408" x="374.007978" y="264.000389" style="fill: #e377c2; stroke: #e377c2"/>
      <use xlink:href="#m574b038408" x="371.847013" y="263.558728" style="fill: #e377c2; stroke: #e377c2"/>
      <use xlink:href="#m574b038408" x="376.815111" y="262.379853" style="fill: #e377c2; stroke: #e377c2"/>
      <use xlink:href="#m574b038408" x="377.96218" y="261.63677" style="fill: #e377c2; stroke: #e377c2"/>
      <use xlink:href="#m574b038408" x="368.097825" y="261.316527" style="fill: #e377c2; stroke: #e377c2"/>
      <use xlink:href="#m574b038408" x="364.680165" y="260.163908" style="fill: #e377c2; stroke: #e377c2"/>
      <use xlink:href="#m574b038408" x="357.977243" y="257.307295" style="fill: #e377c2; stroke: #e377c2"/>
      <use xlink:href="#m574b038408" x="345.267025" y="244.512976" style="fill: #e377c2; stroke: #e377c2"/>
      <use xlink:href="#m574b038408" x="351.342827" y="206.216053" style="fill: #e377c2; stroke: #e377c2"/>
      <use xlink:href="#m574b038408" x="373.659337" y="124.306745" style="fill: #e377c2; stroke: #e377c2"/>
     </g>
    </g>
    <g id="line2d_57">
     <path d="M 375.052469 265.888875 
L 372.681175 264.400903 
L 371.708419 264.21772 
L 370.82755 262.299973 
L 366.102381 261.652701 
L 367.925304 261.3474 
L 358.224463 257.392213 
L 345.985342 234.495791 
L 356.749981 184.408252 
L 383.41316 99.946894 
" clip-path="url(#pfac4a53e0d)" style="fill: none; stroke: #7f7f7f; stroke-width: 1.1; stroke-linecap: round"/>
     <g clip-path="url(#pfac4a53e0d)">
      <use xlink:href="#m6e0c3b96c9" x="375.052469" y="265.888875" style="fill: #7f7f7f; stroke: #7f7f7f"/>
      <use xlink:href="#m6e0c3b96c9" x="372.681175" y="264.400903" style="fill: #7f7f7f; stroke: #7f7f7f"/>
      <use xlink:href="#m6e0c3b96c9" x="371.708419" y="264.21772" style="fill: #7f7f7f; stroke: #7f7f7f"/>
      <use xlink:href="#m6e0c3b96c9" x="370.82755" y="262.299973" style="fill: #7f7f7f; stroke: #7f7f7f"/>
      <use xlink:href="#m6e0c3b96c9" x="366.102381" y="261.652701" style="fill: #7f7f7f; stroke: #7f7f7f"/>
      <use xlink:href="#m6e0c3b96c9" x="367.925304" y="261.3474" style="fill: #7f7f7f; stroke: #7f7f7f"/>
      <use xlink:href="#m6e0c3b96c9" x="358.224463" y="257.392213" style="fill: #7f7f7f; stroke: #7f7f7f"/>
      <use xlink:href="#m6e0c3b96c9" x="345.985342" y="234.495791" style="fill: #7f7f7f; stroke: #7f7f7f"/>
      <use xlink:href="#m6e0c3b96c9" x="356.749981" y="184.408252" style="fill: #7f7f7f; stroke: #7f7f7f"/>
      <use xlink:href="#m6e0c3b96c9" x="383.41316" y="99.946894" style="fill: #7f7f7f; stroke: #7f7f7f"/>
     </g>
    </g>
    <g id="line2d_58">
     <path d="M 386.702304 268.84391 
L 384.774274 268.749284 
L 380.546969 267.370344 
L 377.200503 266.784116 
L 377.176018 266.052196 
L 377.091619 265.587794 
L 347.268799 250.237081 
L 347.340168 227.015391 
L 359.509513 167.387267 
L 394.897258 78.193115 
" clip-path="url(#pfac4a53e0d)" style="fill: none; stroke: #bcbd22; stroke-width: 1.1; stroke-linecap: round"/>
     <g clip-path="url(#pfac4a53e0d)">
      <use xlink:href="#m4e72cb5fe9" x="386.702304" y="268.84391" style="fill: #bcbd22; stroke: #bcbd22"/>
      <use xlink:href="#m4e72cb5fe9" x="384.774274" y="268.749284" style="fill: #bcbd22; stroke: #bcbd22"/>
      <use xlink:href="#m4e72cb5fe9" x="380.546969" y="267.370344" style="fill: #bcbd22; stroke: #bcbd22"/>
      <use xlink:href="#m4e72cb5fe9" x="377.200503" y="266.784116" style="fill: #bcbd22; stroke: #bcbd22"/>
      <use xlink:href="#m4e72cb5fe9" x="377.176018" y="266.052196" style="fill: #bcbd22; stroke: #bcbd22"/>
      <use xlink:href="#m4e72cb5fe9" x="377.091619" y="265.587794" style="fill: #bcbd22; stroke: #bcbd22"/>
      <use xlink:href="#m4e72cb5fe9" x="347.268799" y="250.237081" style="fill: #bcbd22; stroke: #bcbd22"/>
      <use xlink:href="#m4e72cb5fe9" x="347.340168" y="227.015391" style="fill: #bcbd22; stroke: #bcbd22"/>
      <use xlink:href="#m4e72cb5fe9" x="359.509513" y="167.387267" style="fill: #bcbd22; stroke: #bcbd22"/>
      <use xlink:href="#m4e72cb5fe9" x="394.897258" y="78.193115" style="fill: #bcbd22; stroke: #bcbd22"/>
     </g>
    </g>
    <g id="line2d_59">
     <path d="M 392.376233 271.307942 
L 392.094799 271.055707 
L 390.169073 270.169175 
L 385.807369 268.804121 
L 381.631911 267.746621 
L 369.414979 262.940317 
L 347.057471 235.926818 
L 352.797699 205.875265 
L 365.92524 148.606766 
L 413.612121 52.67014 
" clip-path="url(#pfac4a53e0d)" style="fill: none; stroke: #17becf; stroke-width: 1.1; stroke-linecap: round"/>
     <g clip-path="url(#pfac4a53e0d)">
      <use xlink:href="#ma88efbc2ff" x="392.376233" y="271.307942" style="fill: #17becf; stroke: #17becf"/>
      <use xlink:href="#ma88efbc2ff" x="392.094799" y="271.055707" style="fill: #17becf; stroke: #17becf"/>
      <use xlink:href="#ma88efbc2ff" x="390.169073" y="270.169175" style="fill: #17becf; stroke: #17becf"/>
      <use xlink:href="#ma88efbc2ff" x="385.807369" y="268.804121" style="fill: #17becf; stroke: #17becf"/>
      <use xlink:href="#ma88efbc2ff" x="381.631911" y="267.746621" style="fill: #17becf; stroke: #17becf"/>
      <use xlink:href="#ma88efbc2ff" x="369.414979" y="262.940317" style="fill: #17becf; stroke: #17becf"/>
      <use xlink:href="#ma88efbc2ff" x="347.057471" y="235.926818" style="fill: #17becf; stroke: #17becf"/>
      <use xlink:href="#ma88efbc2ff" x="352.797699" y="205.875265" style="fill: #17becf; stroke: #17becf"/>
      <use xlink:href="#ma88efbc2ff" x="365.92524" y="148.606766" style="fill: #17becf; stroke: #17becf"/>
      <use xlink:href="#ma88efbc2ff" x="413.612121" y="52.67014" style="fill: #17becf; stroke: #17becf"/>
     </g>
    </g>
    <g id="patch_9">
     <path d="M 334.602175 282.239832 
L 334.602175 41.73825 
" style="fill: none; stroke: #ffffff; stroke-width: 1.25; stroke-linejoin: miter; stroke-linecap: square"/>
    </g>
    <g id="patch_10">
     <path d="M 569.228876 282.239832 
L 569.228876 41.73825 
" style="fill: none; stroke: #ffffff; stroke-width: 1.25; stroke-linejoin: miter; stroke-linecap: square"/>
    </g>
    <g id="patch_11">
     <path d="M 334.602175 282.239832 
L 569.228876 282.239832 
" style="fill: none; stroke: #ffffff; stroke-width: 1.25; stroke-linejoin: miter; stroke-linecap: square"/>
    </g>
    <g id="patch_12">
     <path d="M 334.602175 41.73825 
L 569.228876 41.73825 
" style="fill: none; stroke: #ffffff; stroke-width: 1.25; stroke-linejoin: miter; stroke-linecap: square"/>
    </g>
    <g id="text_27">
     <!-- ← Better -->
     <g style="fill: #262626" transform="translate(430.577244 34.848531) scale(0.1 -0.1)">
      <use xlink:href="#DejaVuSans-2190"/>
      <use xlink:href="#DejaVuSans-20" transform="translate(83.789062 0)"/>
      <use xlink:href="#DejaVuSans-42" transform="translate(115.576172 0)"/>
      <use xlink:href="#DejaVuSans-65" transform="translate(184.179688 0)"/>
      <use xlink:href="#DejaVuSans-74" transform="translate(245.703125 0)"/>
      <use xlink:href="#DejaVuSans-74" transform="translate(284.912109 0)"/>
      <use xlink:href="#DejaVuSans-65" transform="translate(324.121094 0)"/>
      <use xlink:href="#DejaVuSans-72" transform="translate(385.644531 0)"/>
     </g>
    </g>
   </g>
   <g id="text_28">
    <!-- layer=4 -->
    <g style="fill: #262626" transform="translate(268.41501 18.14175) scale(0.144 -0.144)">
     <defs>
      <path id="DejaVuSans-Bold-6c" d="M 538 4863 
L 1656 4863 
L 1656 0 
L 538 0 
L 538 4863 
z
" transform="scale(0.015625)"/>
      <path id="DejaVuSans-Bold-61" d="M 2106 1575 
Q 1756 1575 1579 1456 
Q 1403 1338 1403 1106 
Q 1403 894 1545 773 
Q 1688 653 1941 653 
Q 2256 653 2472 879 
Q 2688 1106 2688 1447 
L 2688 1575 
L 2106 1575 
z
M 3816 1997 
L 3816 0 
L 2688 0 
L 2688 519 
Q 2463 200 2181 54 
Q 1900 -91 1497 -91 
Q 953 -91 614 226 
Q 275 544 275 1050 
Q 275 1666 698 1953 
Q 1122 2241 2028 2241 
L 2688 2241 
L 2688 2328 
Q 2688 2594 2478 2717 
Q 2269 2841 1825 2841 
Q 1466 2841 1156 2769 
Q 847 2697 581 2553 
L 581 3406 
Q 941 3494 1303 3539 
Q 1666 3584 2028 3584 
Q 2975 3584 3395 3211 
Q 3816 2838 3816 1997 
z
" transform="scale(0.015625)"/>
      <path id="DejaVuSans-Bold-79" d="M 78 3500 
L 1197 3500 
L 2138 1125 
L 2938 3500 
L 4056 3500 
L 2584 -331 
Q 2363 -916 2067 -1148 
Q 1772 -1381 1288 -1381 
L 641 -1381 
L 641 -647 
L 991 -647 
Q 1275 -647 1404 -556 
Q 1534 -466 1606 -231 
L 1638 -134 
L 78 3500 
z
" transform="scale(0.015625)"/>
      <path id="DejaVuSans-Bold-65" d="M 4031 1759 
L 4031 1441 
L 1416 1441 
Q 1456 1047 1700 850 
Q 1944 653 2381 653 
Q 2734 653 3104 758 
Q 3475 863 3866 1075 
L 3866 213 
Q 3469 63 3072 -14 
Q 2675 -91 2278 -91 
Q 1328 -91 801 392 
Q 275 875 275 1747 
Q 275 2603 792 3093 
Q 1309 3584 2216 3584 
Q 3041 3584 3536 3087 
Q 4031 2591 4031 1759 
z
M 2881 2131 
Q 2881 2450 2695 2645 
Q 2509 2841 2209 2841 
Q 1884 2841 1681 2658 
Q 1478 2475 1428 2131 
L 2881 2131 
z
" transform="scale(0.015625)"/>
      <path id="DejaVuSans-Bold-72" d="M 3138 2547 
Q 2991 2616 2845 2648 
Q 2700 2681 2553 2681 
Q 2122 2681 1889 2404 
Q 1656 2128 1656 1613 
L 1656 0 
L 538 0 
L 538 3500 
L 1656 3500 
L 1656 2925 
Q 1872 3269 2151 3426 
Q 2431 3584 2822 3584 
Q 2878 3584 2943 3579 
Q 3009 3575 3134 3559 
L 3138 2547 
z
" transform="scale(0.015625)"/>
      <path id="DejaVuSans-Bold-3d" d="M 678 3084 
L 4684 3084 
L 4684 2350 
L 678 2350 
L 678 3084 
z
M 678 1663 
L 4684 1663 
L 4684 922 
L 678 922 
L 678 1663 
z
" transform="scale(0.015625)"/>
      <path id="DejaVuSans-Bold-34" d="M 2356 3675 
L 1038 1722 
L 2356 1722 
L 2356 3675 
z
M 2156 4666 
L 3494 4666 
L 3494 1722 
L 4159 1722 
L 4159 850 
L 3494 850 
L 3494 0 
L 2356 0 
L 2356 850 
L 288 850 
L 288 1881 
L 2156 4666 
z
" transform="scale(0.015625)"/>
     </defs>
     <use xlink:href="#DejaVuSans-Bold-6c"/>
     <use xlink:href="#DejaVuSans-Bold-61" transform="translate(34.277344 0)"/>
     <use xlink:href="#DejaVuSans-Bold-79" transform="translate(98.632812 0)"/>
     <use xlink:href="#DejaVuSans-Bold-65" transform="translate(163.818359 0)"/>
     <use xlink:href="#DejaVuSans-Bold-72" transform="translate(231.640625 0)"/>
     <use xlink:href="#DejaVuSans-Bold-3d" transform="translate(280.957031 0)"/>
     <use xlink:href="#DejaVuSans-Bold-34" transform="translate(364.746094 0)"/>
    </g>
   </g>
  </g>
  <g id="legend_1">
   <g id="patch_13">
    <path d="M 503.65601 191.572885 
L 572.49976 191.572885 
Q 574.69976 191.572885 574.69976 189.372885 
L 574.69976 11.89976 
Q 574.69976 9.69976 572.49976 9.69976 
L 503.65601 9.69976 
Q 501.45601 9.69976 501.45601 11.89976 
L 501.45601 189.372885 
Q 501.45601 191.572885 503.65601 191.572885 
z
" style="fill: #f5f6fc; opacity: 0.8; stroke: #cccccc; stroke-linejoin: miter"/>
   </g>
   <g id="text_29">
    <!-- Beta Value -->
    <g style="fill: #262626" transform="translate(505.85601 23.217885) scale(0.12 -0.12)">
     <defs>
      <path id="DejaVuSans-56" d="M 1831 0 
L 50 4666 
L 709 4666 
L 2188 738 
L 3669 4666 
L 4325 4666 
L 2547 0 
L 1831 0 
z
" transform="scale(0.015625)"/>
      <path id="DejaVuSans-6c" d="M 603 4863 
L 1178 4863 
L 1178 0 
L 603 0 
L 603 4863 
z
" transform="scale(0.015625)"/>
     </defs>
     <use xlink:href="#DejaVuSans-42"/>
     <use xlink:href="#DejaVuSans-65" transform="translate(68.603516 0)"/>
     <use xlink:href="#DejaVuSans-74" transform="translate(130.126953 0)"/>
     <use xlink:href="#DejaVuSans-61" transform="translate(169.335938 0)"/>
     <use xlink:href="#DejaVuSans-20" transform="translate(230.615234 0)"/>
     <use xlink:href="#DejaVuSans-56" transform="translate(262.402344 0)"/>
     <use xlink:href="#DejaVuSans-61" transform="translate(323.060547 0)"/>
     <use xlink:href="#DejaVuSans-6c" transform="translate(384.339844 0)"/>
     <use xlink:href="#DejaVuSans-75" transform="translate(412.123047 0)"/>
     <use xlink:href="#DejaVuSans-65" transform="translate(475.501953 0)"/>
    </g>
   </g>
   <g id="line2d_60">
    <path d="M 513.931166 35.721791 
L 524.931166 35.721791 
L 535.931166 35.721791 
" style="fill: none; stroke: #1f77b4; stroke-width: 1.1; stroke-linecap: round"/>
    <g>
     <use xlink:href="#m2d182bef00" x="524.931166" y="35.721791" style="fill: #1f77b4; stroke: #1f77b4"/>
    </g>
   </g>
   <g id="text_30">
    <!-- 0.1 -->
    <g style="fill: #262626" transform="translate(544.731166 39.571791) scale(0.11 -0.11)">
     <use xlink:href="#DejaVuSans-30"/>
     <use xlink:href="#DejaVuSans-2e" transform="translate(63.623047 0)"/>
     <use xlink:href="#DejaVuSans-31" transform="translate(95.410156 0)"/>
    </g>
   </g>
   <g id="line2d_61">
    <path d="M 513.931166 51.867729 
L 524.931166 51.867729 
L 535.931166 51.867729 
" style="fill: none; stroke: #ff7f0e; stroke-width: 1.1; stroke-linecap: round"/>
    <g>
     <use xlink:href="#m361a9906ab" x="524.931166" y="51.867729" style="fill: #ff7f0e; stroke: #ff7f0e"/>
    </g>
   </g>
   <g id="text_31">
    <!-- 0.2 -->
    <g style="fill: #262626" transform="translate(544.731166 55.717729) scale(0.11 -0.11)">
     <use xlink:href="#DejaVuSans-30"/>
     <use xlink:href="#DejaVuSans-2e" transform="translate(63.623047 0)"/>
     <use xlink:href="#DejaVuSans-32" transform="translate(95.410156 0)"/>
    </g>
   </g>
   <g id="line2d_62">
    <path d="M 513.931166 68.013666 
L 524.931166 68.013666 
L 535.931166 68.013666 
" style="fill: none; stroke: #2ca02c; stroke-width: 1.1; stroke-linecap: round"/>
    <g>
     <use xlink:href="#m9a3dd8d2cd" x="524.931166" y="68.013666" style="fill: #2ca02c; stroke: #2ca02c"/>
    </g>
   </g>
   <g id="text_32">
    <!-- 0.3 -->
    <g style="fill: #262626" transform="translate(544.731166 71.863666) scale(0.11 -0.11)">
     <defs>
      <path id="DejaVuSans-33" d="M 2597 2516 
Q 3050 2419 3304 2112 
Q 3559 1806 3559 1356 
Q 3559 666 3084 287 
Q 2609 -91 1734 -91 
Q 1441 -91 1130 -33 
Q 819 25 488 141 
L 488 750 
Q 750 597 1062 519 
Q 1375 441 1716 441 
Q 2309 441 2620 675 
Q 2931 909 2931 1356 
Q 2931 1769 2642 2001 
Q 2353 2234 1838 2234 
L 1294 2234 
L 1294 2753 
L 1863 2753 
Q 2328 2753 2575 2939 
Q 2822 3125 2822 3475 
Q 2822 3834 2567 4026 
Q 2313 4219 1838 4219 
Q 1578 4219 1281 4162 
Q 984 4106 628 3988 
L 628 4550 
Q 988 4650 1302 4700 
Q 1616 4750 1894 4750 
Q 2613 4750 3031 4423 
Q 3450 4097 3450 3541 
Q 3450 3153 3228 2886 
Q 3006 2619 2597 2516 
z
" transform="scale(0.015625)"/>
     </defs>
     <use xlink:href="#DejaVuSans-30"/>
     <use xlink:href="#DejaVuSans-2e" transform="translate(63.623047 0)"/>
     <use xlink:href="#DejaVuSans-33" transform="translate(95.410156 0)"/>
    </g>
   </g>
   <g id="line2d_63">
    <path d="M 513.931166 84.159604 
L 524.931166 84.159604 
L 535.931166 84.159604 
" style="fill: none; stroke: #d62728; stroke-width: 1.1; stroke-linecap: round"/>
    <g>
     <use xlink:href="#m98858ec697" x="524.931166" y="84.159604" style="fill: #d62728; stroke: #d62728"/>
    </g>
   </g>
   <g id="text_33">
    <!-- 0.4 -->
    <g style="fill: #262626" transform="translate(544.731166 88.009604) scale(0.11 -0.11)">
     <use xlink:href="#DejaVuSans-30"/>
     <use xlink:href="#DejaVuSans-2e" transform="translate(63.623047 0)"/>
     <use xlink:href="#DejaVuSans-34" transform="translate(95.410156 0)"/>
    </g>
   </g>
   <g id="line2d_64">
    <path d="M 513.931166 100.305541 
L 524.931166 100.305541 
L 535.931166 100.305541 
" style="fill: none; stroke: #9467bd; stroke-width: 1.1; stroke-linecap: round"/>
    <g>
     <use xlink:href="#md96da1da45" x="524.931166" y="100.305541" style="fill: #9467bd; stroke: #9467bd"/>
    </g>
   </g>
   <g id="text_34">
    <!-- 0.5 -->
    <g style="fill: #262626" transform="translate(544.731166 104.155541) scale(0.11 -0.11)">
     <use xlink:href="#DejaVuSans-30"/>
     <use xlink:href="#DejaVuSans-2e" transform="translate(63.623047 0)"/>
     <use xlink:href="#DejaVuSans-35" transform="translate(95.410156 0)"/>
    </g>
   </g>
   <g id="line2d_65">
    <path d="M 513.931166 116.451479 
L 524.931166 116.451479 
L 535.931166 116.451479 
" style="fill: none; stroke: #8c564b; stroke-width: 1.1; stroke-linecap: round"/>
    <g>
     <use xlink:href="#m371b6b02ca" x="524.931166" y="116.451479" style="fill: #8c564b; stroke: #8c564b"/>
    </g>
   </g>
   <g id="text_35">
    <!-- 0.6 -->
    <g style="fill: #262626" transform="translate(544.731166 120.301479) scale(0.11 -0.11)">
     <use xlink:href="#DejaVuSans-30"/>
     <use xlink:href="#DejaVuSans-2e" transform="translate(63.623047 0)"/>
     <use xlink:href="#DejaVuSans-36" transform="translate(95.410156 0)"/>
    </g>
   </g>
   <g id="line2d_66">
    <path d="M 513.931166 132.597416 
L 524.931166 132.597416 
L 535.931166 132.597416 
" style="fill: none; stroke: #e377c2; stroke-width: 1.1; stroke-linecap: round"/>
    <g>
     <use xlink:href="#m574b038408" x="524.931166" y="132.597416" style="fill: #e377c2; stroke: #e377c2"/>
    </g>
   </g>
   <g id="text_36">
    <!-- 0.7 -->
    <g style="fill: #262626" transform="translate(544.731166 136.447416) scale(0.11 -0.11)">
     <use xlink:href="#DejaVuSans-30"/>
     <use xlink:href="#DejaVuSans-2e" transform="translate(63.623047 0)"/>
     <use xlink:href="#DejaVuSans-37" transform="translate(95.410156 0)"/>
    </g>
   </g>
   <g id="line2d_67">
    <path d="M 513.931166 148.743354 
L 524.931166 148.743354 
L 535.931166 148.743354 
" style="fill: none; stroke: #7f7f7f; stroke-width: 1.1; stroke-linecap: round"/>
    <g>
     <use xlink:href="#m6e0c3b96c9" x="524.931166" y="148.743354" style="fill: #7f7f7f; stroke: #7f7f7f"/>
    </g>
   </g>
   <g id="text_37">
    <!-- 0.8 -->
    <g style="fill: #262626" transform="translate(544.731166 152.593354) scale(0.11 -0.11)">
     <use xlink:href="#DejaVuSans-30"/>
     <use xlink:href="#DejaVuSans-2e" transform="translate(63.623047 0)"/>
     <use xlink:href="#DejaVuSans-38" transform="translate(95.410156 0)"/>
    </g>
   </g>
   <g id="line2d_68">
    <path d="M 513.931166 164.889291 
L 524.931166 164.889291 
L 535.931166 164.889291 
" style="fill: none; stroke: #bcbd22; stroke-width: 1.1; stroke-linecap: round"/>
    <g>
     <use xlink:href="#m4e72cb5fe9" x="524.931166" y="164.889291" style="fill: #bcbd22; stroke: #bcbd22"/>
    </g>
   </g>
   <g id="text_38">
    <!-- 0.9 -->
    <g style="fill: #262626" transform="translate(544.731166 168.739291) scale(0.11 -0.11)">
     <defs>
      <path id="DejaVuSans-39" d="M 703 97 
L 703 672 
Q 941 559 1184 500 
Q 1428 441 1663 441 
Q 2288 441 2617 861 
Q 2947 1281 2994 2138 
Q 2813 1869 2534 1725 
Q 2256 1581 1919 1581 
Q 1219 1581 811 2004 
Q 403 2428 403 3163 
Q 403 3881 828 4315 
Q 1253 4750 1959 4750 
Q 2769 4750 3195 4129 
Q 3622 3509 3622 2328 
Q 3622 1225 3098 567 
Q 2575 -91 1691 -91 
Q 1453 -91 1209 -44 
Q 966 3 703 97 
z
M 1959 2075 
Q 2384 2075 2632 2365 
Q 2881 2656 2881 3163 
Q 2881 3666 2632 3958 
Q 2384 4250 1959 4250 
Q 1534 4250 1286 3958 
Q 1038 3666 1038 3163 
Q 1038 2656 1286 2365 
Q 1534 2075 1959 2075 
z
" transform="scale(0.015625)"/>
     </defs>
     <use xlink:href="#DejaVuSans-30"/>
     <use xlink:href="#DejaVuSans-2e" transform="translate(63.623047 0)"/>
     <use xlink:href="#DejaVuSans-39" transform="translate(95.410156 0)"/>
    </g>
   </g>
   <g id="line2d_69">
    <path d="M 513.931166 181.035229 
L 524.931166 181.035229 
L 535.931166 181.035229 
" style="fill: none; stroke: #17becf; stroke-width: 1.1; stroke-linecap: round"/>
    <g>
     <use xlink:href="#ma88efbc2ff" x="524.931166" y="181.035229" style="fill: #17becf; stroke: #17becf"/>
    </g>
   </g>
   <g id="text_39">
    <!-- 1 -->
    <g style="fill: #262626" transform="translate(544.731166 184.885229) scale(0.11 -0.11)">
     <use xlink:href="#DejaVuSans-31"/>
    </g>
   </g>
  </g>
 </g>
 <defs>
  <clipPath id="p51b4866c14">
   <rect x="53.31" y="41.73825" width="234.626701" height="240.501583"/>
  </clipPath>
  <clipPath id="pfac4a53e0d">
   <rect x="334.602175" y="41.73825" width="234.626701" height="240.501583"/>
  </clipPath>
 </defs>
</svg>
