<?xml version="1.0" encoding="utf-8" standalone="no"?>
<!DOCTYPE svg PUBLIC "-//W3C//DTD SVG 1.1//EN"
  "http://www.w3.org/Graphics/SVG/1.1/DTD/svg11.dtd">
<svg xmlns:xlink="http://www.w3.org/1999/xlink" width="296.399437pt" height="325.19952pt" viewBox="0 0 296.399437 325.19952" xmlns="http://www.w3.org/2000/svg" version="1.1">
 <metadata>
  <rdf:RDF xmlns:dc="http://purl.org/dc/elements/1.1/" xmlns:cc="http://creativecommons.org/ns#" xmlns:rdf="http://www.w3.org/1999/02/22-rdf-syntax-ns#">
   <cc:Work>
    <dc:type rdf:resource="http://purl.org/dc/dcmitype/StillImage"/>
    <dc:date>2025-05-02T14:49:15.901468</dc:date>
    <dc:format>image/svg+xml</dc:format>
    <dc:creator>
     <cc:Agent>
      <dc:title>Matplotlib v3.10.1, https://matplotlib.org/</dc:title>
     </cc:Agent>
    </dc:creator>
   </cc:Work>
  </rdf:RDF>
 </metadata>
 <defs>
  <style type="text/css">*{stroke-linejoin: round; stroke-linecap: butt}</style>
 </defs>
 <g id="figure_1">
  <g id="patch_1">
   <path d="M 0 325.19952 
L 296.399437 325.19952 
L 296.399437 0 
L 0 0 
z
" style="fill: #ffffff"/>
  </g>
  <g id="subfigure_1">
   <g id="patch_2">
    <path d="M 4.19976 320.99976 
L 292.19976 320.99976 
L 292.19976 4.19976 
L 4.19976 4.19976 
L 4.19976 320.99976 
z
" style="fill: none"/>
   </g>
   <g id="axes_1">
    <g id="patch_3">
     <path d="M 53.31 282.239832 
L 275.381312 282.239832 
L 275.381312 27.24948 
L 53.31 27.24948 
z
" style="fill: #f5f6fc"/>
    </g>
    <g id="matplotlib.axis_1">
     <g id="xtick_1">
      <g id="line2d_1">
       <path d="M 63.874087 282.239832 
L 63.874087 27.24948 
" clip-path="url(#pdaa000045e)" style="fill: none; stroke: #ffffff; stroke-linecap: round"/>
      </g>
      <g id="text_1">
       <!-- 0.000 -->
       <g style="fill: #262626" transform="translate(48.128618 300.098114) scale(0.11 -0.11)">
        <defs>
         <path id="DejaVuSans-30" d="M 2034 4250 
Q 1547 4250 1301 3770 
Q 1056 3291 1056 2328 
Q 1056 1369 1301 889 
Q 1547 409 2034 409 
Q 2525 409 2770 889 
Q 3016 1369 3016 2328 
Q 3016 3291 2770 3770 
Q 2525 4250 2034 4250 
z
M 2034 4750 
Q 2819 4750 3233 4129 
Q 3647 3509 3647 2328 
Q 3647 1150 3233 529 
Q 2819 -91 2034 -91 
Q 1250 -91 836 529 
Q 422 1150 422 2328 
Q 422 3509 836 4129 
Q 1250 4750 2034 4750 
z
" transform="scale(0.015625)"/>
         <path id="DejaVuSans-2e" d="M 684 794 
L 1344 794 
L 1344 0 
L 684 0 
L 684 794 
z
" transform="scale(0.015625)"/>
        </defs>
        <use xlink:href="#DejaVuSans-30"/>
        <use xlink:href="#DejaVuSans-2e" transform="translate(63.623047 0)"/>
        <use xlink:href="#DejaVuSans-30" transform="translate(95.410156 0)"/>
        <use xlink:href="#DejaVuSans-30" transform="translate(159.033203 0)"/>
        <use xlink:href="#DejaVuSans-30" transform="translate(222.65625 0)"/>
       </g>
      </g>
     </g>
     <g id="xtick_2">
      <g id="line2d_2">
       <path d="M 105.790063 282.239832 
L 105.790063 27.24948 
" clip-path="url(#pdaa000045e)" style="fill: none; stroke: #ffffff; stroke-linecap: round"/>
      </g>
      <g id="text_2">
       <!-- 0.025 -->
       <g style="fill: #262626" transform="translate(90.044595 300.098114) scale(0.11 -0.11)">
        <defs>
         <path id="DejaVuSans-32" d="M 1228 531 
L 3431 531 
L 3431 0 
L 469 0 
L 469 531 
Q 828 903 1448 1529 
Q 2069 2156 2228 2338 
Q 2531 2678 2651 2914 
Q 2772 3150 2772 3378 
Q 2772 3750 2511 3984 
Q 2250 4219 1831 4219 
Q 1534 4219 1204 4116 
Q 875 4013 500 3803 
L 500 4441 
Q 881 4594 1212 4672 
Q 1544 4750 1819 4750 
Q 2544 4750 2975 4387 
Q 3406 4025 3406 3419 
Q 3406 3131 3298 2873 
Q 3191 2616 2906 2266 
Q 2828 2175 2409 1742 
Q 1991 1309 1228 531 
z
" transform="scale(0.015625)"/>
         <path id="DejaVuSans-35" d="M 691 4666 
L 3169 4666 
L 3169 4134 
L 1269 4134 
L 1269 2991 
Q 1406 3038 1543 3061 
Q 1681 3084 1819 3084 
Q 2600 3084 3056 2656 
Q 3513 2228 3513 1497 
Q 3513 744 3044 326 
Q 2575 -91 1722 -91 
Q 1428 -91 1123 -41 
Q 819 9 494 109 
L 494 744 
Q 775 591 1075 516 
Q 1375 441 1709 441 
Q 2250 441 2565 725 
Q 2881 1009 2881 1497 
Q 2881 1984 2565 2268 
Q 2250 2553 1709 2553 
Q 1456 2553 1204 2497 
Q 953 2441 691 2322 
L 691 4666 
z
" transform="scale(0.015625)"/>
        </defs>
        <use xlink:href="#DejaVuSans-30"/>
        <use xlink:href="#DejaVuSans-2e" transform="translate(63.623047 0)"/>
        <use xlink:href="#DejaVuSans-30" transform="translate(95.410156 0)"/>
        <use xlink:href="#DejaVuSans-32" transform="translate(159.033203 0)"/>
        <use xlink:href="#DejaVuSans-35" transform="translate(222.65625 0)"/>
       </g>
      </g>
     </g>
     <g id="xtick_3">
      <g id="line2d_3">
       <path d="M 147.70604 282.239832 
L 147.70604 27.24948 
" clip-path="url(#pdaa000045e)" style="fill: none; stroke: #ffffff; stroke-linecap: round"/>
      </g>
      <g id="text_3">
       <!-- 0.050 -->
       <g style="fill: #262626" transform="translate(131.960571 300.098114) scale(0.11 -0.11)">
        <use xlink:href="#DejaVuSans-30"/>
        <use xlink:href="#DejaVuSans-2e" transform="translate(63.623047 0)"/>
        <use xlink:href="#DejaVuSans-30" transform="translate(95.410156 0)"/>
        <use xlink:href="#DejaVuSans-35" transform="translate(159.033203 0)"/>
        <use xlink:href="#DejaVuSans-30" transform="translate(222.65625 0)"/>
       </g>
      </g>
     </g>
     <g id="xtick_4">
      <g id="line2d_4">
       <path d="M 189.622016 282.239832 
L 189.622016 27.24948 
" clip-path="url(#pdaa000045e)" style="fill: none; stroke: #ffffff; stroke-linecap: round"/>
      </g>
      <g id="text_4">
       <!-- 0.075 -->
       <g style="fill: #262626" transform="translate(173.876547 300.098114) scale(0.11 -0.11)">
        <defs>
         <path id="DejaVuSans-37" d="M 525 4666 
L 3525 4666 
L 3525 4397 
L 1831 0 
L 1172 0 
L 2766 4134 
L 525 4134 
L 525 4666 
z
" transform="scale(0.015625)"/>
        </defs>
        <use xlink:href="#DejaVuSans-30"/>
        <use xlink:href="#DejaVuSans-2e" transform="translate(63.623047 0)"/>
        <use xlink:href="#DejaVuSans-30" transform="translate(95.410156 0)"/>
        <use xlink:href="#DejaVuSans-37" transform="translate(159.033203 0)"/>
        <use xlink:href="#DejaVuSans-35" transform="translate(222.65625 0)"/>
       </g>
      </g>
     </g>
     <g id="xtick_5">
      <g id="line2d_5">
       <path d="M 231.537992 282.239832 
L 231.537992 27.24948 
" clip-path="url(#pdaa000045e)" style="fill: none; stroke: #ffffff; stroke-linecap: round"/>
      </g>
      <g id="text_5">
       <!-- 0.100 -->
       <g style="fill: #262626" transform="translate(215.792523 300.098114) scale(0.11 -0.11)">
        <defs>
         <path id="DejaVuSans-31" d="M 794 531 
L 1825 531 
L 1825 4091 
L 703 3866 
L 703 4441 
L 1819 4666 
L 2450 4666 
L 2450 531 
L 3481 531 
L 3481 0 
L 794 0 
L 794 531 
z
" transform="scale(0.015625)"/>
        </defs>
        <use xlink:href="#DejaVuSans-30"/>
        <use xlink:href="#DejaVuSans-2e" transform="translate(63.623047 0)"/>
        <use xlink:href="#DejaVuSans-31" transform="translate(95.410156 0)"/>
        <use xlink:href="#DejaVuSans-30" transform="translate(159.033203 0)"/>
        <use xlink:href="#DejaVuSans-30" transform="translate(222.65625 0)"/>
       </g>
      </g>
     </g>
     <g id="xtick_6">
      <g id="line2d_6">
       <path d="M 273.453968 282.239832 
L 273.453968 27.24948 
" clip-path="url(#pdaa000045e)" style="fill: none; stroke: #ffffff; stroke-linecap: round"/>
      </g>
      <g id="text_6">
       <!-- 0.125 -->
       <g style="fill: #262626" transform="translate(257.7085 300.098114) scale(0.11 -0.11)">
        <use xlink:href="#DejaVuSans-30"/>
        <use xlink:href="#DejaVuSans-2e" transform="translate(63.623047 0)"/>
        <use xlink:href="#DejaVuSans-31" transform="translate(95.410156 0)"/>
        <use xlink:href="#DejaVuSans-32" transform="translate(159.033203 0)"/>
        <use xlink:href="#DejaVuSans-35" transform="translate(222.65625 0)"/>
       </g>
      </g>
     </g>
     <g id="text_7">
      <!-- CE Loss Increase -->
      <g style="fill: #262626" transform="translate(114.000969 315.503895) scale(0.12 -0.12)">
       <defs>
        <path id="DejaVuSans-43" d="M 4122 4306 
L 4122 3641 
Q 3803 3938 3442 4084 
Q 3081 4231 2675 4231 
Q 1875 4231 1450 3742 
Q 1025 3253 1025 2328 
Q 1025 1406 1450 917 
Q 1875 428 2675 428 
Q 3081 428 3442 575 
Q 3803 722 4122 1019 
L 4122 359 
Q 3791 134 3420 21 
Q 3050 -91 2638 -91 
Q 1578 -91 968 557 
Q 359 1206 359 2328 
Q 359 3453 968 4101 
Q 1578 4750 2638 4750 
Q 3056 4750 3426 4639 
Q 3797 4528 4122 4306 
z
" transform="scale(0.015625)"/>
        <path id="DejaVuSans-45" d="M 628 4666 
L 3578 4666 
L 3578 4134 
L 1259 4134 
L 1259 2753 
L 3481 2753 
L 3481 2222 
L 1259 2222 
L 1259 531 
L 3634 531 
L 3634 0 
L 628 0 
L 628 4666 
z
" transform="scale(0.015625)"/>
        <path id="DejaVuSans-20" transform="scale(0.015625)"/>
        <path id="DejaVuSans-4c" d="M 628 4666 
L 1259 4666 
L 1259 531 
L 3531 531 
L 3531 0 
L 628 0 
L 628 4666 
z
" transform="scale(0.015625)"/>
        <path id="DejaVuSans-6f" d="M 1959 3097 
Q 1497 3097 1228 2736 
Q 959 2375 959 1747 
Q 959 1119 1226 758 
Q 1494 397 1959 397 
Q 2419 397 2687 759 
Q 2956 1122 2956 1747 
Q 2956 2369 2687 2733 
Q 2419 3097 1959 3097 
z
M 1959 3584 
Q 2709 3584 3137 3096 
Q 3566 2609 3566 1747 
Q 3566 888 3137 398 
Q 2709 -91 1959 -91 
Q 1206 -91 779 398 
Q 353 888 353 1747 
Q 353 2609 779 3096 
Q 1206 3584 1959 3584 
z
" transform="scale(0.015625)"/>
        <path id="DejaVuSans-73" d="M 2834 3397 
L 2834 2853 
Q 2591 2978 2328 3040 
Q 2066 3103 1784 3103 
Q 1356 3103 1142 2972 
Q 928 2841 928 2578 
Q 928 2378 1081 2264 
Q 1234 2150 1697 2047 
L 1894 2003 
Q 2506 1872 2764 1633 
Q 3022 1394 3022 966 
Q 3022 478 2636 193 
Q 2250 -91 1575 -91 
Q 1294 -91 989 -36 
Q 684 19 347 128 
L 347 722 
Q 666 556 975 473 
Q 1284 391 1588 391 
Q 1994 391 2212 530 
Q 2431 669 2431 922 
Q 2431 1156 2273 1281 
Q 2116 1406 1581 1522 
L 1381 1569 
Q 847 1681 609 1914 
Q 372 2147 372 2553 
Q 372 3047 722 3315 
Q 1072 3584 1716 3584 
Q 2034 3584 2315 3537 
Q 2597 3491 2834 3397 
z
" transform="scale(0.015625)"/>
        <path id="DejaVuSans-49" d="M 628 4666 
L 1259 4666 
L 1259 0 
L 628 0 
L 628 4666 
z
" transform="scale(0.015625)"/>
        <path id="DejaVuSans-6e" d="M 3513 2113 
L 3513 0 
L 2938 0 
L 2938 2094 
Q 2938 2591 2744 2837 
Q 2550 3084 2163 3084 
Q 1697 3084 1428 2787 
Q 1159 2491 1159 1978 
L 1159 0 
L 581 0 
L 581 3500 
L 1159 3500 
L 1159 2956 
Q 1366 3272 1645 3428 
Q 1925 3584 2291 3584 
Q 2894 3584 3203 3211 
Q 3513 2838 3513 2113 
z
" transform="scale(0.015625)"/>
        <path id="DejaVuSans-63" d="M 3122 3366 
L 3122 2828 
Q 2878 2963 2633 3030 
Q 2388 3097 2138 3097 
Q 1578 3097 1268 2742 
Q 959 2388 959 1747 
Q 959 1106 1268 751 
Q 1578 397 2138 397 
Q 2388 397 2633 464 
Q 2878 531 3122 666 
L 3122 134 
Q 2881 22 2623 -34 
Q 2366 -91 2075 -91 
Q 1284 -91 818 406 
Q 353 903 353 1747 
Q 353 2603 823 3093 
Q 1294 3584 2113 3584 
Q 2378 3584 2631 3529 
Q 2884 3475 3122 3366 
z
" transform="scale(0.015625)"/>
        <path id="DejaVuSans-72" d="M 2631 2963 
Q 2534 3019 2420 3045 
Q 2306 3072 2169 3072 
Q 1681 3072 1420 2755 
Q 1159 2438 1159 1844 
L 1159 0 
L 581 0 
L 581 3500 
L 1159 3500 
L 1159 2956 
Q 1341 3275 1631 3429 
Q 1922 3584 2338 3584 
Q 2397 3584 2469 3576 
Q 2541 3569 2628 3553 
L 2631 2963 
z
" transform="scale(0.015625)"/>
        <path id="DejaVuSans-65" d="M 3597 1894 
L 3597 1613 
L 953 1613 
Q 991 1019 1311 708 
Q 1631 397 2203 397 
Q 2534 397 2845 478 
Q 3156 559 3463 722 
L 3463 178 
Q 3153 47 2828 -22 
Q 2503 -91 2169 -91 
Q 1331 -91 842 396 
Q 353 884 353 1716 
Q 353 2575 817 3079 
Q 1281 3584 2069 3584 
Q 2775 3584 3186 3129 
Q 3597 2675 3597 1894 
z
M 3022 2063 
Q 3016 2534 2758 2815 
Q 2500 3097 2075 3097 
Q 1594 3097 1305 2825 
Q 1016 2553 972 2059 
L 3022 2063 
z
" transform="scale(0.015625)"/>
        <path id="DejaVuSans-61" d="M 2194 1759 
Q 1497 1759 1228 1600 
Q 959 1441 959 1056 
Q 959 750 1161 570 
Q 1363 391 1709 391 
Q 2188 391 2477 730 
Q 2766 1069 2766 1631 
L 2766 1759 
L 2194 1759 
z
M 3341 1997 
L 3341 0 
L 2766 0 
L 2766 531 
Q 2569 213 2275 61 
Q 1981 -91 1556 -91 
Q 1019 -91 701 211 
Q 384 513 384 1019 
Q 384 1609 779 1909 
Q 1175 2209 1959 2209 
L 2766 2209 
L 2766 2266 
Q 2766 2663 2505 2880 
Q 2244 3097 1772 3097 
Q 1472 3097 1187 3025 
Q 903 2953 641 2809 
L 641 3341 
Q 956 3463 1253 3523 
Q 1550 3584 1831 3584 
Q 2591 3584 2966 3190 
Q 3341 2797 3341 1997 
z
" transform="scale(0.015625)"/>
       </defs>
       <use xlink:href="#DejaVuSans-43"/>
       <use xlink:href="#DejaVuSans-45" transform="translate(69.824219 0)"/>
       <use xlink:href="#DejaVuSans-20" transform="translate(133.007812 0)"/>
       <use xlink:href="#DejaVuSans-4c" transform="translate(164.794922 0)"/>
       <use xlink:href="#DejaVuSans-6f" transform="translate(218.757812 0)"/>
       <use xlink:href="#DejaVuSans-73" transform="translate(279.939453 0)"/>
       <use xlink:href="#DejaVuSans-73" transform="translate(332.039062 0)"/>
       <use xlink:href="#DejaVuSans-20" transform="translate(384.138672 0)"/>
       <use xlink:href="#DejaVuSans-49" transform="translate(415.925781 0)"/>
       <use xlink:href="#DejaVuSans-6e" transform="translate(445.417969 0)"/>
       <use xlink:href="#DejaVuSans-63" transform="translate(508.796875 0)"/>
       <use xlink:href="#DejaVuSans-72" transform="translate(563.777344 0)"/>
       <use xlink:href="#DejaVuSans-65" transform="translate(602.640625 0)"/>
       <use xlink:href="#DejaVuSans-61" transform="translate(664.164062 0)"/>
       <use xlink:href="#DejaVuSans-73" transform="translate(725.443359 0)"/>
       <use xlink:href="#DejaVuSans-65" transform="translate(777.542969 0)"/>
      </g>
     </g>
    </g>
    <g id="matplotlib.axis_2">
     <g id="ytick_1">
      <g id="line2d_7">
       <path d="M 53.31 278.372456 
L 275.381312 278.372456 
" clip-path="url(#pdaa000045e)" style="fill: none; stroke: #ffffff; stroke-linecap: round"/>
      </g>
      <g id="text_8">
       <!-- 40 -->
       <g style="fill: #262626" transform="translate(29.8125 282.551597) scale(0.11 -0.11)">
        <defs>
         <path id="DejaVuSans-34" d="M 2419 4116 
L 825 1625 
L 2419 1625 
L 2419 4116 
z
M 2253 4666 
L 3047 4666 
L 3047 1625 
L 3713 1625 
L 3713 1100 
L 3047 1100 
L 3047 0 
L 2419 0 
L 2419 1100 
L 313 1100 
L 313 1709 
L 2253 4666 
z
" transform="scale(0.015625)"/>
        </defs>
        <use xlink:href="#DejaVuSans-34"/>
        <use xlink:href="#DejaVuSans-30" transform="translate(63.623047 0)"/>
       </g>
      </g>
     </g>
     <g id="ytick_2">
      <g id="line2d_8">
       <path d="M 53.31 248.253873 
L 275.381312 248.253873 
" clip-path="url(#pdaa000045e)" style="fill: none; stroke: #ffffff; stroke-linecap: round"/>
      </g>
      <g id="text_9">
       <!-- 60 -->
       <g style="fill: #262626" transform="translate(29.8125 252.433014) scale(0.11 -0.11)">
        <defs>
         <path id="DejaVuSans-36" d="M 2113 2584 
Q 1688 2584 1439 2293 
Q 1191 2003 1191 1497 
Q 1191 994 1439 701 
Q 1688 409 2113 409 
Q 2538 409 2786 701 
Q 3034 994 3034 1497 
Q 3034 2003 2786 2293 
Q 2538 2584 2113 2584 
z
M 3366 4563 
L 3366 3988 
Q 3128 4100 2886 4159 
Q 2644 4219 2406 4219 
Q 1781 4219 1451 3797 
Q 1122 3375 1075 2522 
Q 1259 2794 1537 2939 
Q 1816 3084 2150 3084 
Q 2853 3084 3261 2657 
Q 3669 2231 3669 1497 
Q 3669 778 3244 343 
Q 2819 -91 2113 -91 
Q 1303 -91 875 529 
Q 447 1150 447 2328 
Q 447 3434 972 4092 
Q 1497 4750 2381 4750 
Q 2619 4750 2861 4703 
Q 3103 4656 3366 4563 
z
" transform="scale(0.015625)"/>
        </defs>
        <use xlink:href="#DejaVuSans-36"/>
        <use xlink:href="#DejaVuSans-30" transform="translate(63.623047 0)"/>
       </g>
      </g>
     </g>
     <g id="ytick_3">
      <g id="line2d_9">
       <path d="M 53.31 218.135291 
L 275.381312 218.135291 
" clip-path="url(#pdaa000045e)" style="fill: none; stroke: #ffffff; stroke-linecap: round"/>
      </g>
      <g id="text_10">
       <!-- 80 -->
       <g style="fill: #262626" transform="translate(29.8125 222.314431) scale(0.11 -0.11)">
        <defs>
         <path id="DejaVuSans-38" d="M 2034 2216 
Q 1584 2216 1326 1975 
Q 1069 1734 1069 1313 
Q 1069 891 1326 650 
Q 1584 409 2034 409 
Q 2484 409 2743 651 
Q 3003 894 3003 1313 
Q 3003 1734 2745 1975 
Q 2488 2216 2034 2216 
z
M 1403 2484 
Q 997 2584 770 2862 
Q 544 3141 544 3541 
Q 544 4100 942 4425 
Q 1341 4750 2034 4750 
Q 2731 4750 3128 4425 
Q 3525 4100 3525 3541 
Q 3525 3141 3298 2862 
Q 3072 2584 2669 2484 
Q 3125 2378 3379 2068 
Q 3634 1759 3634 1313 
Q 3634 634 3220 271 
Q 2806 -91 2034 -91 
Q 1263 -91 848 271 
Q 434 634 434 1313 
Q 434 1759 690 2068 
Q 947 2378 1403 2484 
z
M 1172 3481 
Q 1172 3119 1398 2916 
Q 1625 2713 2034 2713 
Q 2441 2713 2670 2916 
Q 2900 3119 2900 3481 
Q 2900 3844 2670 4047 
Q 2441 4250 2034 4250 
Q 1625 4250 1398 4047 
Q 1172 3844 1172 3481 
z
" transform="scale(0.015625)"/>
        </defs>
        <use xlink:href="#DejaVuSans-38"/>
        <use xlink:href="#DejaVuSans-30" transform="translate(63.623047 0)"/>
       </g>
      </g>
     </g>
     <g id="ytick_4">
      <g id="line2d_10">
       <path d="M 53.31 188.016708 
L 275.381312 188.016708 
" clip-path="url(#pdaa000045e)" style="fill: none; stroke: #ffffff; stroke-linecap: round"/>
      </g>
      <g id="text_11">
       <!-- 100 -->
       <g style="fill: #262626" transform="translate(22.81375 192.195848) scale(0.11 -0.11)">
        <use xlink:href="#DejaVuSans-31"/>
        <use xlink:href="#DejaVuSans-30" transform="translate(63.623047 0)"/>
        <use xlink:href="#DejaVuSans-30" transform="translate(127.246094 0)"/>
       </g>
      </g>
     </g>
     <g id="ytick_5">
      <g id="line2d_11">
       <path d="M 53.31 157.898125 
L 275.381312 157.898125 
" clip-path="url(#pdaa000045e)" style="fill: none; stroke: #ffffff; stroke-linecap: round"/>
      </g>
      <g id="text_12">
       <!-- 120 -->
       <g style="fill: #262626" transform="translate(22.81375 162.077265) scale(0.11 -0.11)">
        <use xlink:href="#DejaVuSans-31"/>
        <use xlink:href="#DejaVuSans-32" transform="translate(63.623047 0)"/>
        <use xlink:href="#DejaVuSans-30" transform="translate(127.246094 0)"/>
       </g>
      </g>
     </g>
     <g id="ytick_6">
      <g id="line2d_12">
       <path d="M 53.31 127.779542 
L 275.381312 127.779542 
" clip-path="url(#pdaa000045e)" style="fill: none; stroke: #ffffff; stroke-linecap: round"/>
      </g>
      <g id="text_13">
       <!-- 140 -->
       <g style="fill: #262626" transform="translate(22.81375 131.958683) scale(0.11 -0.11)">
        <use xlink:href="#DejaVuSans-31"/>
        <use xlink:href="#DejaVuSans-34" transform="translate(63.623047 0)"/>
        <use xlink:href="#DejaVuSans-30" transform="translate(127.246094 0)"/>
       </g>
      </g>
     </g>
     <g id="ytick_7">
      <g id="line2d_13">
       <path d="M 53.31 97.660959 
L 275.381312 97.660959 
" clip-path="url(#pdaa000045e)" style="fill: none; stroke: #ffffff; stroke-linecap: round"/>
      </g>
      <g id="text_14">
       <!-- 160 -->
       <g style="fill: #262626" transform="translate(22.81375 101.8401) scale(0.11 -0.11)">
        <use xlink:href="#DejaVuSans-31"/>
        <use xlink:href="#DejaVuSans-36" transform="translate(63.623047 0)"/>
        <use xlink:href="#DejaVuSans-30" transform="translate(127.246094 0)"/>
       </g>
      </g>
     </g>
     <g id="ytick_8">
      <g id="line2d_14">
       <path d="M 53.31 67.542376 
L 275.381312 67.542376 
" clip-path="url(#pdaa000045e)" style="fill: none; stroke: #ffffff; stroke-linecap: round"/>
      </g>
      <g id="text_15">
       <!-- 180 -->
       <g style="fill: #262626" transform="translate(22.81375 71.721517) scale(0.11 -0.11)">
        <use xlink:href="#DejaVuSans-31"/>
        <use xlink:href="#DejaVuSans-38" transform="translate(63.623047 0)"/>
        <use xlink:href="#DejaVuSans-30" transform="translate(127.246094 0)"/>
       </g>
      </g>
     </g>
     <g id="ytick_9">
      <g id="line2d_15">
       <path d="M 53.31 37.423794 
L 275.381312 37.423794 
" clip-path="url(#pdaa000045e)" style="fill: none; stroke: #ffffff; stroke-linecap: round"/>
      </g>
      <g id="text_16">
       <!-- 200 -->
       <g style="fill: #262626" transform="translate(22.81375 41.602934) scale(0.11 -0.11)">
        <use xlink:href="#DejaVuSans-32"/>
        <use xlink:href="#DejaVuSans-30" transform="translate(63.623047 0)"/>
        <use xlink:href="#DejaVuSans-30" transform="translate(127.246094 0)"/>
       </g>
      </g>
     </g>
     <g id="text_17">
      <!-- L0 -->
      <g style="fill: #262626" transform="translate(16.318125 161.905281) rotate(-90) scale(0.12 -0.12)">
       <use xlink:href="#DejaVuSans-4c"/>
       <use xlink:href="#DejaVuSans-30" transform="translate(55.712891 0)"/>
      </g>
     </g>
    </g>
    <g id="line2d_16">
     <path d="M 264.641834 268.921697 
L 265.287161 268.656259 
L 262.100403 267.723324 
L 233.260432 266.328693 
L 236.803872 266.286821 
L 225.877487 266.229114 
L 212.833397 265.173969 
L 198.466929 264.777997 
L 203.773087 264.161084 
L 192.655369 263.390854 
L 190.531333 262.902145 
L 151.054598 260.116093 
L 171.689003 259.271867 
L 153.831237 258.512315 
L 142.357669 258.478919 
L 166.908601 258.008829 
L 157.920181 257.335561 
L 147.505801 257.330754 
L 137.457697 257.312689 
L 131.435953 257.274646 
L 148.076792 256.934971 
L 140.739961 256.713182 
L 126.412252 255.628625 
L 124.599918 254.379751 
L 110.470833 253.636339 
L 101.333549 251.06663 
L 83.823335 249.081486 
L 72.699621 246.747944 
L 68.689954 245.242015 
L 64.113756 231.688653 
L 63.723816 228.616168 
L 64.104498 222.310784 
L 63.83576 218.135255 
L 64.067067 200.064141 
L 63.960495 159.561603 
L 63.82049 159.493442 
L 64.046504 145.984453 
L 64.222822 139.798094 
L 63.931746 65.698849 
L 63.935296 38.839951 
" clip-path="url(#pdaa000045e)" style="fill: none; stroke: #1f77b4; stroke-width: 1.1; stroke-linecap: round"/>
     <defs>
      <path id="mc56d5134f8" d="M 0 3 
C 0.795609 3 1.55874 2.683901 2.12132 2.12132 
C 2.683901 1.55874 3 0.795609 3 0 
C 3 -0.795609 2.683901 -1.55874 2.12132 -2.12132 
C 1.55874 -2.683901 0.795609 -3 0 -3 
C -0.795609 -3 -1.55874 -2.683901 -2.12132 -2.12132 
C -2.683901 -1.55874 -3 -0.795609 -3 0 
C -3 0.795609 -2.683901 1.55874 -2.12132 2.12132 
C -1.55874 2.683901 -0.795609 3 0 3 
z
" style="stroke: #1f77b4"/>
     </defs>
     <g clip-path="url(#pdaa000045e)">
      <use xlink:href="#mc56d5134f8" x="264.641834" y="268.921697" style="fill: #1f77b4; stroke: #1f77b4"/>
      <use xlink:href="#mc56d5134f8" x="265.287161" y="268.656259" style="fill: #1f77b4; stroke: #1f77b4"/>
      <use xlink:href="#mc56d5134f8" x="262.100403" y="267.723324" style="fill: #1f77b4; stroke: #1f77b4"/>
      <use xlink:href="#mc56d5134f8" x="233.260432" y="266.328693" style="fill: #1f77b4; stroke: #1f77b4"/>
      <use xlink:href="#mc56d5134f8" x="236.803872" y="266.286821" style="fill: #1f77b4; stroke: #1f77b4"/>
      <use xlink:href="#mc56d5134f8" x="225.877487" y="266.229114" style="fill: #1f77b4; stroke: #1f77b4"/>
      <use xlink:href="#mc56d5134f8" x="212.833397" y="265.173969" style="fill: #1f77b4; stroke: #1f77b4"/>
      <use xlink:href="#mc56d5134f8" x="198.466929" y="264.777997" style="fill: #1f77b4; stroke: #1f77b4"/>
      <use xlink:href="#mc56d5134f8" x="203.773087" y="264.161084" style="fill: #1f77b4; stroke: #1f77b4"/>
      <use xlink:href="#mc56d5134f8" x="192.655369" y="263.390854" style="fill: #1f77b4; stroke: #1f77b4"/>
      <use xlink:href="#mc56d5134f8" x="190.531333" y="262.902145" style="fill: #1f77b4; stroke: #1f77b4"/>
      <use xlink:href="#mc56d5134f8" x="151.054598" y="260.116093" style="fill: #1f77b4; stroke: #1f77b4"/>
      <use xlink:href="#mc56d5134f8" x="171.689003" y="259.271867" style="fill: #1f77b4; stroke: #1f77b4"/>
      <use xlink:href="#mc56d5134f8" x="153.831237" y="258.512315" style="fill: #1f77b4; stroke: #1f77b4"/>
      <use xlink:href="#mc56d5134f8" x="142.357669" y="258.478919" style="fill: #1f77b4; stroke: #1f77b4"/>
      <use xlink:href="#mc56d5134f8" x="166.908601" y="258.008829" style="fill: #1f77b4; stroke: #1f77b4"/>
      <use xlink:href="#mc56d5134f8" x="157.920181" y="257.335561" style="fill: #1f77b4; stroke: #1f77b4"/>
      <use xlink:href="#mc56d5134f8" x="147.505801" y="257.330754" style="fill: #1f77b4; stroke: #1f77b4"/>
      <use xlink:href="#mc56d5134f8" x="137.457697" y="257.312689" style="fill: #1f77b4; stroke: #1f77b4"/>
      <use xlink:href="#mc56d5134f8" x="131.435953" y="257.274646" style="fill: #1f77b4; stroke: #1f77b4"/>
      <use xlink:href="#mc56d5134f8" x="148.076792" y="256.934971" style="fill: #1f77b4; stroke: #1f77b4"/>
      <use xlink:href="#mc56d5134f8" x="140.739961" y="256.713182" style="fill: #1f77b4; stroke: #1f77b4"/>
      <use xlink:href="#mc56d5134f8" x="126.412252" y="255.628625" style="fill: #1f77b4; stroke: #1f77b4"/>
      <use xlink:href="#mc56d5134f8" x="124.599918" y="254.379751" style="fill: #1f77b4; stroke: #1f77b4"/>
      <use xlink:href="#mc56d5134f8" x="110.470833" y="253.636339" style="fill: #1f77b4; stroke: #1f77b4"/>
      <use xlink:href="#mc56d5134f8" x="101.333549" y="251.06663" style="fill: #1f77b4; stroke: #1f77b4"/>
      <use xlink:href="#mc56d5134f8" x="83.823335" y="249.081486" style="fill: #1f77b4; stroke: #1f77b4"/>
      <use xlink:href="#mc56d5134f8" x="72.699621" y="246.747944" style="fill: #1f77b4; stroke: #1f77b4"/>
      <use xlink:href="#mc56d5134f8" x="68.689954" y="245.242015" style="fill: #1f77b4; stroke: #1f77b4"/>
      <use xlink:href="#mc56d5134f8" x="64.113756" y="231.688653" style="fill: #1f77b4; stroke: #1f77b4"/>
      <use xlink:href="#mc56d5134f8" x="63.723816" y="228.616168" style="fill: #1f77b4; stroke: #1f77b4"/>
      <use xlink:href="#mc56d5134f8" x="64.104498" y="222.310784" style="fill: #1f77b4; stroke: #1f77b4"/>
      <use xlink:href="#mc56d5134f8" x="63.83576" y="218.135255" style="fill: #1f77b4; stroke: #1f77b4"/>
      <use xlink:href="#mc56d5134f8" x="64.067067" y="200.064141" style="fill: #1f77b4; stroke: #1f77b4"/>
      <use xlink:href="#mc56d5134f8" x="63.960495" y="159.561603" style="fill: #1f77b4; stroke: #1f77b4"/>
      <use xlink:href="#mc56d5134f8" x="63.82049" y="159.493442" style="fill: #1f77b4; stroke: #1f77b4"/>
      <use xlink:href="#mc56d5134f8" x="64.046504" y="145.984453" style="fill: #1f77b4; stroke: #1f77b4"/>
      <use xlink:href="#mc56d5134f8" x="64.222822" y="139.798094" style="fill: #1f77b4; stroke: #1f77b4"/>
      <use xlink:href="#mc56d5134f8" x="63.931746" y="65.698849" style="fill: #1f77b4; stroke: #1f77b4"/>
      <use xlink:href="#mc56d5134f8" x="63.935296" y="38.839951" style="fill: #1f77b4; stroke: #1f77b4"/>
     </g>
    </g>
    <g id="line2d_17">
     <path d="M 245.316024 270.649362 
L 208.355648 267.614268 
L 215.620973 267.301153 
L 198.60807 266.034272 
L 178.869311 264.192873 
L 111.338145 255.501556 
L 110.24613 255.247548 
L 109.498741 254.595287 
L 105.827 254.194686 
L 104.595938 253.985733 
L 102.111127 253.721648 
L 106.541482 253.567126 
L 104.418869 253.344365 
L 95.27036 252.208066 
L 79.757592 248.691262 
L 63.99401 243.874136 
L 65.252397 243.850577 
L 66.230198 243.813169 
L 63.896009 243.479712 
L 64.687802 237.807087 
L 63.934128 228.7487 
L 63.461793 225.460493 
L 63.892763 221.049966 
L 64.038765 216.658077 
L 63.82671 203.850156 
L 63.404151 198.755157 
L 64.245687 197.080912 
L 64.45891 182.058832 
L 64.271463 175.939577 
L 63.682451 168.62598 
L 64.10226 165.286811 
L 63.5624 157.968149 
L 63.691837 147.78026 
L 63.634194 129.147388 
L 63.923671 109.725499 
L 63.967099 103.795478 
L 63.522938 99.790192 
L 64.305153 94.531546 
L 63.710561 52.153059 
L 63.965196 44.318545 
" clip-path="url(#pdaa000045e)" style="fill: none; stroke: #ff7f0e; stroke-width: 1.1; stroke-linecap: round"/>
     <defs>
      <path id="m44ace709ad" d="M 0 3 
C 0.795609 3 1.55874 2.683901 2.12132 2.12132 
C 2.683901 1.55874 3 0.795609 3 0 
C 3 -0.795609 2.683901 -1.55874 2.12132 -2.12132 
C 1.55874 -2.683901 0.795609 -3 0 -3 
C -0.795609 -3 -1.55874 -2.683901 -2.12132 -2.12132 
C -2.683901 -1.55874 -3 -0.795609 -3 0 
C -3 0.795609 -2.683901 1.55874 -2.12132 2.12132 
C -1.55874 2.683901 -0.795609 3 0 3 
z
" style="stroke: #ff7f0e"/>
     </defs>
     <g clip-path="url(#pdaa000045e)">
      <use xlink:href="#m44ace709ad" x="245.316024" y="270.649362" style="fill: #ff7f0e; stroke: #ff7f0e"/>
      <use xlink:href="#m44ace709ad" x="208.355648" y="267.614268" style="fill: #ff7f0e; stroke: #ff7f0e"/>
      <use xlink:href="#m44ace709ad" x="215.620973" y="267.301153" style="fill: #ff7f0e; stroke: #ff7f0e"/>
      <use xlink:href="#m44ace709ad" x="198.60807" y="266.034272" style="fill: #ff7f0e; stroke: #ff7f0e"/>
      <use xlink:href="#m44ace709ad" x="178.869311" y="264.192873" style="fill: #ff7f0e; stroke: #ff7f0e"/>
      <use xlink:href="#m44ace709ad" x="111.338145" y="255.501556" style="fill: #ff7f0e; stroke: #ff7f0e"/>
      <use xlink:href="#m44ace709ad" x="110.24613" y="255.247548" style="fill: #ff7f0e; stroke: #ff7f0e"/>
      <use xlink:href="#m44ace709ad" x="109.498741" y="254.595287" style="fill: #ff7f0e; stroke: #ff7f0e"/>
      <use xlink:href="#m44ace709ad" x="105.827" y="254.194686" style="fill: #ff7f0e; stroke: #ff7f0e"/>
      <use xlink:href="#m44ace709ad" x="104.595938" y="253.985733" style="fill: #ff7f0e; stroke: #ff7f0e"/>
      <use xlink:href="#m44ace709ad" x="102.111127" y="253.721648" style="fill: #ff7f0e; stroke: #ff7f0e"/>
      <use xlink:href="#m44ace709ad" x="106.541482" y="253.567126" style="fill: #ff7f0e; stroke: #ff7f0e"/>
      <use xlink:href="#m44ace709ad" x="104.418869" y="253.344365" style="fill: #ff7f0e; stroke: #ff7f0e"/>
      <use xlink:href="#m44ace709ad" x="95.27036" y="252.208066" style="fill: #ff7f0e; stroke: #ff7f0e"/>
      <use xlink:href="#m44ace709ad" x="79.757592" y="248.691262" style="fill: #ff7f0e; stroke: #ff7f0e"/>
      <use xlink:href="#m44ace709ad" x="63.99401" y="243.874136" style="fill: #ff7f0e; stroke: #ff7f0e"/>
      <use xlink:href="#m44ace709ad" x="65.252397" y="243.850577" style="fill: #ff7f0e; stroke: #ff7f0e"/>
      <use xlink:href="#m44ace709ad" x="66.230198" y="243.813169" style="fill: #ff7f0e; stroke: #ff7f0e"/>
      <use xlink:href="#m44ace709ad" x="63.896009" y="243.479712" style="fill: #ff7f0e; stroke: #ff7f0e"/>
      <use xlink:href="#m44ace709ad" x="64.687802" y="237.807087" style="fill: #ff7f0e; stroke: #ff7f0e"/>
      <use xlink:href="#m44ace709ad" x="63.934128" y="228.7487" style="fill: #ff7f0e; stroke: #ff7f0e"/>
      <use xlink:href="#m44ace709ad" x="63.461793" y="225.460493" style="fill: #ff7f0e; stroke: #ff7f0e"/>
      <use xlink:href="#m44ace709ad" x="63.892763" y="221.049966" style="fill: #ff7f0e; stroke: #ff7f0e"/>
      <use xlink:href="#m44ace709ad" x="64.038765" y="216.658077" style="fill: #ff7f0e; stroke: #ff7f0e"/>
      <use xlink:href="#m44ace709ad" x="63.82671" y="203.850156" style="fill: #ff7f0e; stroke: #ff7f0e"/>
      <use xlink:href="#m44ace709ad" x="63.404151" y="198.755157" style="fill: #ff7f0e; stroke: #ff7f0e"/>
      <use xlink:href="#m44ace709ad" x="64.245687" y="197.080912" style="fill: #ff7f0e; stroke: #ff7f0e"/>
      <use xlink:href="#m44ace709ad" x="64.45891" y="182.058832" style="fill: #ff7f0e; stroke: #ff7f0e"/>
      <use xlink:href="#m44ace709ad" x="64.271463" y="175.939577" style="fill: #ff7f0e; stroke: #ff7f0e"/>
      <use xlink:href="#m44ace709ad" x="63.682451" y="168.62598" style="fill: #ff7f0e; stroke: #ff7f0e"/>
      <use xlink:href="#m44ace709ad" x="64.10226" y="165.286811" style="fill: #ff7f0e; stroke: #ff7f0e"/>
      <use xlink:href="#m44ace709ad" x="63.5624" y="157.968149" style="fill: #ff7f0e; stroke: #ff7f0e"/>
      <use xlink:href="#m44ace709ad" x="63.691837" y="147.78026" style="fill: #ff7f0e; stroke: #ff7f0e"/>
      <use xlink:href="#m44ace709ad" x="63.634194" y="129.147388" style="fill: #ff7f0e; stroke: #ff7f0e"/>
      <use xlink:href="#m44ace709ad" x="63.923671" y="109.725499" style="fill: #ff7f0e; stroke: #ff7f0e"/>
      <use xlink:href="#m44ace709ad" x="63.967099" y="103.795478" style="fill: #ff7f0e; stroke: #ff7f0e"/>
      <use xlink:href="#m44ace709ad" x="63.522938" y="99.790192" style="fill: #ff7f0e; stroke: #ff7f0e"/>
      <use xlink:href="#m44ace709ad" x="64.305153" y="94.531546" style="fill: #ff7f0e; stroke: #ff7f0e"/>
      <use xlink:href="#m44ace709ad" x="63.710561" y="52.153059" style="fill: #ff7f0e; stroke: #ff7f0e"/>
      <use xlink:href="#m44ace709ad" x="63.965196" y="44.318545" style="fill: #ff7f0e; stroke: #ff7f0e"/>
     </g>
    </g>
    <g id="patch_4">
     <path d="M 53.31 282.239832 
L 53.31 27.24948 
" style="fill: none; stroke: #ffffff; stroke-width: 1.25; stroke-linejoin: miter; stroke-linecap: square"/>
    </g>
    <g id="patch_5">
     <path d="M 275.381312 282.239832 
L 275.381312 27.24948 
" style="fill: none; stroke: #ffffff; stroke-width: 1.25; stroke-linejoin: miter; stroke-linecap: square"/>
    </g>
    <g id="patch_6">
     <path d="M 53.31 282.239832 
L 275.381312 282.239832 
" style="fill: none; stroke: #ffffff; stroke-width: 1.25; stroke-linejoin: miter; stroke-linecap: square"/>
    </g>
    <g id="patch_7">
     <path d="M 53.31 27.24948 
L 275.381312 27.24948 
" style="fill: none; stroke: #ffffff; stroke-width: 1.25; stroke-linejoin: miter; stroke-linecap: square"/>
    </g>
   </g>
   <g id="text_18">
    <!-- layer=4 -->
    <g style="fill: #262626" transform="translate(120.67101 18.14175) scale(0.144 -0.144)">
     <defs>
      <path id="DejaVuSans-Bold-6c" d="M 538 4863 
L 1656 4863 
L 1656 0 
L 538 0 
L 538 4863 
z
" transform="scale(0.015625)"/>
      <path id="DejaVuSans-Bold-61" d="M 2106 1575 
Q 1756 1575 1579 1456 
Q 1403 1338 1403 1106 
Q 1403 894 1545 773 
Q 1688 653 1941 653 
Q 2256 653 2472 879 
Q 2688 1106 2688 1447 
L 2688 1575 
L 2106 1575 
z
M 3816 1997 
L 3816 0 
L 2688 0 
L 2688 519 
Q 2463 200 2181 54 
Q 1900 -91 1497 -91 
Q 953 -91 614 226 
Q 275 544 275 1050 
Q 275 1666 698 1953 
Q 1122 2241 2028 2241 
L 2688 2241 
L 2688 2328 
Q 2688 2594 2478 2717 
Q 2269 2841 1825 2841 
Q 1466 2841 1156 2769 
Q 847 2697 581 2553 
L 581 3406 
Q 941 3494 1303 3539 
Q 1666 3584 2028 3584 
Q 2975 3584 3395 3211 
Q 3816 2838 3816 1997 
z
" transform="scale(0.015625)"/>
      <path id="DejaVuSans-Bold-79" d="M 78 3500 
L 1197 3500 
L 2138 1125 
L 2938 3500 
L 4056 3500 
L 2584 -331 
Q 2363 -916 2067 -1148 
Q 1772 -1381 1288 -1381 
L 641 -1381 
L 641 -647 
L 991 -647 
Q 1275 -647 1404 -556 
Q 1534 -466 1606 -231 
L 1638 -134 
L 78 3500 
z
" transform="scale(0.015625)"/>
      <path id="DejaVuSans-Bold-65" d="M 4031 1759 
L 4031 1441 
L 1416 1441 
Q 1456 1047 1700 850 
Q 1944 653 2381 653 
Q 2734 653 3104 758 
Q 3475 863 3866 1075 
L 3866 213 
Q 3469 63 3072 -14 
Q 2675 -91 2278 -91 
Q 1328 -91 801 392 
Q 275 875 275 1747 
Q 275 2603 792 3093 
Q 1309 3584 2216 3584 
Q 3041 3584 3536 3087 
Q 4031 2591 4031 1759 
z
M 2881 2131 
Q 2881 2450 2695 2645 
Q 2509 2841 2209 2841 
Q 1884 2841 1681 2658 
Q 1478 2475 1428 2131 
L 2881 2131 
z
" transform="scale(0.015625)"/>
      <path id="DejaVuSans-Bold-72" d="M 3138 2547 
Q 2991 2616 2845 2648 
Q 2700 2681 2553 2681 
Q 2122 2681 1889 2404 
Q 1656 2128 1656 1613 
L 1656 0 
L 538 0 
L 538 3500 
L 1656 3500 
L 1656 2925 
Q 1872 3269 2151 3426 
Q 2431 3584 2822 3584 
Q 2878 3584 2943 3579 
Q 3009 3575 3134 3559 
L 3138 2547 
z
" transform="scale(0.015625)"/>
      <path id="DejaVuSans-Bold-3d" d="M 678 3084 
L 4684 3084 
L 4684 2350 
L 678 2350 
L 678 3084 
z
M 678 1663 
L 4684 1663 
L 4684 922 
L 678 922 
L 678 1663 
z
" transform="scale(0.015625)"/>
      <path id="DejaVuSans-Bold-34" d="M 2356 3675 
L 1038 1722 
L 2356 1722 
L 2356 3675 
z
M 2156 4666 
L 3494 4666 
L 3494 1722 
L 4159 1722 
L 4159 850 
L 3494 850 
L 3494 0 
L 2356 0 
L 2356 850 
L 288 850 
L 288 1881 
L 2156 4666 
z
" transform="scale(0.015625)"/>
     </defs>
     <use xlink:href="#DejaVuSans-Bold-6c"/>
     <use xlink:href="#DejaVuSans-Bold-61" transform="translate(34.277344 0)"/>
     <use xlink:href="#DejaVuSans-Bold-79" transform="translate(98.632812 0)"/>
     <use xlink:href="#DejaVuSans-Bold-65" transform="translate(163.818359 0)"/>
     <use xlink:href="#DejaVuSans-Bold-72" transform="translate(231.640625 0)"/>
     <use xlink:href="#DejaVuSans-Bold-3d" transform="translate(280.957031 0)"/>
     <use xlink:href="#DejaVuSans-Bold-34" transform="translate(364.746094 0)"/>
    </g>
   </g>
  </g>
  <g id="legend_1">
   <g id="patch_8">
    <path d="M 203.297416 62.405385 
L 284.49976 62.405385 
Q 286.69976 62.405385 286.69976 60.205385 
L 286.69976 11.89976 
Q 286.69976 9.69976 284.49976 9.69976 
L 203.297416 9.69976 
Q 201.097416 9.69976 201.097416 11.89976 
L 201.097416 60.205385 
Q 201.097416 62.405385 203.297416 62.405385 
z
" style="fill: #f5f6fc; opacity: 0.8; stroke: #cccccc; stroke-linejoin: miter"/>
   </g>
   <g id="text_19">
    <!-- Beta Value -->
    <g style="fill: #262626" transform="translate(211.676713 23.217885) scale(0.12 -0.12)">
     <defs>
      <path id="DejaVuSans-42" d="M 1259 2228 
L 1259 519 
L 2272 519 
Q 2781 519 3026 730 
Q 3272 941 3272 1375 
Q 3272 1813 3026 2020 
Q 2781 2228 2272 2228 
L 1259 2228 
z
M 1259 4147 
L 1259 2741 
L 2194 2741 
Q 2656 2741 2882 2914 
Q 3109 3088 3109 3444 
Q 3109 3797 2882 3972 
Q 2656 4147 2194 4147 
L 1259 4147 
z
M 628 4666 
L 2241 4666 
Q 2963 4666 3353 4366 
Q 3744 4066 3744 3513 
Q 3744 3084 3544 2831 
Q 3344 2578 2956 2516 
Q 3422 2416 3680 2098 
Q 3938 1781 3938 1306 
Q 3938 681 3513 340 
Q 3088 0 2303 0 
L 628 0 
L 628 4666 
z
" transform="scale(0.015625)"/>
      <path id="DejaVuSans-74" d="M 1172 4494 
L 1172 3500 
L 2356 3500 
L 2356 3053 
L 1172 3053 
L 1172 1153 
Q 1172 725 1289 603 
Q 1406 481 1766 481 
L 2356 481 
L 2356 0 
L 1766 0 
Q 1100 0 847 248 
Q 594 497 594 1153 
L 594 3053 
L 172 3053 
L 172 3500 
L 594 3500 
L 594 4494 
L 1172 4494 
z
" transform="scale(0.015625)"/>
      <path id="DejaVuSans-56" d="M 1831 0 
L 50 4666 
L 709 4666 
L 2188 738 
L 3669 4666 
L 4325 4666 
L 2547 0 
L 1831 0 
z
" transform="scale(0.015625)"/>
      <path id="DejaVuSans-6c" d="M 603 4863 
L 1178 4863 
L 1178 0 
L 603 0 
L 603 4863 
z
" transform="scale(0.015625)"/>
      <path id="DejaVuSans-75" d="M 544 1381 
L 544 3500 
L 1119 3500 
L 1119 1403 
Q 1119 906 1312 657 
Q 1506 409 1894 409 
Q 2359 409 2629 706 
Q 2900 1003 2900 1516 
L 2900 3500 
L 3475 3500 
L 3475 0 
L 2900 0 
L 2900 538 
Q 2691 219 2414 64 
Q 2138 -91 1772 -91 
Q 1169 -91 856 284 
Q 544 659 544 1381 
z
M 1991 3584 
L 1991 3584 
z
" transform="scale(0.015625)"/>
     </defs>
     <use xlink:href="#DejaVuSans-42"/>
     <use xlink:href="#DejaVuSans-65" transform="translate(68.603516 0)"/>
     <use xlink:href="#DejaVuSans-74" transform="translate(130.126953 0)"/>
     <use xlink:href="#DejaVuSans-61" transform="translate(169.335938 0)"/>
     <use xlink:href="#DejaVuSans-20" transform="translate(230.615234 0)"/>
     <use xlink:href="#DejaVuSans-56" transform="translate(262.402344 0)"/>
     <use xlink:href="#DejaVuSans-61" transform="translate(323.060547 0)"/>
     <use xlink:href="#DejaVuSans-6c" transform="translate(384.339844 0)"/>
     <use xlink:href="#DejaVuSans-75" transform="translate(412.123047 0)"/>
     <use xlink:href="#DejaVuSans-65" transform="translate(475.501953 0)"/>
    </g>
   </g>
   <g id="line2d_18">
    <path d="M 205.497416 35.721791 
L 216.497416 35.721791 
L 227.497416 35.721791 
" style="fill: none; stroke: #1f77b4; stroke-width: 1.1; stroke-linecap: round"/>
    <g>
     <use xlink:href="#mc56d5134f8" x="216.497416" y="35.721791" style="fill: #1f77b4; stroke: #1f77b4"/>
    </g>
   </g>
   <g id="text_20">
    <!-- No ReLU -->
    <g style="fill: #262626" transform="translate(236.297416 39.571791) scale(0.11 -0.11)">
     <defs>
      <path id="DejaVuSans-4e" d="M 628 4666 
L 1478 4666 
L 3547 763 
L 3547 4666 
L 4159 4666 
L 4159 0 
L 3309 0 
L 1241 3903 
L 1241 0 
L 628 0 
L 628 4666 
z
" transform="scale(0.015625)"/>
      <path id="DejaVuSans-52" d="M 2841 2188 
Q 3044 2119 3236 1894 
Q 3428 1669 3622 1275 
L 4263 0 
L 3584 0 
L 2988 1197 
Q 2756 1666 2539 1819 
Q 2322 1972 1947 1972 
L 1259 1972 
L 1259 0 
L 628 0 
L 628 4666 
L 2053 4666 
Q 2853 4666 3247 4331 
Q 3641 3997 3641 3322 
Q 3641 2881 3436 2590 
Q 3231 2300 2841 2188 
z
M 1259 4147 
L 1259 2491 
L 2053 2491 
Q 2509 2491 2742 2702 
Q 2975 2913 2975 3322 
Q 2975 3731 2742 3939 
Q 2509 4147 2053 4147 
L 1259 4147 
z
" transform="scale(0.015625)"/>
      <path id="DejaVuSans-55" d="M 556 4666 
L 1191 4666 
L 1191 1831 
Q 1191 1081 1462 751 
Q 1734 422 2344 422 
Q 2950 422 3222 751 
Q 3494 1081 3494 1831 
L 3494 4666 
L 4128 4666 
L 4128 1753 
Q 4128 841 3676 375 
Q 3225 -91 2344 -91 
Q 1459 -91 1007 375 
Q 556 841 556 1753 
L 556 4666 
z
" transform="scale(0.015625)"/>
     </defs>
     <use xlink:href="#DejaVuSans-4e"/>
     <use xlink:href="#DejaVuSans-6f" transform="translate(74.804688 0)"/>
     <use xlink:href="#DejaVuSans-20" transform="translate(135.986328 0)"/>
     <use xlink:href="#DejaVuSans-52" transform="translate(167.773438 0)"/>
     <use xlink:href="#DejaVuSans-65" transform="translate(232.755859 0)"/>
     <use xlink:href="#DejaVuSans-4c" transform="translate(294.279297 0)"/>
     <use xlink:href="#DejaVuSans-55" transform="translate(344.992188 0)"/>
    </g>
   </g>
   <g id="line2d_19">
    <path d="M 205.497416 51.867729 
L 216.497416 51.867729 
L 227.497416 51.867729 
" style="fill: none; stroke: #ff7f0e; stroke-width: 1.1; stroke-linecap: round"/>
    <g>
     <use xlink:href="#m44ace709ad" x="216.497416" y="51.867729" style="fill: #ff7f0e; stroke: #ff7f0e"/>
    </g>
   </g>
   <g id="text_21">
    <!-- ReLU -->
    <g style="fill: #262626" transform="translate(236.297416 55.717729) scale(0.11 -0.11)">
     <use xlink:href="#DejaVuSans-52"/>
     <use xlink:href="#DejaVuSans-65" transform="translate(64.982422 0)"/>
     <use xlink:href="#DejaVuSans-4c" transform="translate(126.505859 0)"/>
     <use xlink:href="#DejaVuSans-55" transform="translate(177.21875 0)"/>
    </g>
   </g>
  </g>
 </g>
 <defs>
  <clipPath id="pdaa000045e">
   <rect x="53.31" y="27.24948" width="222.071312" height="254.990353"/>
  </clipPath>
 </defs>
</svg>
