<?xml version="1.0" encoding="utf-8" standalone="no"?>
<!DOCTYPE svg PUBLIC "-//W3C//DTD SVG 1.1//EN"
  "http://www.w3.org/Graphics/SVG/1.1/DTD/svg11.dtd">
<svg xmlns:xlink="http://www.w3.org/1999/xlink" width="296.39952pt" height="325.19952pt" viewBox="0 0 296.39952 325.19952" xmlns="http://www.w3.org/2000/svg" version="1.1">
 <metadata>
  <rdf:RDF xmlns:dc="http://purl.org/dc/elements/1.1/" xmlns:cc="http://creativecommons.org/ns#" xmlns:rdf="http://www.w3.org/1999/02/22-rdf-syntax-ns#">
   <cc:Work>
    <dc:type rdf:resource="http://purl.org/dc/dcmitype/StillImage"/>
    <dc:date>2025-05-02T15:10:32.049224</dc:date>
    <dc:format>image/svg+xml</dc:format>
    <dc:creator>
     <cc:Agent>
      <dc:title>Matplotlib v3.10.1, https://matplotlib.org/</dc:title>
     </cc:Agent>
    </dc:creator>
   </cc:Work>
  </rdf:RDF>
 </metadata>
 <defs>
  <style type="text/css">*{stroke-linejoin: round; stroke-linecap: butt}</style>
 </defs>
 <g id="figure_1">
  <g id="patch_1">
   <path d="M 0 325.19952 
L 296.39952 325.19952 
L 296.39952 0 
L 0 0 
z
" style="fill: #ffffff"/>
  </g>
  <g id="subfigure_1">
   <g id="patch_2">
    <path d="M 4.19976 320.99976 
L 292.19976 320.99976 
L 292.19976 4.19976 
L 4.19976 4.19976 
L 4.19976 320.99976 
z
" style="fill: none"/>
   </g>
   <g id="axes_1">
    <g id="patch_3">
     <path d="M 53.31 282.239832 
L 289.19952 282.239832 
L 289.19952 27.24948 
L 53.31 27.24948 
z
" style="fill: #f5f6fc"/>
    </g>
    <g id="matplotlib.axis_1">
     <g id="xtick_1">
      <g id="line2d_1">
       <path d="M 64.528066 282.239832 
L 64.528066 27.24948 
" clip-path="url(#p0123105b81)" style="fill: none; stroke: #ffffff; stroke-linecap: round"/>
      </g>
      <g id="text_1">
       <!-- 0.00 -->
       <g style="fill: #262626" transform="translate(52.281972 300.098114) scale(0.11 -0.11)">
        <defs>
         <path id="DejaVuSans-30" d="M 2034 4250 
Q 1547 4250 1301 3770 
Q 1056 3291 1056 2328 
Q 1056 1369 1301 889 
Q 1547 409 2034 409 
Q 2525 409 2770 889 
Q 3016 1369 3016 2328 
Q 3016 3291 2770 3770 
Q 2525 4250 2034 4250 
z
M 2034 4750 
Q 2819 4750 3233 4129 
Q 3647 3509 3647 2328 
Q 3647 1150 3233 529 
Q 2819 -91 2034 -91 
Q 1250 -91 836 529 
Q 422 1150 422 2328 
Q 422 3509 836 4129 
Q 1250 4750 2034 4750 
z
" transform="scale(0.015625)"/>
         <path id="DejaVuSans-2e" d="M 684 794 
L 1344 794 
L 1344 0 
L 684 0 
L 684 794 
z
" transform="scale(0.015625)"/>
        </defs>
        <use xlink:href="#DejaVuSans-30"/>
        <use xlink:href="#DejaVuSans-2e" transform="translate(63.623047 0)"/>
        <use xlink:href="#DejaVuSans-30" transform="translate(95.410156 0)"/>
        <use xlink:href="#DejaVuSans-30" transform="translate(159.033203 0)"/>
       </g>
      </g>
     </g>
     <g id="xtick_2">
      <g id="line2d_2">
       <path d="M 131.070916 282.239832 
L 131.070916 27.24948 
" clip-path="url(#p0123105b81)" style="fill: none; stroke: #ffffff; stroke-linecap: round"/>
      </g>
      <g id="text_2">
       <!-- 0.02 -->
       <g style="fill: #262626" transform="translate(118.824822 300.098114) scale(0.11 -0.11)">
        <defs>
         <path id="DejaVuSans-32" d="M 1228 531 
L 3431 531 
L 3431 0 
L 469 0 
L 469 531 
Q 828 903 1448 1529 
Q 2069 2156 2228 2338 
Q 2531 2678 2651 2914 
Q 2772 3150 2772 3378 
Q 2772 3750 2511 3984 
Q 2250 4219 1831 4219 
Q 1534 4219 1204 4116 
Q 875 4013 500 3803 
L 500 4441 
Q 881 4594 1212 4672 
Q 1544 4750 1819 4750 
Q 2544 4750 2975 4387 
Q 3406 4025 3406 3419 
Q 3406 3131 3298 2873 
Q 3191 2616 2906 2266 
Q 2828 2175 2409 1742 
Q 1991 1309 1228 531 
z
" transform="scale(0.015625)"/>
        </defs>
        <use xlink:href="#DejaVuSans-30"/>
        <use xlink:href="#DejaVuSans-2e" transform="translate(63.623047 0)"/>
        <use xlink:href="#DejaVuSans-30" transform="translate(95.410156 0)"/>
        <use xlink:href="#DejaVuSans-32" transform="translate(159.033203 0)"/>
       </g>
      </g>
     </g>
     <g id="xtick_3">
      <g id="line2d_3">
       <path d="M 197.613766 282.239832 
L 197.613766 27.24948 
" clip-path="url(#p0123105b81)" style="fill: none; stroke: #ffffff; stroke-linecap: round"/>
      </g>
      <g id="text_3">
       <!-- 0.04 -->
       <g style="fill: #262626" transform="translate(185.367672 300.098114) scale(0.11 -0.11)">
        <defs>
         <path id="DejaVuSans-34" d="M 2419 4116 
L 825 1625 
L 2419 1625 
L 2419 4116 
z
M 2253 4666 
L 3047 4666 
L 3047 1625 
L 3713 1625 
L 3713 1100 
L 3047 1100 
L 3047 0 
L 2419 0 
L 2419 1100 
L 313 1100 
L 313 1709 
L 2253 4666 
z
" transform="scale(0.015625)"/>
        </defs>
        <use xlink:href="#DejaVuSans-30"/>
        <use xlink:href="#DejaVuSans-2e" transform="translate(63.623047 0)"/>
        <use xlink:href="#DejaVuSans-30" transform="translate(95.410156 0)"/>
        <use xlink:href="#DejaVuSans-34" transform="translate(159.033203 0)"/>
       </g>
      </g>
     </g>
     <g id="xtick_4">
      <g id="line2d_4">
       <path d="M 264.156617 282.239832 
L 264.156617 27.24948 
" clip-path="url(#p0123105b81)" style="fill: none; stroke: #ffffff; stroke-linecap: round"/>
      </g>
      <g id="text_4">
       <!-- 0.06 -->
       <g style="fill: #262626" transform="translate(251.910523 300.098114) scale(0.11 -0.11)">
        <defs>
         <path id="DejaVuSans-36" d="M 2113 2584 
Q 1688 2584 1439 2293 
Q 1191 2003 1191 1497 
Q 1191 994 1439 701 
Q 1688 409 2113 409 
Q 2538 409 2786 701 
Q 3034 994 3034 1497 
Q 3034 2003 2786 2293 
Q 2538 2584 2113 2584 
z
M 3366 4563 
L 3366 3988 
Q 3128 4100 2886 4159 
Q 2644 4219 2406 4219 
Q 1781 4219 1451 3797 
Q 1122 3375 1075 2522 
Q 1259 2794 1537 2939 
Q 1816 3084 2150 3084 
Q 2853 3084 3261 2657 
Q 3669 2231 3669 1497 
Q 3669 778 3244 343 
Q 2819 -91 2113 -91 
Q 1303 -91 875 529 
Q 447 1150 447 2328 
Q 447 3434 972 4092 
Q 1497 4750 2381 4750 
Q 2619 4750 2861 4703 
Q 3103 4656 3366 4563 
z
" transform="scale(0.015625)"/>
        </defs>
        <use xlink:href="#DejaVuSans-30"/>
        <use xlink:href="#DejaVuSans-2e" transform="translate(63.623047 0)"/>
        <use xlink:href="#DejaVuSans-30" transform="translate(95.410156 0)"/>
        <use xlink:href="#DejaVuSans-36" transform="translate(159.033203 0)"/>
       </g>
      </g>
     </g>
     <g id="text_5">
      <!-- CE Loss Increase -->
      <g style="fill: #262626" transform="translate(120.910073 315.503895) scale(0.12 -0.12)">
       <defs>
        <path id="DejaVuSans-43" d="M 4122 4306 
L 4122 3641 
Q 3803 3938 3442 4084 
Q 3081 4231 2675 4231 
Q 1875 4231 1450 3742 
Q 1025 3253 1025 2328 
Q 1025 1406 1450 917 
Q 1875 428 2675 428 
Q 3081 428 3442 575 
Q 3803 722 4122 1019 
L 4122 359 
Q 3791 134 3420 21 
Q 3050 -91 2638 -91 
Q 1578 -91 968 557 
Q 359 1206 359 2328 
Q 359 3453 968 4101 
Q 1578 4750 2638 4750 
Q 3056 4750 3426 4639 
Q 3797 4528 4122 4306 
z
" transform="scale(0.015625)"/>
        <path id="DejaVuSans-45" d="M 628 4666 
L 3578 4666 
L 3578 4134 
L 1259 4134 
L 1259 2753 
L 3481 2753 
L 3481 2222 
L 1259 2222 
L 1259 531 
L 3634 531 
L 3634 0 
L 628 0 
L 628 4666 
z
" transform="scale(0.015625)"/>
        <path id="DejaVuSans-20" transform="scale(0.015625)"/>
        <path id="DejaVuSans-4c" d="M 628 4666 
L 1259 4666 
L 1259 531 
L 3531 531 
L 3531 0 
L 628 0 
L 628 4666 
z
" transform="scale(0.015625)"/>
        <path id="DejaVuSans-6f" d="M 1959 3097 
Q 1497 3097 1228 2736 
Q 959 2375 959 1747 
Q 959 1119 1226 758 
Q 1494 397 1959 397 
Q 2419 397 2687 759 
Q 2956 1122 2956 1747 
Q 2956 2369 2687 2733 
Q 2419 3097 1959 3097 
z
M 1959 3584 
Q 2709 3584 3137 3096 
Q 3566 2609 3566 1747 
Q 3566 888 3137 398 
Q 2709 -91 1959 -91 
Q 1206 -91 779 398 
Q 353 888 353 1747 
Q 353 2609 779 3096 
Q 1206 3584 1959 3584 
z
" transform="scale(0.015625)"/>
        <path id="DejaVuSans-73" d="M 2834 3397 
L 2834 2853 
Q 2591 2978 2328 3040 
Q 2066 3103 1784 3103 
Q 1356 3103 1142 2972 
Q 928 2841 928 2578 
Q 928 2378 1081 2264 
Q 1234 2150 1697 2047 
L 1894 2003 
Q 2506 1872 2764 1633 
Q 3022 1394 3022 966 
Q 3022 478 2636 193 
Q 2250 -91 1575 -91 
Q 1294 -91 989 -36 
Q 684 19 347 128 
L 347 722 
Q 666 556 975 473 
Q 1284 391 1588 391 
Q 1994 391 2212 530 
Q 2431 669 2431 922 
Q 2431 1156 2273 1281 
Q 2116 1406 1581 1522 
L 1381 1569 
Q 847 1681 609 1914 
Q 372 2147 372 2553 
Q 372 3047 722 3315 
Q 1072 3584 1716 3584 
Q 2034 3584 2315 3537 
Q 2597 3491 2834 3397 
z
" transform="scale(0.015625)"/>
        <path id="DejaVuSans-49" d="M 628 4666 
L 1259 4666 
L 1259 0 
L 628 0 
L 628 4666 
z
" transform="scale(0.015625)"/>
        <path id="DejaVuSans-6e" d="M 3513 2113 
L 3513 0 
L 2938 0 
L 2938 2094 
Q 2938 2591 2744 2837 
Q 2550 3084 2163 3084 
Q 1697 3084 1428 2787 
Q 1159 2491 1159 1978 
L 1159 0 
L 581 0 
L 581 3500 
L 1159 3500 
L 1159 2956 
Q 1366 3272 1645 3428 
Q 1925 3584 2291 3584 
Q 2894 3584 3203 3211 
Q 3513 2838 3513 2113 
z
" transform="scale(0.015625)"/>
        <path id="DejaVuSans-63" d="M 3122 3366 
L 3122 2828 
Q 2878 2963 2633 3030 
Q 2388 3097 2138 3097 
Q 1578 3097 1268 2742 
Q 959 2388 959 1747 
Q 959 1106 1268 751 
Q 1578 397 2138 397 
Q 2388 397 2633 464 
Q 2878 531 3122 666 
L 3122 134 
Q 2881 22 2623 -34 
Q 2366 -91 2075 -91 
Q 1284 -91 818 406 
Q 353 903 353 1747 
Q 353 2603 823 3093 
Q 1294 3584 2113 3584 
Q 2378 3584 2631 3529 
Q 2884 3475 3122 3366 
z
" transform="scale(0.015625)"/>
        <path id="DejaVuSans-72" d="M 2631 2963 
Q 2534 3019 2420 3045 
Q 2306 3072 2169 3072 
Q 1681 3072 1420 2755 
Q 1159 2438 1159 1844 
L 1159 0 
L 581 0 
L 581 3500 
L 1159 3500 
L 1159 2956 
Q 1341 3275 1631 3429 
Q 1922 3584 2338 3584 
Q 2397 3584 2469 3576 
Q 2541 3569 2628 3553 
L 2631 2963 
z
" transform="scale(0.015625)"/>
        <path id="DejaVuSans-65" d="M 3597 1894 
L 3597 1613 
L 953 1613 
Q 991 1019 1311 708 
Q 1631 397 2203 397 
Q 2534 397 2845 478 
Q 3156 559 3463 722 
L 3463 178 
Q 3153 47 2828 -22 
Q 2503 -91 2169 -91 
Q 1331 -91 842 396 
Q 353 884 353 1716 
Q 353 2575 817 3079 
Q 1281 3584 2069 3584 
Q 2775 3584 3186 3129 
Q 3597 2675 3597 1894 
z
M 3022 2063 
Q 3016 2534 2758 2815 
Q 2500 3097 2075 3097 
Q 1594 3097 1305 2825 
Q 1016 2553 972 2059 
L 3022 2063 
z
" transform="scale(0.015625)"/>
        <path id="DejaVuSans-61" d="M 2194 1759 
Q 1497 1759 1228 1600 
Q 959 1441 959 1056 
Q 959 750 1161 570 
Q 1363 391 1709 391 
Q 2188 391 2477 730 
Q 2766 1069 2766 1631 
L 2766 1759 
L 2194 1759 
z
M 3341 1997 
L 3341 0 
L 2766 0 
L 2766 531 
Q 2569 213 2275 61 
Q 1981 -91 1556 -91 
Q 1019 -91 701 211 
Q 384 513 384 1019 
Q 384 1609 779 1909 
Q 1175 2209 1959 2209 
L 2766 2209 
L 2766 2266 
Q 2766 2663 2505 2880 
Q 2244 3097 1772 3097 
Q 1472 3097 1187 3025 
Q 903 2953 641 2809 
L 641 3341 
Q 956 3463 1253 3523 
Q 1550 3584 1831 3584 
Q 2591 3584 2966 3190 
Q 3341 2797 3341 1997 
z
" transform="scale(0.015625)"/>
       </defs>
       <use xlink:href="#DejaVuSans-43"/>
       <use xlink:href="#DejaVuSans-45" transform="translate(69.824219 0)"/>
       <use xlink:href="#DejaVuSans-20" transform="translate(133.007812 0)"/>
       <use xlink:href="#DejaVuSans-4c" transform="translate(164.794922 0)"/>
       <use xlink:href="#DejaVuSans-6f" transform="translate(218.757812 0)"/>
       <use xlink:href="#DejaVuSans-73" transform="translate(279.939453 0)"/>
       <use xlink:href="#DejaVuSans-73" transform="translate(332.039062 0)"/>
       <use xlink:href="#DejaVuSans-20" transform="translate(384.138672 0)"/>
       <use xlink:href="#DejaVuSans-49" transform="translate(415.925781 0)"/>
       <use xlink:href="#DejaVuSans-6e" transform="translate(445.417969 0)"/>
       <use xlink:href="#DejaVuSans-63" transform="translate(508.796875 0)"/>
       <use xlink:href="#DejaVuSans-72" transform="translate(563.777344 0)"/>
       <use xlink:href="#DejaVuSans-65" transform="translate(602.640625 0)"/>
       <use xlink:href="#DejaVuSans-61" transform="translate(664.164062 0)"/>
       <use xlink:href="#DejaVuSans-73" transform="translate(725.443359 0)"/>
       <use xlink:href="#DejaVuSans-65" transform="translate(777.542969 0)"/>
      </g>
     </g>
    </g>
    <g id="matplotlib.axis_2">
     <g id="ytick_1">
      <g id="line2d_5">
       <path d="M 53.31 278.91869 
L 289.19952 278.91869 
" clip-path="url(#p0123105b81)" style="fill: none; stroke: #ffffff; stroke-linecap: round"/>
      </g>
      <g id="text_6">
       <!-- 50 -->
       <g style="fill: #262626" transform="translate(29.8125 283.097831) scale(0.11 -0.11)">
        <defs>
         <path id="DejaVuSans-35" d="M 691 4666 
L 3169 4666 
L 3169 4134 
L 1269 4134 
L 1269 2991 
Q 1406 3038 1543 3061 
Q 1681 3084 1819 3084 
Q 2600 3084 3056 2656 
Q 3513 2228 3513 1497 
Q 3513 744 3044 326 
Q 2575 -91 1722 -91 
Q 1428 -91 1123 -41 
Q 819 9 494 109 
L 494 744 
Q 775 591 1075 516 
Q 1375 441 1709 441 
Q 2250 441 2565 725 
Q 2881 1009 2881 1497 
Q 2881 1984 2565 2268 
Q 2250 2553 1709 2553 
Q 1456 2553 1204 2497 
Q 953 2441 691 2322 
L 691 4666 
z
" transform="scale(0.015625)"/>
        </defs>
        <use xlink:href="#DejaVuSans-35"/>
        <use xlink:href="#DejaVuSans-30" transform="translate(63.623047 0)"/>
       </g>
      </g>
     </g>
     <g id="ytick_2">
      <g id="line2d_6">
       <path d="M 53.31 248.104275 
L 289.19952 248.104275 
" clip-path="url(#p0123105b81)" style="fill: none; stroke: #ffffff; stroke-linecap: round"/>
      </g>
      <g id="text_7">
       <!-- 60 -->
       <g style="fill: #262626" transform="translate(29.8125 252.283415) scale(0.11 -0.11)">
        <use xlink:href="#DejaVuSans-36"/>
        <use xlink:href="#DejaVuSans-30" transform="translate(63.623047 0)"/>
       </g>
      </g>
     </g>
     <g id="ytick_3">
      <g id="line2d_7">
       <path d="M 53.31 217.289859 
L 289.19952 217.289859 
" clip-path="url(#p0123105b81)" style="fill: none; stroke: #ffffff; stroke-linecap: round"/>
      </g>
      <g id="text_8">
       <!-- 70 -->
       <g style="fill: #262626" transform="translate(29.8125 221.469) scale(0.11 -0.11)">
        <defs>
         <path id="DejaVuSans-37" d="M 525 4666 
L 3525 4666 
L 3525 4397 
L 1831 0 
L 1172 0 
L 2766 4134 
L 525 4134 
L 525 4666 
z
" transform="scale(0.015625)"/>
        </defs>
        <use xlink:href="#DejaVuSans-37"/>
        <use xlink:href="#DejaVuSans-30" transform="translate(63.623047 0)"/>
       </g>
      </g>
     </g>
     <g id="ytick_4">
      <g id="line2d_8">
       <path d="M 53.31 186.475443 
L 289.19952 186.475443 
" clip-path="url(#p0123105b81)" style="fill: none; stroke: #ffffff; stroke-linecap: round"/>
      </g>
      <g id="text_9">
       <!-- 80 -->
       <g style="fill: #262626" transform="translate(29.8125 190.654584) scale(0.11 -0.11)">
        <defs>
         <path id="DejaVuSans-38" d="M 2034 2216 
Q 1584 2216 1326 1975 
Q 1069 1734 1069 1313 
Q 1069 891 1326 650 
Q 1584 409 2034 409 
Q 2484 409 2743 651 
Q 3003 894 3003 1313 
Q 3003 1734 2745 1975 
Q 2488 2216 2034 2216 
z
M 1403 2484 
Q 997 2584 770 2862 
Q 544 3141 544 3541 
Q 544 4100 942 4425 
Q 1341 4750 2034 4750 
Q 2731 4750 3128 4425 
Q 3525 4100 3525 3541 
Q 3525 3141 3298 2862 
Q 3072 2584 2669 2484 
Q 3125 2378 3379 2068 
Q 3634 1759 3634 1313 
Q 3634 634 3220 271 
Q 2806 -91 2034 -91 
Q 1263 -91 848 271 
Q 434 634 434 1313 
Q 434 1759 690 2068 
Q 947 2378 1403 2484 
z
M 1172 3481 
Q 1172 3119 1398 2916 
Q 1625 2713 2034 2713 
Q 2441 2713 2670 2916 
Q 2900 3119 2900 3481 
Q 2900 3844 2670 4047 
Q 2441 4250 2034 4250 
Q 1625 4250 1398 4047 
Q 1172 3844 1172 3481 
z
" transform="scale(0.015625)"/>
        </defs>
        <use xlink:href="#DejaVuSans-38"/>
        <use xlink:href="#DejaVuSans-30" transform="translate(63.623047 0)"/>
       </g>
      </g>
     </g>
     <g id="ytick_5">
      <g id="line2d_9">
       <path d="M 53.31 155.661028 
L 289.19952 155.661028 
" clip-path="url(#p0123105b81)" style="fill: none; stroke: #ffffff; stroke-linecap: round"/>
      </g>
      <g id="text_10">
       <!-- 90 -->
       <g style="fill: #262626" transform="translate(29.8125 159.840168) scale(0.11 -0.11)">
        <defs>
         <path id="DejaVuSans-39" d="M 703 97 
L 703 672 
Q 941 559 1184 500 
Q 1428 441 1663 441 
Q 2288 441 2617 861 
Q 2947 1281 2994 2138 
Q 2813 1869 2534 1725 
Q 2256 1581 1919 1581 
Q 1219 1581 811 2004 
Q 403 2428 403 3163 
Q 403 3881 828 4315 
Q 1253 4750 1959 4750 
Q 2769 4750 3195 4129 
Q 3622 3509 3622 2328 
Q 3622 1225 3098 567 
Q 2575 -91 1691 -91 
Q 1453 -91 1209 -44 
Q 966 3 703 97 
z
M 1959 2075 
Q 2384 2075 2632 2365 
Q 2881 2656 2881 3163 
Q 2881 3666 2632 3958 
Q 2384 4250 1959 4250 
Q 1534 4250 1286 3958 
Q 1038 3666 1038 3163 
Q 1038 2656 1286 2365 
Q 1534 2075 1959 2075 
z
" transform="scale(0.015625)"/>
        </defs>
        <use xlink:href="#DejaVuSans-39"/>
        <use xlink:href="#DejaVuSans-30" transform="translate(63.623047 0)"/>
       </g>
      </g>
     </g>
     <g id="ytick_6">
      <g id="line2d_10">
       <path d="M 53.31 124.846612 
L 289.19952 124.846612 
" clip-path="url(#p0123105b81)" style="fill: none; stroke: #ffffff; stroke-linecap: round"/>
      </g>
      <g id="text_11">
       <!-- 100 -->
       <g style="fill: #262626" transform="translate(22.81375 129.025752) scale(0.11 -0.11)">
        <defs>
         <path id="DejaVuSans-31" d="M 794 531 
L 1825 531 
L 1825 4091 
L 703 3866 
L 703 4441 
L 1819 4666 
L 2450 4666 
L 2450 531 
L 3481 531 
L 3481 0 
L 794 0 
L 794 531 
z
" transform="scale(0.015625)"/>
        </defs>
        <use xlink:href="#DejaVuSans-31"/>
        <use xlink:href="#DejaVuSans-30" transform="translate(63.623047 0)"/>
        <use xlink:href="#DejaVuSans-30" transform="translate(127.246094 0)"/>
       </g>
      </g>
     </g>
     <g id="ytick_7">
      <g id="line2d_11">
       <path d="M 53.31 94.032196 
L 289.19952 94.032196 
" clip-path="url(#p0123105b81)" style="fill: none; stroke: #ffffff; stroke-linecap: round"/>
      </g>
      <g id="text_12">
       <!-- 110 -->
       <g style="fill: #262626" transform="translate(22.81375 98.211337) scale(0.11 -0.11)">
        <use xlink:href="#DejaVuSans-31"/>
        <use xlink:href="#DejaVuSans-31" transform="translate(63.623047 0)"/>
        <use xlink:href="#DejaVuSans-30" transform="translate(127.246094 0)"/>
       </g>
      </g>
     </g>
     <g id="ytick_8">
      <g id="line2d_12">
       <path d="M 53.31 63.21778 
L 289.19952 63.21778 
" clip-path="url(#p0123105b81)" style="fill: none; stroke: #ffffff; stroke-linecap: round"/>
      </g>
      <g id="text_13">
       <!-- 120 -->
       <g style="fill: #262626" transform="translate(22.81375 67.396921) scale(0.11 -0.11)">
        <use xlink:href="#DejaVuSans-31"/>
        <use xlink:href="#DejaVuSans-32" transform="translate(63.623047 0)"/>
        <use xlink:href="#DejaVuSans-30" transform="translate(127.246094 0)"/>
       </g>
      </g>
     </g>
     <g id="ytick_9">
      <g id="line2d_13">
       <path d="M 53.31 32.403365 
L 289.19952 32.403365 
" clip-path="url(#p0123105b81)" style="fill: none; stroke: #ffffff; stroke-linecap: round"/>
      </g>
      <g id="text_14">
       <!-- 130 -->
       <g style="fill: #262626" transform="translate(22.81375 36.582505) scale(0.11 -0.11)">
        <defs>
         <path id="DejaVuSans-33" d="M 2597 2516 
Q 3050 2419 3304 2112 
Q 3559 1806 3559 1356 
Q 3559 666 3084 287 
Q 2609 -91 1734 -91 
Q 1441 -91 1130 -33 
Q 819 25 488 141 
L 488 750 
Q 750 597 1062 519 
Q 1375 441 1716 441 
Q 2309 441 2620 675 
Q 2931 909 2931 1356 
Q 2931 1769 2642 2001 
Q 2353 2234 1838 2234 
L 1294 2234 
L 1294 2753 
L 1863 2753 
Q 2328 2753 2575 2939 
Q 2822 3125 2822 3475 
Q 2822 3834 2567 4026 
Q 2313 4219 1838 4219 
Q 1578 4219 1281 4162 
Q 984 4106 628 3988 
L 628 4550 
Q 988 4650 1302 4700 
Q 1616 4750 1894 4750 
Q 2613 4750 3031 4423 
Q 3450 4097 3450 3541 
Q 3450 3153 3228 2886 
Q 3006 2619 2597 2516 
z
" transform="scale(0.015625)"/>
        </defs>
        <use xlink:href="#DejaVuSans-31"/>
        <use xlink:href="#DejaVuSans-33" transform="translate(63.623047 0)"/>
        <use xlink:href="#DejaVuSans-30" transform="translate(127.246094 0)"/>
       </g>
      </g>
     </g>
     <g id="text_15">
      <!-- L0 -->
      <g style="fill: #262626" transform="translate(16.318125 161.905281) rotate(-90) scale(0.12 -0.12)">
       <use xlink:href="#DejaVuSans-4c"/>
       <use xlink:href="#DejaVuSans-30" transform="translate(55.712891 0)"/>
      </g>
     </g>
    </g>
    <g id="line2d_14">
     <path d="M 278.477269 270.649362 
L 243.040106 269.095161 
L 220.271821 269.026828 
L 268.990983 268.064925 
L 230.487835 266.677444 
L 188.629546 263.194537 
L 156.995204 259.117909 
L 104.11559 249.797741 
L 64.452008 186.47537 
L 64.870211 38.839951 
" clip-path="url(#p0123105b81)" style="fill: none; stroke: #1f77b4; stroke-width: 1.1; stroke-linecap: round"/>
     <defs>
      <path id="mf6acb1235d" d="M 0 3 
C 0.795609 3 1.55874 2.683901 2.12132 2.12132 
C 2.683901 1.55874 3 0.795609 3 0 
C 3 -0.795609 2.683901 -1.55874 2.12132 -2.12132 
C 1.55874 -2.683901 0.795609 -3 0 -3 
C -0.795609 -3 -1.55874 -2.683901 -2.12132 -2.12132 
C -2.683901 -1.55874 -3 -0.795609 -3 0 
C -3 0.795609 -2.683901 1.55874 -2.12132 2.12132 
C -1.55874 2.683901 -0.795609 3 0 3 
z
" style="stroke: #1f77b4"/>
     </defs>
     <g clip-path="url(#p0123105b81)">
      <use xlink:href="#mf6acb1235d" x="278.477269" y="270.649362" style="fill: #1f77b4; stroke: #1f77b4"/>
      <use xlink:href="#mf6acb1235d" x="243.040106" y="269.095161" style="fill: #1f77b4; stroke: #1f77b4"/>
      <use xlink:href="#mf6acb1235d" x="220.271821" y="269.026828" style="fill: #1f77b4; stroke: #1f77b4"/>
      <use xlink:href="#mf6acb1235d" x="268.990983" y="268.064925" style="fill: #1f77b4; stroke: #1f77b4"/>
      <use xlink:href="#mf6acb1235d" x="230.487835" y="266.677444" style="fill: #1f77b4; stroke: #1f77b4"/>
      <use xlink:href="#mf6acb1235d" x="188.629546" y="263.194537" style="fill: #1f77b4; stroke: #1f77b4"/>
      <use xlink:href="#mf6acb1235d" x="156.995204" y="259.117909" style="fill: #1f77b4; stroke: #1f77b4"/>
      <use xlink:href="#mf6acb1235d" x="104.11559" y="249.797741" style="fill: #1f77b4; stroke: #1f77b4"/>
      <use xlink:href="#mf6acb1235d" x="64.452008" y="186.47537" style="fill: #1f77b4; stroke: #1f77b4"/>
      <use xlink:href="#mf6acb1235d" x="64.870211" y="38.839951" style="fill: #1f77b4; stroke: #1f77b4"/>
     </g>
    </g>
    <g id="line2d_15">
     <path d="M 202.09796 267.088996 
L 159.092024 260.424501 
L 137.654024 257.348599 
L 138.161674 257.348599 
L 117.730819 254.267181 
L 116.950671 254.232825 
L 98.388243 248.104275 
L 96.195312 247.471952 
L 64.064362 223.452742 
L 64.484564 167.986794 
" clip-path="url(#p0123105b81)" style="fill: none; stroke: #ff7f0e; stroke-width: 1.1; stroke-linecap: round"/>
     <defs>
      <path id="m8e41855951" d="M 0 3 
C 0.795609 3 1.55874 2.683901 2.12132 2.12132 
C 2.683901 1.55874 3 0.795609 3 0 
C 3 -0.795609 2.683901 -1.55874 2.12132 -2.12132 
C 1.55874 -2.683901 0.795609 -3 0 -3 
C -0.795609 -3 -1.55874 -2.683901 -2.12132 -2.12132 
C -2.683901 -1.55874 -3 -0.795609 -3 0 
C -3 0.795609 -2.683901 1.55874 -2.12132 2.12132 
C -1.55874 2.683901 -0.795609 3 0 3 
z
" style="stroke: #ff7f0e"/>
     </defs>
     <g clip-path="url(#p0123105b81)">
      <use xlink:href="#m8e41855951" x="202.09796" y="267.088996" style="fill: #ff7f0e; stroke: #ff7f0e"/>
      <use xlink:href="#m8e41855951" x="159.092024" y="260.424501" style="fill: #ff7f0e; stroke: #ff7f0e"/>
      <use xlink:href="#m8e41855951" x="137.654024" y="257.348599" style="fill: #ff7f0e; stroke: #ff7f0e"/>
      <use xlink:href="#m8e41855951" x="138.161674" y="257.348599" style="fill: #ff7f0e; stroke: #ff7f0e"/>
      <use xlink:href="#m8e41855951" x="117.730819" y="254.267181" style="fill: #ff7f0e; stroke: #ff7f0e"/>
      <use xlink:href="#m8e41855951" x="116.950671" y="254.232825" style="fill: #ff7f0e; stroke: #ff7f0e"/>
      <use xlink:href="#m8e41855951" x="98.388243" y="248.104275" style="fill: #ff7f0e; stroke: #ff7f0e"/>
      <use xlink:href="#m8e41855951" x="96.195312" y="247.471952" style="fill: #ff7f0e; stroke: #ff7f0e"/>
      <use xlink:href="#m8e41855951" x="64.064362" y="223.452742" style="fill: #ff7f0e; stroke: #ff7f0e"/>
      <use xlink:href="#m8e41855951" x="64.484564" y="167.986794" style="fill: #ff7f0e; stroke: #ff7f0e"/>
     </g>
    </g>
    <g id="line2d_16">
     <path d="M 198.174183 266.592912 
L 178.482259 262.420252 
L 163.062888 260.430089 
L 160.472982 260.429907 
L 138.87392 257.348599 
L 127.839205 254.267158 
L 83.564954 245.022796 
L 80.185983 242.805926 
L 65.415842 238.859962 
L 64.554497 211.126976 
" clip-path="url(#p0123105b81)" style="fill: none; stroke: #2ca02c; stroke-width: 1.1; stroke-linecap: round"/>
     <defs>
      <path id="me659e0d9e0" d="M 0 3 
C 0.795609 3 1.55874 2.683901 2.12132 2.12132 
C 2.683901 1.55874 3 0.795609 3 0 
C 3 -0.795609 2.683901 -1.55874 2.12132 -2.12132 
C 1.55874 -2.683901 0.795609 -3 0 -3 
C -0.795609 -3 -1.55874 -2.683901 -2.12132 -2.12132 
C -2.683901 -1.55874 -3 -0.795609 -3 0 
C -3 0.795609 -2.683901 1.55874 -2.12132 2.12132 
C -1.55874 2.683901 -0.795609 3 0 3 
z
" style="stroke: #2ca02c"/>
     </defs>
     <g clip-path="url(#p0123105b81)">
      <use xlink:href="#me659e0d9e0" x="198.174183" y="266.592912" style="fill: #2ca02c; stroke: #2ca02c"/>
      <use xlink:href="#me659e0d9e0" x="178.482259" y="262.420252" style="fill: #2ca02c; stroke: #2ca02c"/>
      <use xlink:href="#me659e0d9e0" x="163.062888" y="260.430089" style="fill: #2ca02c; stroke: #2ca02c"/>
      <use xlink:href="#me659e0d9e0" x="160.472982" y="260.429907" style="fill: #2ca02c; stroke: #2ca02c"/>
      <use xlink:href="#me659e0d9e0" x="138.87392" y="257.348599" style="fill: #2ca02c; stroke: #2ca02c"/>
      <use xlink:href="#me659e0d9e0" x="127.839205" y="254.267158" style="fill: #2ca02c; stroke: #2ca02c"/>
      <use xlink:href="#me659e0d9e0" x="83.564954" y="245.022796" style="fill: #2ca02c; stroke: #2ca02c"/>
      <use xlink:href="#me659e0d9e0" x="80.185983" y="242.805926" style="fill: #2ca02c; stroke: #2ca02c"/>
      <use xlink:href="#me659e0d9e0" x="65.415842" y="238.859962" style="fill: #2ca02c; stroke: #2ca02c"/>
      <use xlink:href="#me659e0d9e0" x="64.554497" y="211.126976" style="fill: #2ca02c; stroke: #2ca02c"/>
     </g>
    </g>
    <g id="line2d_17">
     <path d="M 204.300188 266.643309 
L 178.536454 263.511482 
L 156.699479 260.416557 
L 137.128129 257.348599 
L 135.528393 257.183211 
L 108.008366 251.18568 
L 83.594748 245.022833 
L 64.032251 238.859962 
L 64.769309 238.859962 
L 64.58702 229.615637 
" clip-path="url(#p0123105b81)" style="fill: none; stroke: #d62728; stroke-width: 1.1; stroke-linecap: round"/>
     <defs>
      <path id="m1334125a5b" d="M 0 3 
C 0.795609 3 1.55874 2.683901 2.12132 2.12132 
C 2.683901 1.55874 3 0.795609 3 0 
C 3 -0.795609 2.683901 -1.55874 2.12132 -2.12132 
C 1.55874 -2.683901 0.795609 -3 0 -3 
C -0.795609 -3 -1.55874 -2.683901 -2.12132 -2.12132 
C -2.683901 -1.55874 -3 -0.795609 -3 0 
C -3 0.795609 -2.683901 1.55874 -2.12132 2.12132 
C -1.55874 2.683901 -0.795609 3 0 3 
z
" style="stroke: #d62728"/>
     </defs>
     <g clip-path="url(#p0123105b81)">
      <use xlink:href="#m1334125a5b" x="204.300188" y="266.643309" style="fill: #d62728; stroke: #d62728"/>
      <use xlink:href="#m1334125a5b" x="178.536454" y="263.511482" style="fill: #d62728; stroke: #d62728"/>
      <use xlink:href="#m1334125a5b" x="156.699479" y="260.416557" style="fill: #d62728; stroke: #d62728"/>
      <use xlink:href="#m1334125a5b" x="137.128129" y="257.348599" style="fill: #d62728; stroke: #d62728"/>
      <use xlink:href="#m1334125a5b" x="135.528393" y="257.183211" style="fill: #d62728; stroke: #d62728"/>
      <use xlink:href="#m1334125a5b" x="108.008366" y="251.18568" style="fill: #d62728; stroke: #d62728"/>
      <use xlink:href="#m1334125a5b" x="83.594748" y="245.022833" style="fill: #d62728; stroke: #d62728"/>
      <use xlink:href="#m1334125a5b" x="64.032251" y="238.859962" style="fill: #d62728; stroke: #d62728"/>
      <use xlink:href="#m1334125a5b" x="64.769309" y="238.859962" style="fill: #d62728; stroke: #d62728"/>
      <use xlink:href="#m1334125a5b" x="64.58702" y="229.615637" style="fill: #d62728; stroke: #d62728"/>
     </g>
    </g>
    <g id="patch_4">
     <path d="M 53.31 282.239832 
L 53.31 27.24948 
" style="fill: none; stroke: #ffffff; stroke-width: 1.25; stroke-linejoin: miter; stroke-linecap: square"/>
    </g>
    <g id="patch_5">
     <path d="M 289.19952 282.239832 
L 289.19952 27.24948 
" style="fill: none; stroke: #ffffff; stroke-width: 1.25; stroke-linejoin: miter; stroke-linecap: square"/>
    </g>
    <g id="patch_6">
     <path d="M 53.31 282.239832 
L 289.19952 282.239832 
" style="fill: none; stroke: #ffffff; stroke-width: 1.25; stroke-linejoin: miter; stroke-linecap: square"/>
    </g>
    <g id="patch_7">
     <path d="M 53.31 27.24948 
L 289.19952 27.24948 
" style="fill: none; stroke: #ffffff; stroke-width: 1.25; stroke-linejoin: miter; stroke-linecap: square"/>
    </g>
   </g>
   <g id="text_16">
    <!-- layer=4 -->
    <g style="fill: #262626" transform="translate(120.67101 18.14175) scale(0.144 -0.144)">
     <defs>
      <path id="DejaVuSans-Bold-6c" d="M 538 4863 
L 1656 4863 
L 1656 0 
L 538 0 
L 538 4863 
z
" transform="scale(0.015625)"/>
      <path id="DejaVuSans-Bold-61" d="M 2106 1575 
Q 1756 1575 1579 1456 
Q 1403 1338 1403 1106 
Q 1403 894 1545 773 
Q 1688 653 1941 653 
Q 2256 653 2472 879 
Q 2688 1106 2688 1447 
L 2688 1575 
L 2106 1575 
z
M 3816 1997 
L 3816 0 
L 2688 0 
L 2688 519 
Q 2463 200 2181 54 
Q 1900 -91 1497 -91 
Q 953 -91 614 226 
Q 275 544 275 1050 
Q 275 1666 698 1953 
Q 1122 2241 2028 2241 
L 2688 2241 
L 2688 2328 
Q 2688 2594 2478 2717 
Q 2269 2841 1825 2841 
Q 1466 2841 1156 2769 
Q 847 2697 581 2553 
L 581 3406 
Q 941 3494 1303 3539 
Q 1666 3584 2028 3584 
Q 2975 3584 3395 3211 
Q 3816 2838 3816 1997 
z
" transform="scale(0.015625)"/>
      <path id="DejaVuSans-Bold-79" d="M 78 3500 
L 1197 3500 
L 2138 1125 
L 2938 3500 
L 4056 3500 
L 2584 -331 
Q 2363 -916 2067 -1148 
Q 1772 -1381 1288 -1381 
L 641 -1381 
L 641 -647 
L 991 -647 
Q 1275 -647 1404 -556 
Q 1534 -466 1606 -231 
L 1638 -134 
L 78 3500 
z
" transform="scale(0.015625)"/>
      <path id="DejaVuSans-Bold-65" d="M 4031 1759 
L 4031 1441 
L 1416 1441 
Q 1456 1047 1700 850 
Q 1944 653 2381 653 
Q 2734 653 3104 758 
Q 3475 863 3866 1075 
L 3866 213 
Q 3469 63 3072 -14 
Q 2675 -91 2278 -91 
Q 1328 -91 801 392 
Q 275 875 275 1747 
Q 275 2603 792 3093 
Q 1309 3584 2216 3584 
Q 3041 3584 3536 3087 
Q 4031 2591 4031 1759 
z
M 2881 2131 
Q 2881 2450 2695 2645 
Q 2509 2841 2209 2841 
Q 1884 2841 1681 2658 
Q 1478 2475 1428 2131 
L 2881 2131 
z
" transform="scale(0.015625)"/>
      <path id="DejaVuSans-Bold-72" d="M 3138 2547 
Q 2991 2616 2845 2648 
Q 2700 2681 2553 2681 
Q 2122 2681 1889 2404 
Q 1656 2128 1656 1613 
L 1656 0 
L 538 0 
L 538 3500 
L 1656 3500 
L 1656 2925 
Q 1872 3269 2151 3426 
Q 2431 3584 2822 3584 
Q 2878 3584 2943 3579 
Q 3009 3575 3134 3559 
L 3138 2547 
z
" transform="scale(0.015625)"/>
      <path id="DejaVuSans-Bold-3d" d="M 678 3084 
L 4684 3084 
L 4684 2350 
L 678 2350 
L 678 3084 
z
M 678 1663 
L 4684 1663 
L 4684 922 
L 678 922 
L 678 1663 
z
" transform="scale(0.015625)"/>
      <path id="DejaVuSans-Bold-34" d="M 2356 3675 
L 1038 1722 
L 2356 1722 
L 2356 3675 
z
M 2156 4666 
L 3494 4666 
L 3494 1722 
L 4159 1722 
L 4159 850 
L 3494 850 
L 3494 0 
L 2356 0 
L 2356 850 
L 288 850 
L 288 1881 
L 2156 4666 
z
" transform="scale(0.015625)"/>
     </defs>
     <use xlink:href="#DejaVuSans-Bold-6c"/>
     <use xlink:href="#DejaVuSans-Bold-61" transform="translate(34.277344 0)"/>
     <use xlink:href="#DejaVuSans-Bold-79" transform="translate(98.632812 0)"/>
     <use xlink:href="#DejaVuSans-Bold-65" transform="translate(163.818359 0)"/>
     <use xlink:href="#DejaVuSans-Bold-72" transform="translate(231.640625 0)"/>
     <use xlink:href="#DejaVuSans-Bold-3d" transform="translate(280.957031 0)"/>
     <use xlink:href="#DejaVuSans-Bold-34" transform="translate(364.746094 0)"/>
    </g>
   </g>
  </g>
  <g id="legend_1">
   <g id="patch_8">
    <path d="M 197.178666 94.69726 
L 284.49976 94.69726 
Q 286.69976 94.69726 286.69976 92.49726 
L 286.69976 11.89976 
Q 286.69976 9.69976 284.49976 9.69976 
L 197.178666 9.69976 
Q 194.978666 9.69976 194.978666 11.89976 
L 194.978666 92.49726 
Q 194.978666 94.69726 197.178666 94.69726 
z
" style="fill: #f5f6fc; opacity: 0.8; stroke: #cccccc; stroke-linejoin: miter"/>
   </g>
   <g id="text_17">
    <!-- Beta Value -->
    <g style="fill: #262626" transform="translate(208.617338 23.217885) scale(0.12 -0.12)">
     <defs>
      <path id="DejaVuSans-42" d="M 1259 2228 
L 1259 519 
L 2272 519 
Q 2781 519 3026 730 
Q 3272 941 3272 1375 
Q 3272 1813 3026 2020 
Q 2781 2228 2272 2228 
L 1259 2228 
z
M 1259 4147 
L 1259 2741 
L 2194 2741 
Q 2656 2741 2882 2914 
Q 3109 3088 3109 3444 
Q 3109 3797 2882 3972 
Q 2656 4147 2194 4147 
L 1259 4147 
z
M 628 4666 
L 2241 4666 
Q 2963 4666 3353 4366 
Q 3744 4066 3744 3513 
Q 3744 3084 3544 2831 
Q 3344 2578 2956 2516 
Q 3422 2416 3680 2098 
Q 3938 1781 3938 1306 
Q 3938 681 3513 340 
Q 3088 0 2303 0 
L 628 0 
L 628 4666 
z
" transform="scale(0.015625)"/>
      <path id="DejaVuSans-74" d="M 1172 4494 
L 1172 3500 
L 2356 3500 
L 2356 3053 
L 1172 3053 
L 1172 1153 
Q 1172 725 1289 603 
Q 1406 481 1766 481 
L 2356 481 
L 2356 0 
L 1766 0 
Q 1100 0 847 248 
Q 594 497 594 1153 
L 594 3053 
L 172 3053 
L 172 3500 
L 594 3500 
L 594 4494 
L 1172 4494 
z
" transform="scale(0.015625)"/>
      <path id="DejaVuSans-56" d="M 1831 0 
L 50 4666 
L 709 4666 
L 2188 738 
L 3669 4666 
L 4325 4666 
L 2547 0 
L 1831 0 
z
" transform="scale(0.015625)"/>
      <path id="DejaVuSans-6c" d="M 603 4863 
L 1178 4863 
L 1178 0 
L 603 0 
L 603 4863 
z
" transform="scale(0.015625)"/>
      <path id="DejaVuSans-75" d="M 544 1381 
L 544 3500 
L 1119 3500 
L 1119 1403 
Q 1119 906 1312 657 
Q 1506 409 1894 409 
Q 2359 409 2629 706 
Q 2900 1003 2900 1516 
L 2900 3500 
L 3475 3500 
L 3475 0 
L 2900 0 
L 2900 538 
Q 2691 219 2414 64 
Q 2138 -91 1772 -91 
Q 1169 -91 856 284 
Q 544 659 544 1381 
z
M 1991 3584 
L 1991 3584 
z
" transform="scale(0.015625)"/>
     </defs>
     <use xlink:href="#DejaVuSans-42"/>
     <use xlink:href="#DejaVuSans-65" transform="translate(68.603516 0)"/>
     <use xlink:href="#DejaVuSans-74" transform="translate(130.126953 0)"/>
     <use xlink:href="#DejaVuSans-61" transform="translate(169.335938 0)"/>
     <use xlink:href="#DejaVuSans-20" transform="translate(230.615234 0)"/>
     <use xlink:href="#DejaVuSans-56" transform="translate(262.402344 0)"/>
     <use xlink:href="#DejaVuSans-61" transform="translate(323.060547 0)"/>
     <use xlink:href="#DejaVuSans-6c" transform="translate(384.339844 0)"/>
     <use xlink:href="#DejaVuSans-75" transform="translate(412.123047 0)"/>
     <use xlink:href="#DejaVuSans-65" transform="translate(475.501953 0)"/>
    </g>
   </g>
   <g id="line2d_18">
    <path d="M 199.378666 35.721791 
L 210.378666 35.721791 
L 221.378666 35.721791 
" style="fill: none; stroke: #1f77b4; stroke-width: 1.1; stroke-linecap: round"/>
    <g>
     <use xlink:href="#mf6acb1235d" x="210.378666" y="35.721791" style="fill: #1f77b4; stroke: #1f77b4"/>
    </g>
   </g>
   <g id="text_18">
    <!-- LR: 0.001 -->
    <g style="fill: #262626" transform="translate(230.178666 39.571791) scale(0.11 -0.11)">
     <defs>
      <path id="DejaVuSans-52" d="M 2841 2188 
Q 3044 2119 3236 1894 
Q 3428 1669 3622 1275 
L 4263 0 
L 3584 0 
L 2988 1197 
Q 2756 1666 2539 1819 
Q 2322 1972 1947 1972 
L 1259 1972 
L 1259 0 
L 628 0 
L 628 4666 
L 2053 4666 
Q 2853 4666 3247 4331 
Q 3641 3997 3641 3322 
Q 3641 2881 3436 2590 
Q 3231 2300 2841 2188 
z
M 1259 4147 
L 1259 2491 
L 2053 2491 
Q 2509 2491 2742 2702 
Q 2975 2913 2975 3322 
Q 2975 3731 2742 3939 
Q 2509 4147 2053 4147 
L 1259 4147 
z
" transform="scale(0.015625)"/>
      <path id="DejaVuSans-3a" d="M 750 794 
L 1409 794 
L 1409 0 
L 750 0 
L 750 794 
z
M 750 3309 
L 1409 3309 
L 1409 2516 
L 750 2516 
L 750 3309 
z
" transform="scale(0.015625)"/>
     </defs>
     <use xlink:href="#DejaVuSans-4c"/>
     <use xlink:href="#DejaVuSans-52" transform="translate(55.712891 0)"/>
     <use xlink:href="#DejaVuSans-3a" transform="translate(122.070312 0)"/>
     <use xlink:href="#DejaVuSans-20" transform="translate(155.761719 0)"/>
     <use xlink:href="#DejaVuSans-30" transform="translate(187.548828 0)"/>
     <use xlink:href="#DejaVuSans-2e" transform="translate(251.171875 0)"/>
     <use xlink:href="#DejaVuSans-30" transform="translate(282.958984 0)"/>
     <use xlink:href="#DejaVuSans-30" transform="translate(346.582031 0)"/>
     <use xlink:href="#DejaVuSans-31" transform="translate(410.205078 0)"/>
    </g>
   </g>
   <g id="line2d_19">
    <path d="M 199.378666 51.867729 
L 210.378666 51.867729 
L 221.378666 51.867729 
" style="fill: none; stroke: #ff7f0e; stroke-width: 1.1; stroke-linecap: round"/>
    <g>
     <use xlink:href="#m8e41855951" x="210.378666" y="51.867729" style="fill: #ff7f0e; stroke: #ff7f0e"/>
    </g>
   </g>
   <g id="text_19">
    <!-- LR: 0.002 -->
    <g style="fill: #262626" transform="translate(230.178666 55.717729) scale(0.11 -0.11)">
     <use xlink:href="#DejaVuSans-4c"/>
     <use xlink:href="#DejaVuSans-52" transform="translate(55.712891 0)"/>
     <use xlink:href="#DejaVuSans-3a" transform="translate(122.070312 0)"/>
     <use xlink:href="#DejaVuSans-20" transform="translate(155.761719 0)"/>
     <use xlink:href="#DejaVuSans-30" transform="translate(187.548828 0)"/>
     <use xlink:href="#DejaVuSans-2e" transform="translate(251.171875 0)"/>
     <use xlink:href="#DejaVuSans-30" transform="translate(282.958984 0)"/>
     <use xlink:href="#DejaVuSans-30" transform="translate(346.582031 0)"/>
     <use xlink:href="#DejaVuSans-32" transform="translate(410.205078 0)"/>
    </g>
   </g>
   <g id="line2d_20">
    <path d="M 199.378666 68.013666 
L 210.378666 68.013666 
L 221.378666 68.013666 
" style="fill: none; stroke: #2ca02c; stroke-width: 1.1; stroke-linecap: round"/>
    <g>
     <use xlink:href="#me659e0d9e0" x="210.378666" y="68.013666" style="fill: #2ca02c; stroke: #2ca02c"/>
    </g>
   </g>
   <g id="text_20">
    <!-- LR: 0.003 -->
    <g style="fill: #262626" transform="translate(230.178666 71.863666) scale(0.11 -0.11)">
     <use xlink:href="#DejaVuSans-4c"/>
     <use xlink:href="#DejaVuSans-52" transform="translate(55.712891 0)"/>
     <use xlink:href="#DejaVuSans-3a" transform="translate(122.070312 0)"/>
     <use xlink:href="#DejaVuSans-20" transform="translate(155.761719 0)"/>
     <use xlink:href="#DejaVuSans-30" transform="translate(187.548828 0)"/>
     <use xlink:href="#DejaVuSans-2e" transform="translate(251.171875 0)"/>
     <use xlink:href="#DejaVuSans-30" transform="translate(282.958984 0)"/>
     <use xlink:href="#DejaVuSans-30" transform="translate(346.582031 0)"/>
     <use xlink:href="#DejaVuSans-33" transform="translate(410.205078 0)"/>
    </g>
   </g>
   <g id="line2d_21">
    <path d="M 199.378666 84.159604 
L 210.378666 84.159604 
L 221.378666 84.159604 
" style="fill: none; stroke: #d62728; stroke-width: 1.1; stroke-linecap: round"/>
    <g>
     <use xlink:href="#m1334125a5b" x="210.378666" y="84.159604" style="fill: #d62728; stroke: #d62728"/>
    </g>
   </g>
   <g id="text_21">
    <!-- LR: 0.005 -->
    <g style="fill: #262626" transform="translate(230.178666 88.009604) scale(0.11 -0.11)">
     <use xlink:href="#DejaVuSans-4c"/>
     <use xlink:href="#DejaVuSans-52" transform="translate(55.712891 0)"/>
     <use xlink:href="#DejaVuSans-3a" transform="translate(122.070312 0)"/>
     <use xlink:href="#DejaVuSans-20" transform="translate(155.761719 0)"/>
     <use xlink:href="#DejaVuSans-30" transform="translate(187.548828 0)"/>
     <use xlink:href="#DejaVuSans-2e" transform="translate(251.171875 0)"/>
     <use xlink:href="#DejaVuSans-30" transform="translate(282.958984 0)"/>
     <use xlink:href="#DejaVuSans-30" transform="translate(346.582031 0)"/>
     <use xlink:href="#DejaVuSans-35" transform="translate(410.205078 0)"/>
    </g>
   </g>
  </g>
 </g>
 <defs>
  <clipPath id="p0123105b81">
   <rect x="53.31" y="27.24948" width="235.88952" height="254.990353"/>
  </clipPath>
 </defs>
</svg>
