<?xml version="1.0" encoding="utf-8" standalone="no"?>
<!DOCTYPE svg PUBLIC "-//W3C//DTD SVG 1.1//EN"
  "http://www.w3.org/Graphics/SVG/1.1/DTD/svg11.dtd">
<svg xmlns:xlink="http://www.w3.org/1999/xlink" width="584.39952pt" height="325.19952pt" viewBox="0 0 584.39952 325.19952" xmlns="http://www.w3.org/2000/svg" version="1.1">
 <metadata>
  <rdf:RDF xmlns:dc="http://purl.org/dc/elements/1.1/" xmlns:cc="http://creativecommons.org/ns#" xmlns:rdf="http://www.w3.org/1999/02/22-rdf-syntax-ns#">
   <cc:Work>
    <dc:type rdf:resource="http://purl.org/dc/dcmitype/StillImage"/>
    <dc:date>2025-05-03T18:42:45.309881</dc:date>
    <dc:format>image/svg+xml</dc:format>
    <dc:creator>
     <cc:Agent>
      <dc:title>Matplotlib v3.10.1, https://matplotlib.org/</dc:title>
     </cc:Agent>
    </dc:creator>
   </cc:Work>
  </rdf:RDF>
 </metadata>
 <defs>
  <style type="text/css">*{stroke-linejoin: round; stroke-linecap: butt}</style>
 </defs>
 <g id="figure_1">
  <g id="patch_1">
   <path d="M 0 325.19952 
L 584.39952 325.19952 
L 584.39952 0 
L 0 0 
z
" style="fill: #ffffff"/>
  </g>
  <g id="subfigure_1">
   <g id="patch_2">
    <path d="M 4.19976 320.99976 
L 580.19976 320.99976 
L 580.19976 4.19976 
L 4.19976 4.19976 
L 4.19976 320.99976 
z
" style="fill: none"/>
   </g>
   <g id="axes_1">
    <g id="patch_3">
     <path d="M 49.807188 282.239832 
L 295.8557 282.239832 
L 295.8557 41.73825 
L 49.807188 41.73825 
z
" style="fill: #f5f6fc"/>
    </g>
    <g id="matplotlib.axis_1">
     <g id="xtick_1">
      <g id="line2d_1">
       <path d="M 57.772178 282.239832 
L 57.772178 41.73825 
" clip-path="url(#p224c845316)" style="fill: none; stroke: #ffffff; stroke-linecap: round"/>
      </g>
      <g id="text_1">
       <!-- 0 -->
       <g style="fill: #262626" transform="translate(54.272803 300.098114) scale(0.11 -0.11)">
        <defs>
         <path id="DejaVuSans-30" d="M 2034 4250 
Q 1547 4250 1301 3770 
Q 1056 3291 1056 2328 
Q 1056 1369 1301 889 
Q 1547 409 2034 409 
Q 2525 409 2770 889 
Q 3016 1369 3016 2328 
Q 3016 3291 2770 3770 
Q 2525 4250 2034 4250 
z
M 2034 4750 
Q 2819 4750 3233 4129 
Q 3647 3509 3647 2328 
Q 3647 1150 3233 529 
Q 2819 -91 2034 -91 
Q 1250 -91 836 529 
Q 422 1150 422 2328 
Q 422 3509 836 4129 
Q 1250 4750 2034 4750 
z
" transform="scale(0.015625)"/>
        </defs>
        <use xlink:href="#DejaVuSans-30"/>
       </g>
      </g>
     </g>
     <g id="xtick_2">
      <g id="line2d_2">
       <path d="M 109.131515 282.239832 
L 109.131515 41.73825 
" clip-path="url(#p224c845316)" style="fill: none; stroke: #ffffff; stroke-linecap: round"/>
      </g>
      <g id="text_2">
       <!-- 100 -->
       <g style="fill: #262626" transform="translate(98.63339 300.098114) scale(0.11 -0.11)">
        <defs>
         <path id="DejaVuSans-31" d="M 794 531 
L 1825 531 
L 1825 4091 
L 703 3866 
L 703 4441 
L 1819 4666 
L 2450 4666 
L 2450 531 
L 3481 531 
L 3481 0 
L 794 0 
L 794 531 
z
" transform="scale(0.015625)"/>
        </defs>
        <use xlink:href="#DejaVuSans-31"/>
        <use xlink:href="#DejaVuSans-30" transform="translate(63.623047 0)"/>
        <use xlink:href="#DejaVuSans-30" transform="translate(127.246094 0)"/>
       </g>
      </g>
     </g>
     <g id="xtick_3">
      <g id="line2d_3">
       <path d="M 160.490852 282.239832 
L 160.490852 41.73825 
" clip-path="url(#p224c845316)" style="fill: none; stroke: #ffffff; stroke-linecap: round"/>
      </g>
      <g id="text_3">
       <!-- 200 -->
       <g style="fill: #262626" transform="translate(149.992727 300.098114) scale(0.11 -0.11)">
        <defs>
         <path id="DejaVuSans-32" d="M 1228 531 
L 3431 531 
L 3431 0 
L 469 0 
L 469 531 
Q 828 903 1448 1529 
Q 2069 2156 2228 2338 
Q 2531 2678 2651 2914 
Q 2772 3150 2772 3378 
Q 2772 3750 2511 3984 
Q 2250 4219 1831 4219 
Q 1534 4219 1204 4116 
Q 875 4013 500 3803 
L 500 4441 
Q 881 4594 1212 4672 
Q 1544 4750 1819 4750 
Q 2544 4750 2975 4387 
Q 3406 4025 3406 3419 
Q 3406 3131 3298 2873 
Q 3191 2616 2906 2266 
Q 2828 2175 2409 1742 
Q 1991 1309 1228 531 
z
" transform="scale(0.015625)"/>
        </defs>
        <use xlink:href="#DejaVuSans-32"/>
        <use xlink:href="#DejaVuSans-30" transform="translate(63.623047 0)"/>
        <use xlink:href="#DejaVuSans-30" transform="translate(127.246094 0)"/>
       </g>
      </g>
     </g>
     <g id="xtick_4">
      <g id="line2d_4">
       <path d="M 211.850189 282.239832 
L 211.850189 41.73825 
" clip-path="url(#p224c845316)" style="fill: none; stroke: #ffffff; stroke-linecap: round"/>
      </g>
      <g id="text_4">
       <!-- 300 -->
       <g style="fill: #262626" transform="translate(201.352064 300.098114) scale(0.11 -0.11)">
        <defs>
         <path id="DejaVuSans-33" d="M 2597 2516 
Q 3050 2419 3304 2112 
Q 3559 1806 3559 1356 
Q 3559 666 3084 287 
Q 2609 -91 1734 -91 
Q 1441 -91 1130 -33 
Q 819 25 488 141 
L 488 750 
Q 750 597 1062 519 
Q 1375 441 1716 441 
Q 2309 441 2620 675 
Q 2931 909 2931 1356 
Q 2931 1769 2642 2001 
Q 2353 2234 1838 2234 
L 1294 2234 
L 1294 2753 
L 1863 2753 
Q 2328 2753 2575 2939 
Q 2822 3125 2822 3475 
Q 2822 3834 2567 4026 
Q 2313 4219 1838 4219 
Q 1578 4219 1281 4162 
Q 984 4106 628 3988 
L 628 4550 
Q 988 4650 1302 4700 
Q 1616 4750 1894 4750 
Q 2613 4750 3031 4423 
Q 3450 4097 3450 3541 
Q 3450 3153 3228 2886 
Q 3006 2619 2597 2516 
z
" transform="scale(0.015625)"/>
        </defs>
        <use xlink:href="#DejaVuSans-33"/>
        <use xlink:href="#DejaVuSans-30" transform="translate(63.623047 0)"/>
        <use xlink:href="#DejaVuSans-30" transform="translate(127.246094 0)"/>
       </g>
      </g>
     </g>
     <g id="xtick_5">
      <g id="line2d_5">
       <path d="M 263.209526 282.239832 
L 263.209526 41.73825 
" clip-path="url(#p224c845316)" style="fill: none; stroke: #ffffff; stroke-linecap: round"/>
      </g>
      <g id="text_5">
       <!-- 400 -->
       <g style="fill: #262626" transform="translate(252.711401 300.098114) scale(0.11 -0.11)">
        <defs>
         <path id="DejaVuSans-34" d="M 2419 4116 
L 825 1625 
L 2419 1625 
L 2419 4116 
z
M 2253 4666 
L 3047 4666 
L 3047 1625 
L 3713 1625 
L 3713 1100 
L 3047 1100 
L 3047 0 
L 2419 0 
L 2419 1100 
L 313 1100 
L 313 1709 
L 2253 4666 
z
" transform="scale(0.015625)"/>
        </defs>
        <use xlink:href="#DejaVuSans-34"/>
        <use xlink:href="#DejaVuSans-30" transform="translate(63.623047 0)"/>
        <use xlink:href="#DejaVuSans-30" transform="translate(127.246094 0)"/>
       </g>
      </g>
     </g>
     <g id="text_6">
      <!-- L0 -->
      <g style="fill: #262626" transform="translate(165.670819 315.503895) scale(0.12 -0.12)">
       <defs>
        <path id="DejaVuSans-4c" d="M 628 4666 
L 1259 4666 
L 1259 531 
L 3531 531 
L 3531 0 
L 628 0 
L 628 4666 
z
" transform="scale(0.015625)"/>
       </defs>
       <use xlink:href="#DejaVuSans-4c"/>
       <use xlink:href="#DejaVuSans-30" transform="translate(55.712891 0)"/>
      </g>
     </g>
    </g>
    <g id="matplotlib.axis_2">
     <g id="ytick_1">
      <g id="line2d_6">
       <path d="M 49.807188 41.73825 
L 295.8557 41.73825 
" clip-path="url(#p224c845316)" style="fill: none; stroke: #ffffff; stroke-linecap: round"/>
      </g>
      <g id="text_7">
       <!-- 0.0 -->
       <g style="fill: #262626" transform="translate(22.81375 45.91739) scale(0.11 -0.11)">
        <defs>
         <path id="DejaVuSans-2e" d="M 684 794 
L 1344 794 
L 1344 0 
L 684 0 
L 684 794 
z
" transform="scale(0.015625)"/>
        </defs>
        <use xlink:href="#DejaVuSans-30"/>
        <use xlink:href="#DejaVuSans-2e" transform="translate(63.623047 0)"/>
        <use xlink:href="#DejaVuSans-30" transform="translate(95.410156 0)"/>
       </g>
      </g>
     </g>
     <g id="ytick_2">
      <g id="line2d_7">
       <path d="M 49.807188 89.838566 
L 295.8557 89.838566 
" clip-path="url(#p224c845316)" style="fill: none; stroke: #ffffff; stroke-linecap: round"/>
      </g>
      <g id="text_8">
       <!-- 0.1 -->
       <g style="fill: #262626" transform="translate(22.81375 94.017707) scale(0.11 -0.11)">
        <use xlink:href="#DejaVuSans-30"/>
        <use xlink:href="#DejaVuSans-2e" transform="translate(63.623047 0)"/>
        <use xlink:href="#DejaVuSans-31" transform="translate(95.410156 0)"/>
       </g>
      </g>
     </g>
     <g id="ytick_3">
      <g id="line2d_8">
       <path d="M 49.807188 137.938883 
L 295.8557 137.938883 
" clip-path="url(#p224c845316)" style="fill: none; stroke: #ffffff; stroke-linecap: round"/>
      </g>
      <g id="text_9">
       <!-- 0.2 -->
       <g style="fill: #262626" transform="translate(22.81375 142.118023) scale(0.11 -0.11)">
        <use xlink:href="#DejaVuSans-30"/>
        <use xlink:href="#DejaVuSans-2e" transform="translate(63.623047 0)"/>
        <use xlink:href="#DejaVuSans-32" transform="translate(95.410156 0)"/>
       </g>
      </g>
     </g>
     <g id="ytick_4">
      <g id="line2d_9">
       <path d="M 49.807188 186.039199 
L 295.8557 186.039199 
" clip-path="url(#p224c845316)" style="fill: none; stroke: #ffffff; stroke-linecap: round"/>
      </g>
      <g id="text_10">
       <!-- 0.3 -->
       <g style="fill: #262626" transform="translate(22.81375 190.21834) scale(0.11 -0.11)">
        <use xlink:href="#DejaVuSans-30"/>
        <use xlink:href="#DejaVuSans-2e" transform="translate(63.623047 0)"/>
        <use xlink:href="#DejaVuSans-33" transform="translate(95.410156 0)"/>
       </g>
      </g>
     </g>
     <g id="ytick_5">
      <g id="line2d_10">
       <path d="M 49.807188 234.139516 
L 295.8557 234.139516 
" clip-path="url(#p224c845316)" style="fill: none; stroke: #ffffff; stroke-linecap: round"/>
      </g>
      <g id="text_11">
       <!-- 0.4 -->
       <g style="fill: #262626" transform="translate(22.81375 238.318657) scale(0.11 -0.11)">
        <use xlink:href="#DejaVuSans-30"/>
        <use xlink:href="#DejaVuSans-2e" transform="translate(63.623047 0)"/>
        <use xlink:href="#DejaVuSans-34" transform="translate(95.410156 0)"/>
       </g>
      </g>
     </g>
     <g id="ytick_6">
      <g id="line2d_11">
       <path d="M 49.807188 282.239832 
L 295.8557 282.239832 
" clip-path="url(#p224c845316)" style="fill: none; stroke: #ffffff; stroke-linecap: round"/>
      </g>
      <g id="text_12">
       <!-- 0.5 -->
       <g style="fill: #262626" transform="translate(22.81375 286.418973) scale(0.11 -0.11)">
        <defs>
         <path id="DejaVuSans-35" d="M 691 4666 
L 3169 4666 
L 3169 4134 
L 1269 4134 
L 1269 2991 
Q 1406 3038 1543 3061 
Q 1681 3084 1819 3084 
Q 2600 3084 3056 2656 
Q 3513 2228 3513 1497 
Q 3513 744 3044 326 
Q 2575 -91 1722 -91 
Q 1428 -91 1123 -41 
Q 819 9 494 109 
L 494 744 
Q 775 591 1075 516 
Q 1375 441 1709 441 
Q 2250 441 2565 725 
Q 2881 1009 2881 1497 
Q 2881 1984 2565 2268 
Q 2250 2553 1709 2553 
Q 1456 2553 1204 2497 
Q 953 2441 691 2322 
L 691 4666 
z
" transform="scale(0.015625)"/>
        </defs>
        <use xlink:href="#DejaVuSans-30"/>
        <use xlink:href="#DejaVuSans-2e" transform="translate(63.623047 0)"/>
        <use xlink:href="#DejaVuSans-35" transform="translate(95.410156 0)"/>
       </g>
      </g>
     </g>
     <g id="text_13">
      <!-- CE Loss Increase -->
      <g style="fill: #262626" transform="translate(16.318125 212.333729) rotate(-90) scale(0.12 -0.12)">
       <defs>
        <path id="DejaVuSans-43" d="M 4122 4306 
L 4122 3641 
Q 3803 3938 3442 4084 
Q 3081 4231 2675 4231 
Q 1875 4231 1450 3742 
Q 1025 3253 1025 2328 
Q 1025 1406 1450 917 
Q 1875 428 2675 428 
Q 3081 428 3442 575 
Q 3803 722 4122 1019 
L 4122 359 
Q 3791 134 3420 21 
Q 3050 -91 2638 -91 
Q 1578 -91 968 557 
Q 359 1206 359 2328 
Q 359 3453 968 4101 
Q 1578 4750 2638 4750 
Q 3056 4750 3426 4639 
Q 3797 4528 4122 4306 
z
" transform="scale(0.015625)"/>
        <path id="DejaVuSans-45" d="M 628 4666 
L 3578 4666 
L 3578 4134 
L 1259 4134 
L 1259 2753 
L 3481 2753 
L 3481 2222 
L 1259 2222 
L 1259 531 
L 3634 531 
L 3634 0 
L 628 0 
L 628 4666 
z
" transform="scale(0.015625)"/>
        <path id="DejaVuSans-20" transform="scale(0.015625)"/>
        <path id="DejaVuSans-6f" d="M 1959 3097 
Q 1497 3097 1228 2736 
Q 959 2375 959 1747 
Q 959 1119 1226 758 
Q 1494 397 1959 397 
Q 2419 397 2687 759 
Q 2956 1122 2956 1747 
Q 2956 2369 2687 2733 
Q 2419 3097 1959 3097 
z
M 1959 3584 
Q 2709 3584 3137 3096 
Q 3566 2609 3566 1747 
Q 3566 888 3137 398 
Q 2709 -91 1959 -91 
Q 1206 -91 779 398 
Q 353 888 353 1747 
Q 353 2609 779 3096 
Q 1206 3584 1959 3584 
z
" transform="scale(0.015625)"/>
        <path id="DejaVuSans-73" d="M 2834 3397 
L 2834 2853 
Q 2591 2978 2328 3040 
Q 2066 3103 1784 3103 
Q 1356 3103 1142 2972 
Q 928 2841 928 2578 
Q 928 2378 1081 2264 
Q 1234 2150 1697 2047 
L 1894 2003 
Q 2506 1872 2764 1633 
Q 3022 1394 3022 966 
Q 3022 478 2636 193 
Q 2250 -91 1575 -91 
Q 1294 -91 989 -36 
Q 684 19 347 128 
L 347 722 
Q 666 556 975 473 
Q 1284 391 1588 391 
Q 1994 391 2212 530 
Q 2431 669 2431 922 
Q 2431 1156 2273 1281 
Q 2116 1406 1581 1522 
L 1381 1569 
Q 847 1681 609 1914 
Q 372 2147 372 2553 
Q 372 3047 722 3315 
Q 1072 3584 1716 3584 
Q 2034 3584 2315 3537 
Q 2597 3491 2834 3397 
z
" transform="scale(0.015625)"/>
        <path id="DejaVuSans-49" d="M 628 4666 
L 1259 4666 
L 1259 0 
L 628 0 
L 628 4666 
z
" transform="scale(0.015625)"/>
        <path id="DejaVuSans-6e" d="M 3513 2113 
L 3513 0 
L 2938 0 
L 2938 2094 
Q 2938 2591 2744 2837 
Q 2550 3084 2163 3084 
Q 1697 3084 1428 2787 
Q 1159 2491 1159 1978 
L 1159 0 
L 581 0 
L 581 3500 
L 1159 3500 
L 1159 2956 
Q 1366 3272 1645 3428 
Q 1925 3584 2291 3584 
Q 2894 3584 3203 3211 
Q 3513 2838 3513 2113 
z
" transform="scale(0.015625)"/>
        <path id="DejaVuSans-63" d="M 3122 3366 
L 3122 2828 
Q 2878 2963 2633 3030 
Q 2388 3097 2138 3097 
Q 1578 3097 1268 2742 
Q 959 2388 959 1747 
Q 959 1106 1268 751 
Q 1578 397 2138 397 
Q 2388 397 2633 464 
Q 2878 531 3122 666 
L 3122 134 
Q 2881 22 2623 -34 
Q 2366 -91 2075 -91 
Q 1284 -91 818 406 
Q 353 903 353 1747 
Q 353 2603 823 3093 
Q 1294 3584 2113 3584 
Q 2378 3584 2631 3529 
Q 2884 3475 3122 3366 
z
" transform="scale(0.015625)"/>
        <path id="DejaVuSans-72" d="M 2631 2963 
Q 2534 3019 2420 3045 
Q 2306 3072 2169 3072 
Q 1681 3072 1420 2755 
Q 1159 2438 1159 1844 
L 1159 0 
L 581 0 
L 581 3500 
L 1159 3500 
L 1159 2956 
Q 1341 3275 1631 3429 
Q 1922 3584 2338 3584 
Q 2397 3584 2469 3576 
Q 2541 3569 2628 3553 
L 2631 2963 
z
" transform="scale(0.015625)"/>
        <path id="DejaVuSans-65" d="M 3597 1894 
L 3597 1613 
L 953 1613 
Q 991 1019 1311 708 
Q 1631 397 2203 397 
Q 2534 397 2845 478 
Q 3156 559 3463 722 
L 3463 178 
Q 3153 47 2828 -22 
Q 2503 -91 2169 -91 
Q 1331 -91 842 396 
Q 353 884 353 1716 
Q 353 2575 817 3079 
Q 1281 3584 2069 3584 
Q 2775 3584 3186 3129 
Q 3597 2675 3597 1894 
z
M 3022 2063 
Q 3016 2534 2758 2815 
Q 2500 3097 2075 3097 
Q 1594 3097 1305 2825 
Q 1016 2553 972 2059 
L 3022 2063 
z
" transform="scale(0.015625)"/>
        <path id="DejaVuSans-61" d="M 2194 1759 
Q 1497 1759 1228 1600 
Q 959 1441 959 1056 
Q 959 750 1161 570 
Q 1363 391 1709 391 
Q 2188 391 2477 730 
Q 2766 1069 2766 1631 
L 2766 1759 
L 2194 1759 
z
M 3341 1997 
L 3341 0 
L 2766 0 
L 2766 531 
Q 2569 213 2275 61 
Q 1981 -91 1556 -91 
Q 1019 -91 701 211 
Q 384 513 384 1019 
Q 384 1609 779 1909 
Q 1175 2209 1959 2209 
L 2766 2209 
L 2766 2266 
Q 2766 2663 2505 2880 
Q 2244 3097 1772 3097 
Q 1472 3097 1187 3025 
Q 903 2953 641 2809 
L 641 3341 
Q 956 3463 1253 3523 
Q 1550 3584 1831 3584 
Q 2591 3584 2966 3190 
Q 3341 2797 3341 1997 
z
" transform="scale(0.015625)"/>
       </defs>
       <use xlink:href="#DejaVuSans-43"/>
       <use xlink:href="#DejaVuSans-45" transform="translate(69.824219 0)"/>
       <use xlink:href="#DejaVuSans-20" transform="translate(133.007812 0)"/>
       <use xlink:href="#DejaVuSans-4c" transform="translate(164.794922 0)"/>
       <use xlink:href="#DejaVuSans-6f" transform="translate(218.757812 0)"/>
       <use xlink:href="#DejaVuSans-73" transform="translate(279.939453 0)"/>
       <use xlink:href="#DejaVuSans-73" transform="translate(332.039062 0)"/>
       <use xlink:href="#DejaVuSans-20" transform="translate(384.138672 0)"/>
       <use xlink:href="#DejaVuSans-49" transform="translate(415.925781 0)"/>
       <use xlink:href="#DejaVuSans-6e" transform="translate(445.417969 0)"/>
       <use xlink:href="#DejaVuSans-63" transform="translate(508.796875 0)"/>
       <use xlink:href="#DejaVuSans-72" transform="translate(563.777344 0)"/>
       <use xlink:href="#DejaVuSans-65" transform="translate(602.640625 0)"/>
       <use xlink:href="#DejaVuSans-61" transform="translate(664.164062 0)"/>
       <use xlink:href="#DejaVuSans-73" transform="translate(725.443359 0)"/>
       <use xlink:href="#DejaVuSans-65" transform="translate(777.542969 0)"/>
      </g>
     </g>
    </g>
    <g id="line2d_12">
     <path d="M 156.127382 43.258094 
L 127.059472 48.526603 
L 113.682181 52.110693 
L 94.000686 62.116236 
L 79.191735 77.823637 
L 73.325295 90.715676 
L 68.46873 112.143296 
" clip-path="url(#p224c845316)" style="fill: none; stroke: #1f77b4; stroke-width: 1.1; stroke-linecap: round"/>
     <defs>
      <path id="m6021ed964a" d="M 0 3 
C 0.795609 3 1.55874 2.683901 2.12132 2.12132 
C 2.683901 1.55874 3 0.795609 3 0 
C 3 -0.795609 2.683901 -1.55874 2.12132 -2.12132 
C 1.55874 -2.683901 0.795609 -3 0 -3 
C -0.795609 -3 -1.55874 -2.683901 -2.12132 -2.12132 
C -2.683901 -1.55874 -3 -0.795609 -3 0 
C -3 0.795609 -2.683901 1.55874 -2.12132 2.12132 
C -1.55874 2.683901 -0.795609 3 0 3 
z
" style="stroke: #1f77b4"/>
     </defs>
     <g clip-path="url(#p224c845316)">
      <use xlink:href="#m6021ed964a" x="156.127382" y="43.258094" style="fill: #1f77b4; stroke: #1f77b4"/>
      <use xlink:href="#m6021ed964a" x="127.059472" y="48.526603" style="fill: #1f77b4; stroke: #1f77b4"/>
      <use xlink:href="#m6021ed964a" x="113.682181" y="52.110693" style="fill: #1f77b4; stroke: #1f77b4"/>
      <use xlink:href="#m6021ed964a" x="94.000686" y="62.116236" style="fill: #1f77b4; stroke: #1f77b4"/>
      <use xlink:href="#m6021ed964a" x="79.191735" y="77.823637" style="fill: #1f77b4; stroke: #1f77b4"/>
      <use xlink:href="#m6021ed964a" x="73.325295" y="90.715676" style="fill: #1f77b4; stroke: #1f77b4"/>
      <use xlink:href="#m6021ed964a" x="68.46873" y="112.143296" style="fill: #1f77b4; stroke: #1f77b4"/>
     </g>
    </g>
    <g id="line2d_13">
     <path d="M 154.448737 42.324104 
L 154.448737 42.324104 
L 143.207235 44.427218 
L 143.207235 44.427218 
L 132.589906 46.750692 
L 132.589906 46.750692 
L 112.152587 51.693427 
L 112.152587 51.693427 
L 92.093049 61.069327 
L 92.093049 61.069327 
L 82.400714 68.721104 
L 82.400714 68.721104 
L 74.024784 83.040734 
L 74.024784 83.040734 
" clip-path="url(#p224c845316)" style="fill: none; stroke: #518c31; stroke-width: 1.1; stroke-linecap: round"/>
     <defs>
      <path id="ma55a6c60fa" d="M 0 3 
C 0.795609 3 1.55874 2.683901 2.12132 2.12132 
C 2.683901 1.55874 3 0.795609 3 0 
C 3 -0.795609 2.683901 -1.55874 2.12132 -2.12132 
C 1.55874 -2.683901 0.795609 -3 0 -3 
C -0.795609 -3 -1.55874 -2.683901 -2.12132 -2.12132 
C -2.683901 -1.55874 -3 -0.795609 -3 0 
C -3 0.795609 -2.683901 1.55874 -2.12132 2.12132 
C -1.55874 2.683901 -0.795609 3 0 3 
z
" style="stroke: #518c31"/>
     </defs>
     <g clip-path="url(#p224c845316)">
      <use xlink:href="#ma55a6c60fa" x="154.448737" y="42.324104" style="fill: #518c31; stroke: #518c31"/>
      <use xlink:href="#ma55a6c60fa" x="154.448737" y="42.324104" style="fill: #518c31; stroke: #518c31"/>
      <use xlink:href="#ma55a6c60fa" x="143.207235" y="44.427218" style="fill: #518c31; stroke: #518c31"/>
      <use xlink:href="#ma55a6c60fa" x="143.207235" y="44.427218" style="fill: #518c31; stroke: #518c31"/>
      <use xlink:href="#ma55a6c60fa" x="132.589906" y="46.750692" style="fill: #518c31; stroke: #518c31"/>
      <use xlink:href="#ma55a6c60fa" x="132.589906" y="46.750692" style="fill: #518c31; stroke: #518c31"/>
      <use xlink:href="#ma55a6c60fa" x="112.152587" y="51.693427" style="fill: #518c31; stroke: #518c31"/>
      <use xlink:href="#ma55a6c60fa" x="112.152587" y="51.693427" style="fill: #518c31; stroke: #518c31"/>
      <use xlink:href="#ma55a6c60fa" x="92.093049" y="61.069327" style="fill: #518c31; stroke: #518c31"/>
      <use xlink:href="#ma55a6c60fa" x="92.093049" y="61.069327" style="fill: #518c31; stroke: #518c31"/>
      <use xlink:href="#ma55a6c60fa" x="82.400714" y="68.721104" style="fill: #518c31; stroke: #518c31"/>
      <use xlink:href="#ma55a6c60fa" x="82.400714" y="68.721104" style="fill: #518c31; stroke: #518c31"/>
      <use xlink:href="#ma55a6c60fa" x="74.024784" y="83.040734" style="fill: #518c31; stroke: #518c31"/>
      <use xlink:href="#ma55a6c60fa" x="74.024784" y="83.040734" style="fill: #518c31; stroke: #518c31"/>
     </g>
    </g>
    <g id="line2d_14">
     <path d="M 114.324774 41.633088 
L 135.572962 41.639506 
L 105.536365 41.698974 
L 94.416099 41.70108 
L 276.640945 41.72508 
L 96.817655 41.738708 
L 271.698064 41.766837 
L 277.592679 41.778897 
L 278.380303 41.783746 
L 99.184534 41.800966 
L 90.642152 41.818007 
L 91.155753 41.818154 
L 284.671677 41.823434 
L 273.518877 41.869164 
L 88.074187 48.017352 
L 87.560592 51.06209 
L 86.860945 53.966258 
L 86.019811 57.15802 
L 85.221062 62.028768 
L 84.546778 66.69445 
L 83.612158 72.984653 
L 82.958219 80.105667 
L 82.472753 84.062103 
L 82.246447 86.052577 
L 81.655993 93.358263 
L 81.394061 94.424187 
L 81.330399 95.448822 
L 80.623061 100.978989 
L 80.556605 103.939323 
L 79.725968 111.437919 
L 79.474012 113.191346 
L 79.323102 115.89869 
L 76.634202 154.710204 
L 76.445641 157.225515 
L 76.444138 157.283511 
L 73.41362 214.979165 
L 69.292181 326.19952 
" clip-path="url(#p224c845316)" style="fill: none; stroke: #2ca02c; stroke-width: 1.1; stroke-linecap: round"/>
     <defs>
      <path id="m22e4909b25" d="M 0 3 
C 0.795609 3 1.55874 2.683901 2.12132 2.12132 
C 2.683901 1.55874 3 0.795609 3 0 
C 3 -0.795609 2.683901 -1.55874 2.12132 -2.12132 
C 1.55874 -2.683901 0.795609 -3 0 -3 
C -0.795609 -3 -1.55874 -2.683901 -2.12132 -2.12132 
C -2.683901 -1.55874 -3 -0.795609 -3 0 
C -3 0.795609 -2.683901 1.55874 -2.12132 2.12132 
C -1.55874 2.683901 -0.795609 3 0 3 
z
" style="stroke: #2ca02c"/>
     </defs>
     <g clip-path="url(#p224c845316)">
      <use xlink:href="#m22e4909b25" x="114.324774" y="41.633088" style="fill: #2ca02c; stroke: #2ca02c"/>
      <use xlink:href="#m22e4909b25" x="135.572962" y="41.639506" style="fill: #2ca02c; stroke: #2ca02c"/>
      <use xlink:href="#m22e4909b25" x="105.536365" y="41.698974" style="fill: #2ca02c; stroke: #2ca02c"/>
      <use xlink:href="#m22e4909b25" x="94.416099" y="41.70108" style="fill: #2ca02c; stroke: #2ca02c"/>
      <use xlink:href="#m22e4909b25" x="276.640945" y="41.72508" style="fill: #2ca02c; stroke: #2ca02c"/>
      <use xlink:href="#m22e4909b25" x="96.817655" y="41.738708" style="fill: #2ca02c; stroke: #2ca02c"/>
      <use xlink:href="#m22e4909b25" x="271.698064" y="41.766837" style="fill: #2ca02c; stroke: #2ca02c"/>
      <use xlink:href="#m22e4909b25" x="277.592679" y="41.778897" style="fill: #2ca02c; stroke: #2ca02c"/>
      <use xlink:href="#m22e4909b25" x="278.380303" y="41.783746" style="fill: #2ca02c; stroke: #2ca02c"/>
      <use xlink:href="#m22e4909b25" x="99.184534" y="41.800966" style="fill: #2ca02c; stroke: #2ca02c"/>
      <use xlink:href="#m22e4909b25" x="90.642152" y="41.818007" style="fill: #2ca02c; stroke: #2ca02c"/>
      <use xlink:href="#m22e4909b25" x="91.155753" y="41.818154" style="fill: #2ca02c; stroke: #2ca02c"/>
      <use xlink:href="#m22e4909b25" x="284.671677" y="41.823434" style="fill: #2ca02c; stroke: #2ca02c"/>
      <use xlink:href="#m22e4909b25" x="273.518877" y="41.869164" style="fill: #2ca02c; stroke: #2ca02c"/>
      <use xlink:href="#m22e4909b25" x="88.074187" y="48.017352" style="fill: #2ca02c; stroke: #2ca02c"/>
      <use xlink:href="#m22e4909b25" x="87.560592" y="51.06209" style="fill: #2ca02c; stroke: #2ca02c"/>
      <use xlink:href="#m22e4909b25" x="86.860945" y="53.966258" style="fill: #2ca02c; stroke: #2ca02c"/>
      <use xlink:href="#m22e4909b25" x="86.019811" y="57.15802" style="fill: #2ca02c; stroke: #2ca02c"/>
      <use xlink:href="#m22e4909b25" x="85.221062" y="62.028768" style="fill: #2ca02c; stroke: #2ca02c"/>
      <use xlink:href="#m22e4909b25" x="84.546778" y="66.69445" style="fill: #2ca02c; stroke: #2ca02c"/>
      <use xlink:href="#m22e4909b25" x="83.612158" y="72.984653" style="fill: #2ca02c; stroke: #2ca02c"/>
      <use xlink:href="#m22e4909b25" x="82.958219" y="80.105667" style="fill: #2ca02c; stroke: #2ca02c"/>
      <use xlink:href="#m22e4909b25" x="82.472753" y="84.062103" style="fill: #2ca02c; stroke: #2ca02c"/>
      <use xlink:href="#m22e4909b25" x="82.246447" y="86.052577" style="fill: #2ca02c; stroke: #2ca02c"/>
      <use xlink:href="#m22e4909b25" x="81.655993" y="93.358263" style="fill: #2ca02c; stroke: #2ca02c"/>
      <use xlink:href="#m22e4909b25" x="81.394061" y="94.424187" style="fill: #2ca02c; stroke: #2ca02c"/>
      <use xlink:href="#m22e4909b25" x="81.330399" y="95.448822" style="fill: #2ca02c; stroke: #2ca02c"/>
      <use xlink:href="#m22e4909b25" x="80.623061" y="100.978989" style="fill: #2ca02c; stroke: #2ca02c"/>
      <use xlink:href="#m22e4909b25" x="80.556605" y="103.939323" style="fill: #2ca02c; stroke: #2ca02c"/>
      <use xlink:href="#m22e4909b25" x="79.725968" y="111.437919" style="fill: #2ca02c; stroke: #2ca02c"/>
      <use xlink:href="#m22e4909b25" x="79.474012" y="113.191346" style="fill: #2ca02c; stroke: #2ca02c"/>
      <use xlink:href="#m22e4909b25" x="79.323102" y="115.89869" style="fill: #2ca02c; stroke: #2ca02c"/>
      <use xlink:href="#m22e4909b25" x="76.634202" y="154.710204" style="fill: #2ca02c; stroke: #2ca02c"/>
      <use xlink:href="#m22e4909b25" x="76.445641" y="157.225515" style="fill: #2ca02c; stroke: #2ca02c"/>
      <use xlink:href="#m22e4909b25" x="76.444138" y="157.283511" style="fill: #2ca02c; stroke: #2ca02c"/>
      <use xlink:href="#m22e4909b25" x="73.41362" y="214.979165" style="fill: #2ca02c; stroke: #2ca02c"/>
      <use xlink:href="#m22e4909b25" x="67.835739" y="365.502785" style="fill: #2ca02c; stroke: #2ca02c"/>
      <use xlink:href="#m22e4909b25" x="65.704417" y="449.461374" style="fill: #2ca02c; stroke: #2ca02c"/>
      <use xlink:href="#m22e4909b25" x="64.46681" y="521.254661" style="fill: #2ca02c; stroke: #2ca02c"/>
      <use xlink:href="#m22e4909b25" x="63.080384" y="651.27166" style="fill: #2ca02c; stroke: #2ca02c"/>
      <use xlink:href="#m22e4909b25" x="62.352797" y="697.351653" style="fill: #2ca02c; stroke: #2ca02c"/>
      <use xlink:href="#m22e4909b25" x="61.642834" y="774.37204" style="fill: #2ca02c; stroke: #2ca02c"/>
      <use xlink:href="#m22e4909b25" x="60.991211" y="867.802915" style="fill: #2ca02c; stroke: #2ca02c"/>
     </g>
    </g>
    <g id="line2d_15">
     <path d="M 117.813507 45.314805 
L 117.813507 45.314805 
L 91.145564 105.065945 
L 91.145564 105.065945 
L 81.369581 151.704576 
L 81.369581 151.704576 
L 76.531612 177.820568 
L 76.531612 177.820568 
L 67.650278 300.52022 
L 67.650278 300.52022 
L 67.18367 326.19952 
" clip-path="url(#p224c845316)" style="fill: none; stroke: #f0a70a; stroke-width: 1.1; stroke-linecap: round"/>
     <defs>
      <path id="mf49748ab90" d="M 0 -3 
L -3 3 
L 3 3 
z
" style="stroke: #f0a70a; stroke-linejoin: miter"/>
     </defs>
     <g clip-path="url(#p224c845316)">
      <use xlink:href="#mf49748ab90" x="117.813507" y="45.314805" style="fill: #f0a70a; stroke: #f0a70a; stroke-linejoin: miter"/>
      <use xlink:href="#mf49748ab90" x="117.813507" y="45.314805" style="fill: #f0a70a; stroke: #f0a70a; stroke-linejoin: miter"/>
      <use xlink:href="#mf49748ab90" x="91.145564" y="105.065945" style="fill: #f0a70a; stroke: #f0a70a; stroke-linejoin: miter"/>
      <use xlink:href="#mf49748ab90" x="91.145564" y="105.065945" style="fill: #f0a70a; stroke: #f0a70a; stroke-linejoin: miter"/>
      <use xlink:href="#mf49748ab90" x="81.369581" y="151.704576" style="fill: #f0a70a; stroke: #f0a70a; stroke-linejoin: miter"/>
      <use xlink:href="#mf49748ab90" x="81.369581" y="151.704576" style="fill: #f0a70a; stroke: #f0a70a; stroke-linejoin: miter"/>
      <use xlink:href="#mf49748ab90" x="76.531612" y="177.820568" style="fill: #f0a70a; stroke: #f0a70a; stroke-linejoin: miter"/>
      <use xlink:href="#mf49748ab90" x="76.531612" y="177.820568" style="fill: #f0a70a; stroke: #f0a70a; stroke-linejoin: miter"/>
      <use xlink:href="#mf49748ab90" x="67.650278" y="300.52022" style="fill: #f0a70a; stroke: #f0a70a; stroke-linejoin: miter"/>
      <use xlink:href="#mf49748ab90" x="67.650278" y="300.52022" style="fill: #f0a70a; stroke: #f0a70a; stroke-linejoin: miter"/>
      <use xlink:href="#mf49748ab90" x="61.600329" y="633.473158" style="fill: #f0a70a; stroke: #f0a70a; stroke-linejoin: miter"/>
      <use xlink:href="#mf49748ab90" x="61.600329" y="633.473158" style="fill: #f0a70a; stroke: #f0a70a; stroke-linejoin: miter"/>
     </g>
    </g>
    <g id="patch_4">
     <path d="M 49.807188 282.239832 
L 49.807188 41.73825 
" style="fill: none; stroke: #ffffff; stroke-width: 1.25; stroke-linejoin: miter; stroke-linecap: square"/>
    </g>
    <g id="patch_5">
     <path d="M 295.8557 282.239832 
L 295.8557 41.73825 
" style="fill: none; stroke: #ffffff; stroke-width: 1.25; stroke-linejoin: miter; stroke-linecap: square"/>
    </g>
    <g id="patch_6">
     <path d="M 49.807188 282.239832 
L 295.8557 282.239832 
" style="fill: none; stroke: #ffffff; stroke-width: 1.25; stroke-linejoin: miter; stroke-linecap: square"/>
    </g>
    <g id="patch_7">
     <path d="M 49.807188 41.73825 
L 295.8557 41.73825 
" style="fill: none; stroke: #ffffff; stroke-width: 1.25; stroke-linejoin: miter; stroke-linecap: square"/>
    </g>
    <g id="text_14">
     <!-- ← Better -->
     <g style="fill: #262626" transform="translate(151.493163 34.848531) scale(0.1 -0.1)">
      <defs>
       <path id="DejaVuSans-2190" d="M 313 1866 
L 313 2147 
L 1541 3375 
L 1916 3000 
L 1188 2272 
L 4997 2272 
L 4997 1741 
L 1188 1741 
L 1916 1013 
L 1541 638 
L 313 1866 
z
" transform="scale(0.015625)"/>
       <path id="DejaVuSans-42" d="M 1259 2228 
L 1259 519 
L 2272 519 
Q 2781 519 3026 730 
Q 3272 941 3272 1375 
Q 3272 1813 3026 2020 
Q 2781 2228 2272 2228 
L 1259 2228 
z
M 1259 4147 
L 1259 2741 
L 2194 2741 
Q 2656 2741 2882 2914 
Q 3109 3088 3109 3444 
Q 3109 3797 2882 3972 
Q 2656 4147 2194 4147 
L 1259 4147 
z
M 628 4666 
L 2241 4666 
Q 2963 4666 3353 4366 
Q 3744 4066 3744 3513 
Q 3744 3084 3544 2831 
Q 3344 2578 2956 2516 
Q 3422 2416 3680 2098 
Q 3938 1781 3938 1306 
Q 3938 681 3513 340 
Q 3088 0 2303 0 
L 628 0 
L 628 4666 
z
" transform="scale(0.015625)"/>
       <path id="DejaVuSans-74" d="M 1172 4494 
L 1172 3500 
L 2356 3500 
L 2356 3053 
L 1172 3053 
L 1172 1153 
Q 1172 725 1289 603 
Q 1406 481 1766 481 
L 2356 481 
L 2356 0 
L 1766 0 
Q 1100 0 847 248 
Q 594 497 594 1153 
L 594 3053 
L 172 3053 
L 172 3500 
L 594 3500 
L 594 4494 
L 1172 4494 
z
" transform="scale(0.015625)"/>
      </defs>
      <use xlink:href="#DejaVuSans-2190"/>
      <use xlink:href="#DejaVuSans-20" transform="translate(83.789062 0)"/>
      <use xlink:href="#DejaVuSans-42" transform="translate(115.576172 0)"/>
      <use xlink:href="#DejaVuSans-65" transform="translate(184.179688 0)"/>
      <use xlink:href="#DejaVuSans-74" transform="translate(245.703125 0)"/>
      <use xlink:href="#DejaVuSans-74" transform="translate(284.912109 0)"/>
      <use xlink:href="#DejaVuSans-65" transform="translate(324.121094 0)"/>
      <use xlink:href="#DejaVuSans-72" transform="translate(385.644531 0)"/>
     </g>
    </g>
    <g id="text_15">
     <!-- Better → -->
     <g style="fill: #262626" transform="translate(317.068714 174.602906) rotate(-90) scale(0.1 -0.1)">
      <defs>
       <path id="DejaVuSans-2192" d="M 5050 2147 
L 5050 1866 
L 3822 638 
L 3447 1013 
L 4175 1741 
L 366 1741 
L 366 2272 
L 4175 2272 
L 3447 3000 
L 3822 3375 
L 5050 2147 
z
" transform="scale(0.015625)"/>
      </defs>
      <use xlink:href="#DejaVuSans-42"/>
      <use xlink:href="#DejaVuSans-65" transform="translate(68.603516 0)"/>
      <use xlink:href="#DejaVuSans-74" transform="translate(130.126953 0)"/>
      <use xlink:href="#DejaVuSans-74" transform="translate(169.335938 0)"/>
      <use xlink:href="#DejaVuSans-65" transform="translate(208.544922 0)"/>
      <use xlink:href="#DejaVuSans-72" transform="translate(270.068359 0)"/>
      <use xlink:href="#DejaVuSans-20" transform="translate(311.181641 0)"/>
      <use xlink:href="#DejaVuSans-2192" transform="translate(342.96875 0)"/>
     </g>
    </g>
   </g>
   <g id="axes_2">
    <g id="patch_8">
     <path d="M 325.151007 282.239832 
L 571.19952 282.239832 
L 571.19952 41.73825 
L 325.151007 41.73825 
z
" style="fill: #f5f6fc"/>
    </g>
    <g id="matplotlib.axis_3">
     <g id="xtick_6">
      <g id="line2d_16">
       <path d="M 340.525298 282.239832 
L 340.525298 41.73825 
" clip-path="url(#p97d3dc8db4)" style="fill: none; stroke: #ffffff; stroke-linecap: round"/>
      </g>
      <g id="text_16">
       <!-- 1000 -->
       <g style="fill: #262626" transform="translate(326.527798 300.098114) scale(0.11 -0.11)">
        <use xlink:href="#DejaVuSans-31"/>
        <use xlink:href="#DejaVuSans-30" transform="translate(63.623047 0)"/>
        <use xlink:href="#DejaVuSans-30" transform="translate(127.246094 0)"/>
        <use xlink:href="#DejaVuSans-30" transform="translate(190.869141 0)"/>
       </g>
      </g>
     </g>
     <g id="xtick_7">
      <g id="line2d_17">
       <path d="M 390.409434 282.239832 
L 390.409434 41.73825 
" clip-path="url(#p97d3dc8db4)" style="fill: none; stroke: #ffffff; stroke-linecap: round"/>
      </g>
      <g id="text_17">
       <!-- 1500 -->
       <g style="fill: #262626" transform="translate(376.411934 300.098114) scale(0.11 -0.11)">
        <use xlink:href="#DejaVuSans-31"/>
        <use xlink:href="#DejaVuSans-35" transform="translate(63.623047 0)"/>
        <use xlink:href="#DejaVuSans-30" transform="translate(127.246094 0)"/>
        <use xlink:href="#DejaVuSans-30" transform="translate(190.869141 0)"/>
       </g>
      </g>
     </g>
     <g id="xtick_8">
      <g id="line2d_18">
       <path d="M 440.29357 282.239832 
L 440.29357 41.73825 
" clip-path="url(#p97d3dc8db4)" style="fill: none; stroke: #ffffff; stroke-linecap: round"/>
      </g>
      <g id="text_18">
       <!-- 2000 -->
       <g style="fill: #262626" transform="translate(426.29607 300.098114) scale(0.11 -0.11)">
        <use xlink:href="#DejaVuSans-32"/>
        <use xlink:href="#DejaVuSans-30" transform="translate(63.623047 0)"/>
        <use xlink:href="#DejaVuSans-30" transform="translate(127.246094 0)"/>
        <use xlink:href="#DejaVuSans-30" transform="translate(190.869141 0)"/>
       </g>
      </g>
     </g>
     <g id="xtick_9">
      <g id="line2d_19">
       <path d="M 490.177706 282.239832 
L 490.177706 41.73825 
" clip-path="url(#p97d3dc8db4)" style="fill: none; stroke: #ffffff; stroke-linecap: round"/>
      </g>
      <g id="text_19">
       <!-- 2500 -->
       <g style="fill: #262626" transform="translate(476.180206 300.098114) scale(0.11 -0.11)">
        <use xlink:href="#DejaVuSans-32"/>
        <use xlink:href="#DejaVuSans-35" transform="translate(63.623047 0)"/>
        <use xlink:href="#DejaVuSans-30" transform="translate(127.246094 0)"/>
        <use xlink:href="#DejaVuSans-30" transform="translate(190.869141 0)"/>
       </g>
      </g>
     </g>
     <g id="xtick_10">
      <g id="line2d_20">
       <path d="M 540.061842 282.239832 
L 540.061842 41.73825 
" clip-path="url(#p97d3dc8db4)" style="fill: none; stroke: #ffffff; stroke-linecap: round"/>
      </g>
      <g id="text_20">
       <!-- 3000 -->
       <g style="fill: #262626" transform="translate(526.064342 300.098114) scale(0.11 -0.11)">
        <use xlink:href="#DejaVuSans-33"/>
        <use xlink:href="#DejaVuSans-30" transform="translate(63.623047 0)"/>
        <use xlink:href="#DejaVuSans-30" transform="translate(127.246094 0)"/>
        <use xlink:href="#DejaVuSans-30" transform="translate(190.869141 0)"/>
       </g>
      </g>
     </g>
     <g id="text_21">
      <!-- Alive Dict Elements -->
      <g style="fill: #262626" transform="translate(389.775576 315.503895) scale(0.12 -0.12)">
       <defs>
        <path id="DejaVuSans-41" d="M 2188 4044 
L 1331 1722 
L 3047 1722 
L 2188 4044 
z
M 1831 4666 
L 2547 4666 
L 4325 0 
L 3669 0 
L 3244 1197 
L 1141 1197 
L 716 0 
L 50 0 
L 1831 4666 
z
" transform="scale(0.015625)"/>
        <path id="DejaVuSans-6c" d="M 603 4863 
L 1178 4863 
L 1178 0 
L 603 0 
L 603 4863 
z
" transform="scale(0.015625)"/>
        <path id="DejaVuSans-69" d="M 603 3500 
L 1178 3500 
L 1178 0 
L 603 0 
L 603 3500 
z
M 603 4863 
L 1178 4863 
L 1178 4134 
L 603 4134 
L 603 4863 
z
" transform="scale(0.015625)"/>
        <path id="DejaVuSans-76" d="M 191 3500 
L 800 3500 
L 1894 563 
L 2988 3500 
L 3597 3500 
L 2284 0 
L 1503 0 
L 191 3500 
z
" transform="scale(0.015625)"/>
        <path id="DejaVuSans-44" d="M 1259 4147 
L 1259 519 
L 2022 519 
Q 2988 519 3436 956 
Q 3884 1394 3884 2338 
Q 3884 3275 3436 3711 
Q 2988 4147 2022 4147 
L 1259 4147 
z
M 628 4666 
L 1925 4666 
Q 3281 4666 3915 4102 
Q 4550 3538 4550 2338 
Q 4550 1131 3912 565 
Q 3275 0 1925 0 
L 628 0 
L 628 4666 
z
" transform="scale(0.015625)"/>
        <path id="DejaVuSans-6d" d="M 3328 2828 
Q 3544 3216 3844 3400 
Q 4144 3584 4550 3584 
Q 5097 3584 5394 3201 
Q 5691 2819 5691 2113 
L 5691 0 
L 5113 0 
L 5113 2094 
Q 5113 2597 4934 2840 
Q 4756 3084 4391 3084 
Q 3944 3084 3684 2787 
Q 3425 2491 3425 1978 
L 3425 0 
L 2847 0 
L 2847 2094 
Q 2847 2600 2669 2842 
Q 2491 3084 2119 3084 
Q 1678 3084 1418 2786 
Q 1159 2488 1159 1978 
L 1159 0 
L 581 0 
L 581 3500 
L 1159 3500 
L 1159 2956 
Q 1356 3278 1631 3431 
Q 1906 3584 2284 3584 
Q 2666 3584 2933 3390 
Q 3200 3197 3328 2828 
z
" transform="scale(0.015625)"/>
       </defs>
       <use xlink:href="#DejaVuSans-41"/>
       <use xlink:href="#DejaVuSans-6c" transform="translate(68.408203 0)"/>
       <use xlink:href="#DejaVuSans-69" transform="translate(96.191406 0)"/>
       <use xlink:href="#DejaVuSans-76" transform="translate(123.974609 0)"/>
       <use xlink:href="#DejaVuSans-65" transform="translate(183.154297 0)"/>
       <use xlink:href="#DejaVuSans-20" transform="translate(244.677734 0)"/>
       <use xlink:href="#DejaVuSans-44" transform="translate(276.464844 0)"/>
       <use xlink:href="#DejaVuSans-69" transform="translate(353.466797 0)"/>
       <use xlink:href="#DejaVuSans-63" transform="translate(381.25 0)"/>
       <use xlink:href="#DejaVuSans-74" transform="translate(436.230469 0)"/>
       <use xlink:href="#DejaVuSans-20" transform="translate(475.439453 0)"/>
       <use xlink:href="#DejaVuSans-45" transform="translate(507.226562 0)"/>
       <use xlink:href="#DejaVuSans-6c" transform="translate(570.410156 0)"/>
       <use xlink:href="#DejaVuSans-65" transform="translate(598.193359 0)"/>
       <use xlink:href="#DejaVuSans-6d" transform="translate(659.716797 0)"/>
       <use xlink:href="#DejaVuSans-65" transform="translate(757.128906 0)"/>
       <use xlink:href="#DejaVuSans-6e" transform="translate(818.652344 0)"/>
       <use xlink:href="#DejaVuSans-74" transform="translate(882.03125 0)"/>
       <use xlink:href="#DejaVuSans-73" transform="translate(921.240234 0)"/>
      </g>
     </g>
    </g>
    <g id="matplotlib.axis_4">
     <g id="ytick_7">
      <g id="line2d_21">
       <path d="M 325.151007 41.73825 
L 571.19952 41.73825 
" clip-path="url(#p97d3dc8db4)" style="fill: none; stroke: #ffffff; stroke-linecap: round"/>
      </g>
      <g id="line2d_22">
       <defs>
        <path id="m2f466c13b6" d="M 0 0 
L 6 0 
" style="stroke: #ffffff; stroke-width: 1.25"/>
       </defs>
       <g>
        <use xlink:href="#m2f466c13b6" x="571.19952" y="41.73825" style="fill: #ffffff; stroke: #ffffff; stroke-width: 1.25"/>
       </g>
      </g>
     </g>
     <g id="ytick_8">
      <g id="line2d_23">
       <path d="M 325.151007 89.838566 
L 571.19952 89.838566 
" clip-path="url(#p97d3dc8db4)" style="fill: none; stroke: #ffffff; stroke-linecap: round"/>
      </g>
      <g id="line2d_24">
       <g>
        <use xlink:href="#m2f466c13b6" x="571.19952" y="89.838566" style="fill: #ffffff; stroke: #ffffff; stroke-width: 1.25"/>
       </g>
      </g>
     </g>
     <g id="ytick_9">
      <g id="line2d_25">
       <path d="M 325.151007 137.938883 
L 571.19952 137.938883 
" clip-path="url(#p97d3dc8db4)" style="fill: none; stroke: #ffffff; stroke-linecap: round"/>
      </g>
      <g id="line2d_26">
       <g>
        <use xlink:href="#m2f466c13b6" x="571.19952" y="137.938883" style="fill: #ffffff; stroke: #ffffff; stroke-width: 1.25"/>
       </g>
      </g>
     </g>
     <g id="ytick_10">
      <g id="line2d_27">
       <path d="M 325.151007 186.039199 
L 571.19952 186.039199 
" clip-path="url(#p97d3dc8db4)" style="fill: none; stroke: #ffffff; stroke-linecap: round"/>
      </g>
      <g id="line2d_28">
       <g>
        <use xlink:href="#m2f466c13b6" x="571.19952" y="186.039199" style="fill: #ffffff; stroke: #ffffff; stroke-width: 1.25"/>
       </g>
      </g>
     </g>
     <g id="ytick_11">
      <g id="line2d_29">
       <path d="M 325.151007 234.139516 
L 571.19952 234.139516 
" clip-path="url(#p97d3dc8db4)" style="fill: none; stroke: #ffffff; stroke-linecap: round"/>
      </g>
      <g id="line2d_30">
       <g>
        <use xlink:href="#m2f466c13b6" x="571.19952" y="234.139516" style="fill: #ffffff; stroke: #ffffff; stroke-width: 1.25"/>
       </g>
      </g>
     </g>
     <g id="ytick_12">
      <g id="line2d_31">
       <path d="M 325.151007 282.239832 
L 571.19952 282.239832 
" clip-path="url(#p97d3dc8db4)" style="fill: none; stroke: #ffffff; stroke-linecap: round"/>
      </g>
      <g id="line2d_32">
       <g>
        <use xlink:href="#m2f466c13b6" x="571.19952" y="282.239832" style="fill: #ffffff; stroke: #ffffff; stroke-width: 1.25"/>
       </g>
      </g>
     </g>
    </g>
    <g id="line2d_33">
     <path d="M 449.57202 43.258094 
L 442.688009 48.526603 
L 441.590558 52.110693 
L 438.697278 62.116236 
L 437.699595 77.823637 
L 432.611413 90.715676 
L 431.713499 112.143296 
" clip-path="url(#p97d3dc8db4)" style="fill: none; stroke: #1f77b4; stroke-width: 1.1; stroke-linecap: round"/>
     <g clip-path="url(#p97d3dc8db4)">
      <use xlink:href="#m6021ed964a" x="449.57202" y="43.258094" style="fill: #1f77b4; stroke: #1f77b4"/>
      <use xlink:href="#m6021ed964a" x="442.688009" y="48.526603" style="fill: #1f77b4; stroke: #1f77b4"/>
      <use xlink:href="#m6021ed964a" x="441.590558" y="52.110693" style="fill: #1f77b4; stroke: #1f77b4"/>
      <use xlink:href="#m6021ed964a" x="438.697278" y="62.116236" style="fill: #1f77b4; stroke: #1f77b4"/>
      <use xlink:href="#m6021ed964a" x="437.699595" y="77.823637" style="fill: #1f77b4; stroke: #1f77b4"/>
      <use xlink:href="#m6021ed964a" x="432.611413" y="90.715676" style="fill: #1f77b4; stroke: #1f77b4"/>
      <use xlink:href="#m6021ed964a" x="431.713499" y="112.143296" style="fill: #1f77b4; stroke: #1f77b4"/>
     </g>
    </g>
    <g id="line2d_34">
     <path d="M 409.066101 42.324104 
L 409.066101 42.324104 
L 420.439684 44.427218 
L 420.439684 44.427218 
L 419.042928 46.750692 
L 419.042928 46.750692 
L 417.047563 51.693427 
L 417.047563 51.693427 
L 420.040611 61.069327 
L 420.040611 61.069327 
L 420.838757 68.721104 
L 420.838757 68.721104 
L 417.147331 83.040734 
L 417.147331 83.040734 
" clip-path="url(#p97d3dc8db4)" style="fill: none; stroke: #518c31; stroke-width: 1.1; stroke-linecap: round"/>
     <g clip-path="url(#p97d3dc8db4)">
      <use xlink:href="#ma55a6c60fa" x="409.066101" y="42.324104" style="fill: #518c31; stroke: #518c31"/>
      <use xlink:href="#ma55a6c60fa" x="409.066101" y="42.324104" style="fill: #518c31; stroke: #518c31"/>
      <use xlink:href="#ma55a6c60fa" x="420.439684" y="44.427218" style="fill: #518c31; stroke: #518c31"/>
      <use xlink:href="#ma55a6c60fa" x="420.439684" y="44.427218" style="fill: #518c31; stroke: #518c31"/>
      <use xlink:href="#ma55a6c60fa" x="419.042928" y="46.750692" style="fill: #518c31; stroke: #518c31"/>
      <use xlink:href="#ma55a6c60fa" x="419.042928" y="46.750692" style="fill: #518c31; stroke: #518c31"/>
      <use xlink:href="#ma55a6c60fa" x="417.047563" y="51.693427" style="fill: #518c31; stroke: #518c31"/>
      <use xlink:href="#ma55a6c60fa" x="417.047563" y="51.693427" style="fill: #518c31; stroke: #518c31"/>
      <use xlink:href="#ma55a6c60fa" x="420.040611" y="61.069327" style="fill: #518c31; stroke: #518c31"/>
      <use xlink:href="#ma55a6c60fa" x="420.040611" y="61.069327" style="fill: #518c31; stroke: #518c31"/>
      <use xlink:href="#ma55a6c60fa" x="420.838757" y="68.721104" style="fill: #518c31; stroke: #518c31"/>
      <use xlink:href="#ma55a6c60fa" x="420.838757" y="68.721104" style="fill: #518c31; stroke: #518c31"/>
      <use xlink:href="#ma55a6c60fa" x="417.147331" y="83.040734" style="fill: #518c31; stroke: #518c31"/>
      <use xlink:href="#ma55a6c60fa" x="417.147331" y="83.040734" style="fill: #518c31; stroke: #518c31"/>
     </g>
    </g>
    <g id="line2d_35">
     <path d="M 560.015497 41.633088 
L 560.015497 41.639506 
L 560.015497 41.698974 
L 560.015497 41.70108 
L 560.015497 41.72508 
L 560.015497 41.738708 
L 560.015497 41.766837 
L 560.015497 41.778897 
L 560.015497 41.783746 
L 560.015497 41.800966 
L 560.015497 41.818007 
L 560.015497 41.818154 
L 560.015497 41.823434 
L 560.015497 41.869164 
L 560.015497 48.017352 
L 560.015497 51.06209 
L 560.015497 53.966258 
L 560.015497 57.15802 
L 560.015497 62.028768 
L 560.015497 66.69445 
L 560.015497 72.984653 
L 560.015497 80.105667 
L 560.015497 84.062103 
L 560.015497 86.052577 
L 560.015497 93.358263 
L 560.015497 94.424187 
L 560.015497 95.448822 
L 560.015497 100.978989 
L 560.015497 103.939323 
L 560.015497 111.437919 
L 560.015497 113.191346 
L 560.015497 115.89869 
L 560.015497 154.710204 
L 560.015497 157.225515 
L 560.015497 157.283511 
L 560.015497 214.979165 
L 560.015497 326.19952 
" clip-path="url(#p97d3dc8db4)" style="fill: none; stroke: #2ca02c; stroke-width: 1.1; stroke-linecap: round"/>
     <g clip-path="url(#p97d3dc8db4)">
      <use xlink:href="#m22e4909b25" x="560.015497" y="41.633088" style="fill: #2ca02c; stroke: #2ca02c"/>
      <use xlink:href="#m22e4909b25" x="560.015497" y="41.639506" style="fill: #2ca02c; stroke: #2ca02c"/>
      <use xlink:href="#m22e4909b25" x="560.015497" y="41.698974" style="fill: #2ca02c; stroke: #2ca02c"/>
      <use xlink:href="#m22e4909b25" x="560.015497" y="41.70108" style="fill: #2ca02c; stroke: #2ca02c"/>
      <use xlink:href="#m22e4909b25" x="560.015497" y="41.72508" style="fill: #2ca02c; stroke: #2ca02c"/>
      <use xlink:href="#m22e4909b25" x="560.015497" y="41.738708" style="fill: #2ca02c; stroke: #2ca02c"/>
      <use xlink:href="#m22e4909b25" x="560.015497" y="41.766837" style="fill: #2ca02c; stroke: #2ca02c"/>
      <use xlink:href="#m22e4909b25" x="560.015497" y="41.778897" style="fill: #2ca02c; stroke: #2ca02c"/>
      <use xlink:href="#m22e4909b25" x="560.015497" y="41.783746" style="fill: #2ca02c; stroke: #2ca02c"/>
      <use xlink:href="#m22e4909b25" x="560.015497" y="41.800966" style="fill: #2ca02c; stroke: #2ca02c"/>
      <use xlink:href="#m22e4909b25" x="560.015497" y="41.818007" style="fill: #2ca02c; stroke: #2ca02c"/>
      <use xlink:href="#m22e4909b25" x="560.015497" y="41.818154" style="fill: #2ca02c; stroke: #2ca02c"/>
      <use xlink:href="#m22e4909b25" x="560.015497" y="41.823434" style="fill: #2ca02c; stroke: #2ca02c"/>
      <use xlink:href="#m22e4909b25" x="560.015497" y="41.869164" style="fill: #2ca02c; stroke: #2ca02c"/>
      <use xlink:href="#m22e4909b25" x="560.015497" y="48.017352" style="fill: #2ca02c; stroke: #2ca02c"/>
      <use xlink:href="#m22e4909b25" x="560.015497" y="51.06209" style="fill: #2ca02c; stroke: #2ca02c"/>
      <use xlink:href="#m22e4909b25" x="560.015497" y="53.966258" style="fill: #2ca02c; stroke: #2ca02c"/>
      <use xlink:href="#m22e4909b25" x="560.015497" y="57.15802" style="fill: #2ca02c; stroke: #2ca02c"/>
      <use xlink:href="#m22e4909b25" x="560.015497" y="62.028768" style="fill: #2ca02c; stroke: #2ca02c"/>
      <use xlink:href="#m22e4909b25" x="560.015497" y="66.69445" style="fill: #2ca02c; stroke: #2ca02c"/>
      <use xlink:href="#m22e4909b25" x="560.015497" y="72.984653" style="fill: #2ca02c; stroke: #2ca02c"/>
      <use xlink:href="#m22e4909b25" x="560.015497" y="80.105667" style="fill: #2ca02c; stroke: #2ca02c"/>
      <use xlink:href="#m22e4909b25" x="560.015497" y="84.062103" style="fill: #2ca02c; stroke: #2ca02c"/>
      <use xlink:href="#m22e4909b25" x="560.015497" y="86.052577" style="fill: #2ca02c; stroke: #2ca02c"/>
      <use xlink:href="#m22e4909b25" x="560.015497" y="93.358263" style="fill: #2ca02c; stroke: #2ca02c"/>
      <use xlink:href="#m22e4909b25" x="560.015497" y="94.424187" style="fill: #2ca02c; stroke: #2ca02c"/>
      <use xlink:href="#m22e4909b25" x="560.015497" y="95.448822" style="fill: #2ca02c; stroke: #2ca02c"/>
      <use xlink:href="#m22e4909b25" x="560.015497" y="100.978989" style="fill: #2ca02c; stroke: #2ca02c"/>
      <use xlink:href="#m22e4909b25" x="560.015497" y="103.939323" style="fill: #2ca02c; stroke: #2ca02c"/>
      <use xlink:href="#m22e4909b25" x="560.015497" y="111.437919" style="fill: #2ca02c; stroke: #2ca02c"/>
      <use xlink:href="#m22e4909b25" x="560.015497" y="113.191346" style="fill: #2ca02c; stroke: #2ca02c"/>
      <use xlink:href="#m22e4909b25" x="560.015497" y="115.89869" style="fill: #2ca02c; stroke: #2ca02c"/>
      <use xlink:href="#m22e4909b25" x="560.015497" y="154.710204" style="fill: #2ca02c; stroke: #2ca02c"/>
      <use xlink:href="#m22e4909b25" x="560.015497" y="157.225515" style="fill: #2ca02c; stroke: #2ca02c"/>
      <use xlink:href="#m22e4909b25" x="560.015497" y="157.283511" style="fill: #2ca02c; stroke: #2ca02c"/>
      <use xlink:href="#m22e4909b25" x="560.015497" y="214.979165" style="fill: #2ca02c; stroke: #2ca02c"/>
      <use xlink:href="#m22e4909b25" x="560.015497" y="365.502785" style="fill: #2ca02c; stroke: #2ca02c"/>
      <use xlink:href="#m22e4909b25" x="560.015497" y="449.461374" style="fill: #2ca02c; stroke: #2ca02c"/>
      <use xlink:href="#m22e4909b25" x="560.015497" y="521.254661" style="fill: #2ca02c; stroke: #2ca02c"/>
      <use xlink:href="#m22e4909b25" x="560.015497" y="651.27166" style="fill: #2ca02c; stroke: #2ca02c"/>
      <use xlink:href="#m22e4909b25" x="560.015497" y="697.351653" style="fill: #2ca02c; stroke: #2ca02c"/>
      <use xlink:href="#m22e4909b25" x="560.015497" y="774.37204" style="fill: #2ca02c; stroke: #2ca02c"/>
      <use xlink:href="#m22e4909b25" x="560.015497" y="867.802915" style="fill: #2ca02c; stroke: #2ca02c"/>
     </g>
    </g>
    <g id="line2d_36">
     <path d="M 457.154408 45.314805 
L 457.154408 45.314805 
L 448.474569 105.065945 
L 448.474569 105.065945 
L 434.50701 151.704576 
L 434.50701 151.704576 
L 427.223927 177.820568 
L 427.223927 177.820568 
L 392.903641 300.52022 
L 392.903641 300.52022 
L 388.540735 326.19952 
" clip-path="url(#p97d3dc8db4)" style="fill: none; stroke: #f0a70a; stroke-width: 1.1; stroke-linecap: round"/>
     <g clip-path="url(#p97d3dc8db4)">
      <use xlink:href="#mf49748ab90" x="457.154408" y="45.314805" style="fill: #f0a70a; stroke: #f0a70a; stroke-linejoin: miter"/>
      <use xlink:href="#mf49748ab90" x="457.154408" y="45.314805" style="fill: #f0a70a; stroke: #f0a70a; stroke-linejoin: miter"/>
      <use xlink:href="#mf49748ab90" x="448.474569" y="105.065945" style="fill: #f0a70a; stroke: #f0a70a; stroke-linejoin: miter"/>
      <use xlink:href="#mf49748ab90" x="448.474569" y="105.065945" style="fill: #f0a70a; stroke: #f0a70a; stroke-linejoin: miter"/>
      <use xlink:href="#mf49748ab90" x="434.50701" y="151.704576" style="fill: #f0a70a; stroke: #f0a70a; stroke-linejoin: miter"/>
      <use xlink:href="#mf49748ab90" x="434.50701" y="151.704576" style="fill: #f0a70a; stroke: #f0a70a; stroke-linejoin: miter"/>
      <use xlink:href="#mf49748ab90" x="427.223927" y="177.820568" style="fill: #f0a70a; stroke: #f0a70a; stroke-linejoin: miter"/>
      <use xlink:href="#mf49748ab90" x="427.223927" y="177.820568" style="fill: #f0a70a; stroke: #f0a70a; stroke-linejoin: miter"/>
      <use xlink:href="#mf49748ab90" x="392.903641" y="300.52022" style="fill: #f0a70a; stroke: #f0a70a; stroke-linejoin: miter"/>
      <use xlink:href="#mf49748ab90" x="392.903641" y="300.52022" style="fill: #f0a70a; stroke: #f0a70a; stroke-linejoin: miter"/>
      <use xlink:href="#mf49748ab90" x="336.335031" y="633.473158" style="fill: #f0a70a; stroke: #f0a70a; stroke-linejoin: miter"/>
      <use xlink:href="#mf49748ab90" x="336.335031" y="633.473158" style="fill: #f0a70a; stroke: #f0a70a; stroke-linejoin: miter"/>
     </g>
    </g>
    <g id="patch_9">
     <path d="M 325.151007 282.239832 
L 325.151007 41.73825 
" style="fill: none; stroke: #ffffff; stroke-width: 1.25; stroke-linejoin: miter; stroke-linecap: square"/>
    </g>
    <g id="patch_10">
     <path d="M 571.19952 282.239832 
L 571.19952 41.73825 
" style="fill: none; stroke: #ffffff; stroke-width: 1.25; stroke-linejoin: miter; stroke-linecap: square"/>
    </g>
    <g id="patch_11">
     <path d="M 325.151007 282.239832 
L 571.19952 282.239832 
" style="fill: none; stroke: #ffffff; stroke-width: 1.25; stroke-linejoin: miter; stroke-linecap: square"/>
    </g>
    <g id="patch_12">
     <path d="M 325.151007 41.73825 
L 571.19952 41.73825 
" style="fill: none; stroke: #ffffff; stroke-width: 1.25; stroke-linejoin: miter; stroke-linecap: square"/>
    </g>
    <g id="text_22">
     <!-- ← Better -->
     <g style="fill: #262626" transform="translate(426.836982 34.848531) scale(0.1 -0.1)">
      <use xlink:href="#DejaVuSans-2190"/>
      <use xlink:href="#DejaVuSans-20" transform="translate(83.789062 0)"/>
      <use xlink:href="#DejaVuSans-42" transform="translate(115.576172 0)"/>
      <use xlink:href="#DejaVuSans-65" transform="translate(184.179688 0)"/>
      <use xlink:href="#DejaVuSans-74" transform="translate(245.703125 0)"/>
      <use xlink:href="#DejaVuSans-74" transform="translate(284.912109 0)"/>
      <use xlink:href="#DejaVuSans-65" transform="translate(324.121094 0)"/>
      <use xlink:href="#DejaVuSans-72" transform="translate(385.644531 0)"/>
     </g>
    </g>
   </g>
   <g id="text_23">
    <!-- layer=4 -->
    <g style="fill: #262626" transform="translate(268.41501 18.14175) scale(0.144 -0.144)">
     <defs>
      <path id="DejaVuSans-Bold-6c" d="M 538 4863 
L 1656 4863 
L 1656 0 
L 538 0 
L 538 4863 
z
" transform="scale(0.015625)"/>
      <path id="DejaVuSans-Bold-61" d="M 2106 1575 
Q 1756 1575 1579 1456 
Q 1403 1338 1403 1106 
Q 1403 894 1545 773 
Q 1688 653 1941 653 
Q 2256 653 2472 879 
Q 2688 1106 2688 1447 
L 2688 1575 
L 2106 1575 
z
M 3816 1997 
L 3816 0 
L 2688 0 
L 2688 519 
Q 2463 200 2181 54 
Q 1900 -91 1497 -91 
Q 953 -91 614 226 
Q 275 544 275 1050 
Q 275 1666 698 1953 
Q 1122 2241 2028 2241 
L 2688 2241 
L 2688 2328 
Q 2688 2594 2478 2717 
Q 2269 2841 1825 2841 
Q 1466 2841 1156 2769 
Q 847 2697 581 2553 
L 581 3406 
Q 941 3494 1303 3539 
Q 1666 3584 2028 3584 
Q 2975 3584 3395 3211 
Q 3816 2838 3816 1997 
z
" transform="scale(0.015625)"/>
      <path id="DejaVuSans-Bold-79" d="M 78 3500 
L 1197 3500 
L 2138 1125 
L 2938 3500 
L 4056 3500 
L 2584 -331 
Q 2363 -916 2067 -1148 
Q 1772 -1381 1288 -1381 
L 641 -1381 
L 641 -647 
L 991 -647 
Q 1275 -647 1404 -556 
Q 1534 -466 1606 -231 
L 1638 -134 
L 78 3500 
z
" transform="scale(0.015625)"/>
      <path id="DejaVuSans-Bold-65" d="M 4031 1759 
L 4031 1441 
L 1416 1441 
Q 1456 1047 1700 850 
Q 1944 653 2381 653 
Q 2734 653 3104 758 
Q 3475 863 3866 1075 
L 3866 213 
Q 3469 63 3072 -14 
Q 2675 -91 2278 -91 
Q 1328 -91 801 392 
Q 275 875 275 1747 
Q 275 2603 792 3093 
Q 1309 3584 2216 3584 
Q 3041 3584 3536 3087 
Q 4031 2591 4031 1759 
z
M 2881 2131 
Q 2881 2450 2695 2645 
Q 2509 2841 2209 2841 
Q 1884 2841 1681 2658 
Q 1478 2475 1428 2131 
L 2881 2131 
z
" transform="scale(0.015625)"/>
      <path id="DejaVuSans-Bold-72" d="M 3138 2547 
Q 2991 2616 2845 2648 
Q 2700 2681 2553 2681 
Q 2122 2681 1889 2404 
Q 1656 2128 1656 1613 
L 1656 0 
L 538 0 
L 538 3500 
L 1656 3500 
L 1656 2925 
Q 1872 3269 2151 3426 
Q 2431 3584 2822 3584 
Q 2878 3584 2943 3579 
Q 3009 3575 3134 3559 
L 3138 2547 
z
" transform="scale(0.015625)"/>
      <path id="DejaVuSans-Bold-3d" d="M 678 3084 
L 4684 3084 
L 4684 2350 
L 678 2350 
L 678 3084 
z
M 678 1663 
L 4684 1663 
L 4684 922 
L 678 922 
L 678 1663 
z
" transform="scale(0.015625)"/>
      <path id="DejaVuSans-Bold-34" d="M 2356 3675 
L 1038 1722 
L 2356 1722 
L 2356 3675 
z
M 2156 4666 
L 3494 4666 
L 3494 1722 
L 4159 1722 
L 4159 850 
L 3494 850 
L 3494 0 
L 2356 0 
L 2356 850 
L 288 850 
L 288 1881 
L 2156 4666 
z
" transform="scale(0.015625)"/>
     </defs>
     <use xlink:href="#DejaVuSans-Bold-6c"/>
     <use xlink:href="#DejaVuSans-Bold-61" transform="translate(34.277344 0)"/>
     <use xlink:href="#DejaVuSans-Bold-79" transform="translate(98.632812 0)"/>
     <use xlink:href="#DejaVuSans-Bold-65" transform="translate(163.818359 0)"/>
     <use xlink:href="#DejaVuSans-Bold-72" transform="translate(231.640625 0)"/>
     <use xlink:href="#DejaVuSans-Bold-3d" transform="translate(280.957031 0)"/>
     <use xlink:href="#DejaVuSans-Bold-34" transform="translate(364.746094 0)"/>
    </g>
   </g>
  </g>
  <g id="legend_1">
   <g id="patch_13">
    <path d="M 431.151479 94.69726 
L 572.49976 94.69726 
Q 574.69976 94.69726 574.69976 92.49726 
L 574.69976 11.89976 
Q 574.69976 9.69976 572.49976 9.69976 
L 431.151479 9.69976 
Q 428.951479 9.69976 428.951479 11.89976 
L 428.951479 92.49726 
Q 428.951479 94.69726 431.151479 94.69726 
z
" style="fill: #f5f6fc; opacity: 0.8; stroke: #cccccc; stroke-linejoin: miter"/>
   </g>
   <g id="text_24">
    <!-- SAE Type -->
    <g style="fill: #262626" transform="translate(474.322182 23.217885) scale(0.12 -0.12)">
     <defs>
      <path id="DejaVuSans-53" d="M 3425 4513 
L 3425 3897 
Q 3066 4069 2747 4153 
Q 2428 4238 2131 4238 
Q 1616 4238 1336 4038 
Q 1056 3838 1056 3469 
Q 1056 3159 1242 3001 
Q 1428 2844 1947 2747 
L 2328 2669 
Q 3034 2534 3370 2195 
Q 3706 1856 3706 1288 
Q 3706 609 3251 259 
Q 2797 -91 1919 -91 
Q 1588 -91 1214 -16 
Q 841 59 441 206 
L 441 856 
Q 825 641 1194 531 
Q 1563 422 1919 422 
Q 2459 422 2753 634 
Q 3047 847 3047 1241 
Q 3047 1584 2836 1778 
Q 2625 1972 2144 2069 
L 1759 2144 
Q 1053 2284 737 2584 
Q 422 2884 422 3419 
Q 422 4038 858 4394 
Q 1294 4750 2059 4750 
Q 2388 4750 2728 4690 
Q 3069 4631 3425 4513 
z
" transform="scale(0.015625)"/>
      <path id="DejaVuSans-54" d="M -19 4666 
L 3928 4666 
L 3928 4134 
L 2272 4134 
L 2272 0 
L 1638 0 
L 1638 4134 
L -19 4134 
L -19 4666 
z
" transform="scale(0.015625)"/>
      <path id="DejaVuSans-79" d="M 2059 -325 
Q 1816 -950 1584 -1140 
Q 1353 -1331 966 -1331 
L 506 -1331 
L 506 -850 
L 844 -850 
Q 1081 -850 1212 -737 
Q 1344 -625 1503 -206 
L 1606 56 
L 191 3500 
L 800 3500 
L 1894 763 
L 2988 3500 
L 3597 3500 
L 2059 -325 
z
" transform="scale(0.015625)"/>
      <path id="DejaVuSans-70" d="M 1159 525 
L 1159 -1331 
L 581 -1331 
L 581 3500 
L 1159 3500 
L 1159 2969 
Q 1341 3281 1617 3432 
Q 1894 3584 2278 3584 
Q 2916 3584 3314 3078 
Q 3713 2572 3713 1747 
Q 3713 922 3314 415 
Q 2916 -91 2278 -91 
Q 1894 -91 1617 61 
Q 1341 213 1159 525 
z
M 3116 1747 
Q 3116 2381 2855 2742 
Q 2594 3103 2138 3103 
Q 1681 3103 1420 2742 
Q 1159 2381 1159 1747 
Q 1159 1113 1420 752 
Q 1681 391 2138 391 
Q 2594 391 2855 752 
Q 3116 1113 3116 1747 
z
" transform="scale(0.015625)"/>
     </defs>
     <use xlink:href="#DejaVuSans-53"/>
     <use xlink:href="#DejaVuSans-41" transform="translate(65.351562 0)"/>
     <use xlink:href="#DejaVuSans-45" transform="translate(133.759766 0)"/>
     <use xlink:href="#DejaVuSans-20" transform="translate(196.943359 0)"/>
     <use xlink:href="#DejaVuSans-54" transform="translate(228.730469 0)"/>
     <use xlink:href="#DejaVuSans-79" transform="translate(274.189453 0)"/>
     <use xlink:href="#DejaVuSans-70" transform="translate(333.369141 0)"/>
     <use xlink:href="#DejaVuSans-65" transform="translate(396.845703 0)"/>
    </g>
   </g>
   <g id="line2d_37">
    <path d="M 433.351479 35.721791 
L 444.351479 35.721791 
L 455.351479 35.721791 
" style="fill: none; stroke: #1f77b4; stroke-width: 1.1; stroke-linecap: round"/>
    <g>
     <use xlink:href="#m6021ed964a" x="444.351479" y="35.721791" style="fill: #1f77b4; stroke: #1f77b4"/>
    </g>
   </g>
   <g id="text_25">
    <!-- ds -->
    <g style="fill: #262626" transform="translate(464.151479 39.571791) scale(0.11 -0.11)">
     <defs>
      <path id="DejaVuSans-64" d="M 2906 2969 
L 2906 4863 
L 3481 4863 
L 3481 0 
L 2906 0 
L 2906 525 
Q 2725 213 2448 61 
Q 2172 -91 1784 -91 
Q 1150 -91 751 415 
Q 353 922 353 1747 
Q 353 2572 751 3078 
Q 1150 3584 1784 3584 
Q 2172 3584 2448 3432 
Q 2725 3281 2906 2969 
z
M 947 1747 
Q 947 1113 1208 752 
Q 1469 391 1925 391 
Q 2381 391 2643 752 
Q 2906 1113 2906 1747 
Q 2906 2381 2643 2742 
Q 2381 3103 1925 3103 
Q 1469 3103 1208 2742 
Q 947 2381 947 1747 
z
" transform="scale(0.015625)"/>
     </defs>
     <use xlink:href="#DejaVuSans-64"/>
     <use xlink:href="#DejaVuSans-73" transform="translate(63.476562 0)"/>
    </g>
   </g>
   <g id="line2d_38">
    <path d="M 433.351479 51.867729 
L 444.351479 51.867729 
L 455.351479 51.867729 
" style="fill: none; stroke: #518c31; stroke-width: 1.1; stroke-linecap: round"/>
    <g>
     <use xlink:href="#ma55a6c60fa" x="444.351479" y="51.867729" style="fill: #518c31; stroke: #518c31"/>
    </g>
   </g>
   <g id="text_26">
    <!-- e2e -->
    <g style="fill: #262626" transform="translate(464.151479 55.717729) scale(0.11 -0.11)">
     <use xlink:href="#DejaVuSans-65"/>
     <use xlink:href="#DejaVuSans-32" transform="translate(61.523438 0)"/>
     <use xlink:href="#DejaVuSans-65" transform="translate(125.146484 0)"/>
    </g>
   </g>
   <g id="line2d_39">
    <path d="M 433.351479 68.013666 
L 444.351479 68.013666 
L 455.351479 68.013666 
" style="fill: none; stroke: #2ca02c; stroke-width: 1.1; stroke-linecap: round"/>
    <g>
     <use xlink:href="#m22e4909b25" x="444.351479" y="68.013666" style="fill: #2ca02c; stroke: #2ca02c"/>
    </g>
   </g>
   <g id="text_27">
    <!-- e2e (bayesian) e2e -->
    <g style="fill: #262626" transform="translate(464.151479 71.863666) scale(0.11 -0.11)">
     <defs>
      <path id="DejaVuSans-28" d="M 1984 4856 
Q 1566 4138 1362 3434 
Q 1159 2731 1159 2009 
Q 1159 1288 1364 580 
Q 1569 -128 1984 -844 
L 1484 -844 
Q 1016 -109 783 600 
Q 550 1309 550 2009 
Q 550 2706 781 3412 
Q 1013 4119 1484 4856 
L 1984 4856 
z
" transform="scale(0.015625)"/>
      <path id="DejaVuSans-62" d="M 3116 1747 
Q 3116 2381 2855 2742 
Q 2594 3103 2138 3103 
Q 1681 3103 1420 2742 
Q 1159 2381 1159 1747 
Q 1159 1113 1420 752 
Q 1681 391 2138 391 
Q 2594 391 2855 752 
Q 3116 1113 3116 1747 
z
M 1159 2969 
Q 1341 3281 1617 3432 
Q 1894 3584 2278 3584 
Q 2916 3584 3314 3078 
Q 3713 2572 3713 1747 
Q 3713 922 3314 415 
Q 2916 -91 2278 -91 
Q 1894 -91 1617 61 
Q 1341 213 1159 525 
L 1159 0 
L 581 0 
L 581 4863 
L 1159 4863 
L 1159 2969 
z
" transform="scale(0.015625)"/>
      <path id="DejaVuSans-29" d="M 513 4856 
L 1013 4856 
Q 1481 4119 1714 3412 
Q 1947 2706 1947 2009 
Q 1947 1309 1714 600 
Q 1481 -109 1013 -844 
L 513 -844 
Q 928 -128 1133 580 
Q 1338 1288 1338 2009 
Q 1338 2731 1133 3434 
Q 928 4138 513 4856 
z
" transform="scale(0.015625)"/>
     </defs>
     <use xlink:href="#DejaVuSans-65"/>
     <use xlink:href="#DejaVuSans-32" transform="translate(61.523438 0)"/>
     <use xlink:href="#DejaVuSans-65" transform="translate(125.146484 0)"/>
     <use xlink:href="#DejaVuSans-20" transform="translate(186.669922 0)"/>
     <use xlink:href="#DejaVuSans-28" transform="translate(218.457031 0)"/>
     <use xlink:href="#DejaVuSans-62" transform="translate(257.470703 0)"/>
     <use xlink:href="#DejaVuSans-61" transform="translate(320.947266 0)"/>
     <use xlink:href="#DejaVuSans-79" transform="translate(382.226562 0)"/>
     <use xlink:href="#DejaVuSans-65" transform="translate(441.40625 0)"/>
     <use xlink:href="#DejaVuSans-73" transform="translate(502.929688 0)"/>
     <use xlink:href="#DejaVuSans-69" transform="translate(555.029297 0)"/>
     <use xlink:href="#DejaVuSans-61" transform="translate(582.8125 0)"/>
     <use xlink:href="#DejaVuSans-6e" transform="translate(644.091797 0)"/>
     <use xlink:href="#DejaVuSans-29" transform="translate(707.470703 0)"/>
     <use xlink:href="#DejaVuSans-20" transform="translate(746.484375 0)"/>
     <use xlink:href="#DejaVuSans-65" transform="translate(778.271484 0)"/>
     <use xlink:href="#DejaVuSans-32" transform="translate(839.794922 0)"/>
     <use xlink:href="#DejaVuSans-65" transform="translate(903.417969 0)"/>
    </g>
   </g>
   <g id="line2d_40">
    <path d="M 433.351479 84.159604 
L 444.351479 84.159604 
L 455.351479 84.159604 
" style="fill: none; stroke: #f0a70a; stroke-width: 1.1; stroke-linecap: round"/>
    <g>
     <use xlink:href="#mf49748ab90" x="444.351479" y="84.159604" style="fill: #f0a70a; stroke: #f0a70a; stroke-linejoin: miter"/>
    </g>
   </g>
   <g id="text_28">
    <!-- local -->
    <g style="fill: #262626" transform="translate(464.151479 88.009604) scale(0.11 -0.11)">
     <use xlink:href="#DejaVuSans-6c"/>
     <use xlink:href="#DejaVuSans-6f" transform="translate(27.783203 0)"/>
     <use xlink:href="#DejaVuSans-63" transform="translate(88.964844 0)"/>
     <use xlink:href="#DejaVuSans-61" transform="translate(143.945312 0)"/>
     <use xlink:href="#DejaVuSans-6c" transform="translate(205.224609 0)"/>
    </g>
   </g>
  </g>
 </g>
 <defs>
  <clipPath id="p224c845316">
   <rect x="49.807188" y="41.73825" width="246.048513" height="240.501583"/>
  </clipPath>
  <clipPath id="p97d3dc8db4">
   <rect x="325.151007" y="41.73825" width="246.048513" height="240.501583"/>
  </clipPath>
 </defs>
</svg>
